<mxfile host="65bd71144e" modified="2021-01-13T04:29:33.759Z" agent="5.0 (Windows NT 10.0; Win64; x64) AppleWebKit/537.36 (KHTML, like Gecko) Code/1.52.1 Chrome/83.0.4103.122 Electron/9.3.5 Safari/537.36" etag="TFWnsZoP01DZH3vH2wGR" version="13.10.0" type="embed">
    <diagram id="K3L1f5E5M13yAeBZQKNV" name="Page-1">
        <mxGraphModel dx="1199" dy="659" grid="1" gridSize="10" guides="1" tooltips="1" connect="1" arrows="1" fold="1" page="1" pageScale="1" pageWidth="850" pageHeight="1100" math="0" shadow="0">
            <root>
                <mxCell id="0"/>
                <mxCell id="1" parent="0"/>
                <mxCell id="ucnz5OOYnX01RJTa8PLw-3" value="" style="shape=image;verticalLabelPosition=bottom;labelBackgroundColor=#ffffff;verticalAlign=top;aspect=fixed;imageAspect=0;image=data:image/png,iVBORw0KGgoAAAANSUhEUgAAAbMAAAC/CAYAAAB0WDJIAAAgAElEQVR4AeydB9gtZ1X9/89j771rcuklgYSEJPQiNUDoXXoAaaGDqIBIaIIgEGoghA4BEnovUgUBIVRFCVIUQZQqIkXn/6z3zm/uOuvb78x833cB+f/veZ65a++1197vO3POffeZOXPO939+9md/djiwHTgGB14DB14DB14DB14DP8ivgf/zgzz5A3M/8J/vwGvgwGvgwGvgwGtAr4EDzezAmemBM/MDr4EDr4EDr4Ef+NfARjP7n//5n8G3IR6K6ZEYsg0XbZXnMZKSSx/dTlH1vKbbXrPHS5M1yPMct4lXiA6sNOKIC9lc63Hn00YHn7WIg6mDT0SX6DrZ+OjwQfjEjMt3DhskHx18IrpE11EjNfI9Rg48engQ3nXEQDT4iZ7rNrrMxwelQwt6Hbc97vlzGnISPcdtdFkfH5QOLeh13Pa4589pyEn0HLfRZX18UDq0oNdx2+OeP6chJ9Fz3EaX9fFB6dCCXsdtj3v+nKbKITex0orjzHyjmTGoBGxe0DnZ6NEQJ+bxivM8tK7rcZmH30PmRT1Hz3Gd80t2znm7+jX5O53b3Fx2W/PAvPce3bnj4McYnSN273nyuNuVXnG2Kp7cXD2vg84RO2vie9xt4o6Ksznfs+fqeR10jthraq/RSrOkY6w5nddB54hNrUSPu506+YqzVfHk5up5HXSO2FkTnzgI30PpUtttZhTxpExGI+zp4D0XjjzqwIPOp7by4ap8OMeeXjwP6asHdRTDBpPL/Kqm56JP3RoNuRVW9dBlDH4J18xpjWZunJyb+27P1cjYmjn1NNWYFedjei1sz3GbvIpTLPn0e5o1OsYGlUMeNn41To+reK/j42GTs0bnOZl3YN57j86a48ixqo5ncu57HraP5zZ5FacYPIgeFE/McVUzYwCKJPogbvtA1CAOosHvYerwe1jVkZatFxfvNXt6NHN1vBY68pYQfVWDWK9Gxns+POj1sDOWPjqQuLDinCcOkrvkowPRC7Ezlj46kLiw4pxXvNIkX2mokzH3sw5zW9J4fG1ONZ+qTqWD87GqXOdku581vJbbmUOe826TW+ng0CivynWu0njca7nd0zjvNrlC8Rlzv4qTR51K4zVc53ZP47zb5ArFZ8z9Kk6e19mu3W1mDJiTYADi7st2nlznUl/55BED4UHx2I6yffN8dM5hg2hA+ETGgE9fvNeobLgql7pZJ3mv4Vp49PhLY6F39Nwcg5jrsXsxnwOaxKzhOcSWMGu6j13V6MWcd7uqASddap2rYsp1HrvK8xhjglUMDk0PfSw0zmUdfFA52EK3M0Z9MLWuR9NDHwuNc9T2mGznsas8j1EDrGJwaHroY6FxLuvgg8rBFrqdMeqDqXU9mh76WGico7bHZDvvdurcRwcSE842MwmURCLovHNe2POSd7+yq9zeOMrPmPtuV2NVXJVTcZmLRoidGvdd43ZP43zPrurACbGr/F6s4uHArNfjU4df6eGE2Ogde7GKhwO9juwe39NtV591lnyv7/ZSnsc9Dxt0XWWv1WWu57mdujnf87DBuTzF1uqyjue5nbo53/Owwbk8xdbqso7nuZ26Od/zsMG5PMXW6rKO57ntuh7vGtllM5tLJgZmwZ4v/VKOx91WzTX5vbErPutXGrjdareTrzHn9MRA5ujYi4lnS73nuAY+0fOx0eA7EgM9ht2LiWdDK0zOfdloHBsZ/6ANurnEQDTpVzwaEM33E3tzcR4b/H7Ol7F7c3EeGyT3+4m9uTiPDX4/58vYvbk4jw2S+93AHEN+crPNrEqAAzVxii5xvpOeAw+H77WxlzSem7bPL2Pb9at5fLdq7HQs9hfcyfzI3ckcdpKjOfqYO6mxP/K3e6yYN3k57/RTn36lp/Yc7iTPc9zOOTHunCZj5CzhTvI8x+0D81462vvW7GXlPoUfY7e/W8c7x2AmzrtdNjOSqkkq2bee1jXYaOX7I/21sdQxDqj42troPNfrU8vjnoMWDt/znMOmXubhg9Rx9BrYc+i1Upex9F3vMbelwQd7nPNeu7K9VsYzlr7rPea2NPhgj4N3HWOIY4PbLpJPfbAaF21vjIynTx68cKePrOG1iFE7fXgw4+mnTvGdPqhNDVD1iFE7fXgw4+mnTvGdPqhNDVD1iFE7fXgw4+mnTvGdPqhNDVD13O75c5puM/Mk2WzshPuVDSf0Bz7oMWxy8UFyEhXPHPxK6/WIw1HLfbjUzvnEHN2mvjh4uO2g57q9nRpLWuqCS/o1ca/l9prctRrqgmvz5nSq1avX47Pe90N3YN75LGz19+fzcuB4bz2+yVTH2zm3ye1x4stmpgBJbnvBiicOUkP+nB6do9vUqxCdx5LDd5SNz/yo4XzG0ICudZt4D1Mrv+IyPzUZx/d6VQ5xkDxwLgeNsMrv5Xpez/Z6vTpoevGsjd75Huca2b0x4BM9n5hzS7bnuO1zSb6q6Rpsodte02ugcW7J9hy3fYzkq5quwRa67TW9BhrnlmzPcdvHSL6q6Rpsodte02ugcW7J9hy3fYzkq5quwRa67TW9BhrnlmzPcdvHSL6qKQ06sGxmnuxJzmNXcYqjEcKlfsmnRuqombx8YuSCqU2eXPLThwcznn7WT7+nRwdK51rx7ld2L8e1Xh+b2mt0aD3X7d4c0PgY2L0c4uQKk6tyK12Po3ZVJ8dCu4S9vOTT79V1HTbYy9kJ36uZfPq9sVyHDfZydsL3aiaffm8s12GDvZyd8L2ayaffG8t12GAvZyd8r2by6W9nrLW5i81Mg1bFnJPtfpWT8dyZKu6cbPcZIzmvm7Gs4X5qvY7ba3Wek7aP6zGvje3oNnlw8t0mPse7pmdXNcU5X9lwroXLOTnv8+jxrunZVa445ysbzrVwzJsYPL7H02aenpOc53hNeJAa6XuO265zfo2tXD2kdaxs6qF1DbFWZKyHzmNukw+3pEfHGOQ7VjZ51HcNMXF6uN+zXdfT9Pi9oxw43hwHRz9mHGOPLzYzFZh7VHE4MAcW71vW9zxy5/RoHL2m51IbTF3WSF3W8jj2nMbHq8Yit4rBoQGpKb96VDyc14BjHMeqLhw1yAc93zXYno/t6HXg4bwGnDTYIHkVUgMtmHVc5xqvicY5t6u8iiNnpzHP9xpuoxGK78WIu77HodluLfLAnE+vXurIB6u8ipvTr4m5xuu7jUYovhcj7voeh2a7tcgDcz69eqkjH6zyKm5Orxg5OR48GnzXLTYzBnekEIWrmGs8XuU455Oranjc83yMKs/j5KVuzvdYZYuDBxmHsXs88TmkviP1k4MHGReEB+EdsVNT+eJ6D9XJTdqKgweZAwgPwjtip6byxfUeqpObtF6/l9vjd5PbqznH+3huz+VUsd3kVvWWOB/P7aW8jO8mN2ut8X08t9fkumY3uV5nre3jub02H91ucqkBei1sIbZ0aZfNDBHIAI6KzcVdy8BzOWtrpS79HHc3PrXB3dTK3KyZPnrn3SYu7PGuqexeXo/faY1evR5fjeNcL6/Hey52T+u82+RVKB1aULq0069q9ThywdQ573bq3JcOLah42ul7jSWbXDD1zrudOvelQwsqnnb6XmPJJhdMvfNup8596dCCiqedvtdYsskFU++826lzXzq0oOJpp+81lmxyQddXnMexy2ZGUEWqjfgckucaOGE+1sTIQZu+8z6G88rxmPvowKzvWo9VPJyP1aubmqyNn0ieIzbjZw6+6+AcFXeN267D9rjbxB2JO2JL57bnLcWIe77bWQs9/Ha05HiNpfwqZ6f5Xquy18wFDVjVSc612GBqd+KvqYUGXDOOa7HBNflLmjW10IBLNRV3LTa4Jn9Js6YWGnCp5m7mrTHWjpPaspmlqDf5uUGJgdRwXzbbTg+A12OMnWJVq8dV/HbGzXx8cKmWdGgTlQvndSpurVa5bFXNXm3XMhbaROJVTnJrtcyZsaiDD8L3kDo5Lvmg5yfnvttZ02uknXmeOxdzndtLOa5Nu/LFVY+5ceZiquVxbNDHSs59t7Om10g78zx3LuY6t5dyXJt25YurHnPjzMVUy+PYoI+VnPtuZ02vUdk7yVVO2cx8AApXWHGe27PJI+6+bDbFPYa+4tfqvMZ27RzDfdlsVV20IJr0l3jiPazm0BujV8P57dbb6VjbHcfnWNnbrbeTeS/lLMWZ91odekfPle2+69xe0izFqbVWh97Rc2W77zq3lzRLcWqt1aF39FzZ7rvO7SXNUpxaa3XoHT1Xtvuuc3tJsxSn1lod+p1it5lpAjmJOX8uxuSyZua4DrtCz3O70oqrxiUPrHKJgb1a5KID5/jUoGWMCnuc87L1UH3GwE4cpRO43mskPyWEkTp8ajmS6hricMJqIxd0vddIHn1i6vCp5Zi5+J6TesXYXO85Hnce/RxuV++1Mtd92WzkzPmei34Ot6v3Wpnrvmw2cuZ8z0U/h9vVe63MdV82Gzlzvuein8Pt6r1W5rovm42cOd9z0e8P7DazueJMJifsOa4Rj19pnOtpUzPnb2esrJO57mOvxe3uS9b1uRHrcYqz9catavTqVTXIB8nFB+GrGskphy1j1KnqEqtyUo8PkosPwlc113BVHWp6TLb71E4Onhr4qXPfbfSej+06t4mDHpPtvjQVB08N/CoXzVwMDXXwMwe+0qVWfnKZh586991GL8yH69xe0qVWfnKqkVylc43bVT7zcp3bxEGPyXaf+snBU8ORGlWO69zuNrPtFFFB1y/ZHvfJYFdxcWt4dCBzq3KJga7Bpg4+2h6iV9wfni8+dcRBNKDzXpd4xVVj7KROjuE1sEHXinO+mmPFZV76VU6P8/Eru8c5n7V7fubIhwOViw326rl2TrMdXVUn5yEfDvQxnKvqubYXh19TC21i5sqHA5WDDWYd99dovKbnrrVzDPlwoI/hXG+MNRqv2aszx+cY8uFAH8O5Xt01ml5u8t1mhjAHc99t9NvBufy5mI+xVuc5sneal3XS79VNPn2fk2Ier2znyO1x8GDOmXx412ELsXv6tRrGoY7XdQ4e9Dxsj1W2uIpnHHCNhjEdvb7XoK5re3bm9XTw6Bkbn7gQDvQYcWIgmvThE9fqyEMvZCMGugbO0fPQEk8fPnGtjjz0QjZioGvgHD0PLfH04RPX6shDL2QjBroGztHz0BJPHz5xra6X5/nYicotmxlCCbArdE42vk8KHvQYdi+vGh+Oer1cj1eaNXV6GuoxhnT+cL6ynSMPTqgHftqpTz/zqVPx5IJo03febenwhe6n3YKmTz/ze3XRkV+N47no4cjDr+LE0OYY5MCjg/d8bNC1cEJqYaODxycnfefTdu2cnXn4Qh7OwcOhAYnLTw0+mJrM7dWs8qiZNZLHpzZY5XmMPHT4zMW1c3bm4VOXesnjUxus8jxGHjp8xnHtnJ15+NSlXvL41AYzD34OPQfdYjNDWCWviaEBs4772KBysEHqeMy5yt5NbtajlpANDTH5aadPToXUBdG47/U8jl1hLz9ruY8NUjd98eJ8cy16kBh57qdNzdRmLfexQWqmT03xbK5FD7oe3XbQ61R5HnebcTNHGtfhO0cOMfztYFXP8z3utjTpwzkvm83rVtqMz/k+RqXzuNuMmzk5R/zMJb/is2blL+V53G3GzZrSuA7fOXKI4W8Hq3qe73G3pemNm3zmUX+2mXkRLwAPUsx99M7N6XxnPBfekTrJ+VjUSC08WNWA83pex+NuZ038qg6xXr6Pl1pi8CC1HNMmdw6rej29tK53nfOVvZbzmnN2Va+nl9b1rnO+Z6P3ONwaXJsnXWrTXzNeanZaY22edKlNP+e0xt9pjbV50qU2/TXzTM1Oa6zNky616eec1vg7rbE2T7rU4if6fKtYt5lJXCXAE/MBsNHgC3v67fJes1c3a6afNdxHK2SrxnGd51c2Wo9VHHFiIDy4hneN21WNKr5dnfTUAakBruFd43ZVo4pvVyc9dUBqgBUvDh4bfy5vTUyarEVeD12PDXqOOHhsfHTpwwvnYmviXiv11AZdKw4eGx9d+vA5jvPYc7loHF2PDaYOXsiWGvfdJtc5t5firpXtemzQteLgsfHRpQ+f4ziPPZfby2ce1EBHrdlmRhJikh3TrnKSox5IfH/hmrqpSd/nkrH057TE5nLQCKVzrdsed95taoljcw7bscr3uGxq9bTEyUsdcefd9jy0zmE7Vvkel02tnpY4eakjnjx6xsB3ndupQ78bzPpZaztx17p9YN77jmoel32RvdZ24q51+//34907FvBC7Dz+s82MRJLdT/tb3/rW8JdvetPw8Ic9bHjwiSce2LZxDD7wgQ8M//3f/73x3HDMId3HBtGA4omBHpOdvHMZwxdiZ701PrkgOaDXTw0+SI4QDiSGL8TO2Bqf3EQfmzrO9calTi/Hea+X9pKf47jvNuPBCbE9lpyPPxdzndfDznjWct9t8uGE2B5Lzsebi7nO62FnPGu57zb5cEJsjyXn483FXOf1sDOetdx3m3w4IbbHkvPx5mLU2Cl2m1mvIJMB0cn/xFlnDXe6wx2G85zjnMM5Dt6zsZ39oD1D2w7eh01z0KaOvLOPOnyhOJBazVeNsY542Yzn+Ru2aaYcm/OWsaiPRvmyR36jdsx9Sy32Y5zrRY8+ZnjjG94wfPvb3+ZwTpjHeQqYgQYklL54cWzonHfO+apWat1fo0cDkp/+3Dyk3Y6eMXpY1VqrZS7UcB+uqoVOMWzXw1W5PS7zXeexakzGAz3XbY9jC3nA4a/BzPccj4mnPrz7cJ6Pja6q4Rz6NejjuU09r8H46NyHcz02Omq67xz6NejjuU09r8F46NyHcz02Omq675zr4R2JV5xq7qqZsQM+uU984hPDHW93+42ms7Hg0xTGhXy2CYya1mxoEGMTqvLUNFoTGxvf1NCscU15xlFfsVaDsWhc1rRoTK0ONTr6Vlcab15ec8xT/LBDDh1efMYZ7fniuPLkuY8NoqmeYGJrta7DBrM+PJjx9NGBzC11S/xSPnEw68ODGU8fHcj85CdHbH+jj+M248CB4t1GB9+LuW5/2D6O29SGA5kfcUdpXOex/W37OG4zDhwo3m108L2Y6/aH7eO4TW04kPkRd5TGdR7b3/ZOxqlyymbWm2wWSJ+8T37yk8Oj/vyR05mZNwuawEZTsWaxEacRjDg1p2gIU60lvmigzA2cGu/YdLN201mdKc/2YVYzM8eLHnX0cPqLXrRxhtY7xuKrmHNu67lxX3a1pY7ndAm99lwNxsx6nu921iI/MXVZv+fPjeU5jMc4mQfvOd9L2+fjts/B9yF597+Xts/VbZ/DgXn70did7cfYba/6v+149+bpc5ZdNrPcmbliVUzcZz/72eE2xx8/NTSaQjtL6TQKNBVOZzfRDDaayRhLLv2pvs2DeTGONN28mMNUTzkZszE2dB3+qCOOHF76kpcM3/nOd6bmUx1jfyIVZ4PHB53HdpTOH/iJaODxHYmBHnNbcTZ4fNB5bEfp/IGfiAYe35EY6LG1dua637NV22NzY1U6cRU/Vydjme9+zz4w7zyK630/pnkcPeZ26uZGyzxyK36uTsYy3/2ezdhZa8mnHkid9KlTNjOSEJHsmDY+ufJ1yfFud7nLcP5zn2drU7PFXE3DG8dkS8PZWae5TLlez5oKtUBvUo2jvs9htD1nTSNKPQ3Sx6SOtIwPh+685zzX8NpXv2Y6Q9Ox9OPrxxjbn6vUoql48hKrMas66ECvs8QpzqPSVuOh7+HaOuhAr7fEKc6j0irW48lzROt1iRPDF6IDiVVaYp6HnflzvNfBZry1ddCBWQc/0fWy3Ufb44k7ol1bBx1ILergJ7q+p+3xWUs+Wq+Ljhg+ekdilZZY6nvaHu91sNEK80Gs4iuuV0PabjPLQmt9BgOVd//73nc4zznPNX2OxuLNYj6dzdCQaDA0pfT97Gdt46H22BRbM/E6bncaDc2mzX+s1/aBXOPYtynHxie/zSF5a9ovfclL2xkax96feD++vTgaUDq3yUuUBp0jPJj10FY8MdDHzHpowKznuW5nHfLgQXhye+P09ORlHecruzdOpXXO85zv2Wv0azTUd63bxHu4Ha1qrNGv0TAf17pNvIfb0R6Y976j6MfN7X2K2uppnV9jl80sE+Un509ixvBBnaHpLkdf+FnInWPhJ9YWfZqPLfLEPdc5t70G9Xuc52Vtcl3jdZxXc8bvabbwyrGmKPsC5zv/lptCOKZ+/HmJ9GI93mukBn8tUgt9zsl5t8lL/RzvMa8lG38tUgt9zsN5t3t58NRZg17XbXIrbk0MTaLqVTUrLnPdd73baCpuTQxNoupVNSsuc913vdtoKm5NDE2i6lU1Ky5z3Xe922gqbk0MTaLqVTUrLnPdd73baJJLXzrnKltc2cwYJFEJ1dbT+SQ+Nd4U0hbsOIOZFnEWc0PX0wDaTRrFGU2Lc1alGpXGuNaw5Fc5pvPxNB9vVK2GzXdjzLHGtH/jWNN+9PKMv8hRRw0veuELp0uOeaznfH/SeS7gwF5+xtPv5e0PPseSDwf2xsl4+r287fC9mvBgr2YVhwOVK9v9Xr2Kr/IqjnEcq3q9ODVBdO736lV8lVdxjONY1evFqQmic79Xr+KrvIpjHMeqXi9OTRCd+716FV/lVRzjOFb1enFqgujch6vqus5t15bNTOIqIXl8tGA1KcU+9y+fG25761vv/fzMm4WflVgTmpqAcd4IaCSpg5e2xWKsxgfnDWrKG5sK9TbGsYYzzSlqTuOoWZq+qtfGj/FoskcfceTwqle8sj1vecyrY80T7M8HXIWVLrn0qeO828RBxdicw3acq7Oky9z0yXfebeKgYmzOYe8U58ak5hqNtD1d8ukzznZwTY01mgPzXnfU1xzLNZofxOPNfjlic/TcL5sZwjwAJArddn3meEw5+mL1Xe985303hYwNYFrg7SwJrjWLaBQec5tG5ByNRBw83NRwrNlUHHk0mOkMzObvmjbn8Sxu0uJn06Lpirf9nOZ40J7hUhe/xPCWN7958QyN52XuefDY0nPpzx/20hjEt1ObHJ8b4zmi205t8sntjUF8qTY6r+M5jLcb9HrVeFVtz+nF4am5lIN+LXo9xlCu21nLczKWudRZyqnqzHFejzFy7Mz3nIxlLjWXcqo6c5zXY4wcO/M9J2OZS82lnKrOHOf1GKOnr+IVN9vMGBBkR/Ep6D4cE0sf/gH3v/+gu/amBuDNxBZ0mgK4ofdGQoOgYVhsak7irKFRs+KqcTYaDXMEvREZN9UxjjqKTQ3L93/GfsmLX9wOYXVcnZPtG8fdNWu4Sk/eTrCq55xs3xjDNWu4Sk/eTtDrYYNezzm3pXHf7V4MjRB7aazUuY8NLtUi7nq3D8x78zldOh4cz56OuB9jt3t5aITY1FrKQed52CCaXi3irne7l4dGiD2nRYcWJKdsZilC7CibB4PIX5MrjW4KOeGOd5rORFj02wKvhb9qOrHIowVpWmoQyU0xaypohB6f89F5Q4JreTFvryWdaxWb4oqNfuNpyuzzOEfdFPK2t761PM48H4k8JyDPk3w4t4l7HeKuR1dxGev5PkbaWddreAybuNdRjM3jPQ5N1nTf62N73G2POy87fbRLSF4Pyc8x4B2pIc5tNFmj8tEuIfV7SH6OAe9IDXFuo8kalY92CanfQ/JzDHhHaohzG03WqHy0S0j9HpKfY8A7UkOc22iyRuWjnUOvjQ3O5Sm22MwkymLy2XwAdKDHKvtTn/pU+6UQzk5AFv228I+L/AZnDYnmQNwbhHOV3XK9wVSX+6zR0cCotcWn8dCIlMsGlxobf6o7w51zz9mGy1/2d8ubQvw5qZ4D4r0YzzVxkOcuffTEwUpHrELpyQFdR7wXkxYNdua7X2l6XObhV3Opavi8yHWdx6uazrnWa6Tt46Tt9TyWfI6FFp3H4dAInXNtFfO8nu31XJN8joUWncfh0Aidc20V87ye7fVck3yOhRadx+HQCJ1zbRXzvJ7t9VyTfI6FFp3H4dAInUPrHJrkqhqzzaxXAD6RgX2gOVv5//r5zw+/f+vb7L0pxBZ6X9g5e4GjYTl6DHsW7awInY+DXY0hPTw2NRypAUeOI7HVODZH3RTyipe9vB1engc/1ms5z8HeTS41ElUz66avnLVc1t9tblWPmjmn9D13Lua6NbZq7bRelTtXay62Zq6uqcb2+Jxd5c7NbS42N04Vq8audBVX5c7NbS5W1Z/jqrHn9B6rcufmNhfzumvsauw1ealhTmUzS/FOfCbKQL0a+tMnZ5111nCXE04Yzneuc29par7w0xwaWjPa0IxnV2h7TcLjLd/yqKfcptNY1sDcnqtPXepMtexsj7EmjIbecoxz/9LtppC3TDeFcMx1rLF7iMYRm+esynUNcThh70FNxT0vfWI9RO+IzRhVrmuIwwl7D2oqnnnpuyZjWce1jE0OWkdstBWST23XkI/GffRVDB0aMHlyiYOuE1c9qlx05KNxXxrnPYaNBkyefOKg68RVjyoXHflo3JfGeY9howGTJ5846Dpx1aPKRUc+Gvelcd5j2GjA5MknDroOTth7uB57W82MJCFbDoYG3nVuExeS88AHPGC6KWRatMeFf0vTKJoZTQPksiW1WhOKS3g0plY/mgwc+VNdmxMx4WRH8/EYn4tVtdp4kbvBjWOwX8RefHr9a/scY46vH2vnUuexyhbnPPngXAyNY0/vPDZY5XusssU57zVkz8VSiz9Xc6nemvhcfeZQ4draO82t8uCY89Ic0Dsu5VDbc7DX5KKtkNpLdXq5FQ9HbXzHpfHWxOfq+1hpr62defLX5FZ5cMx5qQ76JSybWVW84lQ8eflwiT4ZYs7pppC73OmE6WyIxXpqEtZsFHPeG8ZkW9OhiRAjd0udqOtzICeRGtSuctAkTjk0Q0O0bTztC82M46DGd9Ce4fznOQY5wVYAACAASURBVO/w9re9zQ/lhs2xTpRoifO42wxQcR7zOLbHsStEnyjtEudxtxmn4jzmcWyPY69B8hMzl3jya3zPlc3mua5xvmejT0w98eTX+J4rm81zXeN8z0afmHriya/xPVc2m+e6xvmejT4x9cSTX+N7rmw2z3WN8z0bfWLqiSe/1s/89Mtm5sU9AbuH5BHH7yE6ULpP+00hWrztTIXFXQu4bPymgQMjr+kVG+M0JOqA7UzNajMG8YaMQeOxsabmZNxUgzwuWUpTzCfn5jWxU3P5y1x2eO6znz38x9e+1jvc7YWroI43W+V7AX9unMf2OLaj24xF7lr0GrJ7vtdD45zbHsd2dFt5+F7D7SoOB7p+f9hZN32NUXE+dhWHA12/P+ysm/6Bee+Po7yvRh7f9P83Hu/eHOGFvmkfymbmCWt2dN9h21woqUMN9z2HONwXvvCF4Xa3ue105rXRSOzMiSbhC3tlw4HUK/1oUNKgA2lAWce1xBqONaZ8mlk0N9VNjfKdo17Tjs2Q+IUPv9Awd8mRJ5/jDM49L2iElQ7Oazvn+dTIOD7xuRyPeZ7zaVc6OKHbysX3Oq6Dd53bxOewp+/xqqWYx932sVxXaZxz22v07J6+xx+Y9+brae44Vce8p+/x/y8d7+p4OJfHYLaZZSLJYMbxiQvZqlhy8qVvN4V8/OPDne90p+G83BSihX4825nOxIxj0Wdhb4s+emsaNINJZzFxE68mMuZPjSMbi+ttLl6D8dr8xubj9RpvddocbN5eq8XsTI7YhAfvGY487PDh9a973fCtb31ry8KXzwvHe4lHBy7pFUezlONxckCP7cQmB6SucMmey1FMD+pQC84RGw05yeODlZ6Yo2weWVs8ddDAuRbOEZt817uNDqz0xBxl8/B6nk8cRIdGPDYIhy+sbHTgGo20/sjailGn0nkMGyQXX1jZ6MA1Gp9LlQfX0zGG65LDF1Z25i5pqrnAkYsPls2MYIVeyG1p3XebOuKSTx8t+KAHntjucmTBViNoDcIay7TIK0ZjGG1vFtRAj+81XY/NeBs6m0ePn+rTFK1JUbtprBHCO07j2z4nl/v01JNP5hBu4NLxlnhJo7hvDEAeCN+r6TWqnKV8j/fGcE1vPMYGM8f9nk1txXt14NHie004MOvBgxnHJy7E9nGwPV7pMu4+NRjTsWf7GG6jh+uNI50eHidnDJVx16eOevBeDxtMLT5xITb1HD1e6TLuftZhbHivhw2mFp+4EJt6jh6vdBl3P+swNnxVb07jerfLZuYCt31w8Ww+sOvdTs1czMdpN4WccMJwjasd9wO50XSy2WzxaXjWhBcbGo1buZGnvx/3+te9nkM5IcfdUTbbJBwNdM67topLC+9aaiSHlniFaBypA+d5PQ4e9BzZ8EJsNBVHbA16Pbd93KpOalNTzStz0s8ac77nuq2c9L3OXIzc1Cz5Xn/J9lpuM3YvP7WpUzw1S37WmPO9ltvKSd/rzMXITc2S7/WXbK/lNmP38lOLDh7MOuKJCXfczBjQ0Qs775PwCcCT5znO6ZdCznz/+4f3v+99P3Dbox/1qOnrBq2xdc7o2hlaceZWNTTXVvE2zsF7hosdc8zw3Gc/Z/jaeFOIH1M/1nM2OYnkwMvHFn71q18dzjj99OEdb3/H9AdGiVe5cFnHfdcs2YyVSB6814cDK23FpR6NY2qWfM9da1PTEZsa7rtNPDE1S37mr/Gp6YhNvvtuE09MzZKf+Wt8ajpik+++28QTU7PkZ/4an5qO2OS77zbxxNQs+Zm/xl+qudjMeoOosBfHTr6XP8dTKzXwPobbrkcLl77z1ACJCckDPUacWKLi3/jP/xwef9JJe++8tM/hODOj8TSsLjeOzW/6/C4ans7Ippg1SurrppDTX/iinPa0X+yD4xaxHQd07Cta97/5zW8Oz3zGM4aLXPio4XcvfZnhb9773mk86dAmem1i1AedxwbROHpMtvvS9fyKT87H+d9q/yDOuXpe/rce35zXgeOdR2Tn/tKxVNw1ZTPb+fCbmQzmA7q9qd7nuYYa+6JbLddndG3MdWvGZJzMEw9HnX//938f/uR+e/9KwNS8xsuCremMn4XRgKSRjdb5KTZeYpxi+NbsuFHmwhe60MZNIcyLfQDhc/7s0xxPTDee6CsC+kFk5nbEBQ8b9MdZ0QjZfOztjEOe52R9j/Vsz6Hm0tw8x+0qn1ro0OR80nc9NVxDHPSYbD2IkZ++a7BTg98Kjv9QD8591yeffpUvjhro03cNdmrwGSN16bteNj62+9Qk5r7X9Ry3Xe981qt0Xh+70lHL61c6r1HlLOVnDmNQl/z0e7znL9leQ9puM0uhfDYGcY3bGSfmiI3WMWP4jrJ9I9859BnDF1Z651zjeRXPeJ6PLf2Tn/ik4bBDDp0W+alhjY2I5sXnX8RpCt7I/KYTNS20U42xqTV/bIwnP+lJW/6Tsk8+T/aNWIWpl0aXM5/1jGdOf6vO533B8x8yvP997293qno91ek9iPlYbiuv8nv1Kn3FVTXF7a/Hbmplbvo+R2Kgx3Zi76ZO5qbv8yEGemwn9m7qZG76Ph9ioMd2Yu+mTuam7/MhBnpsJ/Zu6qzJ7Wm6zYyd6CUSn0NyhdiuT941bisntdSpdMTA1MAnonPERiufDW4JvcZDH/Tg4VxnO/ve5mNnX1MTssY216DWxNCAGvcNr399+Vz4Psztn++L53z5y18eTn3a04ajjzyy21gvc8lLDn/1jnd42saxZFzGAJVAbCM5nDmN14q0qfaSJvPc91xsIVtP6/xObB+LfDj8OXQttpDNc4k7t1ObWqDquL1U17XYQjbPJ+7cTm1qgarj9lJd12IL2TyfuHM7takFqo7bS3Vdiy1k83zizu3Gznr4OXbZzBCRtGYirq1s56gnruKJgz1dxTvntd1WXXyQsRwVIw4ST995YiAxoRb9x/zFo9tNIdOZlp1FqfHQfGhw02dicTkSHYieuhV/0aOPGZ77nH03hfjcfL7YoHRue55u9jj1lKcNFz/mItOl0TaHYr+OveKVhne8/e3tphDVy5pwPd7HxXYtNjg3b2KuhfPairM5j+05Xosc5zxnyc486vXyKn1qexrnGce5rDPnZx71ejmVPrU9jfOM41zWmfMzj3q9nEqf2p7GecZxLuvM+ZlHvV5OpU9tT+M84ziXdeb8zMMHycUXYhMTwpfNzIXbtRkMXMpHBzI5x7S9pvI817UVDwd6Lc/t2eQJ3UafHPXh5X/jG98YnvC4x21pWjQjmpCj236Jsd0AYp+/USObifO6KeSFp72AqU37MRFmMG9QIbf/67/+a3jG05/ebvbYmKM13jaXcY6yL3fpywzvefe7p0uOXi/r21Q2xp3Tecxru71UF22i5621qbFWj247ea6V7T71tos7rbGdPNfKdn+780W/0xrbyXOtbPeZx3ZxpzW2k+da2e5vd77od1pjN3nMHdRcymbGII6exE4I4XvajHuu57tNLefIq2JwOVb61PC6ngsPku952MQ8P218ckDxe28Kud9wnnOcc++djuMlRxqCNyNxztOYkms+dexztNQp/6gLHdFuCvn2t789vaB9vtig5o4t1Kbc5zzr2YM+D/MxOJMU57zPWw31k//4j93Xj4/HcXOOOTjnNnNNDt7RbfRznDQ8pGODA6nhPlqPwaED0YDwQs8h7oiN1nPhvIbHPTe1HlvKdy31PYe4IzbjkgeS7zqPYQtd63p416J39LjnUMsReynfddRPTr5vrkutj9eLwVcI53UYD04a1xFPDh3outRS29Ft9IlofAw0ZTNTAg+EJOMrjp1Irmuw0eK71u0lneJoQM+nPjH0+K51DhvMOlWea4mLY4PLWoqf/OQnt5tCpuZFAxibUmsAdlaDjibRbv7Q5TzyOk2s6U2D/klPeMKWebI/IPN25GaP857zXHu/GkDtbcz7kPOcdzjzzDO3nKHNjcscpGETpwd5YMVljmtakc4/VU2kHnPOebddI5sYSNxjcGs0mUcOuFTLdW5nHjGQeI5f+Ws46oLUT59azrudecRA4tSZ8ytNctQFqZc+ec67nXnEQOLUmfMrTXLUBamXPnnOu515xEDi1Fnye3nJd5tZCquBmYS0lZ64o+t6NnqPi5PvXPrkVZha6oC9+l6LGp7jcbdd43Y1zsMe/JDh3Gc/x8YZGmcxrXlZg5iaWHAVTw3FtmzW9N74hjf41DeOMfN1ATd76OzOx8AGmZN8bBDuUhe/RLsphGPr48A5Zny7ftaSnw/n3E6d+9SFwwfhK6zGqLgq1znGAj3Ws1OLD/byxEuTj4pLTfqMBWa88lOLD1Y5cNLko+JSkz5jgRmv/NTig1UOnDT5qLjUpM9YYMYrP7X4YJUDJ00+Km6NxsfLGt1mpsKeyEBewG3i5M35Hqv0Gf/7j31seNtb37rfN32Z9+tf/3obrrcvOZfUpZ/7U8Wz5pe/9KXhsY9+zOYvhYwNgMW/wiUu4zSQxIscdfTwvOc8d9UvhXzlK18ZnnbKKcPF8maPhebqc3Fbczn2ildsf4/tO9/5zsYC6ccO29HtPO55jImTQ9x92fgVwvVqwVM7ffKFbK7FRofvOBdDt1S7qpGc+9hCNsZyROcc9lzMNT1db9zUu49NLj7jgT1e8bmY5/d04qtYcu5jC9kYyxGdc9hzMdf0dL1xU+8+Nrn4jAf2eMU9121yHT0ue7GZMQBFsgA8SBxfKI4HNkjc/eQe8WcPH/T3unTjwP7cbn3LWw2f/vSn29Sq8ZmzY+qYa2qkS21yHteNFE98/OOnMx0t8htNx85uNmLWROBbnt1J6HzP1mdYpz3/+b4bG7bmqhtXnnHqqYOaHw2pV4949R24Fot5X+4ylx3++l3vmi45bgy+4PhxTKnHZLuPdjccNcCqFjHH/a3z2jux9/d81tbbyVw9Z+04+1vnc9iJvb/ns7beTubqOWvH2d86nwN2jjHbzEgSKtGTsZ3H9pjXSBs9fJUn7j73uvdwjj1nmxb3aaFkQeTzms4Cjp6FF1+3iX/irLMYfkLmMRFh5LwJV3lznNeR3W4Kue/9ykuO3FShfWg2+06TG332bdJZU2wxy+OuSPijjziy3RSSZ0jaP3HPftazpi9957Fsvp4H5sO49pwszfuoI44Y/nG8KYRjKvTjlHz6S8cbveuwQcZEW/nJkQuSW/kVh97rus5t1+7E9lrYIPUqv+LQC4mDzrlup3ZV17lqPMXXaDI3c3Y6517drF/5FefzIA7mWK7diV3Vda4aT/E1mswlB+zNdy7ebWZKYmPguULEQCaDD1LLES2ca8VNzSwX7HHxZGFlQd3wtZj6Am6Lq5rZWdbMNK6P7XbOkbnC93K9xpzt+frzLYcfeoHuvHP/ug0sGgrNpCHHQcfGjo9iuilEf1OOx3/8x3+0X/Y4N3dekhuNa6pj9XKu7lfz1t+v++AHP8jQDf24EfDjBSestB7HXpNf1VrLMRfXr7GZX5VPzOugI9bDzJnLk9b1a2wfN/OJeZ258dH3NFkHfY7rup5NLmO5jlhy6aNzrDQVV43rup6dY7mOWHLpo3OsNBWnHPEeW2PnWJ7jMbcZx9Hj2GUzqwaoCsFRLDHroHfebeWjcZtmxuLnqMV38m3xnrhxYZWfHGdmzIGxQfYHH53Pze25OLo5VIzHwx7y0Hbb/tL+qYG0feM4WCNp++u+a4xvTQh/fIPwhtft/aWQdrPHKU8bdBmSRsRxnPyiue1m3pe91KWHj3z4wxyKjdcEJM8JvuPS8+Ba7Ll6aECvDyfs8a5xXerxwcxLXzq2jLlPPdBjsnt8T5d6fDDz0peOLWPuUw/0mOwe39OlHh/MvPSlY8uY+9QDPSa7x/d0qccHMy996dgy5j71QI/J7vE9XerxwczzMVKTvucS6zYzCRB5otsZT7+anNet9J7DWDQzFk+QRRUULxt/QvGx4CpGM2McR58nc1ri2J9Kl7WpCe+54nRTyEmPeWx5Uwj7n02I/XeczpbGY8AxgZc/cfZm4JgjLzw89eSnDE94/OOHix19zN5GpoY3Nj1yaFr4bex4HjbmozGszpZ6B+1pl1mve61rb9wUkscHvzqOVQyuh9RRnA0OJFc+DzgQfg57WvEec5t6FadYjycvET2Y8crvacV7zG3qVJxiPZ68RPRgxiu/pxXvMbepU3GK9XjyEtGDGa/8nla8x9ymTsUp1uPJS0QPZrzye1rxHnO7quPcGu1sM6MYhYTYirmNNtFz1ugzXz7NzBfMLQukNas1MdWaa2Y+D98H5ys799F9tzO3in3ogx+cPj/LRV/7yKZ9WXNsXOfNnTqO59xztuH4W9xyePCJJ07jTE2Is7ixaXneFjuan8d9PvC+H7rp531/8zftUPnx6dkcU4/DOSq+pEGfOnxQOrfx4UB46lbo2owr5nG3XZs8efCgctzGhwPhfYy0XVvFPO62a5OXzyadx90mBgfC+xhpu7aKedxt1yYvn006j7tNDA6E9zHSdm0V87jbrk1ePpt0HnebGBwI72Ok7doq1otXvLjky2bGQC7GrhBOebJ7vsfQgNWYcFUzYyEEtRhisyC2swY723CNFmaaWW9e8MwRn/2sMDnPJbbEKf7JT35yuMJlf7c1EvarLfjWHNhPGgH7h0/Dch22o9vkXu3Yqwz/+q//2v4Y6rWufo19DS0amOdiU0P+xO1w3tc87urDP33mn6bXVB47jqmj29J7jtvo4OTrkTnJ7VXt/Tdz0aIh7jXReCz1+GjdhyPfYzmOx9zu5aIhnvXcR6Mct7MGPrqetuI9l/w5jhpCbPLwQfi5esSy3hJPHPQxK454juM+GuW7XdVzrqetePLASuMcthBbue4nT22wF3ceLbXdx+42s6oQHOiF5zjF2MhBDzIh18FlM5sWyPGSFYvmHO8x9DQzxmFsMHn5xBydzxx0aIjje1ycfiJKf1FbjYx5Vs3B90fx5tsZ08RZbKO5oRViH7xn0BnZ1a9y1TYPn+tdTjihxdpcxpxyDvamYn/NW18o//CHPjQdez92zFHHER4O9Bg2MZDnoYfoekheFe/FerxqzMV8DNfJ5uE8XIVzul6sx6v+XMzHd51sHs7DVTin68V6vOrPxXx818nm4TxchXO6XqzHq/5czMd3nWwezsNVOKfrxXq86vdi4nls1y6bmRepCsNVODdJ6oK9fHh0NLO2QLM4s2ja5TYWcF+0aQi+8LLwZzNjXCH7USE65oeGPOL4rvOY29J8+1vfat+1utbVr94aDHMGaSTyp31k/60hKbYl3jleNByh/kTMTW984+Gzn/2sT60dCxHXueY1p7o0wDbWOHYb087G9ue8L32JSwwf+chHNua15HDcXQcHegw7Y+lL1+MqnrogGhAeFN+LoVmDVZ2qbqWr6pMLpmZtncxLv6pTjVnpspZ8csHUrK2TeelXdaoxK13Wkk8umJq1dTIv/apONWaly1ryyQVTM1dnTU6lEVc2M5+QTySLpI9WfC/Wq01uFfdm5otvWyxZSB1tQU29L7BVM9vtvDMfH6z2T5y+x6Vfkr/ONa+1cabk89+wi330xrKhpeGNZ7I0Iteokd3yZjcfPv4PH/enYsN+//vfP9zjrncr5+fPhdfdYu9w3jo7000h+iUYHavvxsOfo6X60qIHlYMNeh1x8CBx99fY5DFmL8d1qa1ynCNXHDzose3YaIVeF9/jbrvW54ANrsnJsTy3Z/fqZi3XEaMmCO/oedKhBYm7v8Ymj7F6Oa5LbZXjHLni4EGPrbXncqlRYdnMsliViEaIXekqDj2YGniQZkYj2oK+WI82Gi2msivfmxljMZfKh3OUXfk9XvVdz3g669DnVNM8xzlvzN32Y9LZWVg2Ds+dbDuDQ69Li793wxsNZ318XyOr5qi56nO0e9797hufoXGMW73v8rwvf9nfHd77nvdw2BoyVznY4IawcFwnmw0p8eR9LLSJ5FZ8xtLPnDV+VWMt5/WrHMXFZyx9r7PWrmqs5XyMKufAvP0I7bWr47SW82pVzm6Pd6+mj8sYcOSUzQyRIwnOYSvmcWzQdWlXmuSmZmaNalqcrVmxwE9IDLSFVgtv1cw0NpvPNefkGmxQeW736qDRT2rpzj2ai18iZF82GkbVwLxJ+VlqNHpqe73jjr3K8PnPfZ5pbjyX7MsUHIZBZ2i6MYP5gtTOM8SNfYj5bJwlrpy3bkj5p3/ad1MIc9Px9Ef6HnN7jW6NxmvK3klO1tipv5uxd5O70/mSt5uxd5PL+DvF3Yy9m9ydzpe83Yy9m1zGr3BN3UpTNjOEQt80MD52oud6TPZOH9nMpsUzFnAtmm2LprexYLKYHrT3j0S+9z3vXTUt9ktit9PfToybPfR7kzQC9q1h7N8Wjv20fSKfY4EvbGN4zYP3DFe50pXa/lfzhgP9QIm7653v3D5n8zGa7WNgg8yV+ci32Np5S/eRD3+kfC6YL5jzxl8TTw2+EJt6oMfQgGiEcI7YrkNLDHSNc26jgRNiEwM9hgZEI4RzxHYdWmKga5xzGw2cEJsY6DE0IBohnCO269ASA13jnNto4ITYxECPoQHRCOEcsV2HlhjoGufcRgMnxCYGegwNiEYI54jtOrTEhNjE0MODxOWXzYxEhKAXcE3a6ITY1EgtPDrPgaOZTQvyeKaFzwIoZGFNe/Kj4d3uNrdtl84Yi/HxmR/zJj7HVzHPl/2t8WaPax533L4GbPNv+xY++7sRCw3HguPQcNRsxMQdtGd4/EknMbUSOQ5giq537etsNKONuRWNy58Hn+PG3MibmbdyL3nRiw0f7dwUwnzBnHfPTz0+2Mtz3rVub0fTy/Mac3aV/7KXvWw47bTThje96U2D/vpBPjzHbdc57zaaiiO2BneS7zlu+3jOu42m4oj18B/+4R/a8dQx1W+KbvfhY7rtdZx3G03FEVuDO8n3HLd9POfdRlNxioknBpIzh9KWzWyuCDGh2wwEh+9YxSrOc2TTzNpCaIs3CyPI4lgujOMCuRE7aM9w5GGHD3e/613b97pyLvigz0ucbxnDR4Mv1A0M7/7rv957swfzAsdmy75sYLHvirf9t4VfTWraT8tpWsYZUdwzTn16a66+n9iObrM/Z443hUzjWd1p7jaHNlfmIH4X89ZNIbe99a2nv3ygOeUc5SfH3IkRh69wrabSMU5Vt+KokYgWHt8xY+7/1m/91vBDP/RDw2Uuc5nh7/7u76Y0aVxHoMcTT6RGIjp4fMeMpe9abGkqXY8nL5Eaiejg8cHHPe5x7XjqmD796U9vdE9LjlCaStfjPddtaiSigcd3zFj6rsWWptL1ePISqZEoXcU5n7U8VjYzT6C4J4lz3vVupwaffPyl2lMzs0Vwy6JoMRZRNGBbzGkWvogevGe44fWuP3zpi19s+8X82Bfm2eOZv+vI9Rj5+mWP465iN3uMl9z8UiOfOznX9ssbFZfqxqbQ9nPcL7Q0No5Jax6mUc4Fz3/I8ITHPa41NJ83cwfZP9eI000h97rHPdpZ8fdy3hrrSpe7/PDOd7zDp9Rs5soxT8GJJ544XO961xtud7vbDe99795LzZXW62SN7fo6Tne6053auPe73/22fAVC9ao5MA5zQQdfoWuJ95oZ8d3gd3Peu5nXUu5u5l01s6Xx9ld8N/P2OVSvE4/vb3vtvH3cao7OYXebGQIvKlt8tbmOuHPkOtcbwzWyaWbTgly9+1/BZVPbqHfQnuGhD35IDt38nGf6ZZKRrv/MZz7T/ibbxtgr5o7e9wFuNY5Nr9KroT391FNt1tszz3z/meVNIYz13Zp3r5ktzf4P//AP27vqH/mRHxme9KQndW/313Pnz1/W9dicVrF3v/vdw2//9m+3cY899tjhS1/6UiuXNURSixg+4zuP3jFt+b1mlrWl5cE48t1Onxi10s96Hu/VIseRPHLcn9MtxVSHrarNOI7ZzIj5WNgek+0+GsbFT4372EI28onhg/qbiWecccbwkIc8ZHjKU57S/uQUMWH1yFruu955t6VxH1vIhoaY1+3ZnoumbGYIKY5PUuVnzDW9OuQkooevmhmLI2cuk29nHVpIxU9nC3ZWAzcttmNDudqxxw6f//znu0+A5sT82Ef3icOxD7rZQ5fk9IvwbV7jeD7vybYztTbPyh/3s+3fuI/UJWfat3G/m295XOJDJ3zcSScN+pMvvm++L/DsFz54tzvfpd0Uwhy2oI3Pc6NxXcd82LfmW57Pm2bG+H78xfHwuLhnPvOZ0yWie9zjHoP+OgB612JnTM+nLhfDM46wl/OCF7xg+JVf+ZXhx3/8x4d73/vek45c8vDBHMP9tPGF2Myp18x8HM/DzjrwmYcPep4499PGF2J7DhzIGGg8D9u1c5zXop5zWYfYXDMjJ5FcxmFelb/EeS20zjE2sX/5l3+ZXvPHH3/8tM6lDr1j1v1ezdvHrWzmLuw2s0wkqccTF7L1tM6TB+c+Ns2Mxb4tfr642ZmNa1gU26U2ax5aOFkQNxbMsfnd9vjjy5tCmKOQfXSseHHc7HGNq15t7+db4zjT/Gz+G5w1qWmfV+z3dAxGbdt/s6dajBs1dVMIf8+M54B9xwfhHW94vett3J3Z5hNjsJ/TXP2Y2FyneJV/0OZlRp+T25obPviBD3ygNRV93nGjG91ouuRHnBx8UPzf//3fD6eccsrwqle9qjVB3/fKVq6O513vetfhx37sx4Zf/dVfHV760pdOc/IcH2cN75ole6mZZb7mUs1nLad6lTbHWeuvrSVdpV3LrZ13NrPeflTjVtrv9ry9md3qVrdqzayaB9z3e94+/hq728wyWT4cqJ123g+Ca+DRO3qsZ9PMWAATpwXPF0QW6h76WZovlONNIfe4290W71Dq7SP7objevf/1u97Vfgpqbt6KtSar+bKYj/sz8R4zDXX9SKd5NgAAIABJREFUOMA5trjv63hsyJvGOWjP8PSnnbrlMzT2t4fs9wfOPHO4+13vtm9/vovz9jMzxk+s5vuFL3xhuNjFLtbeqe7Zs6d9d055aKmR/he/+MX2mZea4EEHHTQ861nPGnT5pnool3z9FfErX/nKbTzl6Q+QEkfTqwGPDoSvsNJkM6s0qiW+isERx18aHx1Y6eF2o1FulQ9HHJ8xHT2GDbpO9tpmRl6vjvgqBkccn3qOHsMG0VXNLDVoHXsa8VUMjji+18T2mNvEE9EIsdF0mxkCIUkgnPtLenISqVEhXDYzLb5srQnYws6CTNyRhR0OP5H4ja5/g+Hf/u3f2v4zF+YvH85tPw6ytbDrh3upCea8mQPz97Mp5bQ4lwtpSGMzIjblKG7aKR899Whm8MIxdoHznX94/En7bgphH32ffV/hOT5qFve+xz2/6/OmmTEX5uEo231pdSlVZ0pqStp0plSdjWbuG9/4xuEXfuEXpjyd1ekL3EsP3T1I8zzPec7Txl/KYc7Sub2Uhz5zspmtqZOarJlxxoZfo0dLbuak7/q19poarnG7N0Y2s8xJv1dnjl9TwzVuZ91eM8uc9LPOGn9NDddggxrD7TVjls2MRC+Wtvvoe4gWdF3FKe78lmbmi2+cjbVmkXHzWdhBmgjovOwHP/DEjbloXrnl/jD3z3z60+0zMhoU2BsLHpz0NKbYV3TCSWsNqe3L2Nim5jbGfT9bvo3RGtp4l+PTTjnFd6/Z7F8+TwiJ61Iefz4mx2Puu523NzOeF+aRyLzEf/Ob3xwe+9jHTk3pYQ97WOMU8zqeo9id73zn4Ud/9EenvEMOOWTjbsjemK997WuHc5/73C3v7ne/e5N5bbezhvuVbi3Xa2Zz+XMxzauK+3yxK91arjfOXP5crFePuTrO1clm5nnYc/lohOjAKuY6j1d2VafXzNbmVzXhQK/lnNuuSXs3um01Mw3EYI5rbCadWvyMyyemS3XcOMGZgxZHFsi0WZxZMFnI0bU8OztJHl/5+t3Cq1352PYZms+RuTFPfKHmqzOyac7WhLy22+zXNGdrSjvirIFP+bbPG1zyNMDxl/T9phD215HjAuoYsOlGibvdZe9NIdOYzC3HhU+sdOMcaWaMJ8wHnKNsnWXpZgydmekD8a9//evTa041pCFHvj4ru/CFLzz88A//8HD+859/ampPeMITpkZInqPO+P74j/94aoCve93rFG4PxmAcofT6UvNb3/rWQU325je/+XC2s51t0J2X2n75l395uOpVrzro9v7Xv/71w+c+97ktd2NST4Ng08yOPPLI4WlPe9rw1Kc+dbjb3e42XO1qV5tqq77Gus1tbjOcfPLJw4c//OHphqBxyuW89ZrX2fgrX/nK4T73uc9w+ctffqOm6v7O7/zOcLOb3azd/PLoRz96+JvxD69mXeass2ddjn384x8/XP/61x90Rssx0BuKww8/fDjhhBOGJz/5yYPeOH3ta1+b5kYNrw2n46FN9bV/uhlIX9G4whWuMNXXOKp/i1vcol1O/Nu//dss1b3MyPEGlag7V3UHrRbcn/zJnxx+7/d+b/p+JDqhNu3H+973vuHP//zP2+tSrzX2+6d/+qeHK17xisMf/MEfDK94xStaDf0fY9+YpOpozvpOIblCrkQInZet5+2rX/3q9Hqhpurr6oO+S6erGYcddtiW3COOOKI9tw94wAPa6+qss86a5sR+UU8+tmMjV/5DDZevbmaeVNkUB6VxG18cW3LUzTzx+v3CCx9+ob2XrWKxa01hbBiytWiC2DSOHrLQtrjltzoH7Wl/dVnfE+LBHHNfuNnjuKtcdWMerc7MvJlnhcyNptx89pOatuDrbIfx2pnPuPBPdZRj+ok3juPAmGpoWrD08H2vfI6R4zWvdtx0yVHjTWdkPuYO5k0zYyzm5vPKGBo1Jy26+o999rOfvV1SRpuoHF2K1OdraoBajLlsqGbDbfaepxxt+rzs1re+9bSQaFw9mAc6cWpkH/rQhwbdYamm6YtPzz7uuOPar3r0PrtjTjSzXp2KP9e5ztVu5da7eh45by12WnxveMMbDj/xEz+xas4aS4t79dDrTMfowQ9+8PCbv/mbq+odfPDBw33ve9/ppgbm6PXhhLpjWW8UOFuu9h1On3HqlnbyqbnmzExavTHRVYDf+I3faPtyjWtcY+PzeNXVpudevyryJ3/yJ8PP/dzPrdrvi1/84oN+2eUb3/jGlvnpGF7nOtdpb070BkX7wT791E/9VHtzIZ5Nt+zzhoB91BUMvWHSOOQu4S/90i+1NwgcL/aPmonokt+uXzazXnF4UIPJZsvBXYcWzJjnVvX0Luq05z1/0OdYbaHlzAwcF3UW8WmBtgUyOeo43xZaao5NQLojDju8/Vr8Jz7xCZ/qxr7rP/W73vnO4drXuObUTLxpMF6bI2PQjIp5Np3FmVubL03AEdtyphrERpx4aYn5HIzj+Jx6yindXwrxg8JzCyr2yIc/YqOZTWNqnGKsaX7ERpz4cd5zzYw5MQ9QvGwtaLqri/+cZ555ZktJnXw1Cp1dabHWu2N9BqaGo1w1OC1C0nku43/84x9vZz/SanHWGx7mgEZ5Wsx0pqAFSGceamYXuMAF2rt4XZrUO2dt97rXvVpzvOxlLztoUVLdC13oQu2dOrWzvnyamXL0Tvpa17rW8Pu///tTXerrrOxKV7pSOwNU7Z/5mZ8Z7n//+3fn/alPfWq4yU1u0u7UlF5zvulNb9qODzVBfSXh9re/fbuDVA0iHzoOOgu47W1vO501axG+8Y1v3C7xUkd4l7vcpR0rNTKNq03HSW8equeC5+Y///M/25mN9ks5Wnx1tqP99vqyNV+hzhDzkc2M+q5Tc9D3GNUwNNalL33p9nf5Uitfa4vmwHOqM1G9QdDZEPPSGZmeM51F/uIv/mKrqdrPfe5zN64OaA76uslf/uVftjdheiOmMyuO0+Uud7nhGc94xhRTXPvorx/V0HcjL3GJS7TXot7E6Q2crmLoNcicQHGav7Z3vvOdG/8Xcn9Vey3X0yY/28w0mA/oNoWSW+Iznvny4RKV+5IzzhiOPuLIqaH5As9CJ2RrcV+kq4V+jG/ksIjaYq/4jW9wgy237bNP+gvRV7/q1fYu2sWY1BeW844czqrIo6mw+MP7WU6rXdSHbxj7O+WPx6bVlcaOlcY+9Lzna7/l6C94ni+eK46F++Ie+5jHTE2r1ddzRH0a+w7m7c2MuWg8Hs75nGTr3azeBfMf/PTTT59ee+QLpf3kJz85XP3qV2/aa17zmu0s9dRTT50WHn2HzOuTJ9R/bC3wGkdncdVDuVqEtXiymKnRvvnNb26XETnm0unMRWeCanwPfOADWxNR49O88vKOj0UzUyN7yUte0vZJZw05by2CatZarA899NA2by34OvvKh97AvfCFLxx+/ud/vunUBN/2tre1/yPMWTkaQ5sathZ4nelVZ7PK0dceNJ6Olxq2zjx0KVXPFw/Vkq8rNhr/ohe9aFtwdXOO5q159R5veMMb2uU+1dclvCc+8Yltf6v5aL46Hr4v1F1qZpqDLoHSbNXIcpFXLe2L3qw/4hGPmM7IdBlZl6P1h3L9jFvz0XOm5+dRj3pU+96i9kMNxxsux5u5CnufmUlbPdT0eQOn15c+L9ZfzNAdvXoNZp44HSvNOc/wUluNJ26trsrvNjMVpbDbDOgcOgZIf45HC1LfkXzhV7/y1eGkxzxmOPzQC+w9+/Gmw+IYyAI+NYMxvsF36rQFN2InPuBPp2PD3HSzx2UuecmpkXmzYlzGaxg10Tiid0721ARiP123RuP6DZvmEvU1nwsecuhwylOewm439OdOhPvYamZr5rRG43OlmTGOEJtJVhzzVAPjVzn0H5dH1tDCcs5znrMtsPq8SfH3vOc9w9FHH904fXbjD8bU4vOc5zxn+nxNl5v0oD46od4F0/QucpGLDP/8z//cFn/0mSNen3HwayZqgvp8SQtvpaWZ5W8ztgmN//h89BmiPg/8tV/7tbaPasRZV5oHPehBLa5FVY1F+8yDevLdJp6ohVqfVamWzkzUeFg4GTtztL+vfvWr2/f3lKevQOhs0R/k6rKZzkqk0xmfPi/Tok2cHJ+r28SF2czEuVafeepL8hrrkpe85PCOd7yj7YvXQK83S3rOpdVnUvo8UcdRca+LXpwa4EknndQ+v9JZk16/anyZw3i9Zub10aqGmpI+q9Sc9P1Ivyrl8yDHMefgerfJSY584sLk0i+bmScyCOgxtymcOvfRw4HwoPPOYevFrSftyMMv1BZILbIbG2ce1rRoDK7ToqjFs3HgeMawwREbUX+V+apXPnb4ty98ob04P/iBD+y9a5F5oLeGtWUc00xjiRu3Nrcx3+cse5o3eueYw7gfaIUbNeWbdtJVHE1trKkf+H3cY/f9UgjPi543bJDnsp2ZMV9wP8ybZtYGtsWEcXs8c9XZht7V6z+sPtPQu2lyQS3YOgOSRg1DlxT10A0PN7vZzSZe70r1IE+oBYezP7271eJMvInHf3SWoXfaGkObLgmxmLledj60yOimAuXd8pa3bGcxaFyfzcxj0jOO8zrTu9SlLtVq63LWRz/6UUo3VDPV5SXmrYbsdagFbiQXC5TO6qh1xzvecbpkSB618YXidKx0+Uu5mqfOPIl5js4suOR3latcpdWnFjqQfOKO0vSamRqm7l7Vl+P1nOvNA80pazDW85///Gm/H/rQh04NVvF8kCNery/dEKT91o08fmaeeVUzQ+PjYOt1pc9jVVuX13mTwvjoqCFcE0Pv2qoW9VIPnzndZkYCSCITYIAq7jHiznkN6hJPn3xyQPH6pQpuCpkWeVuMaQIs4vi8+598FlXL3bL4jzG/xHfzm9x0eO2rX9PudvRaaW9pGuN4zAtUHnaOn7xqqqnqbkvG87lRayPP6k9xccY3/djoNnLVgEadeG2nv+hF07tmnqfqedRzRjPzsfbHvKtmNjcX5odG7z71gbz+w+ozCG7OIC7UGdINbnCDptGNHFrAeejMRXn6jOs1r3lNo3kNC/U9RRZZXdLSnwohTg35usSlO+o0Dy1OfskIHZj5uqSjz6hY0Ko/R6KcbGaq57WwQcbTvLR/v/7rv94WaXjpNPYf/dEftbE1vn9fDx2YdeFBxXVmqTr6XFKXG3s5zmNrbOVq080gXGokrnF0B6DetOhNic4oFfM4c3HsxatmpjfZaqTnOMc52jz0WabmVc2FumoSOqvSvHW5VneE6kGcubgvG1+fEypXN2moWfMgjj/XzNB4js5udelatXXmx/cp0YDkgsm7L9t9ckCPbdfuNjMfNG0N7AMxEfievpdDPnHPJ+ZIXO+Yn/fc57bPsVhg2wLJmcSIuQijFRIDN2JjvIpJd9ihFxiOutARbWHfqBXjb8Sicfh4k71Co0Z2/C1uMTz8YQ9rv3o/5do+07Q3YtGQiPkZobgt+1zk3efe9x6+Wfz6Bc+jP2fZzGhqjA9q3O3MO5uZxmR80Ofhcdl6F60zAN2arP8MLCTkqMZf/dVfTZcidRcjn2EQ0+dKegeuD+dzTJ3F6Y5ALQj6DEyfi/FwrW5G0Y8PS6fP5nzhcB25Qnid1ekGDeXqrIO/AoBGOm1zzYxaWV+8bhRQw9bnUfqBWtfq+OkWf+5i1D7o8xxpXJd13XebL7Jf8IIXbF9N8BqV7ZzOsnUMtOmyr7/p0BjS6mYM7Yc+k3vRi140DU0dIfYUHI3ks5mpYb3lLW+ZLj3rzcvLX/7yqZExB0fZutLEmyWdBetuVn/kuO7L1md+2mfdXKTx8oF+rplJw0a+LvnqrzxwM9I973nP6Wff0AgzjxjjVj6xXi451He/Z5fNrDcQfBZbMyGfVFUHzmtVHGOjE77spS8djj7ywlNT0ULZFsViAWbRZMGedJx5dRoRi3tb9K1uxU/cqPPFmfHQMJ+msbrwbZ5qLjYvNbJb3uzmw1kf/3g7HDpDKve52ifmZGNRO+fEMcrGwz70mlk+R/L5zIyxpv2rnqttzDubmb9mfB6yec1gE9cZAD8ArEs8rtPnMfpcQouFPmPR5yAe15mXLiMpfswxx7QP2akrne4mU0ybLlXqDVj10NkUzUZ3g+kSph6q0XsQ82amcfTHN/2Bjvp8Zgbv2srW54U6m9GlTDVNf6iGziJ1cwP7qTsDdeODFmV9HpWPuXF1qUx19BmTn516jtteW8eMOejyrxbvfKjJcZb59re/PcOrjjdJ3sx0M5A+Q9Vdhqqvz/t0tyZnZMrpzVsa3RGruetMqDqzZswKaWbK12s5H4w718yUgw5bZ4xqjpxl6mxZd5XqzkldzvR9yzHX+j5mlbMUZ67CspllURWkaGJq8dHhO87FXOe2cshzlK13EH/70Y8OV77CFaczilyYWYCnRbQ4+2gaaxrTYm5nO87lGNuJ5XyqWj5XbP3M1Gte9erpnbuOkd7ZveC00/Y182LfNuZm+ziNm81NPtyITQt38J5hqZn589eameWy/9ncpvkUc3Qtul4z87F5vTjnts68OHvSmYXONnjoMwkutejDcP0JH3/oP7y+D6WFXs1OX8TmoRiNUAvNs5/97OlzBzTgxz72sWkh1rthbi8nnqjLe/pMQ5dFdXlTP6vFQp7NjNxsZvCJebx04wK5ulXcH9LqeOkGDO581Dx05qMFXV8z0NkQZxtZ22vJ1herla+bNHRMtvPQGw+OQfVcqZbmL40umWYzm5tbFfNmprtQdUehzvC1D8973vOmM/ilfVgzb2poHnqDoIan515vrnRlgf3OZubzXmpmjOGoN1868+Z7b7wR0FmnrjToBqq82cbzsX0ea7hKn3nSuG6xmSHOxKqwONd5Lvol9Hy0PS7jepLbbfvjYu4LJosfTQFEw8I9+baYeqw1BcVsYaZR+BjUYQGeYpY3aYyb5hVnY+L1+di1r36NaUHk+Oo4qKGd8aLT2yVHxqQWOM1h3LdKhwZULjrntP/ezHwubvMcTZcZx3qqRd1pfn7Mzd4Y1+ajvGxmjOdYzYe4YnpHr1/20IKgzzj0vTAeahi6hKhFSmdtXGIkLtRirw/79c5VZ19qYnroOdF3oVRXdz1Wt7ZLpzl4M9OlJt0Mou8T8b0doe5203ejNI4+81ED1eU93WnGHMXrUle1zzQkzszaJIt/lOv53szUnHi4Rvuqd+v6IrLuDtWlPC182neh5qwGpR9m1hsCLeCeT03unPxeNrNqHszHER3ozYx91f7mnxTyGpXtzUyvP73OdBu8P/c689Uxzeden2XptannX8+97s7MB/OtmhmxzHFfZ2D6LE6fF+v5UdPQeNr02tNVDV0m1SV6/V/i9U+NHCN9dMKMpT+n7TYzFWFjEAqDvcIe9xroPQ7HGPhrNJX2KU9+8jD92oQtiCyYiSyUYIsXzYW8LQtwod2oFYsvdYRNV+Vr3sFf5hKXHG5zq+PbWWjv2Oh4PP95z2uf46k2c63GYY5bdOPYLdcu96Gf5m1nZj4ft3l+hK2ZjfvEvFqt8Tmi/pb5xHFIHc2McZfQ54RWnBZp/efUL0LojjoeWny1QOmdKGc8yvNcnSXpJ6Kk0/eD9J0oxdsdtyOvv2qt70TxIJ9a3sxUxzctVmqWOvPTpl8r0e3b2tTg9MG/Lm/pnbKaIGePjMGY2cyIM4cKlVs1M7TUxhdqP3UThJqx7hTNX9nQGYziOj7kqY7sqpm5Bh1ITOhNIc/MFNcjz8w8vwnGf9DLxXatbG9m2ke+xKx91hm6mgC5c3V83v68y9ZrUjcE8dzrciTPvd4g6UvM+hUbXf575CMfuXG3KWMz76qZ+bzGXd94Tjyueep1qoap5nXUUUdNnyUz7+te97qDfnxAb27IZR7uOwffEsbjPRfv6ctmxs6TlIUZ1HFOQyzR89fYni+bzXPF6R3ijW9ww+mSozeQtFkc4Tf8cTHX4uu8L8ZqOh5rC3QuwLZgT7VSI3/kNuofvPeuxSd1fv9P++7HQfbzn/u84bBDDp3qsW9tbjRKxgfZx2yC49xbDYvJ9zMz5uHPhducmW3sW+/Y2ZyYe8sTT2xEmpmP5XPh2Aj94b5sNS2d5ehyihYFPbQYcYlRlx/1XSA9qNmc8Z8TTzyxNSB9R0qLvx66iYP/5HqnnTckeL7OALnFWpfn1Aj0u4nadKebvtumGxa06e+o6Z2yNs1Ji5QWGn/4/sFnMxPv+1LlSEMz08Kqz6LmHtQQ6vKjGpveBOizKjVdbhTRZV3/jUpqcrnXz8x8juicY0xvCtnMyNOdpdqPvMxIDRB9+uLhvJnpcvKf/umfTs1YbzKqM2Tlkg9q3pqPXiv6grW+XsFzr1/X0OePPPf6AjnPvdY53WnLmwLm7HN0rmpmzMF1Pkd452TrKpguc5522mltvvp+JGen+p4fl5XJT2Rc0ONwQrfRwBOD7zYzBI4UgcMHK15cL44ejWNlqw4PaiYSf+XLXzEcM94Uks2GhbnXiKQnx23lTc2IRX5cVF0/LbhjgyDW8qk9YlV/WsDH2+9vdfNbTDd7+P6yr3D4wheffsa+z9BsjlMzYR6+HzSKkdvYV9PDZzPTuDkX+XrkZ2bt2NNAmcN4fNl/jmM7RmhsHtJVzcznkHabTPGP3k3qP4MWFC0m+s+qOxH1blsLsBYV/ywtS+jzF+XqMtBf/MVftObCzR+6NKjFjssvHBOvoYWG73PpJgi/m9F1aVe10GSsamZoha53W1+E1qUk7cef/dmfeUqzXUswOd2kou9a6RIcXyTW/uozSX/oDEPHUWc31Q8RuxabsdQ4latNZ6n8lipx6fXjvXqe9cZBt8znw7UZk+9xb2b6XqDG05sazi61D/m9PK9JLZ3F6Dtvmrff+ELcc3IOxHpaj1fNrFePvAp9LNn6fqV+qUaf2+qypy496vJ6XpL3POoml35PB+9YNjMJvCi2MLfUVr4P2LMZw+MV5/GerTzdFKKf+7nqla68b1FnQawwFvJpQR213pAy5n6pW6jt+ZM95tzgutftXjby/fdjJVsL5wtPe0Hb96mBVfsN15njXG6vmfm8ZGs+nJlN+8e4BTImOJdTNTPG9Hn48XEeW/8h9ZmEFhRdKtQZj77IquakSzu6wYGHamU9vd7Oe97ztnw1Q91q//CHP7z5fomSGon6iSB+jFiXEVkEGWctZl355PaaGfHMhdcP0Oo46KYO3cRSPaRF72PCEddlKn7cWcfb71hUHrfm62YSLZDUok4jxn+S01cSaGZaTKszYd2YoWaq73PxNQOvg70Gs5kpR58Z6QxNb4J0Bqgzep1B+YPacGpmuoFEc9dz5DcRoUlUDa+DPYe9ZkZtz8UmJqw4eK03/hUWfcbHlYys4XWwQddiz8XQCMtmViVXnBfCRidkU8z59NHNoddHR52qNpze+V30qKP3Lur2rt7PiLRo0oTgwbaQRh6La8sZm0BPzxmIcibNWK/lM7ZzNt71rn2dLZ+T+f5zXKpjof8kZ5x++qA7IP0sp9kaQ42E+WMztnjsMebzlZ3NLOfl/nRmNtakFmPggxyvaX7jfJqeudqZmY+FLeS4gBlzni8e67cL9bmZfjxXC5JuDuFMqRWM17Nq6lKRLg1pQdJnQjrTY9HWf2y/qcRrMEfdNaZFkMVYH6ZrgWC+5DjOxaSjNjnZzDyODZKvJs2vQOjGDn5bMHXoGUtx18Brn2jauqRLwyKun/7SMdBx1+d/0utBrazrvL4Pp1xu1iFGbfnvete7pt9K1A8tV59rZZ7ne6xqZorrjYlu3tAZvfZDv1epN9Z8jpT7o33UpUSee9l+2Vg1fVxskHruM2eP9ZpZlQcnxKaWI7Y02r/zne98bT/0NRXt89pc1akenp/xjJXNTEkIQQrJ9w2eHNe7jc5ziSeXvtcm5vWIO7r91JNPbj8ArIWSxRKkMU2LJ82FBdMWe/LJbUjcarNAU3PSq6bXtRxqMx/3b3v8rYfP/vNn2y5zzNg/Px4eIy58wfOfv3lTCI3BG6zNi+YO5n4wR5pZb1yfW2tm4/6zbxwXGhbHBr7pmKPNz+eTZ2bMJbEdvHhdoyGmz6W0oOgSlC4r6uxAC6M+79LD94ccUAuSPtfgcwP9rTH+fIk+v6nOEsgVaiHQbc7cAq3Pdno5OW+v07OVk82sp4XXPqnZcMu9mroW6p0+NAddqtWZq46zzo74fJGa+rtkukyl+Nq/4q1c/YIKl+r0uaXOEqqH5u+/gajmTMOs9OJ6xzubmefr+4e61Mm+6AxNd7N6Q0Ov+mqy3ECim5H8ZiF028Wctzez3vfwMmc7Y+rSvD7v1XOnS6zV34DbTj20a+dUNjMls6kgxeAcGdARved6HJ467qPzGsSJzWHmof3HT3yi3RTCQrwt9KZDsxub2MZCHIs1i65jd1zqsWhrnLGecu54+9tP377PfXTfbfZdqLscD7/ABfddcvXxbN5b5ocOtDnRzHwcxk+sLjPStLYcHx/Ljn2bm8fszMznsBNb8+VzL/1n1BdF1Vh0eS1vVGDfchx9xsaP5OrSoj4/UL7/bJJyffMaugmEn9bSJThd5tSVBcYDyaHOWn+umVEb1AKvy2NqPCzIutyYYzK2kFw07iuummpWfDaoy5b6vhR6aXRnqG4g0HOgM0HdmDP3WaVydYz0s2JqjjoTUjPgjlJqgxpDn/tJp1vZdaONz8F1sv3hMfHZzDKu5qEfZ+Z3M9VsuaxKbZDmp/3WoqzP9vRmJmvmfOSjoRaIlrjG0CVsjaGGrps0iHmO29QAiYHwatL6u2f6cr3q6+5aXWqvHuQK2aRLnlx41xBzrmxmLqiS4HwQuDW5noedmPUUT41zrnfbc179qle1m0LaO/5cJH1BHxfMPDNhoScfv1qM0bBgN9/GaI0qFmav12ziI+rW/K+NvwtY7btz7Lcfi5e8+MV7Lx1DrYKAAAAgAElEQVRaQ6rG8QbN/Kd9tONWNTMfz+3WzDiu7BfzkF/FnNO46MGDNm8A8X3u2T6ntHVLO1/a1X9IbWpqfIHZa2auYlosdHmJXKHOznT3YZWbnBZtfSal27CVq0s2+hFf/Xiv5uBnEOTqjETz1k9I6TMjFhDiPk+ameakvwis5l194VW/V6nLnLqNnc8RDznkkOlswWtrTtLrXbgaiF8e87EV05sCXcrVoqP902XcvElAi+KLX/zi6VKgjoG+u6bP2vxMVXOQr8u5erOgv2igBqW7AnWG2zsD0pzUpHV7u+agBqibTrS/amo5f51t6I5BNdl8ZDPLuOaoy8vc1KLxtMjnZ2jK0+VOfS7LZTq9DvV333TmqhtLqv3R/mtuuqtQzz1fyfB5+HOlps8XrPVGS8dNz13vodej5qp94Gaa1Gre+mxMfwKJXz/hRqE8lplb+cwXrDTiPI692MwQCtkYgBg+2OOJC9H00LU9W7nkp8Z57K98+SuDfuGevwKdzcMXbmJwoBZd2fgVZtybYtbFp+7kc3ktFv6b3+Qmuasbzwv7CrpY3Atf8IKN+fu47IvPodnWVJpm9GlmOZb85LacmakGm5qTjYHNPBjTjyvzzsuMvr+yfS4+J+fJ0YKlP2evRYdNd9+tfeg/v/7EC7lCLbJabHzsuXnpMph+uFcLgvL1uYsu3eg7RfosTne7+SZen/Hp1mjdgKLPnKif89YZC3PTIq7b4PUlXa8nW9+Z000vXDJVbW6A8eMmW3cpnnzyyW185en2+6wnX5co9buRWkQ1B2mr27dVU41bl2l1ViutzpD1W406m6C2joV8nQFzaVbNTJeK9fnj3PFWY9BPMunMUPW1n7olXmfVOX9dLtMlwjw717FdambSqNnr8iI/96U56oeb83Kt5qvmpK+FcLen5qXvr+nYVc+9PpfSc69jo+deNxzxUL08Bmo8upVez732W99d1PPAMdXZrf/cmt6c6fWvxq85oHPU8dJx01k0rxf9H9JZKeODzA3s8cTXoNfoNrMs5EkeE++bYmh7WGngMgc+kTHh8cl33m3F9aK5+EUuuvc2+/FdPgs5C2blw2mRdd2czYKcORs+Zxpcwuz4Gke/AqKGpoXX91X76I8qJk4vaN0Uoj+06U2DfWBebd5jg5l03nzie2Y5nvuyvZlprKk+tjW0FuMYjHFyGlqONzMfc+lYEPccvZPUYqjLQlp01FD0XSEernXb4/rQWx/4K1//ue9whztseVdd5XoNnQ3o1911BqU5qAGonhYg3/R5npqd5qsFXYuUfnpIj2oMnXno1nG9+9cZl5qF8r2mbM1bl+Ck0U0SOjPUsalq6nWoP3Gj8ZXDTQ9ZU5cqNZ5q6oxMjaw629AY2lRXvwuoL+aqdnUMtP8aU3EtqvrMsjobqOatNx56bnWTjo4bz7nPW3NWfTVMnS3mY00z09jaTy6v6nlUTb0udFbkc5OtM1V9L09vILQ4946n6uiY/N/2zr3Ztq2q7t8gX8EHKu/XvRe1fEREIEJQI5QYHkFUEJUIgmI0+TeapFIaeQgX7pUYTUpU4islYqJo/ogJMcaUgGiqDMiFSIHUBZGnWivV51m/eX6rnT7GnGuffYAb965atN5bb62NsebezHHXPmvvXfPS1XPg92ZWjnPZd3H1Sr4OvXr1z7c/6zlXXr0xp15B10dp61V7/btlXd/Sdp+D8hZfX6f1b371b811CHbrsw8wNdUnh3YP3vRh1i3SbcgbZQ6S4d51zd279ix5cjv88bvubl+h8a0s3zyrdr/ebHVTXbm4CRef3lG/vNrAv4HP+eZvGX6LoK6DH37+XKN6275/4//J/kfPK/jRKzOvR31ymOm5cb1HB+Z6/WJt9js7zHiutQfX7Knj6r+Y679Q69th9YtiuTlaWzUPZxVXN656U0H563cs+tszmWEvNVja+nGB+vZX/RtPvaqqX0PlR/0Xfv2XfN1U62fa6hfdlme2Ts3qv77r23P1NvX6mThnVl1/7LO+3Vk/nFsH6yyvnm99e6u+HVbvJqy/KlD/ZZ6Z9U7NWq8Oe39rcZZd16IOtfr9g3UN6t+fyK2/QF3/3lW/i7DWrndd1sdWXmoqv94sUr+sN/ddh3T9/Fitn9+OrXXqgGM/+ed/WKd07Km+VfrkJz958dS/n9Wr6Hpli3Ypjs+hrlG9GqzPTx0orAPWtai/TF3Xu97KX28g4RBhPa+d2fUfE/UfPvUfXpVZv7mj/n2Sr5/y1h74/Y/1/4n6N1P2zz7qZyJrH3Ut6j+W+A8U9pDPzftIDT2INjM8dz08zCzKsK73wtSZYb5mPOALO46586hTD59Z5smr7/U+/Ru/cT1suHH6sKFmxk20eGbU9KnFYx4Psz3e1D7/279j+Z55Pleen3meP1izelPIbQ97+PU3hdQh0xwaubdl7/HKjLW8tus6zJzj52KeellDe4HHB/ow83q5Hz/vmS5ns77LhAPxZw+/BztvcfBgl9XNZlzOsu/WGHGdtzh4sPN3sxmXs+y7NUZc5y0OHuz83WzG5Sz7bo0R13mLgwc7fzebcTnLvltjxG15a+7HKGd4mJUhF8neobPZTIcPtLarrXNtLTzoWdb/8Y2/dvjiOx613NCXG6heNXDDBLnBgsXnTdaz9LmnNmZWzdZ/b6vDU+uxznO/9VsPHzr+heN6bn7OVWfP84f/5V/8pWvPQYfzaE+5v61XZl6fV2bs+2QNDtHjc1xeoQ4OsmUPx71WPTrMeH483w5HGu8bX3IjL/oZzryzGZnn7sWZrsnbizPvbEZ+aaxzjcbouWtr9tQz72xGdmmsc43G6Llra/bUM+9sRnZprHONxui5a2v21DPvbDbKxgOOdMPDzEbXFVQ9jy4YPdhpyBnNOj7zsu88W+vUQfC/fu/3Dl/3pK85fYUyOdR8I85XMtxs0Sx9ZBW3fnstZvgKWw03efCzPvvwD57+jJOn3l0XONCG1//sz13/NywOlsm+2OPoMKs1vE7VHGZ5vcga8uyD5wse9zk6zLY+79282zfXiedjHOmTJ6Nb07NuThbrjjSZkz3+WR6z9HZrpoZ8eLLMu96Tac0sjxlrG3NNz5wPT5Z9rjsPXiOeWR4z+6jx0yfmnCzzrsuffWZaM8tjNvN3M+czJyv3Rg+iN+asPcwsoga7sJoxpwatp0ZbvWv6jsNrDWtsYedJrr5X/Le/5EuXVynLYXO8aXI4mVsOGr2SYQZ6nn40idzUF70OlOVA45VI3NjR1ptCnvWMZw5/JsnXk9pYbwqp3+X44Ps/YH3+fg7L3uIQqbU5zLiWhfnBOsth5mt6fC5cBw4zH+Dr7PiKlOeLtvblw4y1ag/UIJx7uNzziMdbSD3SdvzM45n3Y75q9zOdZ9Tp35NVXutc54x1ks91ZzrPqNOfe7COutA61zmbedKH1rxr5qzhmevUjfr0ZI/PfNXu0RSad50az1ynbtSnJ3t85qt2j6bQvGtrNg8zxCyUmHP31CCbIAO+sJvBMae3H84a5syMrtPz2rt//PCkr37CDa/Q2pvqjsOMmy434ZMcDqb41uFyiGg2PVTwHg+Jb3n2sw9/Ovm5EV8XXwfq1//cz53+ppDah57ncqhpTQ4z/B3Cra/MdIhxfdo1jmv7+a/XUdeHw6zW4VGf1/pg7Q6tHc23Mq6tcn2d7DOXuRGNuVGNFhzpik8NPbhHY22uNZuNtHs8qaEHr/adV/fGnmsF3qi4zqSGHiyla/fw4PXU69Vsdl11rUKbaB0zOPrC9jArYQ0RYoSn7+ap2dt3WXCF1Ll28sxZN73ozVMXvqvejvrUa28K6Q6feuWQN1V6brwg/Ir28kpHr1ZOXpX4IEFrjhu6ZuX/zud9++E97373+vnj+XJdsuc6Mf+Zn/7pw+0Pf8S1N4LUQXbc87K3WIvDDC/YrVGHGddhORQja+FY6zhb9fnK9Pjca85hxvPw2tSFrtlnIhrzHed51Xs05+gy3z1rgczoQfjCjpvx9p6jS5979gAyowfhCztuxtt7ji597tkDyIwehC/suBlv7zm69LlnDyAzehC+sONmvL3n6NLn3ntwbY1rNIXtYYbApqrNV+1+pk1vam9m7j1Qg906W1x5f+M//fryphBu5Nxo9+ByA/aNWvXMv964OaS4YRcqYzlU4MQ7u36X473xO/R8Tarm4esB90u/8IuHz/+cz73hFarXqHp0mPH5ZM3C9ZVZ7Xmw7yWfgyteEdb1WZ+7rhGHGWv5+czqkb54ZiA59NYwKzSPFt4619aZTx/Z1lMzww8/ykAH2j/yogWtgwM9Izu50jIb+czb3/Geu0YL7p2Vjkd6R3zpnJ8656AD04sWtA4O9KxqHjkf8aXrMvCD9qceTaJ1s1lmdz5rnIV212GG2AFVd3zH4RvNzLvGBzIzUluTXM2Sm/X1ppD/+bu/e/j6r/265YY+PGh0w0Wzom64HALrbOOGzk279Gtdr1r0yq4yl9lxDzl75tOexiXZxLwWZfj3r399+y1GnkthHmZdDouvh9nGvp3v+uTaHa9tcRxmrDPbQ2m6ecdl3kyDdi/eTNbNePfub6S7mbVvxjvaz17+Zta+Ge/e/Y10N7P2zXhH+9nL38za9roerW1Ne5h1Rpuq5lHarjaXeTXjw3VmzTRoQdYDk88eHesbmdUP0D76y758vakvh8vxVQW1b7LrwaNDrv78yomWwwcNvW7QHEwres3jgcasbvjLHqThEKg3hfiHXnmOXIvC0cfyppCf//nDg77g/te/PRhr5GFGFtfP6/Ftxq19n1zPWK/7t7U8zNjDFnpvaLt9owOtpR5hetCNeOaXgaM1RrzXHGlGvL03W4/WGPFeb6QZ8fbebD1aY8R7vZFmxNt7s/VojRHv9UaaEW/vVk0GWPqq6UH4wt2HGYvPAr0AehBfauBL59memuxEvJlNP5pnTvU/8drXHp6oP/BZN+P1AGlefXGQ1LfpvuHrn3z433/0R4fHfeVjNr9lh29FbuRag7WH36Y7esgo/bOf9azl96R1z22Lq+tUv/qqflPIurb20x1mXFtnF7e8Mov9sc98PqzFwYYu++K7w6zW6/bBnrp5px9x8EbqWoMaZN0ZlpaHdWQkooGnB5OvHs5IXT5qkKwZlpaHdWQkooGnB5OvHs5IXT5qkKwZlpaHdWQkooGnB5OvHs5IXT5qkKwZlpaHdWQkooGnB5OvHs5IXT5qkKwZlpaHdWTsRdZHT1/YHmad0Kaq/dHpzaE1t6cu35au5mhce03mzjOH1nNz777nnuVNIXXzrBsqN1Wj6zrIvuWbnn1475/+6RJTvzrma574xGsHGodU5JBLznID181/5TufDhj78HzH8553ePc9198U4udG7WuX1+ZnXve6wx2PeOTJgVzZPszs6Wpemfkacmgte67noGuzcrrmqx5dHGZe189rVtvT1cWZJ2uE52idgc/rwVm3t3bOHs9F18Ln9eD2rJsa5+Ss6y+6Fj6vB9ets8U5Z0tb84uuhc/rwe1ZNzXOyVnXX3QtfF4PzuuYc23NqG4PsxJ70ZHZvBeeea2zf6u2j3xz+M1Rg2iMnlVN77r0v/mmNx2++FFfePIKpW6uHBjcfOsgqz/VUn8/rT4qp35z9pv/25sPT3rCE9fDMH303LCX7OMh5Xo5DMSzLn56EL7eFPKBP/vAuqelmPyfytehtPXnY+5/v8872b8PM56rkTUKl8PsAvtengeHlw5yDr58ZZb7pmdf9CC8ser8sD5nW/3NeDO7y9rLZdZW3+VueUbzLmsvN8oc8V3uSLvFd1l7ua3snHe5qdnbd1l7ub1roOtymd0q7NacHmZsxMaq/SiN552n09iTeWQY0cBlD3/ZyD7rh6r/x+/8zuEpf+/rT7/NqFdP/PDyn7zzT062URl1oP3B2952eMxXPPqGA5CDZxdqvameG7/0T//Gv3+yLzc8T7BmrquvH6z2mnmYdR7WWL7NeDzMnHFD3ex71dRz0fOpmsPMe3XN+ompyT712VtfNQ90zMHiu3rEwY+QvJqjYW1mRmbW4k0ufXvn5NmPF2RmLXtjZmS25WcOZgY86Hlx8CNEby17Y2ZkRh6z9DMH0aW/mzuLeSJ51pLNzMiMHGbpZw6iS383dxZzEP8Wdvr2MEMIEpx98cWZp0+ODDzus+685FqbHL7k8cAba4YPXcfh+cCf/dnhMV/xFesrlLqh8urnG578lPbvFDnvT975zsMj65f7cmOWf8mqG/7xhn3DKzI8R83yKg4O9Kw5PJ71jGec/NZyP2fq7nrUjDeFPODzPn/ZYx5mI19518Osni/PkT0XzvaNDg29DrNaY7Z+PjdrXaMDmYFexxx6YzcvLvnsnUGNBoQfYaeDA8/1pi/7Lg8N2GnMdTo40HrX3by45LN3BjUaEH6EnQ4OPNebvuy7PDRgpzHX6eBA61138+KSz94Z1GjA4l2jg2cGFt8eZjZiNucA866tydo9nuKS7/rUuUefWGvAsV6HmWUPs8J/869/4vCExz1+fYVWr8jqFRsfIx98/amExz76K9dDcDm0jodaHYwcjguKrxu+Z2jhlrlv+FWHpw7KZz3zmeu/5/G8au/sz7Xn8L/4879wuOORt63/ZoYPROeew8x7Pnff63PRNeGVWa1ZH6xZSG3+muqajjmIzr31zOHc20MNWtd5z+Wca++sTg89WF5q0JyzPYffw3Ua/CNMDz1YPmrQnHM9h9/DdRr8I0wPPVg+atCccz2H38N1GvwjTA89WD5q0JxzPYff4nJOX+i6W7M9zGzERBCbgqfv5syM1nkd8+jhEmvecemjT8RLTvXm0Hccnv/7nvccnvbUpy4/XFxv9sg/V7+V+ba3vvX0TSHHVxu+wdfNmwNq4XlFAq+eQwLPihyOpT36Cr/9275t+TtU3T7N5TWg/9nXve7wL//5vzh84uMfXy4XPNcOhOcwq7XX53Ksu+e8vErV82PvqfVhVmuxHpj7gE9EBzKnL+w4z7M+R3+ONtehr4zLyiFzCy9rvcvK2dov88ta77Jy2NcWXtZ6l5WztV/ml7HeVlZ7mGEqrE3wgKefbZAZaC/1Ftrreo9vSz+aj3ivieY3fv3XDy96wQsP73zHO9Yxs5UYFPVvaP/9zW9e/0DoyU36ePCccBxEsxma5rDjMFgOk+P8ec95zuH973//skP2bXTdPY23/8EfrH+Mr5ub4zBrn9OZ+/Zz4TDzXl17Dxepu6ziOr7yzVOP1nWOvejTP+vJ2qOZrUUOe+gwNbM1Z2sxyzx41vZ8tJY1+BJTM8rCN5uTtUdTeSMdOazZYWpGWXhnc7L2aD7d+x49n9wXz2XzMOsCuSCjWcfDXSZ6Hzwhc6O1tjRklZ8aJPMv/uIvDi/70R9dfjHxG3/1V9u/SGw/PrjKqwOtXqE99vhzaN2NPrmlj1dZaE4wX5H5EJS/fg9lPjfvMfdNb4/rbl7ccphp3eVQ9Z70iu3kOVrT+DnMvG7ux/2otp+60HrzOUMH5nzmZWYvXId7dGhA55ijBkvn2r7RbKa3f48ODTjyMwdHe8Nv3YxjZuy8nleNBvTcHDVorz3U1s04ZsbO63nVaEDPzVGD9tpDbd2MY9Zhl1G64pmBxQ8PM4sIyAXRFFJbaw5+iyML7HzMLhu9Vpdd8/qoN0Lc9ZrXHB72oAcv3zK77eEPP/zRH/7hDReZjKNtncOD7/g/71j/4vPy5gi9slr7Opx0w/crLA4xHxDLqxff/DncKjvq+nton/zEJ9jmgrU3f9CDzLIvvrjkfZjxnG523/U8usOMvbEXI7PcH5rks+901oxq1sXvPutZhmf4zuGs3VOzRqH15qk9dz3ypmams3ZPzZ5GmaO5s0fe1Mx01u6pR/syTz3Km+0HL+gMc+b31HgLrTdP7bnrPV5npHd4mDm4TBhBz73AjEdnJA8czTx3bf2oLr0fpRtlJE8PfvjDHz7cfdddyyHmm/FDHvDA5UD7xPFQKD0P9kUGvfFd73rX8rb95RDSYcah5QOA2tq6sbtfNMEt8477rM8+PPNpTz+8973vHV4X73VW53NGW4fZrdg3h9ns2rKHGY72PeOdx/ogs+zhwS5/5Em+82Zu50FTyBxklj08WPPUZG8tdWHnZc4ss0b9iCcvkXzzmcEs+c5rbTfvMsoz4slL3JONp8tOzto92fhB+6k73JONz9lZb/WV0R5mGAupWbBDa1x32uJmuaMZfCJ5rFXz7gMfevfoO45ZYf0m+tfceefh4Q9+yHpw1IHGo37t06++4Q2LJfdBNlgia6quf4P6mic8cX1r/no4aY31AK1D6XgwsT548sqrXs3xRgte2QVyyDzvuc893POue9bPj/fq68C+mRtTh5Z/M1v2fIn75jDjeo72why0jj2yd2ZowdShZ559p+84fDmjB1PX8R2Hr8NOn1z5Oo68nNGDqev4jsPXYadPrnwdR17O6MHUdXzH4euw0ydXvo4jL2f0YOo6vuPwddjpkytfx5GXM3oQHZh89R2HfniYpQkD6ODU0oP2UBd67toa6pxnP9LlOug6rEwe9hVXB9mdr3zV4Ytuv2M9yNbDRm9g+DuPfezhv/72b6/xuc/sV+HhsPwbWr0p5Gv/7pOurVGHmLJP1tMrrJMDDr2/lSjuJAO+8Jj3vOc8d3ln5myfvjbeP3XnPTnMjutexr59mG3ta2ve7ZvntIWdt+PImc3Q7MXKumhe5+s49jKbodmLlXXRvM7XcexlNkOzFyvronmdr+PYy2yGZi9W1kXzOl/HsZfZDE2HI9+Id0Z7mCHYE4DWiA/0jJpZYs2To8cLwhfmA02Xx8z+1HlW31p89Z13LgcZN+D1VZAOhOLqZ84e/1WPXV6h8S1HZ7v2ntlTvSnkrW95y5LBqxjW5MDJA2nZi/ZRcx+Ci9+vhlIbh2b9ppC/+qu/Yks3IPu+YXAkuHaer4eZ1r6Mffsw27Ovbm/sczZDM8KttUc++Nnasxn+QnSgZ6O6tOfoM2fmnc2cgw70bFSX9hx95sy8s5lz0IGejerSnqPPnJl3NnMOOtCzUV3ac/SZM/POZuTs0UwPM4IK94SlDk8iufD2wYEzLTP85cGXaA2+1OCHL90nP/nJw92vec3yrcWTm28cDsu38o436tLd/ohHHv7w7W9f98P6rA12axb3x3/8x8tffK7f9fjpeHzTM5+5vFJkf+wX5BqBxVub/Cte9rJb8jy++nGPX14Je73cC3uGN1LjB+FB88XVR3E8jtT6+TbvGp391MxKzwdeczmr3nNqvOhBeHT2M4OzJv1ozLt2FjweckF40Dxe8jyjZrbHj8a5rp0Fj8frMTNHzcw+z6gLu7rzk8UMH7yz0HhGzQz/lg+d/fa4JhstXhAeHd7ZHG3nZVb+9jBzMGIHeQOdNjl6+8hj5nWyTp+9zPDMes9cO8859fb717z61cu3/JZXOnzr7ojLKx690vArpprVm0LqQMtXaKxdyAec+w984AOHf/dTP/Vpe/zWb/4m21mQPW7tmzn6Mv/+7//+LXke/+GXf3n5bSasxdreeDeDQ+d+VJfWM3oyjOgKZx97dM5AT6b7vbryWksWvDM9c41mlEMWHvRd74yZLjPJgk+v59RovCYz0DP0njEHazbTMSfDiM9ZnlPv0TkDffqr36tLLVnwuYbn1Gi8JjNwa+Y5dSE1Oe1hxrDDDEiN565LRw9ueUc6srbm5M90nab099577/KtRd5+nwcV3/LrDjS4wnqFxptC9u6b/Rb6wV5B68jeM0stPWu5d57Xo57NnYeO7A47rlsns7yOa/LIyNlo3unQem1q8ulHWnSgdaM1rXG+eeeZT3326Rt50YHWFWfea2zxOc/eWa473YzzjLqQ2tlVb/E5zz7z6DvdjPOMupCaXHCLz3n25CR2uhnnGXUh9SwfzUxvP/ri2sMMAYHGMtETin7Upyf1+C6Ke/NSlz3r11+YvvOVrzx84W23r+9U9GFGzaFFXwhnfPxjvurkTSGsk+tnX7qOw99hp0+OHvQ65jI/Z/Sg9R3nedadPjl6sDKowcy1hhlaEL7TejaqK6fLQt/N4c7xoQXJLyTPHHWn3/KM5qwzyux8aEH21Wlz5p6aPdAndnO4bg/40bivuvOkFs9ID99l4e0y4c7xoQXJ39pDp9/yjOaVxcPru86513eNJ/Xmq24Psxo4bBSSYfTnoNexb8SXZrafbgZHJuj1yP3zP//zw6tfdeO7Fv2GCg6tOrB4mKMurMf6ppBfecPJtxxz/ezZd/LZ83xSD4/eveua0yfaO5qhAUuHFq5DNKmHx+Pedc3pE+0dzdCApUMLd6vxU73eZT2fq31f1pXcl/M3/XpvPf+aDw+zvMSzMGagvcXxME/deZiB9mddGjI6RM8MPbzXWN7scdddh0c85KHXX2HpTR28u/DksNK/o/Gtx0Ifcvjq59DerjeFsCfQe/H+skZnJANkZm9x9OjAbmaOusPi6qPLJh88SleABxlUb44eDuzWNUfdYXH10WWTDx6lJ3pz1GTRF3YZzHPW+dF2Wem3NutZdjebZees83v9Tu/5rJ5ld7Ncy9k56/xbes9n9Sy7m+XenJ2zzr+l93xWz7K7We7N2Tnr/CP9TMvM+dPDDEMthgkO9Easg8fnGRwZRvvM2+Ms12hm3EhTb/a481WvWg8xXlWdoA6u5duI9Y7G47saU8eBth58R2+9KaR+OLp+fRR7AXnuN4ujvOSz37PuRTx7ckszyk4++z35F/HMcru8jnOG566toWYOFu+66/Ea93hSY3+us1drnevMy7Xo93hSgxf03DVzI3OwZq673n7qPZ7U4AU9d83cyBysmeuut596jyc1eEHPXTM3Mgdr5hptx+UMzfAwQwDmYsUzA1lkpLXOfnzMQXjyzHd+dFs+dOTxZo+HPPBB6w9EL6+sjtr+EWgAACAASURBVP8G5ldZyyGmn+PybDnQOPD0Lkc8HGy3PezhJ28K8X69t3yO2ePjeeA1uh7p4EFy09vNU1saHsyyN5+116AGS0td6Joc0DNqZolkgcyzhwedO6rRgluZ6ApnWmZe195Zbc+oTj/rJd/1My0zr9tldJw9ozp9rJd818+0zLxul9Fx9ozq9LFe8l0/0zLzul1Gx9kzqtPHesl3/Ujb8bk+vbXtYWZBboKQ4tGZg0+feXzJdR5zrAPaj44ZmDyemtej3uzxqle+8vCo225fDzK/yuKw4kC6AXVo4Vt+5kyv2PD4VdzjvvIxh9/+Lzf+ppDcd+7fc9fojN0cDtzSe05tLzWIBoQHi3eNztjN4cAtvefU9lKDaEB4sHjqQmr0nnfcXr29e2vvh3VAZ1iXvPuq8YOed5zne2vvh0zQGdYl775q/KDnHef53tr7IRN0hnXJu68aP+h5x3m+t/Z+yASdYV3y7qvGD3recZ5fVs067WGWmywxBnDPRlJLD+Y67l1bz7rFwYPM7IWzhrrw1974xpNfUZWHF6+mOKgWjH8Tw2PtysUrNfh6U0j99oo3/MqvrH/gkr12yJ67WXE1H2mSd++a7D1cp8Fv3NLVfKRJ3r1r1tvDdRr8xr06PDP9bIb/VuHW2rP5bHar9kvu1tqz+WxG/q3CrbVn89nsVu2X3K21Z/PZjPy9uJU1m7eHWRny4c14VvxsAXx7NHu152SROcL3v+99h+/6zuff+Ouf9IqrDiC/qjo52FKn3ofbyFNv/3/bW9+2Xu/c59Zz7ebFwSdWfsfBM6M3Zk1vT3H10XHH0XBeHnyJzmRGnn0j3ZbHWdQddjmp6/aTvvJcto5M74c1cv3s8ZrH67xboSPT67C299Pp4KzD67xboSPT67C299Pp4KzD67xboSPT67C299Pp4KzD67zL0o2yvRZ7aQ8zNmLDVk2gvbkRNGBqWYN5ovWu0cFVz8OZcKn/2Mc+dvjeF7348AWfe7/l0OLVE4fRcpjVIRXfOoQ3Uqc3eeaFD33gg5Y/0lm/8ePqcd41qG8T1+ePzz2Yn2M+93w9GDstOei2NM6nNpLTIdnot9Zmju+cTDzGrKvn0WXDpY995dz8Vu4o0zx55sgF2UOH6SMPLXPzW7l4rMuavNSig2cficzRk4eOuXlr0RnxWJc1ealFB+9c18zRk4eGOfxIhx7EB7aHGUNMLAIyBzsdXGl4JEe/hfhZD8RHD8KDHZ9c9S9+4Xev/25Whw8PHzyuOaBAZvybmfmTdzceX70xL3zw/R9w+K7nP//qceY1+O4XvODwb3/yJ5ff2NJ9vuvzmp9rdIWeW0dtdO2MzKFPDTw5Ob8o3/nMUYNetzjzrme6nLmnnmWVppubowbJxWve9UyXM/fUs6zSdHNz1CC5eM27nuly5p56llWabm6OGiQXr3nXM13O3FOPsph3iAcszfAws4gwc65rXj2ca7wdoj9nNvNkDtrZftCUt35g+kUveOF6oPkAqoNqOaxAvUpjxmFmxMPBtWrDv871Lc38Qe3Ve9wDrxRXb/HH3OJOeN6BGeu2+5PGGa69zrKvT+O+v+iORx3+82/91vrpn32+EfnzPuI6TaftdMlVz6Mycg6XvPuss2dvM9zyeO49wYNeo7jk3WedvbNG9ZbH86t9X/99oHVdfG1cj641149550mueh7pd07n85z6HCSzPcwqaLYxz1iUQJAM5u6t8Zz63HmnL858V3ea973vfYd/8v0/cO1A40AAOUSMcePPA8gHgOvlEAnvyolfOQ4q9iJN5S7ZDefZieaoZX7DvnmOlU3d4JLJr/HS+p/qfX/Dk5+y/HWD+hM6/lrjayqRrwfQ8+7rwvPPxHr0PD4T9+o9Xe3bV+PW1/fV611Xhr2D5qqeHmZcWpvh9qB9rstbPQ96EG2i12QGRxa8kdlebR1oL/yH33XtlZhu0BwGHAB1w+amDbfe3ONn1FZeeYt3cBAwI7/QHD3cyYHDAeS1jgce+8C/9ByGtcbRk7ri0aaXHmQvzoBDU1jcCX+T+66/AP7au+7m07xgfu4Z8vVBX3gznHMus+72lPmj59jpkrtV/dW++6+nq+t9egXy64QePFWfdqlpDzNEhTyIcZ+1NdRgaf1B7wzPqdFV79o9fGZ1fHKdp7iPfOQj194Ucr/PW79dx825kMdyU9YBYE3OuJHjTe065+DSYYR2PWyOGjysteo4JIV4VzzOFg9r6bmQ6TXgvA5zDibP1prcW7zvR3/Zlx/uedc9h/qNLvmRn2vm/poYcWiYXxbeqtzL2t8o52rfoytza/i/Kdd79jxrxhz01R4eZltGh4xqFgTRuXfNvLB4ZllblzWe5M/pvd73vOhF177lqEOhbtDrTTpuzuZH9XLz5/AIPwfDeuDwakU653K4LFiayuXgGKyBf8Gd2jX/uA8y1v2yP9b8NO77jkfedvixl7+ifVPI1tfH1rz7OsLjrxvrPDff1ZlhL3XnuwhHXq5JludwI8wMe6lH3nN58nJNcjyHG2Fm2Es98p7Lk5drkuM53Agzw17qkfdcnrxckxzP4UaYGfZSlxcduCdveJhh9gJwoGfUXhwO/QxT65yRDw9YOnzJMTOOamfUf+HXO+Z80+ZGvnybjJu3XuXwCmU5AI43dTxwxrW2tnJ10OBfsHQcFuDxIFt1OtjMLb6jn3XJWp5PPQ8d3KXhkTn4a5+r5zNk3/WmkDf9xpvWrwc+13xdGF2nrvr64Gvi2E4h86biT8GQ/WwthQ7c0t/q+d59oANv9b628vfuAx24lXur53v3gQ68zH3dTOb0MKtgwjv03E9oxqfOfdV4WQ/OOs+SZwZ2/uQ6LVzh8qaQH/jH602dm3je3Dko1rkOArjCpdbMhx9zDoi1L/3xEGLdZabDdNUeD5RFp4NrnWttuDXTeTqY0HHArn1mHQ+2k/mnad9PfcpTDj9+192Hv/zLv1y/jv31kjWfc/N7OXtc2z+qra8aXSF1alLn3lr7XVvT1daO6vShK6ROTfXMEq1lZr3no3rkM59eZoXUqameWaK1zKz3fFSPfObTy6yQOjXVM0u0lpn1no/qkc98epkVUqdm1Kfe/fAwQwRWOHVhPrw4OnNdTUbOZry1s3U8G+U5q2p7clYHml+hcfP3QZQcfd3YXZ/c6OMwWPI4UEBr4MCaubZ2Unvf7Mfc5n5jzc/Ufdef87n71a/JT2fb5+c/e5s8c72lsbZqetdkMKNPnM2ZgXjdu2ZeaJ4aZE5fSE1G9vDgbM4M7Dw5m2msrZredeeHM+I1R80MTL76nM001lZN77rzwxnxmqNmBiZffc5mGmurpnfd+eFYDx+953DWFDc8zDozIcwIy42aR9shPvRo4OkLzaEHmRtd4wWZuS+uPjoOvr7lWL8p5P7HN4WsN/zjjb36haseTocNeuvgTg4UvZLxfKm9BofVcb1VWxq+XYjmeKCWBh016Fd+aJaDWM9hfV7KsYasE7/3d7wuy/M1f1zjVuz7y7/kSw/vec97ljf11OeXz+dS6P+szOCtm82sdz36WrJmb92tj5eZ14NDY5zNSucc+y5Sz9Zi5vXgurVms6t9X7tis2vErNB1d625nqMZc3Jmuj2zy8hpDzMW50mDfgLm4I1ZV88HGweLd42uw05XHA97Upsa92jh6DOv+Je8+HuufatQN2bfvJeb+3F2w809PToU0HJgLDd8HUL0HAQjPeuzp0TyF177JHfxHw/BG7w6HBe996fnlntA6wOTfawzZx1rchaN9+pahy2vLnPfdzzikYdXvOzlJ28K4XObn+vsS2eOGiQnkTmYc+fONBfR3eq12C/YrXe17xv/w6m7TlxD8KKa/x+vN9cEnD3H4WFmsy/uHh4NiL/65Nhc8vQgGcaaMaemH+lYj/mWnlx81X/0ox89fP/3fd+hfq6Jm7NvtqObNDdmbrTu4QqXWgfDyumA6bh13SZj2R/+481/XUf6heMgiT2s+T48dKiseaxDbvSswfNfc9Fr3cvc9xfdfsfyLscPfehDfPoX5GvASI0we/gZnuNJLT04W+eyZ+esmVp68LL3Nss7Z83U0oOzdS57ds6aqaUHL3tvs7xz1kwtPbi1jnVV87Bv8zBLk/uq+XA942qGNtG+mjE3T+0cc67xg8zcV01PDXoNc8XXr776oX/6g+u37Ljp1o3aN2tu2MnB29dxQ59u+LwaIesG1IGzzJo95tpkdOszs8e6qt2jX7hP877rrxS8/KUvPXzyk5/ky2FBPr+F+ZHcHq09WXc9maO1c04GvHsy4NyjhwPRgsVn3fXFme/yPKfG5z697tHDgVv+9NGD5IDOo64ZNT736XWPHg7c8qePHiQHdB51zajxuU+ve/Rw4JY/ffQgOaDzqJnNsNPuOsxmoTnzprsF4ayrDHjX5nIdenKMzqDOrOzRgcxB83D1ppD85cTcuMHlxs4rneMrlOmsbva+4asuX3dIrHmRv/DyL3tR73XIOEFra+0uH6600uc+s/c6bW5knfg1c85axzzzH/HQhx1e/ao761O6fN3x+QSXwfF/4EDPqJmB8J8qrHUvsjYe8FO1X9a52jdX4lOD99XrnVeH5wEybw+zEuVHx6HJ0OLRe2bOXvQ5d0+ND4+RGq2RutPUjHki+sL68LzqT3z844d/9cM/cnjIAx64HDQ+MKhPbsQ6kE543YC5+Z7MfWjkwXL0LusddUutTA4aMk9Q/joQmK2HAxw6+lpLa9yX9l3fIv6xl7388NGPfPTkc3r8NK/gzzckHH2HezSdL7nMyR69edfMC0f8uRrrR3WulT0+866ZF474czXWj+pcK3t85l0zLxzx52qsH9W5Vvb4zLtmXjjiz9VYP6pzrexHvo7fdZh5ga4uznwu5Jm18ObsZV5cV5tDY44a7LI9c412L/d93/uSk59D4yAYHgwcTjp8fDD4UHGG61yjnWmdda5Dac1gH9KznzqkloNK3z4ka0EdaPelfd/+8EccXvHSl61vCtn7uZ59rfF102GX3+k6rrx+WNPldlx5yMA/0jHH4/6cmvVAe7u1O449eObama73aKx3XV4/cua+6tFaZKAf6ZjPsqwZ1awHWtet3XHswTPXznS9R2O96/KO/MmPtO1hxiI2ZSCaxL268o208ODWGtbtra0j31zVPNire3NVf/zjHz/8o5e85NqbQrj5+xXMsfYh0B4E4akDBY8PipWveR1AHCjoj7gcRNTMtEZlex9eaz3orKl16HXwsQ6e1Ky5eAs/A/a9vCnkZS8/fPCDH+TL4OTrkq+J/NyvYhV7NJIvJfnJX7QnD9yTc7XvPVep13CdwV51yl5d79Pr0XV5jbi+MxweZoTZ3HG1EXg2hWerT11mMU90LjN7i0s+PcythcssvKB15j784Q8f/tkP/tD6tv0bbvDHm/96gKhfDoHjQcHBtB4AuumvHFoy6oBCF7M1+6gln4NnzWTOYVc5I84z1jtyJ3nJoT3mLteoavijfl3XvWv2qP2VZ1m708GBWnN5U8iPvnT5DxJ/Pqvmc+2vE/NZ478Ib6/93kNqRj2enJt3bd25vL1V409MXdfjyZl519ady9tbNf7E1HU9npyZd23duby9VeNPTF3X48mZedfWncvbWzV+I3Vqs+907WGWQvrC7rFnIXyppfe86vzoODSeuWYOeuZ6Ni9dp8VTyLzw/e973+F7XvTi9RDobq7Ljdo3Vd2QO31xC8/Nmhvx0XfDDN1xjeWQY43icu3sraUG0YJH/r6+70c+9GGHV/3YK/1pXb/WT8hjw+d8NGOeaH03gysddSF18vSewxmrro/UHel1xjwxdZmF3nxxIx6d53DGqusjdUd6nTFPTF1moTdf3IhH5zmcser6SN2RXmfME1OXWejNFzfi0XkOZ6y6PlJ3pNcZ88TUZRZ688V1vLOy7vTtYZbGbuHcQGrck8cGQPjELhsNMzLA0dx81fipQXKY0zPvEA4t3o997GOHH/nhHz489IEPOnmlsB5KdRAcDwMOInq/IuGA4NUL/arRoeVZ1TzWg1Nr1lrr/Mif9OTWQaV5ZZWOzKWm12EHf1/b9/KmkJe/4vCxj15/U0h9jvODz3Py7vmaMHez9Z51Z2vs8V/t+/oV3HO9rqtvrPb4r6739eu251rMNO1hhgG8vtzpic08sfTJjXqyPadmBhbfzeBA9Ilb89KjATMje3SFfpSu/g3tfp/9OesBwCskDoREDjTrSrMcCrw6i8Ol8/iwy/kNvV5Z5X7YBx5yU8cc/bLn++i+b3vYw5efQ7v33nvXr4X8nFfvz3s3h0sdXyPMnWXONRnmLlqTBY5ymBup8WQPD27N0e1BssCRh7mRGk/28ODWHN0eJAsceZgbqfFkDw9uzdHtQbLAkYe5kRpP9vDgRefpaw+zbpEyprl05tDAJTo3Z/TOLI4HvHvy9syssS/rWT4ZRvvL6496U8j3v+T4m0KOr2o4CNaDQTyz7lCoA2OdH18NcWhUFh7XzPEta+YrKb3aqgy0J3k+mHIt7ysOxiXD8/vIvr/w9juWX331wXvvXT6dfF4T+VzD03fYacy57vxwna64EY+vMDXZW0vdacy5xtNhpytuxDsjNdlbS91pzLnG02GnK27EOyM12VtL3WnMucbTYacrbsQ7IzXZW0vdacy5xjPCTmtuVA8PszJgcl0boAe7TeH1DM7oGm3HMQOtoWYGwheOarSJqe96OLzVJ1e/nPjuu+46POebv/nqcR+6BvWq+i1vecvhr//6r5dPrz+vXd197q3z1wi1ET8e0Jqq0VF3c3MjPfme42NGX9hx8M7Y0uFxdseNMsn3nCxm9F0uM/x4QOYgulFW+kZ6dJ57DWoQPT2InznIHERXfadJbqRH57nXoAbR04P4mYPMwdQVP9LiAaeHGaIOWXQ0Kz43kb01npFtLtdhtoWsgY4+89yjLeSRPni0zDu+fpfju++55+pxH7sG9e5UPr+gv04us77V+Ze5V2dd7dtX49bXV9f7xmvMNWkPM4ag7cXBu7Zmq7bPWeXbmpGNDw+Inzl9+sxnTRYekEzP4cgArXGNfsQVz4e15rzGjMcPlpYaxD+aoQPRuXcG844rT/rgzFODzjTHGnDgSF9za/CD3QxPztyPanLPxVGe+T2Znd7cqN6T3WlGeeY7X3Kd3tyozpy9/SjP/J6sTm9uVO/J7jSjPPOdL7lOb25UZ87efpRnnqyOG83aw6zEGUJfmA/Ct9A+1iB35k0NOWR0XjzguVpnej1yyAWtpz7HRw5IxgxHWniQDPeumc8QPYiWHoSf4UgLD5Lh3jXzGaIH0dKD8DPco92rmelmM/a3R3OOdk9eaWa62eycvZyj3bvmTDebnbOXc7R715zpZrNz9nKOdu+aM93WjDlY++tqc6VpD7MUdWGlsY56xHPBEvGZh0tMDWuhqzkc9cjDHG+HzupyyGBGRvbmyQTRztB+dJ0fHTN6PMatWTeHK6R2ZtadpvOiY0afedVvzbo5XCF1lw3XafZ6ybhs7PbUrbFX13lvBbd3P3t1t2KPXebe/ezVdWvcCm7vfvbqbsUeu8zRfuDB8rp2PzzMRgbzWzVz0E8CDmRW/RbnOXqjs/xk0TBnBl8IZ8x61NufmenxnLo09eEcerhriusa5uBM12m8NjU4WstrdDVc5rB+5m7p8JGbPX4w81NPnzryM2emx0NWh50GDpz5rHHdeWYc3kLqPXpr8IGeUTMDi3eNbi/iLaSeeTsNHNj5mYGlcd15ZhzeQuo9emvwgZ5RMwOLd41uL+ItpJ55Ow0c2PmZgamBB5m7dz08zDB2WAE8cu5wz/bq0TmHGqxc116HGXOw43OWOfToCvNhzUjH2kZ8ieSbJxe/e3RwIFrmXe+Z586wBr6QmvmIm81Ha3bZ5HSIHkwNfCE1mhE3m3tWdWYyN6amW9d6anwg/B4ceeDBWVZqqk+u86MBO82IG3ngwZG/+NRUn1znRwN2mhE38sCDI3/xqak+uc6PBuw0I27kgQdH/uJTU31ynR9NIlp4eq+Vs/Yw64wZQlAhD/usN2+fNfCdFs4a1oQDrbXGNesmZ56avES8ydPXvD5A8/Z2c3zdbOb1GpnR+TIfD8gchC+sj44vzjw68zm/lnY9L7XoE/GxBtjp4NDghS+k9sx8zjNr5ht5zXstsmZr5Mz+rJ2XPmZ4CtFQo+l4fNagG3HOtT/rkd88HjLprak6+ezRk0OP10iN1llwnT+59I285u3JPPdV4wPh6J0F54wRl76Zjjx74NgPPTkgfKLn1MPDDEGGzPrOA5fonG7WcXhyRs+8Q2tcd9ri0ICdrmY8mNPjA7tMz/Anktf5U2uNZ7mOM9HBpdaZzEC8HZLX+Uf65HMdZ6KFS223bqchBySv86Mxkgl6Rs0MLJ46EU+n6Wbmsr5oNjmdPzl6PIVwYDczlzU+0HM40DNqZmDx1Il4Ok03M5f1RbPJ6fzJ0eMphAO7mbms8YGew4GeUTMDi6dOxNNpPPMcniz61EwPszIT4NphGeje3o7PHHp89DNEm/sb8c6ypviudy5zMroeDpxpWdNa6sJ8ZFZqmZM76vExZx16+9GCaEY9Wcb04EXD3OvCoR3NPLcGHuzyUl9aP9JDFsi8QzTkdZotjoxOx2yWb01l0Hd5cGhmuWhHSEY3ZzbLt6Yy6Ls8ODSzXLQjJKObM5vlW1MZ9F0eHJpZLtoRktHNmc3yrakM+i4PDs0sF+0Iyejms1nq0Q4PMwwIQfhCONAz1zmvPjn0o1ny7p1FnXN65t5/t7Z1nlPb72x8RuZ4PCPPnOv0pJ45PJhrdjxe1qPvtNYwt75bzxwe57j2HB5kna1+K4M5eSC5Rmo8Wz26xPLNvJ65zpxz+lnObOY1Spda96PaGefWzkzvbGZt6VLrflQ749zamemdzawtXWrdj2pnnFs7M72zmbWlS637Ue0M1zejHx5mFToL9qw24556D6bGWcz8ZJnXzHNq0DrXI5/XmGWgcw56c9ads36XQZaRNbc4z7uaHLA01IWuOz+ctXAdkudZx3ne1XjA0lAXuu78cNbCdUhezahB9NnD78X0Z783Z6QjD0SXPfxeTH/2e3NGOvJAdNnD78X0Z783Z6QjD0SXPfxeTH/2e3NGOvJAdNnD78X0Z783xzpntIeZBTZu1fgKXZeP3jU6Ztmnlj71xdfHzO951vSJrJP8qEcPlq4+6I3UzOkLeVxzX39e1qbGM9epoy9EtxST69d50p8asq3rNHt16SXX/hEHTwYe0Lw516mpWX2QfWxbmHln/tmMhWaai86c3WUU1/H2UY/wov6Zj7VG+xvx9lGPcLb+RWesNdrfiLePeoQX3dvMx1qj/Y14+6g73Ls23vYwY8hmjDWjtw7+HMQPkgvCzzLRlAcdtXsyE61ZApobVJeHz57Uoel4+6hB7zEzmKE17lnHmsx2FjNz9rpGUxwP/OjMowfR4IF3bw18cviSd+/a+uKZjWrruxqukCxzW/XIM+K31kmfe9fe14i3JuuRZ8Rf7fv6FZxdo+uq02rkGfH3pevNcwD9zIsb8aWbHmYOoiYM7PicoQFrjoY6+9Kay37k2+tJnfNn++xmeNnTVj/T4c11cr/0nR4ODQjv7K6GA/GDxVOD5qhrxjwRTWF9eO76OF7n1maNFpzlMMuM4nl4Zn3m03fY+TrdFkcO2OlnM+v36PZonDmqyQE73Wxm/R7dHo0zRzU5YKebzazfo9ujceaoJgfsdLOZ9Xt0ezTOHNVbOTVHQ01P5tmHGUYjoSCz7OHBmvOAS5xleOZ6lLFHU96ZjuwtjeeuM98z16lj3cT0bPlKb49rsjuO3G6WXPbkGjtNx+GpmeeuraE2ppdZZmSPzjjTdLPiks/e+a47XZeHp9NfdNatM8tnncJO1+Xh6fQXnXXrzPJZ52rf167E7Fp1s0/H9e72UbtvD7NObI4nkBxfEPDGPfW1y3n9/wz2kI2GvjT5YJaYOnoy6UH7u7p0/nDvjJEXDb7syWbuHLTJ2WPfTIcHtM81c2dRez/o7KW2zpw98OZYJzn6PfNO4/2Q5fWpOx16I/rkOt6ac2qywM7rmetOW1ynKa7jRxlbPFlgp/fMdactrtMU1/GjjC2eLLDTe+a60xbXaYrr+FHGFk8W2Ok9c91pi+s0xXX8KOMy+G69zcOsM7GZnNEX8kDb4UhDTnmojdRbmaXLR5eZnD2swZpG12R0XGbQG/ElZ54aTC19zf0wT11IDtpuNtN1PvRk0xur5iN1ZCaPvpAZ2m4203U+9GTTG6s+58NZ9o14a6rudHu5kT/X6PpujXPyOv9e7px1cu/dGufkdf693DnrXO372hXYurbdnOvMDCy+PczyYhNgpHZY50NnpLaXupA68+DBzIEHmZNTfDczzzy5c3ivmzndXshmluiMnFWffveu8TrPNXNjzrs8612n17OqM8u9a3zOc83cmPMuz3rX6fUsa+fi67iZb2vmPGvP5Ufeq32Pv8MyumZ7+JHm6nrPr3f3dW3ONde4uM3DrER+YC7M0L09ec7A281Ys9OQMZrZ62x4/NnP8shJTfJkmsfDuu7RG/Gao06ve9foC81nXT0Pe7ra3tF8pEnevWvnms+6eh72dLW9o/lIA89a7iuLfpSbPDkdn1z1md/1yTmH9dAkWkuNhr6QHHPwyXV8Zo7yyGKOLxGdEU1yI9466tR2fXJ4C2vGg95oLXWX5wx0s5zM6PrkMtdrogWtpe5mzkBX2GlnvL2zevMw27PIaNMs7M2nNns8I0RvzD3WDI561qcG7RJy/B80hTw8d+155+vm6c+eHPPUo1ny2eMHa25N16Pt0N6apz89qWeefPbowFyn69F2mPnpT0/qmY945h3i2bsmemdtedF23pqNeHwd4tla27rM2fKiJ4MeHPHMO8SztbZ11sEUyQAAAgxJREFUmbPlRU8GPTjimXeIZ2tt6zJny4ueDHpwxDPvEM/W2tZVDj2Z2cMb28OsMyaXvUOZgZ65rvmWxvqu7jLINHY654208GjJMe+6dO7R4weTt8ca8nLunhrs/HtzKoMHnsyjzzk8+3BOzuxFnxr4PTlo7Mk8eq/dcWR1M3Ouu3U9H9UX9Y3yzuUvuv5Ffefub6S/6PoX9Y32cS5/0fUv6jt3fyP9Rde/qC/3QU7y7tvDzIK9tRejBjPD/EVr+yqfHkyu+HxYwx7R0Bs9q5qPc2pry589mZ6VBl2i9Vmn1jmpzT69OZ/19rouD/1eP549PrTG2To5Y41C110e85yNeK9lDby5PTW+ETrDGvN76pEXfk+GNfhGONKa31M733p4c3tqfCN0hjXm99QjL/yeDGvwjXCkNb+ndr718OYuUttTmdkXNzzMEBe6ZnPgbGbNSAffaYurOQ96a82NdOiNrAs6x7XnIz/rGmcZZCbigWc9cpmD6EB4+7a4znvOel7LWawLZ3Rtf9boyOowOTxG16wB1ox5xzGzzjXroyMDHPHM8bt3bX+ua92eOv3ZO8Prmnc903g2W8d5ozr92dvndc27nmk8m63jvFGd/uzt87rmXc80ns3Wcd6oTn/29nld865nGs+6dZiDlUsNslZ7mEFe4d9aT/ura3F1La6+Bq6+Bq6+Bj7zvwb+H5381LbgjqBjAAAAAElFTkSuQmCC;" parent="1" vertex="1">
                    <mxGeometry x="90" y="228.5" width="286.72" height="125.89" as="geometry"/>
                </mxCell>
                <mxCell id="ucnz5OOYnX01RJTa8PLw-4" value="" style="shape=image;verticalLabelPosition=bottom;labelBackgroundColor=#ffffff;verticalAlign=top;aspect=fixed;imageAspect=0;image=data:image/png,iVBORw0KGgoAAAANSUhEUgAAAggAAACuCAYAAABTJvW5AAAgAElEQVR4Xux9B3hUVfr+O33SewIJvfcmHUUQsSv2srrrrmWr6+qubffnrrrlv7q9qogdRRTLqghYEFQUkN57LyEJIQkhbVr+z3smN945mWTu3LkzmcCc5+FRmFu/c+457/m+93s/06BBgxrT0tIwZMgQqJvJZAr4e2NjY8Df+ZdwjzHiGryvfJ1wnyPYNbS8T0e+T8L2/uEbqg9D/a7lGvIxCdsnbH8mzjmxmqsT31f0vi8TAcLw4cPx5JNPBgCAzMzMgL/X1NTA7XY3/5vNZkNKSkrAMZWVlQF/5+88Tmk8n9dRN/k+p06dgsfjaT7EbrcjOTm5zfsQ4FgsluZjGhoaUFdX1/x3TvoZGRkB1zh58iR8Pl/zvzmdTvCP0vgbj1G39PR0mM3m5n/iPXgvpfEZ+CzqVlVVFQBokpKS4HA4mg/hu/Kd27JJbW0tXC5X8yFWqxWpqakd1vbV1dXwer3Nz0970C7h2L6+vh78ozT2C/snHNvzGfgsHdX2HAMcC0rjGOFYaet9Qtmeky3HbFvjPlq25zeqBmh6xj3nCs4ZStPyfemZ2+LZ9qHmtmDjXra9lrlNnu/j2fbyuiLPOcHGfazWlXi2fQIgNM0kCYAAAVRiAc5CLVJawFm0FikZsOpZpGIFjON5kQoFjLUsUnpsH8+LVKhxbxQ4SwAEINTGMwEQIDbroTb9poEDBwoPwlNPPdXmzkPLxRIehIQHQYv3JtREmQAIELvgUJ6zBEAAOtIuNtS4TwAECI9zKM+0nnGf8CC0BE1a1nQBEEaMGIGnn346ACDIncSJX727pDtd7ZLnyXL4gL+rXf88X+2S5znyfbgzVLuf6UJVu+SD3YfuabXrn6hI7ZKn21KebOlCU4cYODDVrkl+rLK7ltdQu0B5DzUC4zOoXeV8Vl5DHSPju6jdwnwGdTgkmE2MsD1tqnbJn4m2Z/+qQ17Rsr3cx7GyvZbvy4hxL39fWsa9HtvL35eWOSdWttczt+mxvZ65TZ5zjLB9sD6W53s9tpfnNi3zvR7by+uKPN8bta6Esr1R60o0bB/s+xIAYdSoUZg9e3YAQJDj7xyo6smVk5G8gMoxYP6uBhU8X15A5ftwEZbjquqFjQu0HOensdSggh+EGrywU+RYM1GoGlRwoKrBC3+T4/xEoWpQwQ9CDV74DHLH8VnVoILvogYv7BQZJAXYxOMR97A5nTCZzeJasbI9FwIZvMh9rMf2fF+ZMxKp7dkvMpcjYtsDYhzJMe1Q4542UwNHjmcZoIYa97GyPcdiqO8r1LgPZnv5+9Iy7vmNqsG0bPtg35c8HmNl+1BzW7A5Rx73sbK9lrlNj+3l70uP7eV1Rcu4D2V7LmTy96XH9qHmNi3jvr1sH3JdAcRaHGpNbwYIr7zySpukNzm2p4VwqMWFIbsI9biPYuW6MyKu2oL8QyCSkozGBhe8J47DffQIKtavge/APnhLitFYWwNzYyPMDgcsGZmwd+sJc+++8HYugqWgM0wpqTBZLMjMzg7ov3i2vUz+0cInCBVXDRaWiGfyT6hwnBbCYaw4Ix3J9np4C7HijMSK9CaTqeXvSw+Z+nQj9BoRCjUqJKRnXYkVVyoBEJqWVS2LlJ6ODMbMbqirBRjiqKxAY/FRmA/sQd2ar9Gwawc8JccAzzfZIgGrvvIXkwmm1DRYCrvAOngY7MNHIWvkaFjz8mBOSYPJZkVNTW1IAkp7gbMEQGgZO5cXqQRAgPC6hJuRkAAIENk8au9oAiBAeIPVnukEQPCH90NlGXa4EAPXSCPc3HpCDLIbLpwQQ6PPh8aaU6g5uB+127fBs2ML3BvWwXPkIBorKwBVymVQUNDGP5ocTti794Rz1Gg4h42Eo99AuLNz4UtKZuK/ODOe3dyyGy5YGEmPm/tMCzHIITwtbu5o2T5UiCFYCE92C8cqvKPHzS27n/XYPlYhBjm8E8z2iRBDy9C1POfIoeszJsRAkuKzzz4bsASp0RZ/oItJHR/kJK6OI/MYNd+Af+fv6vg7DaqO4SsLl/rGsbqP/Kz8aNSom++q5jXofR93fR18pSVwb9sM9+YNaNi2Ba59u+E7UR4RKAiKF8xmWNIzYOvRC9ZBQ+EYNgrOYSNgze+ERovljLO9nj42YtxrGUtG3EfP96XHJrG6jxE26Ui2j9YcqqePQ9k+2FwdjftEyybxvK7ItteyTsbK9sKDMGzYsBZZDAmhpAiEkgguTlahYftWVCz5CO7NG/2eghMn0Oj6RlgpXE9BOMebyFnIzoW9W3c4zxoL++gJ8HTrAXNySrNXIVSusJZUOz1x1VCckUSaYyLNUckAClcgTE9YIp75OqHCBcEEwkJxRrRoUCSEkiDI8LEQ4ItnrlQCIDStukYIJVFjMelUNWq++gw1Sz4WAMFbeQKNVFsMIlUdzoKv+1jyFZxJsGRlwzJwCBznXQD7iNEwZ2UjMysr4LKxIr0lAEJoIRct4Ox0J/Tq4RMkAIKfwd+WSmwCIEBkhqkz6hJKisE1KBIAIVKAUF+PxoZ6eA/sRd0H78Lz1WdwHzmsez2P+okMQ3TrCcfU85F37bdg79INJsphm0wJJUW0XLj1LFJayD9GeG8SACEhlJTwIECkjYeSGE8IJUUolDRr1qyAtUnNHlb4BWpUyoEpx07U7kAlZqWO6/N8OXZixH1IEFJzHYiQ1fwB/qZma/LZmKap5lTQlaR2J/E3dS47z1Hu0+jxiPTD+sOHULduNeqXfCgIhwQKHamZM7OQPG4SUqZdCPvAIfBlZgEOJ9BUb0JLH4eyPe0h93EktlfsG60+NmI88ruIxbjXc5+ObPtg33F7zTmnm+3l75jztHq+P91sb8TcZvS6Es7cFqtxn0hzbOqVkGmOjY2oLDkGz7FieHZth3vdarjXr4b38CE0ur8ppNSRAILyrAxBWPv0ReqkKUgaOQaOPv1EyqQbppDIPFS4QIvrLqTtm4RPwi2uFc+xvYQOQktZciNkk+PZ4xOrmHYo3kJCBwFCFC9UQT89c1so23e0onIJgBACIDR63PCWH0f9ts2oWvkV3Fs2wrN7p9AwCJdXIFz5jY2gByIum8UCa0EnOAcPg3PUWJEJ4elUCHNqWrNXQXaN6/mIEjoICR2EYItUAiBEp+psQgchoYPA9SbUpiSY+GECILQCEExuF5wnjqN2+TLUrV6Jht3b4SkujigLwUGS4OBhaNi8QaQ6CvKi0Y26B/wTga4CH8mcngFLYREsfQbAPnocbCPOgjm/E7IkYmMCIOiL7YX6WPXEVbUQG2O1i20v703Cg5AQSgq2GCaEkiIECC+//HILRrv6H8jyV3MOGKOSi//ItQv4u5pzwPPlAk+yfj6ZpWouAFGNWqefcR+5dgFdRWrOAeNp6hoJdHPLNRLIdlbHiTkhuxoa4DtZBdfmDahfvAi+bVvgKSuBr7aGQhARL+W2rt2Rc8+DcPQfiPr163Bq8ULUr10Nb1VFxNc2Z2TC0X8QrJ06o3b5F/CWlUZ8TXEBm014ECxFXWEbMwE5l10JW4/eMDud4mfDbO/6JkwTrI858atDDFwM1XwB/iYTlThO1NwUjiM1r4TjTK4NwnEiF9dS81c4zuT6FEaMez3flx7b6/m+omF7fntyfYpo2D5YH8tzzulm+6Bzm+r7ipbttXxf0bB9tNaVUONe87oSBdvrmdv02F5zFoOMzLWU5YwGm1tLTFtLfCkgFcjrgflEObxfLsXJ+f+Da8dWNBIQGJ2aaDIh4/pbkPuzB2DJzBKhBqZCnpz/Nk59+hE8xUcBr/bwg5lSmb37IfX8i5AyaQrsPXri5Htvoez/PRIdXgSLRaWkwD5mIpwXXwHbiNFI79TJcAlTPToIHT2uKufia/EGRGNXpMf2Wpj0BCZyYTO5gFoorwMXAhmMhQpLdPSaMdEIx+lJc9Rje24O5UXJCH0dPdk70chi0DLutaTPhxr3Wua2aKX3agYIesREogEQgrmPwnab+nyoOlEOT2UFvLt2oP6zT+Ba/gV8ZWVAo8+YnXcrV7Hk5KLT4/9EysTJzXF9hgPcx4pR8/mnqP54AVw7tsN3qgqNRJ4KSDFbYLLbYU5Lg61bDySPnYCUc86DY8AgmCmpTCXLY0dR8ruHUfPph1F9B3Fxlq3u3Q8Zl8xA6sRzYGO6ZFIyXNIOmzt4fgDqFiosYdQipad2RqyKoCTSHL0tKqwGq1uSEEpqu66CnkVKD0AwijNCEp9SxtvjYQn6uiZHpR1Wq0VkiskeYr01Y5RMNN6PcwEBC4GOcg/1faKy8WyqBqv2mne0onJnFEBodLvhrTgB14G9qFq1Eg3LlsK9c5uokRDLlnrxFSh45HFYpIWTz+A9eRL1Wzeh5rNPUL9xHTzFR2B2JgtQ4BgyDEljJsDRtz+sWdnNioji2RlG+eoLFP/8hyJMErPGFNLCLkgaPwnJ48+GqWcfuDOzmhUbEwDBn1Irh7gSACEBELSI9ehhxcejUBIXYD5XefkJ7N6zB0cOHxEhQc4PmVmZ6NG9O3r07IGiwsIWGwo9AIGL8sGDh7Br924cOHAA5eXlIkSZmpqGLkVF6Ne/L/r06YPUpjBkAiC0IZQ0fPjwFlLL7VVnPRpFUFBfB0flCdRvWIf6tV+jfuN6uA/tb7dsAsodd/rTv5A67aJW13F6D1wH9sG1d7e/zHOv3rDkFQTE1NUn8/jSxx9F1WsvxQwbBNzIZII5LR22vgNgGTYC9mGjYO03UCg4pmdmtuC3yHwCGWXLrkkjimvJxX+4k5IX7lA17o2qsy5/X3pq3NOtqOYFycV/aHT5PqEK0AQr8GSE7cMpbKYMFnIsZM6IvLuUCzxpqXEfyvZ6Cptpsb08t8nFf/TYPlhhs0iKyim2lws8RTLu+a0fOHAQK1asxI6dO1t4jnhPXr9bt26YNGkCxo4ZE8ANkvtYHvccI2peEO28dt16fP31KpSUlLSoqUOvS25uDkaNGoXJ55yN3Nxc8dpyyItjTZZalvlwnC/ULRpF5dqzsJnwIIwcORIvvvhiwIvGSogh1H1kQRw+ZCjhHRrUYjIJb0Hd+jWoX7MSHhZL2r8PXlE5MXLCYaSrsHPkaHSZ9SrMKamRXkqc7z58CAdvngFvaYkh14vkIianE+aCQlh79UXSmHFwjJkgSlOzPgRbe4kr6RF/kQW0oiX2ZYTwjhHiL1q+r3BExZRxpEXYSp4LjLB9tAR+ZMGphO39xfpkcSWO6507d2HBgoXYs3dvi8VaPc+wr3JycjBt2lScddZZcNjt4mct870ClAm0337nf1i7dl0LMrE8pyUlOTF8+AhcduklSEtLDXmf9hr3wUT7Qgm6GTXuT7s0R4oWmUuK4V21ArVfLIFr3x5/PYT6+FI5NNnsyP/D35Bx+VWRrMXN55bP+i/K//5H44mVkTwdK2SmpYv0SNvQEbCfMxW2wcOQ0bkQFqu1+coJoaSWtdkTaY4QWQ7qiVAL6S2R5hhfaY7c2b/11jtYt359m+BAmQy4sOXl5WHGFZejX7++/hBEEA+kOjtOIfRyIV24cBHen/9BCxXc1qYxblbOmzoVF1xwfthcqWBhCT0hoXjmSp02AMFTcwruLZtQ98E7cK/92l850eOOrwUTEEQ+e5/+SLt0BtIuvAy2Tp0jWYLFub76euy/+BxBUozbxtLfDics/QYi+5obkTplmqg2aTKbRbqsOmVWD/Gqo5F/EjoICSXFsLOtNJLeQi1SWljxWrJOQhF6+R0TGMyb9ybq67VrvhAUjBkzGpdcfJHIWtEKEIqLj+Hf//kvSkvDS/Fm6PHBB+9H1y5dAqbPUGTqBEBQmUtG81qIV3oyHzSlsGRkoNHnE14BT0kxKj5bjNpF7wuVQyP0CgxbZFlJkdkHSUmwFhYhedzZSJ1+EZxDRsCclGTYbTylJSh59CE07NgK74nj/uyHCIWSDHu4Vi5k7VwoOBhpF10OX2EXuKkyabEK4qUegNCezGwjUrfkjB8jPAjtSbySFykt5YND7aTORA+CvEhpSZuLF9szHr9w0SKsXLkq7OkkMyMD3/ved1FUVKgZIHz08Sd4//35IUMLwR6GHovLL78sLIDQntlW0cj4aVVJkRyEF154IcA4clElTtpyARp1vIkny8WbOGmrRWeIDNWkD54j34e/q8VteA/lPrwWCyKZK8rh3rMb9Su/RO2Xn8F9+GB8AQOrFZa0dFg7FcLRbwCSJ05G0lnjYOtc+E1qY9ifTNsnCE2FndtQu+wz1K5eAfe+PfAcL0NjUxqRwbcz5nIcD+kZsA0/C/bxk2AfPAwUk7KkpsHaxFdQbhRqPHJsqMWyeJ48luTxGGzM6rmPEeM+Gt+XFpuovy/F1vL76LHJmW77cOc2rbaX59B47uPi4mLMfmUODh/WV932jttvw9ChQ1oU2gu2rvD74b2+/vrrAB6E1omK9/nRD3/Q5hrYkWyvZa3VMud0iDTHJLsd3opyuHbtRN2mdahe/gU81AqgAqHRYkZaR1SQ40g4tHbpCseAwUgaOgLOEWeJwkd0rcessWLm8VLUM9yy9msh69ywZxd8FQy5aBdhitnzNt2INrL37I2k0ePhGDEK7i7dYenUGSa7Q3gVQrlNO1oRFK1uU3U/6En3MqJ2RqxsH41dkRavQ9Q8nVLsPFYu63hJc9y3bx/+++RTqKzUl3Z9yy03iywDOYshmJeZx8x+5VVs2bJV19TVtWtX/OzuuwLODVtf5zQsKhfXAIG1CkwlxcDWjf56CNu3+tMTVdKVukaDwSeRte8cMRpJo8fBOXQ4HL37w5qfDxIR27P56urgOXoI9Tu2oX7datSt+RruA3vBf48nYBVgI5MZlvx8WLr3gnXIcNjPGgtrn/7ILOoCs8XSfKgW3kIol3WwsESouKoWRblYCYRpCse10yKlx/YJgNAoBH3UTQ84ixeAsHfvXvznv0/i5MlqXdPgTTfegKlTp2gCCLQbAcLWrdt03auwsDN+fu89CYCQkhI4HTPNcdiwYS10EKIRV9XCWzhVXQ13VRXc2zah4fNP4dmyET5mJVRVxlcYQW3GpiqItm49Yc3NE2qH5tR0WDIzYcnIgiU7R0grmzOzYElJFYqIrOwoAITVKoh60Wzka/iqKuE+ehj1G9bi1OIPUbvyq7BknaP5fEGvTf5GUhLMufkCIGRMOR+pk8+DJTcPJotFE7FRzyKVAAjGLFJ6bJ8ACMbYPgEQwp+tEgAhhFDSzJkzA6wqC5KQcauORTLGKBdekkVn+Luac8Dz1UITvGHzfbxeeMtKUPnxQtR8vBAeKhwyNZG1CeIojNDm0GOtApMZMDdVVOTfufibLYJ7YLJYRS0DS3omzBkZQkmRMXhrbj4s/JOXJwou2bt2D3+EU0zR4xEVIn0N9YKrQVDloVBISTHcx46CZEZPWSk8x4rh2reLEn+67hPzkywWmB0OIRTFuhOpF12Oxi7d4KFdlRCFyRS0+I/6WZkOpS68xPi7XHjJiHFPUSB1HJ+eCrmwmXwf/q7mUPB8de0Cvof8fZFpruYFtfl9NRmC76vmDtEe6lRCxrTlolckKKt5QQT6as0C/iYXXuI11PwjI2zPdw1WXEvdx7GyfVhzm0bbB+vj9rK9Ioes2FaP7RliePKpp3V7EG684Xqce+7kFt9oMNuTEPny7Fd0hxgKCwtx3y/uDZja5O/LiHGv5fsywvZGzW3tl+ZIwqHPh4qjR+DZvweuJR+jfslH8JUc6ziAIAorJctBd335Tb9UcSvNV18H94F98JRysT8qFnxmcwgAUHkCvooKof3go4R0DMBVo7JIR8EewS5pSk5B0piJyLjyWsHzsGbnwGc2o/pUoGS2niIooYr/RCumHY0sBtpOfp/TPa6a0EGIHx2EQ4cO4cWXZrcIm2idJq688gpMnDAB2dnZAafIhZcIPh1OJ2bOfEYIJOlp3bt3w68f/r+AU2PFGdHjbYuVpzPmACHZ6RQLF2sM1G/agIoF78K9eT0aq/XFqfQMhng/J+dnDyD7zruEK71Fa/ShZvkyHHvgbnjLy9rtVQgKiIZdPh/quUP2+JBut8LJ3b7JFJvnstpg790XqVOnwzlmAhpy80UYh+EbEhsTACEBEOKJMxIrcBaKtxArHYRYAgR6WubOfQNLP/usRWaclslo3LixuPOO2xMAoaYmwAYxAwiNrgZRUtl8cD/q161C3aoVqN++Nb7j4FpGVhSOIV+hcOZsJA0b2eLqvrpalP/zz6h46Zko3Dn0JemQ8DT6UE/3PGsZeDziz/YTtShIcqAgyY4chw1pdhtsJoZcQl/TiCMs+Z1gHTZSpEzaBgyCpVsPZBV1CQBZWnLxEx6EltU3Q8W040mkKuFBODM9CAQIq1atxpzX5gat9dDWHMMQ2Xdv/Q4mTZqYAAitAYTZs2cHGMeQIig1NYJw6Nq1De51awTh0Lt3p3CNC25BVJsJsFpgstpgsloAqw1mpxMmRxJMlPnlbzCh0etBo8crYvbUDGDFR/Fvbk+78h9SL7wMBY89IQo1qZv74H4cvu1GuI8ciqr15Iv7mrwFNV4vaukxYIlqilWxAqXPh/VlfuRpN5uQYbcKkECwkOd0wGkxx8irYPJzPLp1h7X/YGRMOBtJI0fDmt9JEEONLECjtk+8FDaTi//wGeXvWC5AIxcZClb8JxoFaLQU/9FSXKu9bK+nuFasbG9EcS0jbH+QIYYXX9YdYrjqyhmYOHFCC6Gk1mzPsT7r2eewffuOsObG7t264Qc/+D7y8vxFm5TWXoXNjLC9lu9LS2Ez4UFgNcdZs2YFGEcmIJKgoSZRkbQiF4xQiFgky/nKSuFeuxJ1X30B167t8JUeQ6OETsLqxVAHmy0wc3HIzoGtey/YunSFtaAzrDm5fkJgaro/e8Bq84sVkUgIE9DoE6qDguDnconwh/dkFbwnykVc333ksEgN9JaVwsuYfoy0BFgFMefeXyLz2psCyjpXvPQsyp54zP/cUW5i8SdpzeNFtcftBwUUJJJ4DWqAoDySxQQBDNJsVhQm2VGY4kSGzQaLsHsMmtUKa3au0KWwDx8F+4Rz4Bw0FPb0jGZ7cucrFwiKZNwrb0Xin5qcq+U+fA41eZDnqwmVvLZMdOT3pyYp8vtUVz/kOfL7kCSsJg/SBa8mVPI3mUhM4p+apEgehpqwzN9kQmWo+2ixSThzTkewfag+jpXtg90nGuN+3779eOrpmS1Aqtav/4brrxMkRfkbbWvcb9++HS/PfrUF0ba1ezLsc+t3vo0hQwa3+L6iMe619HGsxr2W+xiqg1BB0tze3WhYvAiuFcvgO3YUjXW1aPRGqXoiJ+LsXCSNOAvJYycIgSIr8+UdTn8aIT0FVGZsyiLQNDAJFihTTBVI4Ulwi8wAT8kx1O/ciro1q1D39XJ4j5eIf49aM5mQdNZYFDz6hIizs7G2xP4Z0+HeuytqtxX3aWwUQKDa48FJZp4wTZKk0lbuGgwgqA+1mkxwWkzId9rQMzUZeUl22IPxK6LxVkyXJDBMTYdj4GBkXHoVkidNhiUnV7yTXOI1VuSfhFCSt4XtE2mOiTRH9RQQjg6CknlD4Lll61ZRIEouGS9PL6zgeOWMKzBhwgQBxmUNilhxRuKZK6UbIAjyT0oKGn1ekWPPssrH57wI9+qV0V04Kfmckgbn8FFIu+JqpEycLFjsMQt2c1ddXY3aVctRPf8d1K1aLspKR6MGBNUFs2//MbK/f5colVy9+EMU33VbNJZRcU0umPU+LyrdfmAgewpau3EogKA+j/6DbLsFvdOT0C0lGU5rDEmNTQ9iKShE+qUzkHrV9ahPz2wmNfLnBEAwZpHSw8xOAARjbB+KMxKruiWxFEqSU3OPHy/H22+/g/0HDrTwqtE7xxoPl1xyMYYPGyY8aO1Zt+S0AAgB5B+PG6aaGtjKS1G3fBlOfbIQDTu3R7VAEL0BJKIljZ2AjGtuhHPYSJgpw9uOjR6Ghl07cfKd11H7+aciHMFy00Y2e98ByPvVb4WX5MiPbkXdimWGXZ4eAYICcgnIKyAo4H9b8xQYARDU10ixmtE12YEuDD/Ybc1gIUZBCFhy8mA//yI4L7gU1l59QUVMIxYpPUqKstyvUsJWba9wpZbp+uf7qFuo1C2jCtDIi5SW6oBG2D6uisoZoGIp72K1KIhGAyBoyQaRbW8EQJgy5dwWniYtKcEcS1yzyEfYsXMXSqkH4/OCRaB69uyJQYMGoqCgoDl0pgcgtGdRORmAG1EanV4UWZ9FeBBGjBiB5557LmAiUcc2xe6SbuaGergP7Ef9pvVwrV4Bz8a1wvUe7cqB5tQ0JI2diIzrb0HKpMn+0EEcNYZQaJPKuS+j9vMlom6EYc1sRsY1NyH5nKk49uBP0UiZ5AgbQYGnyVtAQHDK4xXpiuECA+UxwvEgBHt0h9mEXKcNnZIcyHXakWm3wi5Ep2IAFaiC2bMPklmC+uIrYMvMCnhEUSBM4lwE+zYCvCQMa6ie3YhrKN9ge9xHft9ovU807qPlWeVj2Hfy2JML08nHaLlPqGsE6+No2CRW99m//wBmPjNLNwfhuuuuweRzzmkxZeixvcKfU/pVSx93ZNvr6eNgNtGU5sjYt/XoEbiWf47arz5Hw7bN8MVIt8CckYn0y69G5i23+RUGoyxLHMnay+qJVW/OQdXc2YLgaFQjYdFa1BUNWzfpBmMK4bChKQuhzudFndcngEKkjRPfuqYshkiuRWJjus0qwEKekxkQdqTarLDEAChQzTL7x/cAF10REK7Sg8z1FP/RsisygrdwusdVE2mOZ26aYzjeNpJo1SqqerxtwbwOoTQoOlpRuZAAwXeyCg1LP4brw/lw79jmV+eLUSO5jLu63J89AFunwpjyDPS+IhUMK154BpWvvmCsrQiMSJ4MsymEQ7+nwNOciUAvglHNKICgPA/9BsyASLdZBFgoSnEim6Qxmk4AACAASURBVLoKJJwa9dBBrmPr2RtZr/wvAIQmAII/VVK9+yXjXc16T+ggQGR0yXLT7aViGWqROl2FkhIA4ZvwtpaQkJZQaJsAofFUNWrnvoy6t+cKIqKeBSqS+dzWtTsKfvcXkaEQSxJiJM/Mc8nHKH3sIdStXRXppXSfr+gWVHk8AhgwK6GtTATdN2oKPxnhQQj2DMyAsDdlQAzPTkOGPXoVMt0mE4qWbfDXzmhqCYCQAAgcCh3Je5MACC0VROXKpwkPgr8OkjqVOlgxxWaA8PLLLwfMz6yqWPfZYlQ9/AvAYOKd1sWImQpdX3pTMPg7VPP5UPyre1H93lsxqYWgtg39ArUeD8rdbgEMjPMTtN4DRnsQ1J4E8hO6pjjQJyMZuUxfjZILgZ6WYo8bI1fv9KfFNjXmQqs/IsYy5QJPnHzUjUQytU4A0bycZy6nYJHEJxc2k3UP5PvwOdTaJHxOWY9Avg8Bjzq2yklBrXtAV6tMVKLbXu1B4G5ZrYHC32QWOa+hjuPzHmqNBj6DvOOWn9UI29OmcoEn+T7sG7UWBPuuo9ie41Yu4iXbnjoCai2BYLbnNdRcGyNsf/DgIbzw4ksRCSVR3TCYGJZc2Czc70se9/x+5e9LHvfy9xUr2wf7vuRnlb8vPeM+2NzWappjRloaSh57CCfnzWm3tdk5cjS6vvgGTO2crRCuAUhaLPn1/Tj57ryYe10ICMgzoIYB/7ii6DlQ7GIkQKCOEgmKqVYzuqQ40D01CenUtIgWMmgSg6pwu3DE7ca1+04EyDPHc0xb3hVxEZAXannnGyqLoT3jqtHIYohWca14tn2okNCZkOYYyuNDAKQGjnqyGILxFkLZPp7CcVq4Um0ChL33/hCejxdENe7b1uJr79kbnZ74F5xDR4S7Rrfr8a4D+1H6yAOoXflluz6Hx+cDpZFPMcuCKntBVBCNeMBIAQKdAjazCak2C7LsNhQm+2s6JEc5W4VgiimeJ1wulLoawBDDjQcqEwChqipgWIRyWRtFvEoAhIQOgnrg6RFKUs5PAARPC6Eo2SYRA4R1d98JfDQfKaxnYMRKEuY1zEnJSL/mJmT/8G4hmdwRGuWYmcVQ8dyTfgGlOGh+ASS/1gELLPEPsxeMCj/oBQgcU8lWM3IdTVkLSXZkO+wxyVoQKooejwAHVR63sAerZyYAgjGLVEIoqSVvIVbem1C72IQHASIUl/Ag1ASE/VrVQWAthqeffjpgKUtNScbKu+7AiQ/eQSeHE2l087bDYmfJzUfmzd9FxvU3C239eG6+2hqcXPgeKmb9R+hFxFsjJHD7GoV0Musr0LtA5cRIgUK4AIHpjJk2CzonO4WngCJJyTFSVOS71ns9OO5yCWEoelaU9ydAuGF/RYsKkOrYuVFFUOS4qlyAhjFxOUYvF17i7+rYuVx4ieNPvk80CtAEK/DExVCOaav5EVyk5Ng5UzDVoSRyLBK2Tw3gjDDWLHNGaDd1M8L2egqbyUWG9u7dh/8++SROnqzWNRXedOP1OPfcc1uME3ncc4zIvCB53HOsyXwdGSDIsutycS0jbM+5UubAyONetj09dDLnQJ4LZNsztCaHG/XMOc0kxZdeeimgE2uqq7H2vh+j+IP/wWmxoMDuQJY9Nru7wNFkEsWWUqdfjOw7fgJbtx5RjUfrGcmcCJnlceL5p3DynXnwlpfFnJwY7nMrYkl1Hi+qvH4FRa3SyvK9tAAEgktWeixIsqFHahJymqo8WimIFO7D6zieIMDl8wqPwQkS85rqS6gvRQGuSzcdDAAIJOOpF2FOMnIxI3kh5+/qyYigQiYPyh8vf5dJinKRGvk+nEjU5EE+J5+X/8Zn4MTMVDtOHqmpKeI3TnoySVEu8CTfh5OverHnToN/eB9ORDy/quqkIPbx7zyW7sz09DTx3rwf30VN3OS/ycQy2Say7Xk/mTwYzPZ8d96L9+TC4HK5m5+NAKSx0QeH0ylsQbl4Tr58FsX+Wvq4Ndurx5P8PryH2vbKM6rP0Wp75RzaWl4cufCpgRb7R+5j2lZZWLkwnjhRgQaXS0jn0w5OZxJS09KE8mBSEsnBJjGm1dcNNe4PHDyIF17QT1K8+qorRTVHGQBp/b5oG9pYlHl3uUT1Xi6Sycl++4Q77pXvKxLb875qYEKbcrHnGGU/cLzymTnWeSzvyeOdTgeSmXVgtcFqtbQADHq+L3nOCTbuW01zrCgvx/oH7kLxgneFPTiJZ9psKHImwRErlTv1l2M2i+qMWd/7AdKvuAbm9Ix2BwpCPa22VkhNlz/9T7gPHYhKTQYd62FYp/A96r0+ARSqXG6Em/sQCiBQUrl7igO90pKR4bCL0s+xAAWKEdQ8g7YUI81WKy7csC8gi6EjpTly0a6trcOXX36JVavXoLzcr+jpJ1OlY9DAgZg+fTo6d+7UPD60pHspLmuhqcHsmFOncPjIEezbu0/8t6KiMmhhnKysLIwePQrnnH22mNDUgCdYLr6sG6DV9n6Wdx2Ki4uxecsWHDhwAMeOlQToN8hqmIpdOAFnZ2ejU6dO6NmjO/r164fc3ByxGKoX81Ax7XjXQSBYIahhf+3dsxfHSkpw7NgxsSh5vb4WaqGKfTh22HcFBflCmrhXz57o0qWLAJw5OTkB84xM6D3Ecs8vzdadxXDllVdg4oQJon/UjeNPDTaD2b6srAy7du3C8hUrcfDAQQEQ2DjuevTojjFjxqB/v77Ni3WshJJ4Hz5vaVmZkIHet28fDh06jIqKCgEKWhunfmDhRF5uLgoLizBy1AjRF0r2U7TI1JoBgtJBdA/n2Z3IsbEinznmkz2fw9a1B9JnXIPkyefB1rkIlGI2Mz+eTPcost2VstAUi3KXHEPd11/h5Ptvo2H7lpiVgQ5r5ddxMImNjM1TP4G7bHoVQoUgZIDAMcJMhAy7Bb3SklCU7ERSlAmHLbwajY1CPpr8grIGlwilhGodGSBw4d6xcyc+/vgTHDl6FK11GndQV115hZgguaMNBRC4UJaWlgqwsWXrNuzYsQPFxcda7L5asy0nNi4s06dPw8ABA5rTIyMBCN8AlRpUV5/EmrXrsHPnTpSXnwg6wYbq98B9iBlZWZno3bu30OsvLCxEWmoqcnNzAzYkWhap9hRKot0JyOjZoW02bNiI3Xv2tKhrEI5tlGPpeenStQvGjRmDvn37CvDJsSS7xtsLINDub8ybhzVr1gV48tTvyvE3aNAgMS47d+okwGC4dUu0ZvzQK0AvBgtIbdmyFTt37RQAVu1l1NMPBG4DBw7AyBEj0KlzJzibUrIVz4MclpDHY1g6CLNnzw54xsoTJ7DhgbtwtMmDIL8AvQj0KGRYbUiinn2MXMUBnZydA8egoUgaORqOfgNhyS+ANSsH5vR0mJOS/II3ircjDOAgyj1TadDrFfUnfNUn4a2sAKWUXfv2on7dKtRvYB2K4rgPJegZeDyHIQiGHQgWSGpkumRrIQgChPVlNULQSEglO2wiRTE/yRkTwqHyjgQyBDjkFZz0uJtDCVpt4AcI+2FSyXlzFyvrIMgxRHliIZpXuy95vuyOlUvL8mNVhzJ4vuyilu+jdkdu2rwZH3ywQLiKQzVOjpdfdimmTTtPTIyy5CxBBO9/4sQJscP5etVq7Nq1u4V7P9R91L/Tm3DJxRdh2LChYhfHP8HiquodFHdHar0F7hoJVji57tq9G9u2bsPR4uKIQUFr78FnpGdh8KCBIE+rsLCzCEtwAlZsr5zL55T1FuQ+5vuqw0hcwIPZXt4tqxcSLsTqcBXtpY5H8+8cv/SmcDHauHETSlioyBsaIIfTn8qx3N0PHjwIQ4cOQV5unhjnFotZ/BwpQCCQZSlmjh11a8v23Im/8uoc8d5aWv9+/XDlVTOQn5cXlK+jthvtrg6Lybbn/fjtKGEYjtejR4uxfccObN68WXxDas+HlufTcgzHFEH4kMGDBGDr1KlAfFvy9yWPR3lu47PJvKDmYk3PP/98wLOwUuGqe36Iw/PfbvMZuVNMZ+lnixVpNhbZia4cbmsPQy+CtbAItqKusHYugjUvHxaChYwMmFNSYUlJBcsnU75ZFHtSFgG6dUhUY/yNYKC2BsxEaDxZJbIQCArcxUfhOXoYnqNHjC3EpKX39Ryjejc9p6vP4UcgSI1NNRyYDaF204sURZhQUusStRMKnHak2W0xBwYMI1AYisBA6D/oKD7FcXHl9uIADkKk9ovF+XSnPvvs837PgcbGyePaa6/GWaNGBeyMCfYIDLZt56S2BazIJ8e4Nd6ixWFFRUX43ndvFRNYuI2ejj179mLjxo3CU0JvgVz8KNxrhnN8Xl6eWAgHDxqE7t27CTAQTW2OcJ6NxyqiPXv27BF9t23b9uYQU7jXCvd4haTKKol+Gw0UC+WBAwcx69lnhRdDT7vu2mtw9tmTAkBVW9fhAvf++x/g0yVLNINGzl8TJ03EDddfFxBS0vO8yjnsi8rKKmzdtlV4bjhuZd5SJNdv7Vz2A4FO//79MWTIYPTq1VOAyUjGaZs6CF/95DYcoNiPhmZjjMRiFWCBwjZOsz/80G7NaoOZqnHJKaKMr9mZJBQZTTYbYLE27xJJWKKnoNHlFqWaG+vr4KuvE9wCH9XF2klFUpPdaF+rFSarDZa0dFgKCmAtKBQpoXWrV8C1d7ehHg7uztVggeGcZCriWSwg1dBpjS04VEShqtxunPQ2eTp01KtQbE2AcKOUxRCt2J4RMW1FrGf+Bwvw7rvvaZ4U+b6cNPr374dv33Kz2H2wcUe7bt16fLFsmYiLyrsJTWOyjYN4TxLPLr74IrGjlVnjwXQQOLEyVr5q1Wrs2LETx8vLo7YbDvV+3KnlZGejX/9+OHfyZAEUFJ5Ce4pUcSdI1cLly5eLMBABY7BYdqj3M+J3juvevXth0sSJcDgdmDnzmQiyGG7A1KlTWlSDbE2kioBkzpzXUH4ivPRygr0HH7ivxY5bT2EzuvG3b9+OlV+vArM4jP6GtPQRxyS/aXIsRo4cKQA5x67hOgjhAATlwVl5j+GHNJJ/bHYRfmhXoKDFoh3hGBYqIrBJShK8C9apsHXpJqo82rp0hS0vH6akZPF7/cb1KP/HE3Dt2x2VN1MyIAj/2N+x7l9BqmRGAtnzbrfwFhhRlbIjAgR++I888phwtYfbSDK78cbrRQyTrtn33nsfmzZtRtXJk1FbYEis+tWvHtIEEOgSXb16DT7/4guUlpZp5j2Ea4dwj2fIiKGHC6ZPx9ixo8Xk214AgbtmurA//XSpCCvIzPxw382I4wkEydmgjXbv3oW6unpdlw1XKOnTT5dg8adLdO3Wr5xxhfBWqFu4AIF98eFHH2Hp0s8FMTOWHq5gBmbYq1NBASZMGI/hw4chPz8/4LCIhZL0AITm3RggFg56FPLtDqRYrRCRqfb0KugapjE+iZwJmxWwOUTWhr13Xzh694O9R0/Ye/SGtbALzElOwa8wMdbH/zKk0BRW8JSVouwvv0f1/HdiLvMcbUv5gYEPZQ31qPS4haZDKAJlOM/UEQECJ6Wf3n2PrgWdO88ZMy7H4MGD8dprcwWrOlqxaqUfOGn99z//EpNnWx4ExtUXLFyEr75a3oKLEU6fRvNYvsu4sWNx3XXXCP5IrGWu6V2h92jNmjVwu/3ppfHUuJONZJEMFyDMmTMX69av12UHfgPf++53dAMEAsT335+PpZ99phsQRaPvFMLikMGDccst3wrgSGgGCCTgzJw5M+D5kp1OrLj7Dhx8901DnjvVYkGew4E0i1UQGmO96zTkJSK5SFOGhSgERFc81SkZ8nAmwZKZBXuPXgIM2Hv2ga1HT9gKu8CSnhHWHcmjqHxrLsr/8nvBpTgdmkI8JFGyzNUgPAbhF73WZgkChOv3lgdwEIwogqKn+I/WAk8kTN7/wEPaXlA6ivHJcePG4mTVSWzctCmiyVzrA3DCevK//xYhjmAFnrjIkVT33vvzRbgjkgVG6zNFchzfY8CA/rjqyiuRnZ0VEMcOt7hWsOI/cnEtRQyLNpr7+jxBBDxd2403UChpclCdB1kzhIvdSy/NFmmuehpTN39+788C10CpsJlc9Ip9z/5h9sbHnyzG4sWfGsbX0fMOoc4h2ZMeQ/Jo6AVT9EKU84LNOWGnOYZ6iLZ+p0uaIYcsmw2prHBnbp/sh0jeIeS5Ju7mTTDZ7H4OBN3+Kakwp6XBkpEpvAK2rt1gK+oOW2ERrJ0LBUCgil9EjYIp69eg5JEH4Nq1I6JLxcPJzJho8HlR4/GChZRIPIz2/qgjpjmSUPjb3/1BV5dxkrXbbUKkJdqeA+UBuWg++sivhVteFsBh/Hbf/v348MOPsHv3Hl3v1B4ncaFg3H3GFVegT58+sNEDiJYlh8N1WfMasmwyd+UHDx3CW2++jcOHD0f9m2gPeyr3DEcHgYvbzGdmCVKgnsZwyO9/91jAqVqksZlVQ74BwUF78A3CfVcCmqlTzsX48eOEjoU6S6jNcs+vvPJKwL1koaRwHyTU8QpPgVyFZItV8BY6lFehya1PIGBhpkRGJiyZ2WKxt2Rnw5qTB2t+J1jzC2DJK4AlNw9WAgHqNUSheasqUfLYL3Fq4XtRuHpsLkkA4G30y0ATEFAKuc7riZrHQH6rMw0gxKZXA+8ydOhQ3PqdW1oABO6eyTegy/zIkSPt8WgR3ZMggSz+Ky6/THgUuGAZrYPAHSxT5T75ZLEQPIq3kEJEBgxycrwDBHoGV6xYiffnfxCzjBEjbEwy8AUXnC8EzNTp13EFEJQXtdJNw5xoZkDY/JoKJL7FXTOZxWLPHb9IoczN/+a/2UynzBQAgAqP4o/DETO+BXUbKl6YifJ//RmNroa4M12oB1KqKlZ73AIU1DSJNEXbY5AACKF6xtjf6db81k03ipx5tQeBCx1TKt94Yx6Kjx0z9qYxvBpBAlX6mJ7HfHQ57zwSDwIXI4pUffjRx0Ko6nQHB+y2eAcIFA976ulnsH9//NXdCTXs6fG6+eZvoVvXrs2HtgkQZKGkqooKrLv/J81Sy6FuGOnv9B7YTf6UOYYgCBZIaowkhzPSZwo432SCc/gopF9xLZLGTxKeAoYPYgkEWnuf2lUrUPyzO+OmeqRWuysaCxVMU/S4m0tSaz3f6OPMNhsuWr8vINzDFChZKEl2JcpFUOQiQ3oKL2ktQBNJiMFo+4W63siRI0C2OMMM6gI0O3fuwrw33+qQE638zpyvmP74/TvvaFF/Qy7+IxfXUvQE1NdUimtRsOqtt94REslnAjjwA4QZmDRxQov0PLmwGb9PEWKYOQsbNuoPMfzut48GdGeowmavvzEPzJyId55MsO+SoQWSFkmyVVJ1gxV4EhyEYCTFlKQkLP/p7YaRFENNHsrv9B0QLDDkkGuzI9Nuh60dVBqDPa/gFaSkwD54GDKuuQkpE8/xEwnb0ePhOXECR37wbTRsXq/VxO1+nAIMyhoa/NkILHYVBwxsZ2ERZqzcFqCkqBQgUozGna+smCcrK1JtTS7wJIsNhSKwxYKkGMuBwNg8CVLKjoWTKoEWY7jvvvs+du7a1SEn2qDzBEFCt264996fBYwVLmzqxYQLm1zESx5LdAHTTn//xz9x5MjRMwYc0K433nADpkyZ3ILMqtQfUGzPhY1cjdmzX8WWrVt1DevOnTvj/vt+HnBuMIKoUk/k6NGj+Oe//hMXaaW6XhjAlHPPxfTp54saD2zB5jbDhJL0PmSo82xmk6j7kG23C9BgIQkwHprZDHuf/ki/+gakTb8Ylpy8b+pBxOj5KOJU9rfHUTXnBaEEGc+NCYkEAXVeH0pdDaKqYjw1akz0/fE9OOuXjwV4reJdKIkLyn33PxhPpmx+FlGYxmZD7z69Bcu/Z88ezb+RFEnJZOaNM45r5C6MOyJ/FTyn0NenaAwZ3KypICo81tYKzYCSklLBOqe3hs9j9M6cZLAbbri+GSxqIb3JYQkCiKdnzsIWnez8uBwYGh8qnDRH2m32K69i69ZtGq8eeBhltH9+7z0B/9haSIhjNRw5Z10PFIOT6BhgGIffBRsBK71c6tYmQFh+9x3Y//brMXjU0LcgVyHDZkMWxZfMZuFViBdSI6WdU6ddiNRpF4kURWt2rl+xMYqeBUphn1r8Icqe+K2QgY7XRlBA9cUarwcVLn82QrTSFPXawJKUgoLzpmPgg4+ioG+/gMskAELbVlWq03FX53DYRTla6nJw6GdmZArJVxaUoWa/erfMFKslS5diwYKFohJjpE0pH02Bnr59+4Aa+yQNpqSmoLYmMOWXinJKmWTuyrdu24bdu3ah7Phxofonl9nW+2yceK+//jqRSsrnCxcgELh8+eVXgrgZraaEcAmo+Iz8Q9sQMCmgyWjgpPVd4hUgEFj++z//jag2ScAibDI17975jYi+EGXJ/f3ASpT8XjgujQTSw4YNw1VXzkBamk6AsPGvf8CWfzxhqFyv1sHR2nEMQTDzId1qQ4rV0kRqpNBv+zdzZhaSx0xA8oSz4Rw6EvZevQVPwXCgwEV3zy6UPf4oapd/EXeCSCIbwecTRZ5OsYS0x4PaOAQG7BdHbj46X3gZenz7diR36yF2nGreS6wAgixaoqV8MMMU7eVBoDsyNycHdM0WFhUKl3pmZoYoZmO12uB2u5oLG/HL9AMIh/hIOfGR2PX8Cy+JnXykja5geicoHT1i+HCh4KfEVYMRr4JJztKTwLTBHTt2ifoTJEvKOg3hPifHUZ/evXHzzTeBdSjYV3LxH3W4Sq4OyHoK5GaoizGF+wytHc/xxf7KysxCWnqaSHlLcibBarPCx++2pkbc91T1KZGNUVFZKewRS7BAgDBlyrktBLXkKoT+qpWx8yAsWbJUkEUjLbzkryCZLsZGYedCFBZ1Rk52TpPHqVGAAb4bQWtlVZXI7mHxJ4bljACxkyZNxEUXXtAcBmvVg0C9ZrlYEwdJ+fo1WPfQz1C9a7tR49Kw6zDQ4LRYkMJ8aqtNFIoStMY4QAosDmXv219UmUwaNwlJo8bAkppmGFBgSiOzFipnPxdXgkicPCh5rBRNOuX1CpAQl81sRtbQEej9re+i07SL4MjNE48pI3RO8jJRVj5GWYyU96Qd1BOplmvIx8jX4LXl+/A5ODE+/OtHYmZiPie9ASQcDho4EF27dhGpUuHYhIskCV7Ll6+I+Lm7desmJHIHDujfXPVPXsSC2U3ewSl97A99HMOmzVuwft16IWEdiUYEQRHrCUw7b2qLip5t9TEZ8m+88abwbhi5a+QiQA/LgAED0LVLEbKzc8QOUk3EpW1oD743QQFluJk5wVoYLBnNv8cCKFx7zdU455yzA/g8rX2jXKyfe/4FIRWup3Xu3AkP/9+vAk4NNhfw35555lnBdYjEBrT5kCFDMHTIEAGy1SJbweYL9kVNTS3Ifdizd68o4b1v337dY5MA//rrrhUyzIroVLDx2KpQElGjz9WAkiUfY/eTf/eDhDggksmdL6oJms2Cn8AQRKbVJv4/HrIfSGpkWqS9Tz+kTD4fKZOnwlrQKYAEF+5gZuXJmi+WoPSxX8JzTHv1vnDvE87xCjBgCKHK40adzwdWV4x1mqLWZ7bn5KLr1Tei6LKr0Hn4SFgcfpIOm5y7zsVPLjksE8n0FEEJVZtdi7Y/nyOWWQxcaMnQP//8aaB0K23D74yTprzLlT0x3KErFe0YJ351zhw0NOjnofBZRo0aKQo/cQdmbRIaM8rjw0WQO7XVq9di5ddfR0RGY7Gca66+CtSAUJNXaQ+53DPtxsVg6dKleO/9DwwT36G9+vXrizGjR6Nbt66gcqAaFBBoqhc8tceH3wU9MQRO5I1QdZMqlyTwRrPFY5oj60owvKBXwVJUXMzPwwUXTMfwYcOQnp6B6urA2iey7eXCZpTVdrkahDT6F8u+FJ6FcMEKORff+fYtQthLaWHpICgTmM/tQtXmjdj95N9QvmIZfB5PNMdERNdm3IZVJRl+yGV99ngpFMXYXnKKKEedMuV8pF99I+xduulST2T56aM/vR31G9a2O2DjoHQ1+nDc5RKkQ3oPqIAYr82amopO0y9B91vuQCprW6SlB1XzUz9/AiD4rcGJbeyYMTj//PNE0Rc1mSkcgMDJ7R//+CdKSkt1DxMCtsmTzxEpcF1Vedy8oFEAQUll5SK4e/duvP3Ou7pd/VycKRnMFE+13VoDCIcPH8Frc18XugdGNLqxJ0+eLMIvirdAVrEMBRCURUpkIDU0iN0rBYIIoqLV4hEgkLPy/Asv6n7vrMxMfO97t6Jfv37NYFGr7dV25qaEXhNW7ly69DN8tXyFZplnerXOmzoFF110YcB41AUQlIdymEzY9+oL2PqvJ+CurgbFeeK50bPAQlEFTqcQYYoXQqOYbB1OpJx/EbK/+wM4+vb3Exqbii21ZVPanIWYKl8IrJsR634g8bC+qTYCKyrGMyigbchQyUhJQa/rbkbOd++EJScfrLvQmtxvAiAEjigucNPPnyY8BwQK5Bnwj9LCAQgrVq7Em2++rXvI2mx2kfo25dzJgtMge2+MBgjKgxIwPDPrOd0qj3zOe352N7p0KWp+92AAgbySzz7/Aq+//oZu97FyA/YV3deXX3YJevfu3RyiCjbu9SxStP8zs54VIlfh7mC1DIB4BAgMs8x57TWcOFGh5RVaHENS4KWXXhLw73psrx73/P7Wrl2H/737nqhj0lZfMKto9OizhOeNhF61F6lVgEAOwksvvRTw0HLeNlE7B1bt0cPY9tQ/ULzkYzSUlsBbV6vLULE8ieJLOXa78CwwHEGlxjigKghQkDRmAtJnXCv4Cta8AlG/ISipkbH9zxYL7wHawYsjvAU+nyizfNztwkkBDGLZi+HdixwVFgVjkbBcu0MQWzlhmnPzYD97KpKmXyyqY6YUFgFWv3Y+W2vjXr0YKq5y5d9kXQSGB9Rxa3/NjpYeWgAAIABJREFUg0CJbfk+nGzVsXKeLxOR5PvwOejpe+TR34ZnnDCO5j0vvGC62AErTRGmUf7OsSG7mwkg1GE+Tj4MQzz11EwhE6ynieqJ48biwgsuQEpKsrhEKNvTprLWQKg+bs32hw4dxhvz5mHv3n26Fu+rr74K5087L0CYRi7PTCDy8uxXRYw5kiakn3v0wLXXXi28LGpCnQLy1NeXbSL3MRehYOP+1KkavPO//2HVqtWGEOfUz3T1VVeCRDo59Y7PoeYH8PviO8169jls3LhJl9k6d+qERx75dcC58n0YHuL15735Jiorq3Td57FHfyPSbtWN3456Uddqe/U1OI4YFluy9HOREsvwo5L1oMw/DF+NHzdW1GHgPZQ1va25rdU0x7biqo0eD6q3bMCxV55H6WeLUXOqOu53kQQECk+BFSWTrFbY40SACVYb7H37IXXKdCSdNRaOvgNE7QZRxrmpMWuB4MC9L7ZFbOgdoLeAaYqVbrcgIMaz74jgz0lgYLUik0XBLH5gIDdW0kwafw4sk8+DfcRZsBR0plJIzHak8vfFD1o9icdDFgMX+bMnTcSMGVcELMSc0NSAgIuwrCYZbFfEuPWc1+bqyg5gH7IKHTMC8vL8hFK2WHJGOImzmNTChYtw4MDBsMmDzK74yY9/2GxLAhc1wOGi98WyZXjttdcjZsgzq4RKhCSRyh4fOaZNO7bFGeHvbXnb2AefLP5U8BJkEKFrFW06KR7THFeu/BrvvvceqqpO6no1EiGZPaJukdheuY46FEpOAj0dBOIECcxOKSjIF5wdEoyVprncM/Mhn3766YCHbg0gNNbVwrV5A7yb1sOzcR2qNqxFZWUFqr0ekeMe7+5mvqSQdLb66z9wZxk3XAVyKIq6CknnpNHjBFiwd+8lMhVKn/gtqt97C/BFPytA5N/SY0GtBYJBpilSSEbXJxGbk1gLM5XZLFZ/n9JrpIWoakrLgH3MOCRdcS1sI8cgKz8/4IGj5bKOd4DA3dLIEcNx4YUXgJkCau+GHoDAvpj7+htYs2Zt2AurfwFLx3e+821B7FK3WAIE3peL+Pbt2zF//gKUlpWFNbhpg9tvvw0D+vu1NmSAwMl85sxnsEHnLlh5GAIR1oMgoZQt2gCB92AsnKl/DDdEmv6nvEc8AgSCoLfefkfs1vW0s0aNwnnnTRE8HmV+Mhog8LnYB0aQqTV7EE4dL8OpZZ+hYfEieHbvgK/4CBob/IWBqJJH9zOr8JHFzrx3stjjvZGXQNElpkpm2Oxi18l4dRT1jTSbhMWf7L36IGnEaFAUqfr9t6Nea0FkI6ARVS63kEBmiiL7Na6BAQW0hLfALkCBrgwWswWWHj2Retd9KLjosoAQz5kKELgDnTHjcuGe5gQWKUBg/jZTG/VWamS+Npnfsqci1gBBmXxXr1mL9957P2y3OtNDWbCKi4MMEAg4fvvb30eUHUAOw3XXXSO8LUqLBUDgvUhYJLmSoRgjWjwChF27duHVOXMFINLTCLx79eqJ0aNHi9RcepA6JEDgQ/tX/0Y0bN2M8mefRN2aFfCdKG9TmIdM9gavV7ijy10NcMUxq13pYDqgrSYzkixmZNvsyLLb46NQFLkSTVUhG5lSFCVbKgCPmQgkHRLcsR/juVFZk0W9cuwOEVKwGBAusg0biR5z3g0gjDI2q+YC8AOXY6KyPC7dfWryD9G8XOCp+ftqMjJ/V++8eL66FCsPk+/DxYDqfPc/8JChXUWG+0UXXYDRZ53V7FpWAwS6keUQg8yKJ99AHVelIuCiDz/SzLRWvxAFme65525hd7mGhRG2JwhUcwG02J7jQE/evdPhwG9+87CI//KPOsSw+NNPMXfuGxH1JQlwDAupxx8BgpqHQS8Ix426EXipPW7yuGeIIZTteR96iF559VUwWyXS1pZQkjpdlH0XLaEkedxTn2LWrOd082hoE16T/U7P3KhRIzB+3DjRP4r9+W2pQzVabM/rqXlODCPJHgR5zpHHfbC5rU0dBFDm8avPceofT8BbfDjsBcrj8+GE24WShgYht9tRms0E5DuSBLGRaZNaXNUd5d3Uz6mkKZY2NKC8KU0x3t+DwCDPbhfEQ0dT7rtRz+wzm9Hpiw0BAOFMS3Pk5MUKb7fe+u3mNCwu9mpSmJYsBi44yuTKieiNeW9i2bIvdXUVd9znnTdVk9s0lh4fpiP+9W9/D5vBf+89P8PgwYPEIqAmB/73yadE+qDeRr7BDddfL/QO2vL4GJXFECyDhIvbzGdmYc+evXpfo/m8q668AhMmTAiIm/PHYHwdUc3xmVnYsEF/Ncff/+6xgGduTRp75jPPCH0MIzI3uLYQ+A4dMljIknfv3l14FNTAUQtnRM+4l+e2sNMc3Vs24OTDv4D3WGRyqDQkS/pyEar1esTuNL73p/5xQsJbNus/EOmbLYIVHxfZDxF8eooMMgGb0C9wu+KaN0J7sx/IGyFgY9EuZqIY3WiXCq8XA1ZsAcxkNPjbmQYQuFu///5fCOldpekBCGq3KSWM58yZKyo2htu4a33kNw8LlUQtcVU9E6Us3atFnllZpLjjX71mTVivxRQzCiepAQI9SI/99ve6+BlirrJYhGwulQdJRGsvgEBvG2W0n3r6GV2ZHmpDxmOaIxfuL75YJsi2cgZKWIOglYNTU1MESKB0eI8ePcDsCpvdDrfLJbxCSr/GKr23dQ/CiROofvLvqHv1eSPeW1yD+fMkvFW4CRS8qPf54qLMb6gX5AJFTQV1nDuedBVCPT9/5wIoeCLMRnC5RR/Es0+HwIBZJuQV0O5UyaT3IBqNtqnxeHDQ5cK563bDdIYCBC4yTMVjWqO6RQoQKH/LSntUfQy3jRo1Crd971ZBtItHgLBv3z5RbTEcOeYBA/rjvl/8PAAgbNmyFS+8GJhqHo6tCgsLcdVVM0Rqo9p7w2vIpNJoehAIELghnPnMs0JgKpIWrwCB4/jxJ/6kWwshHJsQGFM7g4C9ID8fWdlZSE9LE0qY6hBktIBx6wChvBxlv7kfjZ9+GM77aDqWA6jW5xVggRPzKY8X7sZ4Xq78r8XlKYWZDzYrmCqZbLVGbdHSZEgtBzWiydZuYe94zzShjQkKSBhVCnKRHxKtRtB60uNGcX096kwmXLhh3xkLEPr06Y07br9NCKgYBRAYmlj25ZfCg6CH3c6aAXS9kmMicvFdfmK00pjCpW4uUbr5m/i32WyBQ9agqA+sHmm3O8T1leb1BdGgkO7DCns+nxdul1uk+IWzm8zJzsajj/5G7AaVEMOCBYvw6ZIluoY53dRjRp+Fyy+/TLim2xsg8CXWrV+PV199Tdf7KCfFK0Dg87311ttYuMj4tbEtg7GfyfWhVHPXLl1R1KUIXbt0AetIsMlcKZkzEkrevdUQw4gRI/Dss88GPBt3zdt+8WNYFy8SO7loNf+ulmDBjSq3W3AV4j384NdUsIiFzO9ZsInwQ7y15hLL9NawfGscEw853ph2SluySqfTbIm6+iXJmGWuBiETLTgyViuu3lkSIIGtlLxV+pYfqVLcRPk3eeFThFuU35WyrerxoSZZ8d/13oe7+1/+6uGIhx4JTj/+0Q9F/DrU+3ChlgvZyO+jXINudC6gH374ka5nVEoQq22pvpDMDwoWFw51TDCOkXydtq5BW4QTj+bEfddPfiR2gYrLmPr+rN6opzFEcvlllwr5aTa5/4LZUPZ4yP0n93G4455pgH/5699QUVGp55XEOSwmxHeSx1qw74tA68WXXhZplnoaFSd/+dADgWuglCqttgmVFP/75JMoKzuu53aGnEOvGtMlCRAYlmDxtLy8XMGZM2rOaTXNMSMtDSvuug3VC95FoTMpqiBBTJBNSn3c4TL7oSZeqwCqurY5Pm42i4Utx0biXPsCBYIrllYmv4CgiwAsnn0zBAYssEVuAfUoyC+ITiDhm44jA4ZhFpJn63zfACeTxYIbD1QGAIRoue7iTQdh1MgRuO227wk2tZwZEGpH2pZQEoleH3ywMOw4vSEzaJxehLv8m266ASNHjBA7fi48v/rVwzheXq7riVkM6jvf/rYAd2yhQkJaSG/q4lq8Zriy5Dz/+edfFJ4EvS0e0xzVpFKGhchFMFIcSo+t/FkRTkFuHDhgACZOnIiiosLo6iAQIHz1k9tw8N15yLDaUJSUJCbwaDcucEQ/FOgpaajHSQ8z8+O/KWCBaZJ5VEiLga1kq3AXfKy+XvALCLji2W6EUbkOB/KbshGiDQoUW9FbdaS+TkhFy/Y5UwECJ/8f/egHzSJERgIE7rTeevttoeyWaH4LEIRdcfllYndMgEDXLwmKcuqhVnv17t0LP/nxj5o1IuIBINBdTa8R6wPobfEOEOipWblyJf737vtheZD02kPLeQQL9AYOHz4M55w9CRTNUpqeqrNtehAIEA68O88/qM1m4UkgWSxWtQw4gdexYpWrQQAFd2NjhyE1clesAAUSGqO1ADKGLioqNriEneI9jMC0UWYj5NkdMQvLCLlonxdlDQ0im6Y1G52pAIE7z+/e+h3hriQ4NxIglJaW4bXX5uLQYWPEc7RMkvF+DCdwFr9iNT0CBJYO/stf/66rtDPdyUOGDMHdP/1Jczp2PAAEekW+XrUazz77nO7uiHeAQNvzD0HQV18t18Wx0W0cDSempqRg3PhxGDt2DFhFUi2zzNM1Sy0PHz4cs2bNCril3WrFyp/diUOU91U1ehOYh06CXizcwcqtKb7EyZ1KjdwpM34czztkPjeBAe3FVElhL5MZZgOQAt+bGhPkFVDxkDF0gqd4bQSXTmYjWG0iFBONNMVg7y6KSzWNm0p3aBuxwuO1u8sCQgzcCanjtQpCV99PLlTEdCQ1T4HnyyQ2dTVEXksprKJcl+erxW747/J9uNBwMXjol/+nu+t5n0suuVgUEeLOVinnq76gWsSF/86dk1z8Ry6IRLcrr1VcfEyw86NZFlj3y7fTiexX2pt25//v3LkLT898RleNCvbfhPHjccst32p+G8X2yj+QX6DmGHDxlguByX0c6bhn39NrRG5FOBke6i654frrhJdF/nY47uXCZgwFkoNAt7+eRg7Cgw/cF7gGSvdpbdxTVXHBwkWiomJ7hxuCvTtVUadMOVfUYlB/p1r6uNUshorycqx/4C4UL3i3xT0ZaEi32cTiR7Y5BWsMWPc09SsXRnoTRAaE1yMWgHiOsQug0FQngIRGEvAYftDDzKe3gDFzSlorNRLoPYjHxvHA9yTxkGOF4yRaaYrq9ydMIpjk2KDkN0MJWlUhzVbrGZfFkJubg6uvuqo5fs0dkay4FmpH2la5Z+6O//OfJ1GuI8UxHse1Ec/ESfrKGTMwefLZIoth2/btgvEvA0At9+LCT+XEyy67tPnwUJyRaKc5Kg+yf/8BoTYpV4rU8l48Jp6zGPh8am8bUx+XffkV1qxeg5ra+KtwTCLrhAnjMWH8uObvW4v+hy6A0IxMWcvAYhHFcRh6SGH+eJRy1eVBRTcxawVwoWSaWrxXGVSAAsEU6z8ks6KkxQKnxQy7OTjA4mJHTwlBkAAGTdkI1I+I11ACvSYssayAx1gVwqKthEfFTXKmv7iUVmCgjK0zESAMGzYUM664vHnSMBogHDx4EP/6939bVF3UukicjsexVPWdd9yOvn37isVzy9atooKjHoBgs1lFKe6LLrww7gAC+/6FF1/Wza3oSACBxmfpa2o/fPLJYhwrKYm7oUtgyFogVCXNz8sTCo5qL2VYSopteRDkN+eiwFRILgyUwE2xWmPmUeCumu71eq9H1BFgqmS4C0N79CR5HNxRK/+lR8Fq9nMVhNphI8MojeJdCAaU/7bHs2q5J70kLHiVbbcJ8GOPkUS1krVBlU5WFGVYQS94OtMAAieH86ZOxbRpU5tdtoYDhCYPgh6RJC3jriMew7S0hx58QLj9CRC2btsmdCL0AAReg+qJl15ycdwBhAMHDuD5F17Sxa3oaB4ExfgUL2JYjXU1Vq9aDepyxFPjeBk6dIhQ3WQtiJgABMUACpOf+gAFDqfwLMRScVAQ9lj/weUSaX7x6n4PNmCChWjil1XwzRuwf3OZuSGyEcyCtBOTcFMjcMrrT1VkyIl9H6m9zjSAQB7EBdPPb86fZ68aDRBYr+DJp55OcBBUH/23b7lZ7PoVqWVyEGa/8grq6urDXkv8HIRxuPLKGXEHEPbu24dnn30+7IqXyot0NA8Cn1sJ7xDssV8/+GABaIdwdDLCHgRhnqAeM+rMhlY9CMOGDcPTTz8dcJv01FR8dRfTHN8M8/b+w7lIKB6FzHaojkjXfIXLhdKmipLsoEgXEF2GOA1PoreAREMSDvPtTtjp+YhBaMnvWWlEjceN0ga/x4DAwKhGkuIN+04EkBRP52qOjIVfdumlonKj0vidkHOgblRv01vNkeRElsfVW+bZqL6Nh+tw90btA5ZjVsiuzGKgXPM///Vv1NSEH7vmd0fy2Q9/8P3mV5QracaqmqO6oiDHEQsnsQCV3tbe1RwpaKUmG8tVTGl7ufw4U1XVwk78/+3bd2DJ0qU4duwYXK5A0rNe20R6HscEQ4scO8o7tlrNMRhAUHQQlDTHSB6I5XiZ2kbpXDLajSjNq+V5FFDAzAeCBcalWX7ayEVFy3OcLscwRZEcCmYjZNltsJssMaGcKCJalOUud7sE38Q4WPBN7xAg3Li/4owRSiJAoAIf0+3UAMHINEeSE9988y3s2hWZLn9H/YaU0r5ZWZkYNnQozjnnHJA3wEb7c1FlKuj/++PjLYRttL5z3759cPdP72quABiKVBoLoSQy/ikd/cYb+jaYfPeOkOaohdDLfqY99uzdKzId9uzeg5PVJwUg5K69vbwLLAR107duRGHnzmKoMdwgl7LXrIOgdbC2dRwr8mWwjoGVcWpLzLIf6DvgRpPM9pNuD055PYLg2BG4CkbYPZJrCFlpi0UQUNNt/voIsUpTpBeIoI6AgCCPfRYNYKDYJwEQApnZil1CseLbUlLkYjV//gKsXbdO9zDs2bMnWOWOOzZZElhOgbNYrDCrcokbyeNR1WZQJkL1w3g9XvhU2UBmkxkWa6AonHwfPofaa8adopzOxzoRjEmTc9Cvfz+kpaYG2EABCNyZ/t/Dv9FN5CwqKsJt3/suunfvJq4fDwCBLvZX57yG5ctX6O730wUgqFOaCRSOFhcL7YvDhw6jtKxM9BclqU9VV8MTYwVhppFyk8Cx3O4AQRkp3IkSIJDMyAWH/x8rrgLRGrMARJEoAgaPn9iWaIEW8BemYoaKTXBJ2FckVMaisT+YmVLdBOb492gCgwRAiJ4HgQvF4sWfYsnSz3QPnSvoCh05Alz85R3OyZNVAddNSkoOIF5xQq6trQk4Jj09I+DvzKH3eL4hk3Gi5HXUTb4Pn4PPozS329UinY/CNMzZV2oH0P2sBhEKQOA1/vCHP2Lf/v26bJSRno5rrrkaEydOiBuAwEXviT/9BSURsPlPR4CgTgnm//slrV2i0in/HD9+HCWlpTh+vBysZyHrVegaIG2cROD9kx//WNRwaBUgjBw5Ei+++GLAZepra7H2vh/jyPx3jH6m5usRFDDkkGy2CJc1F6NYLUJCbKjRh3pqCnhZgjr6O9SoGdLACxMCELRliaJJVpGdEqs+qRP94NcuEGJYMdZ4oAfhsi2HYVIV3uJOUR2H5Ect7yZlkSD+ro5Dcoctix7JgirqWu/sTq33oUzvbx55TNcI4M7mwgsvwNQp5zafz50EFzV1U0r4Kv8m24SgW57IeA1eS1RzXPYlXn9jXouiO1ofmnFSpgVqsQkBgSxsFS3bq/uYY0T2boTqYz6nIjg1d+4bWLFypVaTBBzHe0+aNFHsBPmuiu2Vg2Sb6OnjcG2/fccOzJr1nG6RJD77NVdfJd6LYRh1k78vvj/HIAmRGzdt0mVDCiX95teBgmPB7qPu47bGvfIQ6j7mv7Vlez9gqIfb44bb5RJpk8XFxYLkuHfPXlRUVkYlHHH+tGm45pqrgn5fEekg6OqJICdxUSJYoD4AuQrZLL8ao92qmIyb0gjpyqZcMfPoz7RGhyq1LPIdTpAzEjOeCOW0vX4ZZIYRGPZpL45IIovB+CwGfkfr12/A7FdebSHhrPUb4wLxpyf+KBa/U6dOBZwm68vHc3Etkj1l0psiIrTy668xb16gaq1W+/C4nj174KorZ6CwsLBFuWe58FJbISHlnrS5GvgG4y20ZXuGF9at01+oic8R71kMwQTCIgnHybZXKjKy/1g18sjRo9i4cRO2bdumKyW2tfFEMuaf//S4+Jnyy+oWFwBBfnDqAzBtLtduhz2GKo0iz6GJq0CWPBcsI9LnwvnQY3ksgRltTW8BgQG9ObHKRuDgZ5iHWSbUroiHII8tIxPnf7UJJgp+NTXGkNU7au7GQi1SWjTOQ9Vm546ci526BasASbfkb3/3B13DJhZpjnww5sMzk2Hv3r26npMn3XLzt3D22ZNC2r6jAgRme/z5L3/TvUMkeKKaIlMeOU7UWScM86g1FqKtpEj3+J//8teIvAcdASAYXbdECzjjPRmq2rR5Mz777AsBuvVKWas/xl/8/B706dOnYwAE5cG5eDGVjn8ovkPuQiwWMN5f4SqccLuaXd6nC6mRdiXRkGqHBGGskxCL5i8s1Ygat1tkI9BTEwtugZZ3Iyjocd23MPCRxwPUQBMAITTprS2pZdqegIohhkgIa126FOHn994Ln897WnoQON8wZs8YtN7Golv0IvTu3bvdAAIB2rw338aaNWv0vkbzefHuQWgPgKAYh9kTBApLP/tcfFfcKEQCFC6//DJccvFFwQECOQgvvPBCQIe66uuxhhyE99+OuKMjvQDDDSTMMb2OcXEuaLEKQYg4U6NPZD+QOEd3OOPj8bKwabUtvQUEBUnMRrBakWW3xwxwkeuhyGJXut0iMyGe7McqjpnDR+GsP/wNKX0HBJiUuy31bozjQV2oiAfLMW5+qDIHQe1a5jmhWPFa70NPxK9/86jWYRBwnNPhECmOU6dOaf73YJkCfF91Kla4NuG5lJ9duGgR6usbdD0rbUwi3vhxYwM2Ce1p+0j7WM58eH/+B8JOehvj45zkp007L2BMyveJRh/zmTnuGU565dVXBfEu0nbtNeQgTAoIdSj3kW3Pvz/73PPYtGmzrtsy0+TXDwdyEEKNey3fcbRtz3mEgkxUbty9e4/uipIjhg/HnXfe3uL8NtMc1zzyAHY+p1/oQldPtXGSugBQms2KFEr6qghlRt9Pvh49CBTpqfZ4Ud0EFuLBNR7qvRk6YCaC/48tZsCA2Qe0Ez0FpzwEVvEFDGg3s8OJnPGT0OuOnyB7xGhk5uQELEB6XNay1yGYQlmwcIEaeARjFMthCcYOuTu/7/4HQw2BoL8H00EI5g2QY+eyy1pLTJu6/PPefEvI0OppXNS6d++OW7/zbXTt2qX5ErJN9NheT0iItlcT1rSEhNrKYuAL7du3H0/86c+6J3leIzc3F9ddew169+7VbCOGktSpdtHSQSCJjjyKXbt26Q6VqMdGW0JJamBI29PVTp7L1q3b9AwvFBZ2xs/vvSfg3FDjXiEcMkXR5WoQoIyZLU6nIyzby7wFmTMSLCSkHvcE4EePHsXc1+cJUqOeVlRYiPvv/wU4rtWtVYCQmZGBo0s/xvK7bkfDiXI994zaOcpumGQ6uskZgmCufqwahXtYMZA7YZZbJus+HoECgUG2zY6MpoqbVnIMomwkpZoiPQWKxyVeS1HbMrPQ9Zob0eWqG5DSvReYxdCRSG/RAAjRcpty2LFi4foNG3QvHja7DZMmTATTHtPT08RIDgUQosUZiQZAIPD669/+IZQVI2ndunUVnA2mWbLFAiAwrfHjTxZj9eo1Lbxjet8lntMcCcwpenTw4CEheuRxe4R2htPhRPce3TFq5EhkZ2e1sH2ocBxtFS5A4DkE+ySGfv31Kl3ZQjk5OXj4/34JgiJtACEzE+5T1dj14jPY8u+/wC3lG+vtdKPPY6iB3AQChWy7HclWVkaM9jLofwuRKsnUFK8XLBZU4XHBFwe+cwIDZoNk2uwiIyFWGhMsmHXc5RbkToZh2isbQcsYyxk5GoPueQhJA4fAmprWzDtIAITGFtkGRjCzuUitWLESb739ju7yv+xX6g/Qjc769pwUTyeAwJ39okUf4p3/vatlCLd6DHe25CHccvNNYkcYbYBAYPPFF1/is88/N5RdH68AgaDgvffni926nALMIgN2uw1Mm7xg+jRQpVidphktgEDP2SuvzhHfmDr8onUgEUwSIMjS0a17EDIzxbU9dXXYN+8VbPn746gtOUb2ntZ7xvw41gigCz3f7gBDELFaGAVYoFfB5xNpkiwW1R675ubsD4e91RLS0eiUWo9HFE2qaMr6iMY9jLpmSudCDLz7fvS+6VbAamtRira9AILs5mbmBD96dYtFiCFaHgROkpxM//j4nyIu3JScnITrr7sO48ePa5HVEIsQA21EoKKEWvhuDDfw72oStTyWQoUYeN0dO3bi5ZdnC4W9SBqfY0D//qLuQ35+ftRCDAyfLV++HIs+/NhwUZ/WQgzBvDexCjFQMpyEW9ZVCNVIJKQ2xcSJEwVoYIsWQPD5GvHU0zN1e58KCgrwy4ceCB5iGDVqFGbPnh3wvuqCLY10p2/fjF0z/4Xjq1eioeJEXAMFvwqgFTlN4ksk58WM1AiGH/wVJRl+IGjQW3441ADk7wRBigcl3+GISaqiohuh1EZgmmL8wkaIvidXhaGoTr37If2SGXBOPg+2zkVI69QZUPFY5EJFnPzV8U7u8uRcYRl100WoJiFy8ZAXe/k+/F0d0+b5So68Mg7k+/A5Ik5zvGA6zp18TvNQ48IiuxnpTlXvSrhzV+fI8zc59ZPXUC+WXDwpHER9/gULFmkZ2m0ew3657NLOSsaQAAAgAElEQVRLRKlj9Q4tmrbnO3D3uGbtWmzevBVVVZXCLuRgpKWlYtDAgRg3fhx69ughxozcx371xW9CoQRM6vRDRe524aIP8eGHH0XESqfxeK8hQwbjgunTBTfB2iQfzeeVY83ys9LroE7vlcc9wQyv8+mSpfiI4MAdOSlR7nBWqJw0cULQsJ/M1+G7PvPMs9iwcaOusdWpUyf87reBZF953PN7e+d/72HDhg2ad+m045jRozFhwnjk5uaIcSHbnsBRTQIOZXu+oHou4Fyx+NMlWLhwUYvUaK3G4Nj96U9/0uL8VnUQgrnuUF+HwwvexYH33kLllo2oKyuNa6BA49DFTlc7CXpJFotg8sciAMEFkyS9KhJoSGikAp+B2Q/0FjCUoGQkMDsh2imgBDr1TbURyDFgbYt45F4oHwVtxIyXdIs/a8PJctTsfZMZ5owMOCefj8wLL4Fz6AhYc3PFv7eXy5qLh0y8Ol10ENgfSly1uvoU/vPkkyg/HjmvifaaOmUKJk4cD07wBFh6SKWy7YORSgmKv1z2JT5ftgyVFcEV7fj9ZWVl4YrLLxMKgHLRq7aEkmgjpdQ2d6mvzpkDlsqOtHERJ6mTu9j+/fshtQmkyCCQz6pepNoSSiLQY3XOVavXYM2atZoXy3DfJZ7SHAkE+a4fLFgYdlEt9muXLl1EBg5TUbt16w6Lhf5ufwvH9so5ineKIJNVM9+fPx9Hj+ojKPKa5087T2QJaRZKam2ibGSs/Ysl2P/kP1C6ZgVOud0dopaBzWxCqsXP5E+12kS6XyzEGkW6GsUtmtj8NV5vREWHCHioCZFi9acrOszRr2NBYEMwwNoILLEc7aJJ4U4k8vEEgUyLJTmTISfaKGhfm82w5hcgZfJ5SL/6BjgHD0eVpNSX0EGIXAdBDRD4/5xomdEgp4vq6XcugGTsjxs7VuyWuftSX5egQd6xhRKpUgMETsD79x8QEr5UBpTlk4M9M0HC9++8Q+jbq5tWgECvwsKFH+KTxYs13U+L3dLT0jBo0EAMGjQIffr0FmEHddOySNFbdexYCbZt3y7SGcvKynQTTrU8czwBBHoTFixcJEiAehsBLQECS373798f+fl5wsujxfb0MqgbAQLrXLAfqINAlcVIqkLeeecdot6JboCQZLfBt20LqhfNR/3GtWjYuxsNJ6tQ21TwiDvKjlD0yL/ztiDVygXEhlRrbLgK9Ch4WfvB6yc1csGtbUr9C5R+CRx+6noVQgPCbBa74liIRjE8UtUkaCRKZRvoAdH7kbV1np1kVZvNXwCsqY6EFm+RyW6HY9Aw5N3/MBp69Q24RQIgGA8QmCM/9/U3sEmnbr48BrhDIwiga5+lj/v27SvcuWx6AQIXw4OHDom8euaXh7sY9u/XF7fd9r2AkIJWgMDnPnTosEjbY0ZDJBO/2lYEUwQvrPo4ePAg9OvbF3l5ecJGbS1SlVVV4jko83tg/wFRTEgLUIr0G48ngMDFmATbvXsjyzDhWE1JSUZRYRF69e6FgQMHICc7OyBk15b3hoCV/IeDhw5j+7btOHT4cItFPVy7s/z4H//fHwSvJihAGD58OGbNmhVwXXXerPvgflTNeRF1XyyB59hR0IugNLHw+XxCIa/S7RJsfi4s8d7o4LGazEiyNKUC2mxgGmAsmh8sNIoMCHoXuPDyDwWFaDn/szFubhGxc/4/4+ixSFPk+zOFk0qHBH1KNkI8cwxooxyhuGkXYRdddSQIvMafjcKnXw5QUuRuUi7+IxczUseRaT9/PvQ3sWa6J+ViRurvi+fwd7n4jywCJN+Hz8GdxYMP/UrXsCWP4NJLLsEFF5wfcL58Hx6nDl9xh67epfM3uWCVfA0uQmqOBQvQsJgPK9YZ1bgA8jkyMzMEi3/Y0CFCO0EuXtSa7UUp3qNHBSBgLv+xklJhXz2eDvb/fb/4uaiRoDQuqrLgVGt9zDG3cuXXmD//A9TW1RllInEd2omLEAFLTk42OhUUIL+gAKkprIRpF+OdC0X5iRMoKSkV4Ih2kIm0hj5UkIvdcP11OPfcyUELganFy5Tnfenl2diyZauux2LWwYMP3Bdwrnrck3vy8uzZhoR9eBOFb0Jgyz+9evVEj+7dUVCQL/5utZLU2AiX2y1CGlWVVTh46KDQyqCUdU3NKSFGZQR4JP+AIkkcs/Lc1nYWg8+H2rWrUPb4Y2jYvplSWW0aX0n748JS2tCA+jgUxgn2Atxl+lMD/fUf6KJuj6ZehLXsfI18RtahqPN4UeZy4YSrAW33tJF31n8t9lmew99nIrk1wpiRz2rFgPV7ye5qfqhoxbRDCSWdjlkMahDBxfKjjz8RC2AkErGtjR6OBU54XAg56RYVFSEvNxcpqSliF93oaxS7YC58xceO4cjhIzhaXCz+jaAw0omX97/+umsxffo34EtLFoOat0C7vPH/2/vSIDmqK93Ttfa+qFv7LrUAgaAlocVCIJCEQILBIK+MwwuMPTP2s3kDMTEzfjjei5l4L+bXi+fxxIs3EijAGHmwDfaA2MGARyAJ7WgDJKGlpZZaS+/qtbqq+8V3q7N061S28tbtzKwsKdOhkExV5c08dzv3nO9834u/t4W2+EqzDM9qzB3jb7y/YYOR2kJ3hnupzPH06dMEBwTpJicuow/gRMP5MRwgQ7DJYGd1oi+QDkPqY1i5Z9Rqrlu3Lu29sYD1fX6IGv/uMYp9cThrmyCcDnriplifIBTCSdnLp1DjBXFaB7nQqEiYCoMhcXJ3e7PO2tiaP0CPxAcGRf+gnzoglevhMlb0A/oDjkFNJCqqEux05toSCVr42RkC9bJx+Q5CEjF9JfEfFSZFs7ApFl0g9pFHdcJJ4NPCWITxt7EBOrHgGu2uXn0Pfe2rX009RrYOAn6IqNLP/+VftRnyNJcGT/zMSw4CNDKQFsNYvZqu6dOn0w//+i+FM52dg1BeTk3/939Ty7/9QtseYhJCQjIRp9ZYP3Um4o6X/Wk/LPshtogyhK2H9B8QxnarVNKudxjuPkI0SQAP+6k1Bo0JVCN4131DPAf2RxVKVTgiwJl2poPw5j3xOJ2KxeiB402+g9DenjZ0nHIQsGHWnzpFr7/+Jp08edIxNLzT88ns/nBCvrL2IVqzZvWIHATYHjbasOEZAUq7li4vOQhIAYLECkBFnZSTF/sNTjuiXAD3GikP4BDkS6QY5s6dSxs2bEj7AIvyuSefoNjbr9nybtiUUCKHzQiIfpxac0EmlO3LoDAOGxM2JVRAAPyGKEM+XogOACCJagTQIHu9TBEOGWxfCvujfjhoP6AU4xJ8Do19vdQJDfrD59IcBJzg5FMmJpJ8msY44KdffC6nO/B7zm7GxZt020H9+pM/++9awxEh//vWrKG7716R9nv+PvxZ+fuY2YS/D7eJYTfcC6j4TZteHVGZlpYBHPwRbIa68lm1talWVG0iPxbuAxvt2r2bNm16TfBeXCvX17/+NVp2x+0Z6R6z+YXU0LO/fI4OHjykZR5gEEAUxG0v//9jx46J6hsASPP9gg1BNAYiJ8MpMJvHKR4ETpTU3tJCx598gqJ/etfWMK5xeoWDYJT+9eYBqDGJUwhSseEshCEUhcy39y84Bp3xOIHQCFEcVFJ4PWKASoTyMEpSk6WcTkRvABKFnHdTLCYcJ2gxrN53Mo04CVUMnCiJkwKBMU2+kJaQiZLwe06UxGvkMUk5URLnQeDt2EKUtGoVLVt2e+rxsUhwQiac9GUHByA/TpTEy7BwDzOiJKMhbHxG+SEcEtRy//sLL1B7e4f3J5TCE86dW0cA2cljB+/LiZJkMiwz22OswT44wYJ34IMP/pTB1aHwOHn5lbUPfZmWLFkiMCPyhXEvn+KB18HcWf/U02Ic6VzDESXJzjL6B47aa6+9kcHAqtNmLn8DvY6Hv/kNqq2tTc1T2FS5zLG1uZkO/MNjFP/jmzQuWmhrSBeGMcr+wDqI2vrWWMxzMsBmHWjkwQsDyTp7hLyjQv/BexecMQhJiQ1wICGImrxcX4LIDMoUgQEpQvWGQzoSIu0Vj9M5RA2AyB/CXQRCIbp33wkqCFzGIPhljvaXOWKmcIU6LE67du0SoDzO6ue9mXXlJ0Je9wfffzSjsiObMkejBdjCcM5QGbJ7z95rxknwUpkj+gNOMaI5H2/fQZte2USdXV35NjTF88LhWn3vPYLdUT64mBGEDcukCAfhk7//CZ1/Y5NYsCcUFTomrWyQCWGxhpYB5IG9mxG/PCbgFGBTq4xEaHQYQlEhTwwYAyCKSpKugYSnRZNgsEhBQIBCMc5EtCDgnLuFEs5zfX0icsABmb6DcJnNTx7I8iaF/87Ff+zil0fJI7AIv/3dSwRQWD5eqGv/1rf+nMaPG5dx0h+pgwB7BIJB2rt3L7388qa8P8Va9a8XHQTk7ePxBJ08eYKe/eWv8g4XUlRYSCtXrqDbb19KiEjKEa4rOgi/+tWv0vqro61NOAhnX39Z/HdoG0yIFlJpOInsd+KCUwBnAeFeOAoIiaPczsuqgIYdgNlAWBwldwiLa9Xij8CoRkQG+AI4BkgleNnJEvoIqBiJRIVz4GS6xkhriXRCX5/g7DC74CCs2V+flmLAZshTDDz0z2lrcdLjWgyyXgDa5iF5ePJy+Bknaq7FwNvBc4AV8B//6X9qjRy82733IMWQrsXAmQcRduRaDHK9NOYsT7vgHnKKATlimQsC78rTLgb3PWrOX3/jDVFS5kZ1g5bx2I9gj7l1dUKKGgx5Zn2MNJKMX8EY4VoMKrZHOH3P3k/od797MYPgyI538co91q59kG5bskRsZPKFeWG3FgMwCP/0j/8jrR3ML3n8oY/l1FpLSyu9+NJLdOjQIds4CZy0Peb7iuXL6a67lqVKgOW0Jt6Vr20iggCiJF7mWFpcTNse+z6deuWl1DNjUUdpWQ1khId0DZx6ISw6wCaAfAnARvwbOWMvb3qwBZINoEFG6iGZP3dWbhl2AtizK95PzbF+AT70ahoBgE9QXgN4iHFUEYpQCNIIDjmcIJ4C3gJskK1DpE9XGj8ob/zGyVZxSjMuLv6DjY0jfa0EnlSElzAxOUWwisATNt3Hn/hbrbp93B+6AThRGJeZ8BI2LXljw2YvM+mh/7jzwgVouMCTmeiVIfCEMQ3CorfffldQHPO8qFNrjs598e4QQrp1/jxatGgRlZdfFqniWA4u/oMNRyZtwntzx5ELPBm2x3dPnTolVBTxNyem0nkXu39jgN50nbxHH31E6Bdw59NM2AxjZOPGfxfjRad0tXbmTPrRj/46zQTD2d74kvF+u3btpo+2bKEzZ86mHQzstqfu/fCckHMGJ8dddyadA1wqa86wREkVZWW09cd/QfWvvJjxXKD5xQKPEzPof50UQEJnxwYHRK4YjgLoifOBgAkRBWgmVAigXZiKgyiTtI+ACadisBwa4EPgOLzKYYC3hlOAsYIxg6oEwS/hgGMABwBYC4MCHFEoVYpoOAgP17flVZkjJvt/e/Jngl0t22vUqCpR5rRgwYLUTzHfOIDSyTJH+ZlxUpSJei5cuEDbt++kPXv3CnEgnYU/W5tk8304PSCYuX3pUvE33wh15J6zsT3sAecU0QToW8BevFomm/ex87tw9sBmibRRfX325EKw7X997CfCrtwmZnLP2OwAHtyydQv198ezfpXly++i++9bk/Y71ZQQHHu8I3QaoCapMxezfmDFH8AJBUPjHXcspcWLF6c5+pwZMysehCs5CHg2JBnCBQFxWkb5H3QNotLJS/H5lb9mhNDB9ofwuXAWEgnPboopLxM5W6NUb0j7YSTkPnACDOEk2AHpGANkp2xMl76IaAqiKCgRhXMAJ8HJ9FRsICHIuZJjI67sGKT6KhSih0+25pWDgBAhQs1gJczmwkYMGuBHvvddmjBhguccBOOEg4UfZWXQAThw8AC1taVzNGTzznZ9F07Z5EmTaOHCBTR33lzB0IhNwkp9U4coyco5Qz9iEzhy5KjYoA4cPKgt+WuHfYQg0axZtHjxIpoxYwZ9vH27kK6WU24q7cAxePSR7wmtCC6uNZyD8Omnn4kyRB6FsWoP0bEnHv8bGj9+nJaDgB/BWUP/Q19k79599PnhwzmNfAUCBVRdXUNz626hurpbhDgXogjy5aiDIDdkSA/DSYCsLjYCJy/j9IzNESdEyCl7dZOUHQU4Bkg5wKFKyk+rcSrg3XoTceqMJ0tDkW5BWsGr2AxRjRCCNkJYjAWQHEF0yqkLwMOWoXEArg04UTqpKJQ55qODgNDmz//lF1mVv+GEBiTzihXL01ImXokgGA4CUigCl9TTI3jwke9FGBmy0W5f2EiQToDq3fz582nSpIkp7no8Zy4cBIPFEpEDbKRHvzhGm/9zMx05etTViAucpilTpgiZ69k33CDEsgyOi5dffoXq608pdxfG5tq1D9Gdy+4Q+B9VBwFplhd+89us9RigcPmTH/8oo/9UIwjyiyHagVJdsIQimnD48BHXHQXgnRbcOp9uvnkOAVuBNBYcSR7RUnYQ5s2bRxyk2NnRQZ/83Y/pzBBIUaV3hchQICBOjADrAdjoRBjZeBZsAgODA4RSSYgLYZNAeNnrF+yEDRMbKTZQpCKigaQgE/5naFoATIeTMPLo/RByGiRP8xfgfaoFTXUSo4J3dM4tIBFBau7rFfiCuA22ESDFA6eoQNLiwGLFgTw838sxCcgTy3gCLJ5cIIjn1fE5BylyxTzeDp4DYW38geTrpldfU2Z5wwLyne98W7QpgwcxXzn2AZuzHLrGoi2DFPEZB1TiHvLcRxvyKdIQDJLnKjZYOY3AbQ+bYrOAQ4SQOhwF3q5Tc3/SpEm09LYldMstNwvQHJ5FtgnGCBes4n2MhZuDFEdqe+Pkary38Uwn60+JcsgjR45kfXrPxoYYP4hE3XH77YTyzqKiy+PYoO/dum2bIHlSKV+FfXDiBYGPsaENN+6N55Rt39jYSP/n579Qagu/h7AXIhVwbrId99z2uJ/Rx+gHzF8Abnfs2EGf7NufgaXIxs4q38XzQzYBuA04BhUV6VwkfDyqrG2WZY6Nb7yi8mwZ3xFUxaEwjY4CrBd2fLMwSiWBVG8Rdf9JBjydk6TWC9vwI3kzzZfnNoCHAK5WR6OOylAnHcL0Khc7I0f5WOZoOCLYKLds2UoffrRFnITM8vXYsLGYApT8ve9+WyxmWMQ4WQ9HjbtV5shPilfioDBOzDgpI6TbePYs9UNLJJEYUR7eEMrB5obwfu3MGVQ3t47m3HSTcAAMpwfAOU7WwzcY/j46J1Id2xtpCTgfDQ1nRZj/4IED1N7RQQnYiLGDqi5dBijPILkCRe+XFi8W8tGwzXC6JbDT+++/T2+++bbgDhgOSwKnE6kFYAGQWjCubIXNEK34t3XrBf5hOIAk+hkh9wceuF9EPPBOfNzblRKCXbA5f/bZ53Tw0CFqaGig3t6+1FjVwdbg+Q0HDKmROXPmEFQZq6oqhROqK3OeFVESyhx1HQQ5tF4SDIpTJRwGNzQNgF5HuR+cBYPS2avheNXJ6aXvCf4HaCNAXz4cEakERA+cihah7+AIgNwIfQqcQcIB1y+fHQSMDyw0R49+QR99tIXOnT8vkO1YIJMyyBGqqholTsG33bYkFQHIVwfBmA9Y1PEOkCRGeP34seN07vw56u7uESdn46Q/HJW1kLhFRCSKioKk8uO4seNo3PixNHbMWOFEBYOBjPBsPjgIho2w6IvIy9mzVH+yns42nhPAP1GOG4sJG8UTiZSAlRC1QkQzAAGfEIWBLyuMUkV5OY0bP56mTZtKkyZOFNgVOSJyJWEzjENskG+/867gDujrw9gcEGsGHAM4TwsW3CpOv3LELnnKr0xb/lRsD7nuDz/8iI4dO05dolwxWfYdDoZESm3K1Cm0eNFCmjx5sngHPIdTDoIccTQcWMg2o4z3bONZQZ8N6eY4UuVx9AMOt2JCC+l54AkCBclNPxwJU1FRMU2YMJ6mTplCtbNqhVw37stLq3nJLHdYYQdlHoSNGzemdYJBlDRSB8G4KcLqCDsjN438O/4NZ8HJC4RBXXHoP0B3IOFpQJ+TdrDr3nAMwCBZHEr2IwCIAKo6BS8wtCNQqQHyLFRqOOno5buDYJTN4dSJxefCxQvU0d5B4UiEqkeNookTJxBC5fKikO8Ogrx5GPgJbCCwQUfHJREdQRoy1hcTiyhiiv2xfnH6EvYqKqSa6hoaVT1KRAyikUgK8yDPG51NKtcRBOP5sUEZmxQcJdgB7486fjgKsBeeVThTgwNiw4SzVFJcQmVl+FOeot/G2IHDZLZxWymfon8aG8+JipQLFy+KZyosjAow3fRp0wRuAc/HT7G6tsfYRmUH2uyLxUQUu7S0hCZMmEijR9eIfjYONW45CAZmBG0bmzrSIm3t7QJX09PdLfoAvgEkyUOhIAVA6R8ooNKSEiorL6PKigoRYcH4NZ7fyvboL20HAWJNzzzzTNo+MpiI087Hf0gNr/3Brv1F3CepaRAQmgaIKMBZQPWDk7lquSQQGw2qAFRL32x9+Ty9GXoHTgH6CoJJ+DdKNp3qM0QLOuP9SacAHBgIG7tgO4AUH/q8Ma2KwYVmHWvCODWLE6GDER7HXsCmG2Mx5uV/sj2cinzZ9PiO30akYof+pCK/Do4ZuT0jbeHkS8r9byYa5mTb2d6b94XswORinA5LlFRWUkLbfvJ9Ux6EbF/a7PuypkFpCMQ5EeE0OIl2N0iFsOHgNNrW3y+iCv5lbgGAJuEUQPIaNNKFDlcjwGmDdkRbPNkvbmtHwEH4JsocpciWHURJZiVwnESHk5bgpMbZFznIixO5IOfMAZR2kPXYQZQEECYHNnICHP6seBfOvpgtSZWO7RHKtSKp4rZXIcPCyZgz83HwKu9jO2zPSarMyLCcsL0ZGZbVuFexvRlREger8nbssD2fXzoEYWa2NwjC5IiPPO7h1PB0gRU5m4rt+dpmZnstoiS7N1Sj+gFYBaDgIe3rpKOA50dUAZUBOKE2x2Iiv+3GKdVu2zlxP/QHdBGAG0GVBfAGTkULkGpDmWJrf4zaYv3UK6o1cgMuzdcyR2MM5LrUTh6LCF3L4Cs4OzLKHwsYr1eXiZJwL52wqVviWsPV4ss2cJooCW0ZIWu5XStgo4rtsXnIVTRcXAvtZQMqNZ5Pp9ROtczxSrbnuAWMRdkBNyvvdQtUyse9l2zvCQdB7lhsRNiURkeiSfCbg5uT0a6BVYDqITgVcrVBObHZq94zSXxVIHgsxkSiAh/iZEgLjgEiOdBGEOWpg7l3z0IlJfT1w+fyjijJdxAuj3LfQbBW3/QdhKQyo+8gdGXI0vMIXSrF8NRTT6XtJUXRKH382A/o1KbLWgyqm41d3wMgrioMuuIIRYMBCjmY9zaiCqBxRpkkkPKgeNYl3bHLBk7fB9UHsHNlOCld7aRjYFQjIH2AagSkeDxDD10QoAn33k93PP1rgRyWN125nC0J4CpM6xZOkIPFR+Y0wILMOQ14CBufy+Fn/J7X1fN28BwyihzPKYcm8ZC8HYTtef0+F17i4VospLKziHC6jJjGZzwdgnvIEQS0IaPT8Qw8HcKfFe9yLdneiJrIg8sO2yNdJQNTDeIpuR07bK/Txzrjns8vO8a9me35/NIZ9/lu+xQPwvPPP5+26LW3tqapOTq9UQ13f+NkWya0H0JDpELOMvMl9R8GBUsjmAuxoUH3IF+4Caz6CjaFIwDMB7QRKrCAOBipgROAaAHAoe39cUGV7RnHAMDZQIAqZs+hhf/8c4pcf2O6o1xUlLa4quS0VXJ7PIfoRF4V49hK/Eclr8pFhlRy2lZ5VTPRKy7wxHELduVV7bC9E5gRs5y2ju2tcAtmOe1c2R4OkOy8qMwvt2xvhVvQETazy/Y688sKt2Bm+ysSJR36Xz+jU79Jl4G22nyc/BygueJAkMrCISoLJrn9kYJw6kImPD4ANkNQHIPquF/8O/fBcL03FumbQFBIdsN+ACA6KUttcBfAybo0JLLlJccAVgyA4Gn+Qpr9Xx6n8XfeTZd6etKM61bImtckq+AJVOrBc1Vql6u8qg5uQaUeXLfUTh5MbuW0rfQbzPAEOpgRbhMv255jRlTKe+0iSpIjZWaYES/bflgHoa21lc798U3a/+QTFO+8pLcjOfQrABijBTgBBwSg0SBgcqg5cVtsbADTdQ8kRGgctfl2svg5+exwDBAtAKajLBimwlBQEBs5daEaAU4BogVeLikNlZTSlAfWUu23v09Vc+ooGI3mDHjlOwj2gN68vEn5DoJeLb4dzpnvIOjZfngHoa2N+tvb6Pgz6+jk8xso0dPt1H6ifV+jVBK8ClVhiAMlNQCcvATRykCS7retPzakA+Dd5AOklWsiURE1iBQ4m5qJiWqEfvEHWA4v4zdKZtTSdT98nKav/jOKVtekShtzhcz2HQTfQTAj67GqSECYm4eO/QhC5ljyHYQROAjgZl+/fn3avmrUXfZf6qCjv3yKDq//V+prbXFy7x3xvcOg5YxEaDQQqhCKGvEdr3yDJFZhgFD9ADQ+FBa9csExGBctdKVkFJGVi319QjDLSzYw64to1SiqfeSv6Pq//DGFyioyFNx4vTFCkTIgD+FZDsjj9fzIncuAPOT2OCCPtwPcggxSxO85GJK3k6QBvuwQ4zk5GJK3gxM2F16SwZAY05zJDmkWGQyJ9AcXGeLoZ9yDCy/JuWY8AwddOmF72JSDLnk76BsZDHm12R7gQc5BwW2P/pOBqHzco/85kNFq3Ltle535hbHIQcD8fewY927ZHu8izy8d25utbcOWOcphnURvL9W/9Sod3vD/6NLnhyje5b7UajYbL8LnAN+NCicJfvD/neRVEARMA4PU0t8n0g+QY87F6VmoQwYQMYgI4KFT+AyhNjkkQS0iBlDq85BzxMdKIKWfregAABgESURBVFpIhWPGCozBrG8/SpU33UKgVTYr98rnvKoKbsHLeVWfB2FQUB/Ll1U0wOdBIOGsWklt+zwImZoWynLPkIhct25d2sDMILQAv/npejr72n/QhQ/eoc5jRwnRhaSqhDcvnK3gIBi6AWACdBKUBysINkCRf08CGt2gdAZ/AQCbKFN0siLBoKzGexkVHl52DIAxKJ4yjUYtXELj7l5D4xYupuLKqtRg9R0EtXpwnU1KB3jlOwi+g4BTMI9G+URJQSFmJV9upUKVIgh4MMPbGIjHqbv+ODVtfp9ad26jlv17qa+l2dOOghAZCgaFjgCQ+2BsjEAAw6EchDhhQ3QkHhfOQmciYbuegCj/BAXnUKkiwJpOlSpCHbMnkQQeopoD+AsvAzQjlVVUNecWqrj1S1Sz5A4qu+4GChYVi9SAFZufH0GwZ5PyHYTME5tb0Rsr3IJPlKTmGLsFKs1VxY9yBMFUrIlFBjirXqK3hy6dqqeWT3bThc3vUdO2zRRr8TZGIcmpEBDOAsr8yiMhEZJ3Mv2QVCRMig51wLlKJMF7upfBNAlHB++ACIlTjgG0EFCtYahhuiWapGWbggIKV1RS9aIlNGbZSlG6WD69loKM1Ihrr/NxbfU5ns3qO2b67m60Y8Z8afWsOu/j5XZ824PnK/PkYzUOrD7XGSf4jRvj3q12dOyqYzeddhwb97Nnzx6cP38+ZRAlsVwYABuc0EIAkfr7KdbWSp3HjlDLn96lhrdepZ7z57TWeDd/BE4FhOYRVYDmQAk4AZwKKQxpPyDdgNM36JzhMIB8SfVCpQYiH0iXIJ0ABUw4Nk4EQeAYGBUaiBwggqDv0qi+of73EDGYcPdqqll1H5VfN5sio2ooEIkIiVp5sgGMxvnlOWCN54D5uMfpi4OZuI488qEysBHzhgO8eDsIq8rARvye51V5O5h/MrgOgCgOoOTt4FTEAYcyiA+f8XAmTr4ysBHgSTkSg884IZOO7XHy5foNMrhOxfZ4FxlA6SXbY6zJoFI8p2x7jFUzcS0ZvMptD3uZVTFkO+6dsD3GM08XWI17jGcOkrVj3Nthe4x5GTisYnusN5wHgc8vK9ubzS9uEz7uVWw/3J4ur8RXLHOUv8gJY7CApXXk4CCVlRTTpePHBD3ziZdeoK6GU55OPRjvB8fAEIoCVwBwCk5eBuUw0P9gFURUAZvyZWBjAQULkmyHcAbgxBQKqmk4Bc49GcoUm/v7qamvVzBJetkpgBUAPJzywFdo1nd/QMWTp1JXb18aTbKXQ3dW2uw6wCtsptwR8YmSQhlKeFa2z1jbUB1VWZk28bxMUmWFGfGJkkgcFLhzxjddt1JCOuk4t1Kh9jkI0iQaBK3u2QY6sen3dHrTH6jr5DGKd3fRYDzu3O5mw52x90LzoUaA/ZK6BE6d0uXHxUYsBKKk1AMcAcQHnBZMQruIagg1RZTJZRHVsMHk2d2ioIBCxSVUOHEyTbn/QZr+0DeobEatqEgwqwf3HYTM2uerPa/qEyWRiELIUSKcYOVTrO8g+A4CFl4VBlHhIMybN4+ee+65tMWa120jVCeHx7Agc2EYXrcdQ3il+SI1bd9KFz54l1r376XuxgZKgM52BHn47HYVvW/DOUA439B/CAecLZXUe0q9XxlkTwBRIt3RHo+LCIZXr0A4TIVjxlF57fU05q6VNHrZSiqfMpXChUWpR4ZzxTkAEBLkIkNyuBaf8VpoW8Z9LJYWksdiLYfK8dC8HXwuL+p4TjlNISImDE+B+SeH/jE/5TSgSjsI6cppCrN2YFfZeUX4Uk6HeMn2sJncxyq252vb1WZ73scq4573scp6n0+2V+ljO8Z9PtnerI9Tao68zJHnSbCgyQsWBhDPd/I8JD43FpL+jnZq2reHGuAo7NlJl458JpgavX4Bp1A8VP0AYCAAjk5iFZy0B6IF4GiApgQwEPjj5WqEYFERlUybSZV182nS8lU09ku3U2RUtWA9xOSVHVRsBDzfiTCwvLFhg+VkPTzfaTXusQnzMP6Vxj36E4sEJ+vh7eBzeaPGc3KHgLeD5+BESdzx4O3gfWWnAo4JJ0riGAvkb2VHC3aXnTEV26MNTtbjhu2xEXAsh5XtVdY2HdvjOWTnhdseY8VMXItjRtywPZ9fKuOezy+3bK8yv7jtVeYX1pMr2R5zgmOY+PxSGfd8frlle5U9PesyR2MDU6lXzaSP7aOOi03Ufbqe2g/uo+YdW6ht13bqbjzj5L5oy73hFIBHAZoG4BooCSarB/LhgmMAnAOqEeAUjLSSwul3hmNQefM8qll6J1XNX0SltddR9aTJFAyFUk3zsGm+iaDYkdPm9LEquAUv51V9HgR7Skz9MkdrzAg2bvmAi4OEGaBXdsBVcAtWts+3VKirDoIM/hmApnx7Kw2eOU2N//keNbzzOnXWn8gLnAIcg+JAQGg/gLExEvSmoyBocwE8jPWJckUAD0dSYum0YxAuK6fRi5bQlC9/lSKzbqCisRMIzgIIK6zyqr6DoMYo5zsIeoxydpD1uGV7q03K50HweRCwlivzICgxKXZ1ZZRuWTFeqYAgKsrLaSDWR12NZ+jsu2/S8d//htoP7qfBgYTT+9GI7g9AI0CE0UABVUeiQiwKpYdeuIyIwYW+PoExEABILzzYMM8AfYTxK+6hGd/8Do2qu1U4BZe6utK+7TsI1gI0fgSBRPpHTmUg/MxTJhkssRprm5ejN76D4EcQ7Br3qSoGDlLkeTuEZORwC7xQDgrjuVl8Lufc8HsOCpPbwYk30NdLzR9/RCdf+jU17dpJ/Z0dhGiD10GNwCrASQCnAoSi3Kh+4PstogNIH0A4CY6BZ6MFBQVCWrlwzHiadO/9NOHP1lLRjFniv+FCbo/jW5Cjl/EESHHJeAJ8xvP8fDxiA5Xz/Ig68Dw/H/fYbGRAHkKEPM8/0nGPd9aZX3gOGU+A5+RgSP4+eF85rwp7cLAxfx8d26P/OG7Bt31ubI/IrYwfM5tfdox7nfmlM+6z3VcM4G0uxn2+296RMkdj41IJYQwXukNZZMu+vVT/+st0YfsW6m44RQA6kofR9nhvOAqgPa4MQSgqKCSWnS5VBK0zHAOjVNGrwMMCpGOqqqh85nU0Yfkqmnzfg1Q6dTqBf4GTiXDCGKtTUb7l9qxq8VWiAV6uxc9Vialf5uiXOWIdtkoJqeAJ3EoJXXM8CHY4CMY9ejra6eJnh6hl+1Zq2fUxtX96gHrPN3oeqwBlxdJQSJRJlobCAuBoJ6UzqkQhNW3oPUA8yavCSYFIlIonT6GKOXVUvXgpTV1xD5VOniqqEXCpAA59B8E6bOoTJZGoWJAjIoiqcKS5lXPmEyXRVa9b4jsIWfAggGp548aNaRFrK7UolUk0kgiC8TDGSQpphljzRWo7tJ+6D+6jC1s3U8cXhyne3e3h7DqJkkjoPaBEEs4CmBFHIsMsShUTCVGNABZGgBBB4ezFCzoIFbPnUNXipTTq1sVUfv2NokyxvLIyLV3lOwiZk9WPIOjhCXwHwY8g+BEEEmlROxxjkWKAWNOGDRvS9hg574oPEMKV850Im8uYBHyHE67gczm8zu+B3/B2gFlIYxTEyVsqJxyEnkFri6h4aNmzk85/8Da17t1N8a5OL+6RqWdC9CAiOBXgLIRFdAH6CipRBTgFcAK6hkSfDBnpy9TM3nr1UFkZVc1dSONWraHq+YuoYvoMwYBoRAws+xjVFol0kKrVWDIbjzrtODHuMZ75+1iN+5zNrxzaXqeP+ZqDtSJtvfBtL+xhZRPf9rlbc3Rsb8faxu9htuYolzlyz1yPByGWQVqSbT14ql51cJAG4iiVbKf+k8eo/g+/pcYP3hHCUV6+RPUDhKKogCLBoNCAKAoGBFYB0QZ8jooDbP79g8AW4E9S2AnYAi9XJITLK2jMshU07r6HqPLmuUJdMRiJULYc52Z4AqsqBrvoY+2oxVep3rFC0qukC6yQ9BhnbtjerMSUp4RUpLbtsL2lZoyJroKdkU557eF9rJPT5tTYdkTbdMocVU6kXq4g4XgdO3gQVMY9QMEyENourBTHLejYXmVPV3YQdCaRzkKpC7xCNrv96GE68eKv6fRbr1J3w+mh6gdvht+5EwPHICnElHQRBgaTjoKnr4ICoYMQrRxFk9Y8QDO+9QgVTa9NS3nkcpPyMvgnW8dYJWyqkpbQ2aSsnDO7OCiccBDsKveyAr15yfZWeB0dB8HMAbdKQ3vJ9k44CGZrm5Xt7XIQ3LL9VeMgGOmOgXic2k4co9PvvkHnP3iXOr84TLGWFsG14F/2WKAAnP8VlVQydTpNXHEvTX3wa1Q2faZwFuwA/+hEEOzapNxSSfMdhEQGrbDvIPhMiiqRaavIGVY5q/llRwThmnEQgEF4+umn03YPXk8Nb1DGIGBB5nlUXk+Nz+XcF37Pc4a8HYAfOQbBqh0MKhnrAA85DlBja7PQfWja9iE17dlFXfXHKd55yfOcCvZs4/bfBY5ByeQpVDlnLo2+bZmoSCifNoOC4XCqMZ0+hnMn41nQ/1yoyKyPufASFyri41GlHatxL9JD0vvixe0Y9zrzi9vEDtubvY9v+8w+9m2fu3Gfy32FY4ms9i+dNQdtZLu2cZuYraFWa5vZnp7iQXj++efTdhSESuQLOUR5YcSCxsk1eO06PucCNJwAh7eDXIrsEGDxlWvksUCbCdBwERQj7yMMdekSNe7bTS27tlPzjq3Ufmg/xZqbiQbzI/1g/1af3R2D0UIqnjaDqkGDvOIeqqqbT4U1Y0TEAKmn4WyPVmB/MwEaznHOBWg4AhchQtlBxQlAJt3CZ5wxD+NEdhwxjuTNHM/A2UDtGPcgFuLCZpx8yGrc4/ec+InPLztsrzK/3LI9xgkX15IXNYwzLvDEbeKW7XXWNow1edw7ZXvMHflghrllNb9yZXu39hUd21vNL7M1xy3bu7W2eZYoydjCbMvttbVRoq+Xes81UsfhT6l9x1Y6v/l96jpz2o8oDOMvBIuKqeLGm2nMXauoasFiKp0+k2omT0lVI+BnOjltJ4BX+Zbbs6rFVxn3unidq1mAxi9z9MscVfA6dqRCzQSe3MLruJUKvXYchPb21DY4mIgLPoLeM6fpzHtvU/0rL1LH0cNJUKN/ESIGY5cuo4lf/hqV3FRH0ZrRSRrkgoKM3J7vINgj/pOpfDryih+zhZI7ZyoLZT4Br3wHwXcQfAfBZh6EfCBKkvdtO8uH4AX2NTfR6XfeoOO/20ht+/dQorf3mosqgKMAwMNxdyyn6/7ih1RdN58SgWDWZak64J9clW55CZnthIOQSwlbfpJC6F8Oc+uUpaqg4q82B4E74Cplc1an2GvR9hzYqOIYWx1+cgmmdgLQa0Z+KCIIdXV1tH79+rSzM8/NwqAyngCDjAvd8PwgPpfDmfg9F3ji7WCzkHPawCNwgSfeDvJYcs4NLyrnmpGHNhOgkXPaAl/R20Ote3dS/X+8SE27t1PPhfOU6OkmkDNdlRcAd6VlVDplGo1dtoJG372ayq6/iQJDIDw3bS/nmrGxcXwL+o+L/8h5fvQ/x7fgHnJOG23IOBr0P8/z2zHuMV5lHA3GMxd4smPcW80v1XFvZXur+WWX7a36WGXN8YrtsV5Y9THG4rVue76vqKw5VuPeLdurzC+VNcdq3KvML51xr7KnX3VljhgcKt7hlcKmid4eajv8GZ1441Vq2f0xdR47Qn1NFz2v/6DqxCBaAMrjqhtvFhEDSC2X115HPbH+NCdQhaxHJ2TtZc/crdyeVRmWiu11yr2sbJ/LvKoTpyKVqIMOx4uXbW+VEvJ5EJLqqfKBIpfRtlwJm6mMe99BGNpVzUJ3bU1N1HO2gdoO7KWWnduo/ZM91HnyOA30x1T3Yk99rwBaEOMnUuW8BVS9aClNW7mKSiZMpkAkIp7TLdCb1SaVy9Cd7yDYU4uvQ1LlOwj22N53EHweBLscY99BuIKDYJSiAdQoKJzPnxOph7PvvSVEo/o7va3/YHgngr9g2gwafftyqr5tGZXfcCNFq0dTVXV1mgPjOwiZC4uXc9pePsX6DkLmWLJyjO2K3vgOgu8g2OogzJs3j5599tm0zYIT1SD/xwU/OOkRJ5BBKIuTK3GBJ94OclBc4ImTU/B28BycXGmk7eAZOEETnhWYBGATWvbupMa3XqXmHduov+NyhYS3QgYFVDptJk1a+w0ad+dKqpg5KymaFAyKx8wn2/M+tmM8DtfHch/a0Q7mzUjHI54pV+P+arc972OsWblYc3T6GOseX4f5GsrXYbfGvU4716LtvTy/rskyR0xEK6SvJXXv4CCBP7D76Of0xcZnqOHtV6mfkUvlzFkIBARnwZSHv0vj73uQolXVFI5EMkBTueKX93kQiHwehGAG4Zkd/PJejvjo4HWsogE66TidKgYz3EI+p+NUcGpuRXx0om1u2d53EIZ2cZVSu+E6cjAep/ZjR+nkSy/Q6T++ST0N9ZQAgt7N6gdEPEpKBdhw+lceplF3raJQdU2K1MgpjnOdSeQ7CL6D4FSJqe8gWB9+fAdBDcius7aN+OBJJMCTcuVeLp0z30GwwUEwIgXxvj46d+ATurD5fWraspkuffE5xZqaaHAg4VwwAaWKZeVUcf2NNPHu1TR5zZeFcFJ3X19aCsF3EEiUNFrV4ttxilVBB/sRBD+CoHKK9SMI1ngCnYofFdv7DgKRcBDMMAg8rwWvU8YGIPfF83Q8Z4/PZWwAfs9zsU60g/SAjJfA7myWp5N3bYTqZLwEPuPvw+/B2zFsAkbGnsYz1Lp7B5376ANq2b2TehobbC2TRKliFKWKt8wTwkljl62kspm1FAglhZOuNdvr9LHKeByuj+Wxk0/jns9jO8a9ju1HMr+8aHuVseTbPnMdztW+4o97Enux1Z6eIkpat25d2inXqyIoKuI/bomgWIn/DCQS1HzyBLV/eiCpKLntQ+pCmWRfr3ZEAQDDogmTaOzipTR22XKqnreASiZNpa6+dDlrLoKiIv7jlgANF0FREV7KlQiKjviPWwI0dgubYVBeCwI0TojK8fmVragcbG+2tumMeytxLTPRK7fEf3K1r1gJL6nsKyqiV1a2t0tUzkpcS0VMUWVt88scFcocjd1clz4WjgJkprvPnKauQ/vp4ub3qGX/J9Rz4ZwapXNBgSA2Kp0xi8bcuZJqFnyJRt94E0UrqygQTnIYWIWszWg07SDr0QFeWYXudIBXlqBSj+X27LC9X+aYOe7hNMnshHaVe+UK0KuT07ZKS/hEST5REvYMlVSo7yC44CCk0iyDg1QIGl50TkM9tQCv8PEWaoH8dFsLJbp7aDCRoGAoRMHiYopW11DldbOp7Jb5VHL9bCqePFWIJoUjUSotK0uLQvgOQkBUpsiXl9HBvoOQyJAB94mSfKIkp7BSnOPFZ1LMwkGAFoOfYoimIUd1Qq3I6XD+dZVQUGd7m4gwJHp6iAYSVFJaTqHiYgqXl1MwEhXgOpmzADlvri1hkDoZG6SXUww6YTidUKuV7VVCrXbYXiXcl6v0Dk7bsqaKXWFuO2xvlcLDWLca907Znqd3VFJ4OmFunXGvM7/8FMNghsOKtZxLo8sgZ7M0klu2t5pfKuNeZW1LVTE899xzaacvLpYDj0s2FhZXLrzENy18LgMZ8XsuvMTbwWIlAwzxorLwEh6St4OFRAYYYgPlIihclAcbqAzQwASXN2F8xsV/cA8ZdAlvl4v/cFEe/qx4FxnsiHflolfcJngXLv7jhO15H9the/SXVR/bYXv0i1Uf22F7jDOrPtYZ9zrzy2rc+7ZPArGs1pxc2V5lflmtOSrjXmV+Wa05KuNeZ37p2J7PL77eq4x7Fdvz+cXXe7tsz/uYr/e5tL1f5jjkFo2EB8HwrK7F3J4VnkBFBEXF9lZ5VTPcgpdFUKxSQlhs+aJtR1pCBzOST7b3eRB8HgQzTJYTcs92UWN7ORXqOwi+g5CKHLkFevOJkqxBpb6DkIwUZgs49B0E30HwHYRkiT7Wc/myOpSYAdl9B8F3EHwHQZpFPlFSASHyIl9+BMEesh63ojdWlQ8+k6LPpIj5DYyFnCIf1kGYNWsW/fSnP02tCQidcKIh/DdOeiTn8PFjTjTE76HyHTva4fdAu/xZ+LPiXbJ9H512cmUTt2zvVjs6trejj3Xu4ZZN3GrHt33meuLbPnc28W1vn+35/vT/Abda/H5atWHbAAAAAElFTkSuQmCC;" parent="1" vertex="1">
                    <mxGeometry x="390" y="229" width="360" height="121" as="geometry"/>
                </mxCell>
                <mxCell id="KZLGqdd9_eM5G-d1IhaY-1" value="" style="shape=image;verticalLabelPosition=bottom;labelBackgroundColor=#ffffff;verticalAlign=top;aspect=fixed;imageAspect=0;image=data:image/png,iVBORw0KGgoAAAANSUhEUgAAAuMAAAEVCAYAAABKXus9AAAgAElEQVR4Aey9CZRl11UluN/4p4jI0alZ1piSbHnGQLltpgIDXmWqYDG4wS4wTVPVUL3oXs1qFt2rFlWmq6mielFQtKGqjMGAPGK7bWRjeZRtWbbmOdMaUkrlnJJSmTH98Q231z733f/f//FjysyIjIg8L9eP994dzj133/fz73veued6nU7HQA9FQBFQBBSB84SAPySH/8EO/pP1wH/23gCezTVMkev+SWR44D3/Do6iGFwyz4M2pMagMIbrMsPJoxaiCZt21yVNWdbKHmhPcYO2Ss0scjnQf6Eei1TRZEVAEVAELjoEwouux9phRUARUAQuGAJCu6V1UxBxobf9a7LlAXt3NJgEfviw96PEWAi6q2RbGaomtfryrS5Wkp0gLGiHssq6yX1Z5FBj5YzimtJtC2MyNUkRUAQUAUUAgJJxfQwUAUVAEVgnBHzfg+f5yLIMeZrAmBxhGMD3fHiepcJMM8Ygz3MhsqEfSR25Nx5C30duDLIsh++zng/4PrI8Q57lyA3rAYHkeSKLsv0gEF5N2TBG0nnN4l7gIwrZjmSBTed5KnJ82s2dOV4s+I5eL0fELajnSsVFXytK/yoCioAisCUR8NRNZUuOq3ZKEVAELhgCS7mpkOxaEkvSHfCfieAbIMsB37Mfqp6lEHJdqftABpiM9xDyHNKMUrHmFNMGcjP4ULrvA2FgAaBcHgHvWS63Mngvbigk4J6xkwEPQsilgiPmnBwwobCQl6+l3DJ/+jx+mXKLZTu8FsvXdEVAEVAENjsCahnf7COo+isCisCGQEAswDQ6L2MKDsNQrNm0QgcZ4HUAdICsC3R7wNxMhlazjZmZWbSaLZx++bTcz87OYX6+ibmZObGsd3spkjRBlueoVKuoT9QRV2LBYmKigW3bplCvN7B9+zY0Gg1s2z6FRr2OXbtCRCEQkcxXARMBeeAJyRdbvG8JOQm9HKO+L323FTupKEotcVoGkCVqapYioAgoAhcDAkrGL4ZR1j4qAorAKhEYEEi6ftCVhK4hNC3bnBIRNXQvoRnZh2dCu8KRrRVFaPV210zev/8YXnjhBRw8eBAvn5jBwSdOImkCzVYL3U4PlTgWsh4GkeicZ7ZN3y9IvMgt3E78AEEYYiZto9OdRpr2UKvVxMUlpyuMyUVfcWHJM3GLydIUlUoF9UYNccPD9bdejt2XbcM1116DSy69BK/Y8wrUGyEaE9bCLrMLj64q1v3bnmkt50wiR+7Rz6WAt9BtkGDdZIpcOfmchRRHAZG71bMioAgoAhclAuqmclEOu3ZaEbh4EXBU0BFBu3SRhNnl8Ow+dBfJEEahEPIk6cH36K+dSASSMAjhGR9Jj64fMWL6maRA1gOOHgYOP/sCHr//cRw/fAJHjx4FCTI5PUmydb+gmwrJN31I3CJKOzaS39fJubc4HQfj1+9HQXKtFJtqSxdRU/pVmGfdUgzJtJ8g960rCt1VOOmgxf3a667DG970Olxx1SV45bWX47IrQkRVgHOElI7mfoKwBmRhhl7eE/0Dj/YdHyYvfNWNB5Jv8WuX9ge62AgyrOZM8H0Fhy7UTWUIDr1RBBSBLYiAkvEtOKjaJUVAEVgcAUdnHYkVYjpavCDBzuKdpbkQ5igMhKanPUvXQ/JIA5x5qYcnHnsG+x47gCcfP4Rjh0+h3cyxvb4LcVaBl3pirTayKLMg1n5Bvn3fGs5J5EvHKAl1dUtFhi49+pWYAdllJluwrbiiBl7hsy4O6sUchFjk4jtO3/UMSZIKKQ9CH5VqgLnmGdQnQlx2xU7ccut1uPlV1+KWW6/H9j1VoAH0DBd75gjCAHEcIE0ydHttJEmCeq3qGpezs4wTYrY7IOpDxfo3ozj0M/RCEVAEFIEtgoCS8S0ykNoNRUARWB0CQsb7/NdRc7p18MN7mrA9mCxC4FVlEWWvC0QeMDcNPPLgYdx/z4N44dhxnHrxZczNtBB6FfgmQuhX4CGEST14Od1XPLvCUgiyFe1tMDJOFUnEeQSBjeBCUk1KzygwdEnJsh6MlyLPE0xtq2P7JZPYde0OvP77b8VrXncTJqYCRHRbDxJ4QQJ4CTwuDhXjN1Fl9JcAxhTWcLGa20FYbKGnkvHVPddaWhFQBDYfAkrGN9+YqcaKgCJwHhDok3HHw2EJIkmhDTII+HmIvAv4GfDk/hdw9zcfxKMPPY1TL8yj08xRjetIu11Uwgg+fNCCznMUhMhzg7SXCfn06YYicq1FXa4vGBknv6YylgQ7CzUhpYsKJwn0U6cLTr02gZnpOVSiiliwM4Z4kWgtrGvQzlowkzma6QyqdR+79jTwvd//Wrz2DTfhDW+8DkEDSHoZjMdPYQmXfheTHarCcI/FGJB4Mwxj+VAyXkZDrxUBRWArIqBkfCuOqvZJEdjCCDiq1ufQZ9FXulMEvo391261YHIfjXoNrSYk0ghy4PTLwBMPHsBdd9yFw88cRbebIenRtlsBDH3FuVjTF4v3wB1k4BZid7ok0STJpwsJI3YXEQJL7iF0L+lTUwkt6HpoO7YqMmqMeJ8MJDC8SxHbUMSNIbsFSWa2I8OMae4Isg+65rAfor1Yysms+S/zDHphisy3hBteCs9PMT1zCtu2T+D6W67BD7/jrfi+t92EShWo1m1IxvnpDrpJUxaRcjFps9nE5NQUOp3OAjJ+FsOrVRQBRUAR2FQIKBnfVMOlyioCFyMCA2pJ26ojiYONaMr5y+PD6CjVWlVIX9YzaM8miP0YcQTMzwEP3HsYX/3yt3DvPQ+j6tcw4VWRdTJEYSyWb88LEXiMdGLJKeOFk4zzn3NvsRqR5RYuKlJ2YHmnlgNL8XqScRrEh/GSiUCR5Ig//dNtXzyx9FvqXShdIua55yGlJV3qUxIXgtKNJRXXlrAeoI0mTJzgNa+9CW/7wTfjjW+6HpPbgWDCLnSl9XxuZlYmAlwoy+gwqzvK0zLXN3cWpFcnTksrAoqAIrDOCCgZX2fAtTlFQBFYDQIkVSS1NBlb+7EsQPQs+bWSijKLiBVaVuJrcRyLBZYRTSp+A/k08Nh9p/CFz38F+554RtxPPMQI/RjVKEYgm/N4aLdbslNmmYhzckAyLmdpn63RCm51GpDYUrCWQk/bG7ppWJIuKq65ZXxpMm7DN9JCbq3ptIaLi02hs138OZh08D2BQSS+4HZyRMt8jiDwkOUpkjxFRsu6xDUnve/AC3q45dU34Eff/kN441sugzfFiCxd9DpdCblYGqrBiJas9y7R4jXQxWEu+I88M9ZBxtXUsyKgCCgCGwsBJeMbazxUG0VAEegjUJBw8eUmuSXxssSXiwnFCkuCXnKfIPkVn49ChhDxviWXVuoAWWJdUZ56+gju+fojePTuQ5h/KUVzriOuJ1ys2eulYJxvRgKZmX4ZU1MTaDXnsX3bdjTnWwNmzUlBn4w7Ik5ybck41bAWZqtQmWiK2swv+W5L+VHLtYt+UvRp6RPJsO21yJJt72nlHhyuPaa4CYDTa0DGXYq1jNv+DPCXPnEM6IJjYiHjIo145FzomcAPfVSrdSRcx+kH6KVtdHtN1OoR/CBHhhR7rp7CTW++FD/+Uz+Ia67bJUpm3GVUFGb8ci4gzWWHUOpA/ZjHLjryb58LVmUisS+2FnW9Lp6VAQJ6pQgoAorAxkJAyfjGGg/VRhG46BEQHtYn2NbX2pFBS8ItQROiJkSLxJFELBD/bPpoh3GMbnMelckJpM0uwpB+3kBzGrj32/vxtS/djUcf3I96OIUgrcEXH3Bn0aacAX11ZJsDY1OFCQ7GyfnNSApLMH+Q7a4GEm2KK1JqqijqclzNszk7TTlZIYkeHO7atSJnlyjFRvV3mSw5LMtKtZOPvjzxWydxZjhI5vHDg0SaaZZI54xp7ieoTgaYbZ/G9TdfjR/7iR/A9/6jm7Btt63RpbV8IkSWdeEHMVJuZOQzxjllpYVrkB03Thv4DMin3yblkNQXkzgrVv8qAoqAIrChEFAyvqGGQ5VRBBQBcluxcAu5GiZzwnLFWmp3f5T7griLS4gsqPTQaXbRmJoAuBeND5w83Mb/96l/wJP7nsfBAy+g4k8i9uoITCQ8jX7kjnIOLO12LJwf9WBkWLJfepC8zNUQZy+VHSbjlvCWss/isqwfybOjyUUQlUKitDTaDSlaru+aL+s1Lt+V43mZ/CKKDPtNqb00QVj1kftdxA1g244Ir3/TLfjpn347du2BLBI1Xg9htSKkOvUy8B+JvX0e7NuR8WScLZCMF+eymnqtCCgCisAGQUDJ+AYZCFVDEVAELAIDMk62VibjzCdTty4qJFl0O/Fyu208SSc/SSdFFMRS7MCTM/jSF+7BPXc/gk6rhzz1kSc+phrbJW747PQMJur1YiMcEjYew2RyARkvyH9R+Dyf2D+nx1mKHtKPsmR2I8Istlau5LCr5UOaHu6/zS7kyM24/LKQZfIdGSfOnodur4eJqQmkpod2t4lqPYQfGrTbc3jLW1+Pn/65H8Y1r5qQ8atOxci4a6hno8HboeIOTPRtKZ4VWsclgzpRbyXj5dHRa0VAEdh4CCgZ33hjohopAhc1AgPCWJA6IVm8docl3ZIiZNzGqRYOS+6VAg/e8zw+8+k7cPzwDLrNGFkSohpXMT87j1pclYWYsjV9ngkRL9ZQFg0Mu2k4P2qbuQzRdCqe07lMfM9GUBkr1h/IG5cz3IIr4c4udyBjdLLiSgzOrDtav5TrefLyQSQagyTL4AeWmCdpTzYeiqIQfuDDD3todY7jTd93M979qz+Pa2/ZIZw7Z0RJcXfhmw/6lKfiaG43FHJtFTr3Hwze66EIKAKKwMZDQMn4xhsT1UgRuKgRGJBxwuBIXUHwjIcoCsTY2Wn2EAWRRO7oMj44gKeemMff/OXf4eDTR5D0crGax+E2WZgp7hp5Dr9Y1OikD9Y7Wtu6b7eL7I/BAjI+7FfSL3feLvrkcbUSHdl0mLG+SyuIaQlRlzNopVxvkGqvRksvVbYYq1ERxb1dQGrfAORm2N1EtOSCVTcB80jUU2Smi0ojxq1vvAU/8pNvxWvetBthDch8wA+BXpJijgtst2+XxaP2bYDtc3l8F1FJkxUBRUARuKAIKBm/oPBr44qAIjCKwIDmFQSw72VhzaE+QiHgaRfIGRnFAI88cASf/NgdePLxQwhNQ1xRKhHjgjP4XozAC63vtMTPpucCXV3sQkIha2IMF7ouVvPBJMDuSjnQ0VnNB1oO8s7H1dm6qVjiOWy1LvATtVy+03Gc/i6tXM+VX83ZyRlfZxDtxS6stITc6cfoNDIwg2lDMTuj90mCHkzYxTV7L8V7/+W7cMOrdoBW8pSxzU2GuBLC8xjrvFjkS9el/uSKei2t23iNNVURUAQUgbVFQMn42uKr0hUBRWCVCFgq6FxRLEmzIQsZmjBEWAvRnTao1D08/cjL+NCf/j0OH3gJJuNW9AHqlbrExp6bmYPJPfEfp1+EREjJZZnnYFNK+p/L7pGMWy6eDgUZHyhd8PZBglytFamz/V09Z7SoCdkca7l3+VT+wpFSadmzy3OpCVGXNw8CJ3VkuEQS6bK+jJxiwOgrNJh7kY922kMr6eCW11+DX/+tn8FNt+5ELwOyrIcw5IQmo2TpqpBxQ9cY69eyViM38oDorSKgCCgCK0ZAyfiKodKCioAisDYIkHiRInEDGUeVSKQyiSvuC5H2xeWECzZpEX/55Q5u+9uP4Tt3PgbM7kIj2CHh76qVEN1uB/VaDXOz84i5aY+EubM7YZKcM+qG3dOGBI1kPLXnwug9sNyytwzRN8IN1wYEK7VPSs+lEWe9L2Q4SHkrHLecsFg7KylTrlsmz0wfX5+pdFNxuQIt3YZElJ2AGWPHvUzIScYtIaeAANXGFJrdFH61h2DiDF79hlfil3/1l7BtRwURo1jKmBbjWkRWNNx8qJio2Hcg0nqhq9Oo3Ce9VgQUAUVgfRBQMr4+OGsrioAiMBYBR4h8GEOvb24UA8zNdxHF3MAG8BIPkV9Be86gEnr4yw/cge/ufx7PPHUIflpFNZ1AkLGulcU6PLIsQxiExXbuzLYksOwGYUme21jG1ltAxq1Hi83clH/7fj5We8t8l+iJUOZl8pldFuTGkelL1x/Gt5AjY0ZfcYp1gJflM8v2I5Nitg3jZ8i8NqKawa5LJ/H6730V3v1rb0fPAEEF6JkW8qCDiYkJJEzkgl/pGeOdJ7YPEn2lYOySp38UAUVAEVhfBJSMry/e2poioAiMQYCe3TChELk0SRHHgezWGHoRwrQCrtm866vfxYf/5lM4c6qLpBciT0NEqCLKAniZpVhC0fo+wjZKIMmfzbUNS6hC4Xm0xLNJujQMiJ/v2LwU95CLabwsYUwHNmwS+zVCxpfS1QJSEOrFCjosBpgVLLqo4PLH119AxmXB6qCsyQfvRwapgytuJuQOWtn9KETu0Wu8jSxsY8/V2/HT7/onePNb9sKrAPFEik4yhziqI/AjpGlaYMLY8qXFok6onhUBRUARWGcElIyvM+DanCKgCJQRcBZxphXuCSZH1ktRjWtA4uPoMwk+8eHb8Z2770WWeKhXtwF5AMNPSi7tg64stMjyry9uKYM2RsnfaNzwMhFnrdHyNprK0gRz0NpGu1pnMk6Yyhx9DBzDk52FBUjGy8co8kNkPPDh+Z5sAtRLO0i9BJM76phtz+DVr3s1fuN/eRcmX5FgYjs9yDMOroRSpMuKm/yx9rJKlxXSa0VAEVAEzjMCSsbPM6AqThFQBFaOgLWIu017UqHRgQmRdYDIBz72oTtx11eewKkT86jX6mi32qhEVaRJhm63Jws2A9+5olhf6dHQhOPJ9eI6rrb84pI2Qs4FIOPLdHsU39Hi5VCSw2EubUljGC3FHizLeRjv/ShAEAYgWe+lPSD0ceU12/HGt1yBX3jPjyP1O0CYIqj43C4KRoJhehJ9ZeAaM6qN3isCioAisPYIKBlfe4y1BUVAERiDgBAqD6jGFXS6PUReKJZwPwEeu/8F/PV/+yROHp6Fl9TgiT853RMY+m6wdT23sSf5FgLuBI60tRz5Gym+4LZMDhdkbvgEgrKObiqjZuwx+KxqPMao7t5ssGccGzGk+4ENYWi8UmhKD7nfQSs9iVe94Sr881//Wex94ytgfINu3gRCD0EYIufmnTbwyhhtNUkRUAQUgbVHQMn42mOsLSgCisAYBIQmekCn08GOqW1oTucIEh+3/bcv4KufuwfdmRAT8Y5i0R1Z3oCMiziaTRch4OXmVkX+yhWLayXjo6A4xi3gF5kymosFURkSsKrxWISMF60xNAuMLMCkTjZiDt+TMGqKPDFeijzoIotamE9fxI//9A/gXe99J2o7PHQxj7gaweSD8kOK6o0ioAgoAuuEgJLxdQJam1EEFIGFCNBNxXgRfAMcfaaDD/zJbXj20eOomSnEpg6kBpnp2ZjRQq9IvmjsJdUqSCHD3olo+3e0lVWRv9HKhfV1TPImSSpoawHVskoLhCVsx1Zwwsp4r7ydVY3HUmScRJzPQBENhXMzPkdcBhwYY3da9Qzmuk1UpqrI4xRz2cu4/rWX4df/1/fg2ldtw+nZGUzWanYhZ9HXcb0bC4MmKgKKgCJwnhBQMn6egFQxioAiMB4BF9uZuXQxsDsikkQxgopsn4gv3P4I7vzCd3DqyByCXh3dmQS1sIak00FU404v3AyGEhgjnHTJhqJz3NHS8TI5HOiyKvI3qNa/2hKW8X5vVnJxDmR8BeKXW8A5JKIYUkeQmcdniMncxMeuOeCzwE2d5OkQMu4LGbdRV/IgQM9kCGsRun4bbTONHVfU8c6f+1G846feVMzrKNHuCFo8aIOY97Kj55BWeqMIKAKKwHlFQMn4eYVThSkCioAQpz4vJkmyZMlu5uIhS4xEQqFFM20Cf/aHn8TTjx1Bt5WgGjfQafbgMx6026ClL9BSMrGMl2DuN1VK00uHwNmiU6a/TtZS57NtZymZNm8xTWyLbmdN+56EZT1O+KSqLSFbCXHuJ7t45vDCHMZLEcQerrhuF37n938V2/YwLj0QREBGJ3I5KJv1MtkUau16WDSnJ0VAEbhoEVAyftEOvXZcEVgbBIQI9ZmLjR8uJImhC40v0SzQBvY/9CL+6r/8HWYOZzjzQhNxHMsnK+8/T2unxA239Ioab25L9dpgfjFLLeZsYhlfKQ58W8IY5YxLftneCfzKv/hZ3PLa3cAEYHpALtZwulCRjCfyZqb/SK+0ES2nCCgCisAKEVAyvkKgtJgioAicDQIMNReKpTKgq0AewOsCn/vEXXjw7gPY9/BB1OMdSLrWpUA2cQmCQUNKxgdY6NVYBM6GjDtBnp+hnU7j8lduww/8+OvwM7/yI+IBlfoGKd1gPE4GuUmQs5a7mnpWBBQBReD8IaBk/PxhqZIUAUVgBAFurmIQist3mEuYZ/w/v/dBPPSt/dhRvQK9to8gqknM8DTNCp9ya7V0otQy7pDQ8zgEzomMI0drfgZTO2O0zCm87e3fg9/4nXchY5RN7gvkMWBLCrsx0LjWNU0RUAQUgXNHQMn4uWOoEhQBRaCEQKVSwfz8PMIwhO+H6HZyNOIY08eB9/3un+DUwRlEWQVhRheWAKkQdn/I/WR40eXARYXNqJtKCWy9PCcEuP1PYFJkeYIeUphKhhtedzXe8y9+Dte/ZgJBA+i0E1RrEZrNpjzT59SgVlYEFAFFYAwCSsbHgKJJioAicPYIpEmCKI4lfnjoVVD1KnjknsO47YO349CTL6Hhb0eYBSAN55EaWs9tdJSVtKpkfCUoaZmVIGDJeCbRWTIvRA8JupjDNbfswa/+5s/i1u/ZA9SATreDarWKVrMpGwWtRLaWUQQUAUVgpQgoGV8pUlpOEVAEVoZAbtBLeqhUqwiSGF/6xH2464sP4fiRaWTdEH4ey0JO9+q/HKpwJQ0oGV8JSlpmJQgwOKLdTIoBDQPknoEfZ8i8Ni65fAI/9a5/jLe989WYS6ZRq1RRqVXR7XZXIlrLKAKKgCKwYgSUjK8YKi2oCCgCCxGgfzdjf0sAOYn3TJt30jUI/QB/819vx92ffxh+t452M0W1Oomkx8WadD2xIegYqtCFMVwof2GKkvGFmGjK2SJgJOThIDAiQ9jnCEODNG3Ba3Txzvf8IH7ml34EQR3odbo2xD2DmvO5H42zebZqaD1FQBG4qBFQMn5RD792XhE4ewRsqDcfYRDBZEAUA2nbIO96QA/48//0D/jaP3wHE+EEfEZRkXjjPjyP0VIsGZfWi63LB5oM+4i7TVhcvpJxh4Sezx2BcsBC+9xJJE0wFrlB7vfg1VP80E98D979a29HZRv3qUow25xDvTGJIAiRpL1zV0MlKAKKwEWNgJLxi3r4tfOKwNkj4Mi4jxBxxUPaMkiaBqHx8Uf/7uPY98AJzJ9JUY8jiQEtVGdMqMKFGrCkI+RspUyYdAHnQrw05XwiwMXDjKIiT56Xo5d3EdS72Pu6Xfjdf/s/IWpkSNBBEEXFLqBGLeTncwBUliJwESKw8lVTFyE42mVFQBFYHAFLmXNLxNspwtiD6fl43+/+Ne795jPw8giVKFxcgOYoApsAgSiKEKKO55+cx/t+97+gM+uhM9dFliRoNecAY2Pkb4KuqIqKgCKwQRFQy/gGHRhVSxHY6AjQX9aHxyji6DYzmE4Nf/Bv/hz77j+JRrwHJjOYbExgfmam7x9Oi7cvkVOc5Xu0ly7dnZ1V3J3VMj6KmN6fXwTEMk6RdrZp3VU8gyTvwUTzuHpvA+/7w99GdSqHXzHoZZlY0s+vFipNEVAELiYE1DJ+MY229lUROA8I5HmOXq8HhjCMwxi+CeAlNfz+//l+HHl6FvWoAdProRZWMfPyDEhufNk8hbsZjlOgYD1915RyIXc9WmacHE1TBM4jApz/5R68LIKfRYgRI8oaePaJGfzf//oDmD2VoTnTle8Avwv8TvC7wUlq+XMeNVJRioAisEURUDK+RQdWu6UIrBUCaZpicnISeZYLWZl+qYe/+LOPYqp6KSaqu4DUQxQECH0fE/U6Ap/284EXeJ9zDynoSjjyXc5cKq9cTq8VgfODwOCJ82ThMRcg208FsbcDB/a9iD/4N38mhJzrN/ld4HeC3w09FAFFQBFYLQJKxleLmJZXBC4yBOxCNrs1uItkMjs9gzgM0Z7L8Lcf+Bzu++bTOHn0JTBOyqtvuRW9ToJedx7d3hzyXAnKRfbIbJnueuKKlcFDDs9wIXKEbRNTqPgTOPD4Gfzxv78NM2c6MtOcm5mVt0Cu8/K9cTd6VgQUAUVgCQSUjC8BjmYpAhc7AtZTm1ujWIs1Y4o36pOYqG9D3m3gz/74w3js/oOIsA3ddiJW8OefP4TXvPZWpFkPYcB6xkamKLayz40NG8fQcf2oFVKG5QZlHZkZTrnYR0T7v74I8CnMYTcHsvHwX37pNPLEh9er4+iBGfzxv/8r9OYqqEVTaNQmbAhP48Hw4V5yfcT69kRbUwQUgY2LgC7g3Lhjo5opAhcUAUfEmy27FTiDiXPxpZeFyLsBPvj+O/DIvU8jzmMEuW/DFxoPSTdDJargxhuux0MPPSSEhCQ+zTJkdG2B3SjIds45BLiuWtLvnFpomTQarcKBo+d1RMA9ic7JyjDkIQxycMGmnSLmfoq2mcPNr78Sv/+HvwbEQDQJzM00EcZVZHmGkAGFvEHEFc9zktexM9qUIqAIbGgE1DK+oYdHlVMELiACjLXsAdVqBY1ajKSbyGK2+dMGH/jTz+Lhe55DbHZICEPZQVMsgR7yPBPC8sT+J3DzLbfA9wMkSYqAfuRRhCAM4cmKTvbN2b9dP+0UoH+nvMVBoed1RsA9ifL2hjtugoSa58KP3PgI8git0wYnnp3H7/8fHwS6AFJgotaQdRNcL6GTyXUeOG1OEdiECCgZ34SDpiorAuuFAH1lYSSFWFQAACAASURBVHqYmZlGNa7Khj6f+dg38dh9h9GIJ5F02vC5JTh3By+UqtZr8AIftUYDzz1/ENffeAPiagUzEuIQQtZ1G/H1GkFt51wQcIS8LIO8vPzZvXMH/DzCU4+/iD/6g08CCazLlmeQJi2oIbyMnl4rAorAOATUTWUcKpqmCCgCYgMUf+88FdeUCFV86iPfwhc/8wDSZoRtjW0IafXutGSBm4XMQ7PVQqPeEGs4N0xJuil27dyNTqeNF154EXRZcdTd5Gbo3slw+cLy88Erfh0WRWC9EWBozvLhFjEzVdxVfIDvghKTwq928eYfuBa//Xu/KC4riEjMO0NxyNVNpYymXisCigARUMu4PgeKgCIwFgGSDfrL1qI6gryKz3zsPtz5hYfgpwFqUYikk6Lb7BZv7wexlatV+srm8ANfQr6FYYC5+VmQhOzevQu+76PZbIrbSjkes7seq4wmKgIbBAEbN5/rHuwGVgx5GJgQFT+AnwV45J6D+Mv//CWgBeStVNZPiJfLBtFf1VAEFIGNh4CS8Y03JqqRIrBhEPDyEN15H3fe8SA+/+mvIe9ECBhz2XjinsIFli7SxHilafmma0qKXtJFGIbYs2cPKpUKWq2mLHCz9egQUHYKGL0fL11TFYELhQAnq+7jG8h3IshDoFfBF2+/C3fe8RjQC2XhBSemeigCioAisBgC+j/EYshouiJwkSMgRCMP8PgDx/CpD38VJvEkjrjHHTcNbeYpPC8pFrYtDhYXsNGK6Ah5rVbB9m1TYhkPZEtOR7wXOy8uW3MUgQuLACejLg65Dy8PkCcJQhPj0x/5Gu7+6jMwKWTR8oXVU1tXBBSBjYyAkvGNPDqqmyKwjggwdFsu4dsYLSJAkFUQpsDX77gfvfkQ1aCBkMENDfNpFaQvdz5w7xZdnXW7TKwhESUsIc8wPTONnbt2Yvv2KYRRaFfDiVW8XGf0eh2B0KYUgRUg4J50vtGRSPzytsiXnTrzjo+5l3J88rYvYvok4Kc+Aq8KA99+xzjT7T/zK2hMiygCisCWRkDJ+JYeXu2cIrA8AjZ6MpB5HjLPRxDHyLoegi7w/v/waTzzxPOoBjXxhzWpJ7sM+h7dTzx4DN024mBCY3ffr9a3vrUs6w5ayjudFm644XrQn5zXfuChUo0RhP4IOXe19KwIbDwEBoS8cFlhuENTQYQGsraPU0eaeN//9v8inwHyLpCZAJnHjwfjcTMhFy5x4/VNNVIEFIH1Q0DJ+PphrS0pAhsQAUulPdmUhFt+e+g2DQIT4GMf+jr2PfQsgiwSax9fwVtDuIvttlR3HEV3Z1uWnJyf+eY8nj/0PF55zdW45JJLkKSJRFshOReLoYsdR6o/ZEUclreUBpqnCKwHAnZ3WjfZtG+VuNbCNyH8rIKjB87gT/7g86iwSEoXL/uM998syXR2PTTVNhQBRWCjIqBkfKOOjOqlCKwbArTQZQhMijD3UDUe7vryU/jGV+9D6FfBmBHlaBCODrvz8mq6kvbMjVB27tyONOnh2LGj2L5jGyYnJpCbHEnSK72+L0h/3/bu5CzfopZQBNYHATJscVIRZ5WhNuXxpXtKDY8++Aw+eds++F0gzCDfNSHjpZ05h+rqjSKgCFxUCCgZv6iGWzurCIxDgNY8T7a0DzMf+x54CR/90GcRmBrarUTyWMvZ/sZJWJhmSUrx8r6fzfCFSdrD/Py8DQ3neWi3WnjFnt3YuWO7RFgZG1XFietL0gtFYKMgsPDhHKT4mJrcifnpBHd/5SE893gbUQqEOS3kdOHSn+CNMoqqhyJwIRHQ/wkuJPratiJwwRHwEIUVRHEDaEfIZoC//+gXMBluR9LOUYnr1uLnDVPkpdV2VGThmeRDNuw0RuKQB2EAEvTm/DyufuXVmJqalPskSWSnzsDnK309FIHNioCHVrOLWjSJl4/N4j/+3h+jfQoIelXkSYDAi1Y9zd2sSKjeioAisDgCSsYXx0ZzFIEtiMCoq4eH+fkOshYQmRC3feCzeOnIKbRnWrJzZppmq8TAEfDFq5UXc7pSzVYThw8fkkWdcRxJHPIoitHutF0RPSsCmxMB48FkBujkQMfH+//j3yBvAUFeA7hF56LvnJb/Lm1OQFRrRUARGEVAyfgoInqvCGwxBOR1OF+JFyHYhkKqGR/1agNpG/jWl5/Bw995CjFCTFRjTE7WEUVhf/0kqcFaHCTn27ZtR6/Xw4mTJ3H5FZcjCDhJmEW9RsKihyKwORGwdDqHbzIESOEnBg/etR9fvv0xeLkHn9GDZEHn0LeyIOiOjK/VN29zYqpaKwJbEQEl41txVLVPikCBgP0ZJxEvIgb2f+bpdxLAz0MEEXDqqMF939oHk1TQaafo9RJkWSYuIxS1kA6IxL60Ud/w1QwAI6nMzc3C9wPxI6eVfM8ll+AVe/ag1W6NLOh0yjgLvzuvpkUtqwisFwLu+TTCthlJpR7twnfufBynDgPgix8TIoOB8fjJAferbEjU3c166avtKAKKwIVAwOt0OvzfQg9FQBHYIggIcR76VnO3TIZ2oMsJSQF/5EMYEyLmb30T+NN/92U8+uATQAZxESEULmSbz2gqQ9g4Ij6UuLIb0ctJs2ELTT6krPiUk9xfdtllOPjcQfS6PRjuLSSxyse1PZo27OAufV+ZdlpKETi/CHgSDVS+Tb6xmwOlWYrMS3HtjVfhD/7rLyGZBHphF0GQg5GG8iRHnvE7ShcWwPf5vWU8cj0UAUVgqyKg0+6tOrLaL0WghICh5U2IOC3kHnwTCBE3LeD2jz6NfY88C+QhJia3wyCQjzXROeLshI0SX5e+wnOZUMs1YMid3Ye0w4imOHL0CK674XpMTE6CQSeMBDkncR8m72NbpuxC/th8TVQE1gOB/qPK7w03yOLbnxCNyjYceeYl/MV/+jaCHAj9CvIM6LY7EnOfz7itOvr9Ww+ltQ1FQBFYbwSUjK834tqeIrDGCAhddeTWGYn7v+l0WfHFX5W/9k/vm8VTTz2DLM8kusnc3Nwaa7e8+Gq1Ktb5IAhx/NgxibAyOTkh3Jq7d46Y6ZcXqCUUgQuIwLjpaxRG4OfrX/smvvvoGQQJEJsa0q5B6BWbAhUbcV1A1bVpRUARWCcElIyvE9DajCKw3ggIKacd2RObcuF2Yl1UfH7z28DXv3IXjh4+Jr7hjXoDkxOTQ2qWN/sZylj2xlGQ0fNSFa3bChdy8mDIQx4Mc8iQh5aQ92cVkqd/FIHNhoCE8mw1EUYRvNzHR/7i4zDzQBgCE/EUPFO4ldGT3BNv8s3WRdVXEVAEVomAkvFVAqbFFYHNgICzjuf0WfUN5OzRezqwVvEE+PqXvosH7nkM3WYXcRCh1+ki6fVkt83+bvRuveSqOl02y4+5HpHlex4GH/rIekiTBGEQwPd9tNstdLtd3HDDjajX67KwlNZz+t7qoQhsNgS49oHx9vlMI/Xw/P7j+NRf3wnMcjMgHyG/o8hhvLT45CtxzNpsMKi+ioAiUEJAyXgJDL1UBLYaAvTFzvihQVx8qH005zIcf76Ne+56EBW/Dl8scRu75612G4cOH8Irr3kldu/eDUZcqTfqJULu3gO4fhT3akh3gOh5gyDAqEHu8PIAphXg7i/eh5eeS4AE8n2UdREeb5KVrZFwAvWsCCgCmxIBJeObcthUaUVgaQTEOcR6fSD3DDJaxxlTxfiY3Bbg7z76aRw9eAKxX5WFZUtLW20uG17is0pxfuBj+87tSNIejh0/ildc8goEoS9hD0nI6YZjF3Uudl5lg1pcETiPCLivwjiRdEmpoIHjz72Ij3zo4wC/jtwTQCbP1k3F7g8wrramKQKKwFZBQMn4VhlJ7YciMIKAI+S+4W5/HgLjS+SGJx9+CfsefQ6VcArdVibRVaTsmKjh1rBczh1pZNHbxYhxiaQv8vJdava9Www63Q64sDQIA4mQcvzEMey9aS92796FdsfGIbcxmm2s5vHEfFFFNUMRuGAIcDm1l/nYs/MKPHL/07jnH56CxwWcEl/cnS+YetqwIqAIrBMCSsbXCWhtRhG4EAjQ+7SSB6hlIWp5CPLZT334S4i9Pei1QviI7YKxEkfu79jp4g3aLYPGUPXRHjkCPpo+er9YOWcDtGEYbXA3g2qtCs/3JOQhJeV5hk6njVdeczUajTqyPEW1WilcVsYR8tH29V4R2DgIcCLZ7Rp46Q585hPfQGvGIOka5FkVcWRDjW4cbVUTRUARWAsElIyvBaoqUxHYKAjkBkmzjdAPYDrA5z78HRw/NC07beZ0Jl80TqDNs3t3ljvTN1kvUncxol2WsfQ1JTg3F7kuF/cMwijEmenT4kN+7XXXYueunYUPeQ1p5nxsS3qIed/du3NZqF4rAucbAfecufNC+fJYMpkLqw0XLYc4dvgMPn7b5xH7E0jaQNrLZbK8sLamKAKKwFZCQMn4VhpN7YsiUFBk56fKH/xKJZKdNc+cSvHMk8eRp5FsMAKJ1uDI6/mEzhGQxc6raIvcf8QjnGS8Wq+JRZwuK5dcugd+4EnUFVrK7eK3wtS/oDal6aEIrAcC7sld2FafiFsXcYl2ZJAhS3zse+g4OmeA7dUqkPTs7rkLRWiKIqAIbCEElIxvocHUrigCggB5qCPldOvgbtoG+MLtX8fjDz8DaxFnSZIFbrO9DEFdJns86o6IDFxO7JVt7axEFg0x7vjMzDSiKBLXlJMnTuDmm2/Czp070e60R/pT6OEAGa+spioCFwgBPphcrSkrNoEswKGnT+Ov3v8FJLNAPa7Cp7uYHoqAIrClEVAyvqWHVzt30SNgfIRhDQeffhlf/dK3EQUT1gMEBUPnArIScR/3sy/5JZ/y1WAqpLvk2SJu6IWAlRJy+ouXP9w0pVKpyGZAjEPOY3Z2FjfddCNq1Yr4lIdhCO7W6TYOWo3OWlYRWGsE3LNv+O0zoXwYWcXPIzSCnbj/60/g+FPTMlfmxkDlg3X4cd/bcp5eKwKKwOZEYPhbvjn7oForAopA3x1jAIV1VQnQbua4/bNfRrWynTsAwfMy0EXFWuQY89hzLtqDyufxyhGPvsjC9aR/X7roEwxWch/mlyYD3DRFjiKkIYn67OwMDh48CPqQT01NCQmXzVX8omypjbW+7PdhpCGb7jrlziOF9HbrILDYg1D0kE8Av4MGJTLOmP+Jj6wFfOpvPye75PpmEJfcVi0901ZIIVFPioAisFkRUDK+WUdO9VYE+gg4YudsZsX6R+YbH4cOvojHHnkGRhZsktV2AW4owh95ExVh1PrCLthFwa37Fr8+lxlxuxEF+4UNwsDHtm3bZEfDF06+gKuvvgrN5pws9Iy4x/iaH31NRXfXXIkyjaS78XIl9bw1EVh+nLlwEyYGwI8P3xj4SGC6CR75znfx3P0z8OhJNvYoZqhj8zRREVAENhMCSsY302iprorAAgSKH3zH/HhL67eJ5OPnwDe+eC921C9DRg5e+J8Kly3RXuEEIsMJWtBQkeDaW4xo2FfopWlB4QQzTp4LZTjIc63zzPjo9JcNTAA/D+HngQ3DKMVd+0Y2A5pvzolbCrOOHj2KN77xDahUYvSSbsnEXmL1fbO7kzPQ4eyuJGJ08ZaheNMAEqtcPtze3H7YXjmGzdm27+q5MxnbhfiwfRmt4szr8mcxNJ3e7nwhdD+3Nt14Dp5421eGKuRGW7kH+chrp/7zthAPF8LTPRVxGKBWrWOy9gr89V98AnyRFWT8PtOCPmold/gtlKspioAisHkQWA+z0eZBQzVVBDYRAvwZLptc+cLbQwiTRQhCgDx0/8OH8ejdT8FPJxAwprhHohjAZ0XPwCvMbh5Gf+QHQIy2s/iCT9ISe7hzWb/hepbCkLaxLO/sTppFl0jEmZ7Tj7Yi1vvc546EKYxvy5LsmFz2FYXPjVLoP25y0F/8+PETuPLKK3Hk8FHMz82j3migOd9EQGB4sOH+MXRjM/sdsLr1iy5yYSc3jOrOg5UZks4ScF4PfOVJ2u1ISZ+l/Gj7izSyILmYXPSJXknpBWXXKiGQyZ8dLbZR1sFZbkl6xx0bQf9xei2fJiPGnTLFxYt39tnnOFsSbpD7Rnh4mNuJ5chDZxuR71+38AG3z0mrywmkh1bX4LlnjuPJB17Ada+5BNEU0M4y+BHbc2s+iPfZPj/L91NLKAKKwPogoJbx9cFZW1EEzj8C4nttSW1fOHfb9IFeGzAJcO/dTyDIqgjyGPQ95SIxknGSJ0sfLFHiT7r79GW5i1X+1gsds/zESSjOTlBB0rxBfBXbtu0LpxRCMMSKX0SZcBEnLEWXLcPJcH3Ph1cs4uxLN7lsFPTM08/gqquvWiQO+Yhqo7f0S3e+6aN5I/euXSI46FGBJ8dIxslOIGSn0FL9ct1hIlsqtNRlwWcLxBxy63c2/dEqlhVaatjXp/8wLNKJC61/QWX7+q7wnr2ROvIoe/IGx8ogHlyTwe/Vot+oEhgUYNdwuGfD1uKEjW5kFdz2l59EXCvaYyNDx4KEoVy9UQQUgc2BgFrGN8c4qZaKwBIIkLAO6CyNv4EHPPXoHB6897sITU14AX+2hd8uIen8ZgkTW0QkrYCWiRnZ+lvs4OJGQzrjdOWVCTKxeAtZEQIfWEuiKQgPLdC0+BcUtNvtIQpj7LlkDxj28JJLLsH09Bm02i3ZsbPbpb/8ImqtMtlSISNG+ZzRW8TC78TbPsHj2TYoXbYvJfotcQpS5PbTVnZhe8xBtROrldU6f6UKELkYmA+WDBqlW1R4Zgmb3M8sNX+h9S+pchaXMpYyueXPKF2SuCiaWGTwck6+OAujH3gZk6UaKvAsFzEBDj33Ep588DSue8NOIO4BXPAph3uuHN7linqtCCgCmwkBr9PpjPkfYDN1QXVVBC5OBPq/8ULG7KJN+liHQYS0Cbz/j27H4/cdRCWriFXcfdHlp7uwSK4EudUQeLbR10uuXApbJXngQSJOdxNuOERCbfOEhEtjjqQxxxIaunaQ2JDyUA6l+kLAjZAfTkYcJQn8EO1OB1EYSUjELM1w6WWX4sUXXsSZM2fgefS9daWpD68XuRe50iOreumvq0E/fM/nli090JUm93Lk3FURnDRQNN1V3PjQ7cYHHYXozyAyZAdGEnIpVWphBZdigU2tcIf9Cqqde5FiXMU/Z4AP37zIOAu+bqyKtxt0ixoUtSqU9B/NOncd11aCHVO6fYWyHgBeTxZGGz7f8pxycTRDbJI8u2d/dTrxO+LXUlx6fQP/9j//JqrbgU5CQu5cX0j6VydTSysCisDGQ8BNsTeeZqqRIqAILImA/AYLg+EfEjvrD05Od+T503j84aeRJVUY35JXCnN11uf3m62QLFjC7eX2v5u4FqKbdnDDTZfB+PSPtRZusSQWPR6QthBxPIk8DbD/iacQRw302gaBV4Hvx9b2agxMRqukPbI8QxwzOoU9gjDA9Jlp3HLLLXjwwQfRanUx0ZjEfHMeofMhd4VXeHb4kYhTjxw9+HGGTnIGqdcDA9fkXijLNjnxYPkgDxHkESqoIgwaoJ8+fd3zPAMJnEVrKQVsq2mWgn1ijPV2r4lKg770SX8StD6klrM5jpv7cCpB0h2gNd9FrcJ49gHyjH2sAh5dpIo5kMmRZTkq1Yr4P7e6Z6z+4s6zVP83Vp4dDc8uLEYGz+uKi0o1rqE5lyBPatg2tQe9XmrH5qzUJ6Yxnn/uBA49dwqX3TCFuME0vi2y33n5jp2VbK2kCCgCGwUBJeMbZSRUD0XgrBEobKo0kdEymUI2+OFufpWoCmSWngl5WIVF/KzVWVCxTA892aznTW9+Hd77L38QfrWYIVhmM1yTaaxKF/cU+MynLsPff/qLALigk+Q2QOjbhafO0WPYwm3FZWkqbiz79j2BvXv34siRY3j55TNo1OtotlryJsE2xPJOkUJnp8OwZqU7D1li4EXATbdcg9/9D/+7eBHkAQpCXnhwGCBkVAyOzWeP46N/9Un05knCiwYW9U932Dm9gF6vh0bckN1Hf/AfvxW/+a/fajEqq1/ScM0unUruTFX54TyIG6EC+K3/4QN48cisEFbbVSP6c9OmNE3x4z/5Q/il//G1yPiygtWdrDVT+vwK5gSDbihUm7ZvN4n82ueexEf++h/QaXE7+8UXRy+rjQGSXg9p6OHjH/08fud9v2w3swLlSovLitACioAisPERUDK+8cdINVQElkCgsFAKZ7Mh9U4fB+791uMIvAYiBrvISPms2XEc1ymqLtHGOWaJSdTRXINmcxZJ1oa/owgKsRinKJRtd1OJgvLP/vs34vDRZ/H4gweQtnJwPx8vj+AzaoXvvKY9u+umdIprMD3E1VhIUlCJceTIYVx66RViKW+2mmjUG6CP+WoPirfqkYxniCKD+dZpmSeQjJqQrjg+csaWpPsCF80mEdAD/LiHJO0gjiYxO91ErcEZyWA6sVCXojNFi7t27pTGT59uYsfuSaAKpGxzYcW1TyEI/LDx4sPhDKbsfT6RAn4On8E/iqK7du5AkvQwP98S/fPJkv7FmK+94uenheLRhi/rF1IJwUmSHG0P0TEpENSAfIx7zkqbp8sT444b4Dvf2o/jh4HLrvftpl2MICRuQW4QVipUyykCisBGQ0DJ+EYbEdVHEVgVAmRAdHHgPyNWum9/43FEmIKHCIZEvCBJi/KcIoPFxh2L1htX2HEzJ4yV3XVxMTHRQKvdFGt3Jq/bExiPVuI+wxXJvKellFZnP/Bg8gA/+66fRNq9HU89dhh5pyMB3sqWR9vUwPxPitvpdBFHsWwKFMcVnDx5HDffcjNOnjyB06fP2HCHfR0X6VRBhMu5rELMG4062ulpxHWSalrEe0i9DjKScf7zEvHZh9eA50WoT0QIIg+dZlt2C02y3gCicgOLXHc7HeQmw0SjAi9I0E6BXtAsAz1Sc7RzMjUbBltqjJYbETP2lnWsG5LbRKpRi9FsA406MNc+LeE2rcWYZQ067aZYx+u1ikxU/ApfdtDF42yPwie9XF1caFx/KHmc9HJ+ufISUI4U4/jbvtFPPBWrtZdXEdaBJO+hEkzA5MVMZKTuym7pBhUiQBXbq7vwldu/jV/9V29BHpCIc902J3vnYHlfmRJaShFQBNYYASXjawywilcE1hoBhvfLU1pnY7Smgf2PPY3Q1GFS+kqQWNBnmYRp+BAqUnAUR0vc2ZVkNtPGURlXpnweV56L2Zg+0KHwI/fpQUP/Z7+IhlKWZIm46MMoJSYB6fplV07giqt34cCTz6EST2HuTAdeULOWf6lue1DWl/7VWZ4jjCLk3OEw8PHCC4yyskdcPWZn5tBoNDA/35QY5QuZcVnasI5CRL0ejNeF8bmQkr7iviza8wurpTFkm1YGJxcZMqR5Cj8IhZRyBkWfcXd4En3F3Y07c7KRAX4Cz+sgJhfz+V95ue/22qbxupigyIlEzo7IsHRXZzh19K6MhiWitIWzi4xqY5C3MtTpPtQDJuMIZ0oVJBS8ob94iCRtIYoymUCGZ01YC9cs8Ve3esgaBSrGKC88uMusuHSU+8frkmKla9snW3W5v7SCc0EuGTlPjDEuffQ7dpJMwryckCXyjeySWxVHF6/p4/G7HoP3nrfAr8bIwh4QuzdCSwjRLEVAEdjwCBT/i254PVVBRUARGIMAbZzddhchzccJcOCp53H44DG0ZjvggsnIr5SI6oiAgos4stDnZ0wvPv28guq5+xFJQ7el6gPSJ8JZOx+wExJX34Y4ZHb5Ixv6OHrJqCnkO3T5CIBf+OdvxyuvuxydZB5cDDocn9nqTno7+EfZnACwfSPWRO7O+exzz+KKKy7Hrl07IS4rjRrSlBFeRnopONm6Nq+ULzIZJ9pGUSFufE8hjkEu7B23O5eIGhYm6sFFmE6fBe0Noek4o2vf3ZO8k/xbq6twTzfS5KEuwk5/KK0Lk9jE++pTRvnDjPL9wmu762SxoZG4ZrAtS0jFd1q2c8/61JblGfVmmPiyg2yLurON/uPmHrtzPLOv/DCmvn0LYPHhqNCSba3ZTqvB2eZTNzuCKzgLlra07LXqeULKuYDX1j7Xn1i+EfLlu+xnAaZPzOCBbx5A4EVIEyMRg0YfF71XBBSBzYeAWsY335ipxopACQEPoR8hqFWBOeArd3wD3XYPlcqERBjhttwS7rhPwEpVS7RTiHCRJdzTFSOpKNVlHm+Hyriyi53FQly8zu+TFCuBsoSnj6k70Il+4PT/FpYJ7nP5k+/8MXwJ38YTDz+LWrytsHyWOlQoKKeRDiS9BFEYYvfunXjxxRewZ9k45CUARM/Fez9acrRbrOmcRARJulMsunjT1Wa/S31zyUPnYqAYJlEwZqar5LSyestwONIt7hxOkM13d+POMvcojz9VI59mHyTUJJ8XmodtrHsb4nHx58WNf3YurhaiNok9P67zTKRFvOg7d2/tk2wSZOYXYQGpr0c3Ex4W6+WRcOjQNczWzYR3h+K2knkx+GFEHeo1eCvk6q3sTJovB2OXM1Rm7uH2z96B7/2Jf4V6baIA305oViZRSykCisBGROBcp+0bsU+qkyJw0SBAclSdmABawOHnpvHUdw8h9CsIfB++76Fer9oFjUsgUvzcL16CzKT4LFt2gZRBZbkq7dg4kMWc4YN57iP2WXH/MMhpCQ6Am2+9EibsYXJHTUInurKiZ0nUoA2bSEJWrVVlA6ButyvuMdwYaO9Ne8GFkZ1OEQakL6OQXEwEHA5OO9duv52FXelL6mcVhZ3l3srqF1v+ot/YaFFBeDBYTlnHoMVVg2FL6NcSjDDkReo6GcWZ1l5WdDbj/oNRSpe0vo7FgtpiNOkmxNCTXFhrZJJU/ATxzcFZfyiDHxJx6ke3qMIyLrrSl5vhBVNwYyarM8vbNm1IxqKO1HXyVnLmGLgBpfuP9eUevAlhXh+M0QFb0b0l8gYmp+4BDh44gVPPAOCAhwAAIABJREFU5+i2DSRpRVK0kCKgCGxkBPi/jR6KgCKwiRAQOmSNxPIaHu0cpgfc9bUHkHasSwR9pOkGMd+aXzEZcHRsraFgOzzc2V7xrkRcCgMnuRWtq+KP69MvN5OQgVEN+K3ffjeu23sVqvUKgjC0BC834hdOouc+RXP9U5Kl4j/O1kjOWNfFIXch96rVqriSsJLVylHn4lxyezlXstVXbNmLFYxQYUR3okjkapU6wiAXjxA/D+EzAk0WS+QPPw/g57G9z5i+9Idx0lmfZ3sdgr7x3GzKzz0EuYdKEMoOsFkHiIPYhuITv39LSvOCQXJ8sjQXTxuGqTynTxYgSEMEWYCIm0L1DELfQ7s5Cx8JPHARLa3YHrLUIOkYxAHL+eDyyAghorP4F5sYEWLwb0Q59BHv0pU7QD0OkHTnz9oqbsfQfSf4BoUb0dIxvYG//8xXEYZM8ME1I3ooAorA5kZA3VQ29/ip9hcjAkOEy1oDO03gyKGXJZyhtXzSXWDgu7tRYBLK7fiFKDWg5FZHS9gGVJ1uF/ZlvZT0DPwISDMgngK+5/tfj+ee/BJ6PdtXvhFgKDky6CF3EJJqadxKlmtOCAwk3jUttfv27cPevTcVcchPS9hD+pKHYZnsuBV5Vm+RM9qFNQGbjaywodLzQQw6c9PIeh7mZ3JEQREDUdxKQjriF5bych+X6EBJNkuJVgICyaIdO5OmaNRCzM8B7TM5YP03RCgJuF2g6sn5qf0HcNW9e5AG7o3ECvsoA+yeFQ4u+0G3FCCIGOqyh9e+4RrUwxjIrX++uM/Qcp2FaNR9NGeBRx56Uog4fcvP5uCTyZg5/Jt5drfNpNXFw9/ej2w+xUQ0gUTWIZyNdFfH9ZPPXoBW0+CB+/bh55s/Bnqnrfi5cOL0rAgoAhsOASXjG25IVCFFYBQBoTxFIn+Y3Y9zkVT3cPCBwzjw1GH42RQ88b8tyrBq2Wd6VPSmuLdEiXyJdukMOcKKLy7Bb/ux6/Hdh2/FvoeeQ6/bhWFMZ6EndhGfdK+oN66rJIaVCrcz9xBUAhw5cgSXXnp5KQ55Hd0eI2NszsM3tPpO4VOfuB23fegOBN5OIK9bAue53U/prmExXq6XFttyKeLNTZUYucRGL6GbVJaEiIJJzM92UY/Ynj046Ql8klaqEOCRB76LBx9+DKm4kSyU7uotfi6+DyTiRb8qtRyXX1XHaz/wG4i8OrK8jVwi1nB7+hgBo/gwEEkI/OH/9ecIOxMIMka8Wf0hi0HF/95DKv7hHqqRD6/rYxK7kDRz+LGPfMg3f7Xt2Gfafu0DbJt4BY4ceh4P3P8E/tGPvtoG0hGR7v8FN5aj96ttV8srAorAeiGgZHy9kNZ2FIGzQsBavl3VUWuvZ0J0TgL33r0P7WaGGl9dhyxVkBRXcYkzf7otOSoKud/wMXXcz/yYrPOUZAkZYyvTnYA7+4jPLMlMoReNuWmSo/1ygjCr4J/97Nswe3oaxw6/iLmZFiphVBBya+0lgV/sYJzmdrsNuqfQh5xxyE+cPIGbb7lFzmdOn0ZA9lY6LG+1Mvvu2KX8DXVpPJiUBHEbvF4DlXAnvIzkOIDhZkTsgPiQ25Htj28ZMkksEkYs4/R96RPxIrJL1jWoxxPIkgghtyIV+XaRIS3jQRhJSEvPCzE/20StVpdFuX2/71UASK0kKo0J4eUMcQlkWRsBifkMgEkD4/syiRMLsgfE7H4XSNvco2kSXjKJMB1MGFbRvEyMrWWcnueBfV6zlFEnwWiNYRAi5bPL0IdnOSkujwyHq9XsYNvELnzzi/fjv3vbrfAYRpJjKUd/BEW3QV/K6YNUvVIEFIGNgYCS8Y0xDqqFItBHQH42hfvwatyPqEsz8HIP3Tngm1/dj0ZlexHSrcykljZ6UhJLy7mo5qT3FRq5WC5/pPiqb3u9BJVqRYJjSPjpIIEfWjJHC26Wpchzg0rNB12h91wF3PL6Pdi3/1HE4TbZECfg4ryib+zWOMOvhNzzPERxIEQprth44CT7M3MzsjHQQw8+iCRJEAYBms15TExMIkmL+NUif63R4ESJExG2Y8/Wylv4xOfFTqTcjnTs4SML6HNPPCoITAWGkxxuRlTUkeWYI0RxIE3QG5LsJiBuUmLttnR5CeRZ4lLIXpeRTYzEEx88YVaMc9vwEGKixkg4LOFaLL3RGGp1/A11YEusHsjkIoMXZehlTaABZEFPPFhkwahYpxM0mzkaQQUcbb/jI8jo8z5e/kpSScOpvUyAMyuI/Ul87rzKVMbJP/sGGKLRdtFi1GhUkWTA0/e9iO6LQO1KD4j4TLIc3XUKrYcHaiVd0TKKgCJwgRAYNvlcICW0WUVAESghUFgf3Q+8kKWR+BX86bdxlIFnvjuHerQLYRAXMZ0tuS5JXPLS0aByIdu2lTN6XS63Fte0UnNhXxgA06fnwSV2tq+MG+0jz2wkb4mp5yXg9vPv+Kffh9e9aS+mdnJXRxvGTjbSEQLm2Mky2hZA+L6PublZPPvss9i7dy/qtRqyLMOuXbsxR0fogtw7MrqM1AuazZ4zZjsXwUqUERd7m8+Y+FkT09I482WE5FmjueSV7plXUL6inHsOaQHnOLloLe6nZRz2xRMl7VvLuRtfWQjKxaCyKJQkeemP9KGIpOJ5XDfADa7oI54KCc8Y0rB4ucTNgJguVmSqYICAeMh3aXx/R/u/8L4v3OLocOX7HG5lX4RUPNuHwL4Jc2PHceKi1wRceJs1I9z3jaNg+H07KizHWUExYPZO/yoCisAmQMD9j7kJVFUVFYGLDQESGaFT1ioq17wnASgokQHu/NrXbcSKLO/7TG9mpHq9HsLAR5YCH/7bjyBpA35WsVFAhEyyd5bQceFcp5PAqwO/+Cv/FJdfPQVDdwmBqCBlJCerOLhj5/YdO9DtdXH8xHFcdvnlEqml2WxiojGxCkkbo6gLY07/+LN1lTj/PSmI4/kXvGwfV/c0rIGCqxFZkHu7wNRixokhjzRJcOed37D/RcjGUgxZyYM9LHppZ4xFup4UAUVgoyKgZHyjjozqpQg4Ii4+pzR/8UMfX0/8UcUX1wD33nOvGMPoTtGnOGfBOCy9vfCwS3jBzFrG52abOHTwJExGC2xgrbmiInGgL7CPqMrdCIE9N1ZwyVVTyPwOcp9b1Kd2187CY1gg6QM0pp8UaQzSJEVzfr4fC3t6+gyuve5a1Go23OHQzplLyRvTxIVMGsT2HqNFib+N5rrnot/VVT1bo4ILaauSMarR0vdll5Ch6wFFXVrAhspdgL68GaKKYRTh6JHjlnfnXJhaRMop/T8xZDHfUP1SZRQBRaCMgJLxMhp6rQhsGAScbwAJOC1htPZaMh74dic++lPfd++zaNQnkKU2tB8JlzME98nTCvpULlu+XkHV81DEEQ4rigspGaKQbrZ7XnEZvvD5b6ASQyzltOwO3KN9CXvI0MuIcmS9HL/43nfgxluvRH17AIQZDKNoOECczbDooERAtOGbZRLjiBs3pWE7xJIHY5EzxOHNr7oZXuCJPzvL8MOKdGvhIk/fDyRSoIwBx8FjDGhPPry2H0YT9OTDTZlcG+cBxEVFEC8ukmRb7CN90O3Z+p2LV0P/XcOwGPcsuBEqQTlcsHQn8tzjK+mjhLxUeA0u8zxDo9GQCJdrIP4CirQ4+oyPbgyiMEKnneAbdx5Et81H0ZdINQPLePH2bDBFv4C6a9OKgCKwFAJKxpdCR/MUgQuOAFkNfV3p+2q33WacbW70EcfAPd95AAFDGRojkRtkUWJBrFaruiNcq623mvJiEC0acsZRd3Zy/CAAw4XzaNSn8OjDT+Ojt31HOEYUhZZcc9OdImZMhhSZnyD3Ewlp/fPv/ifYcUkNmdeTMIj0me77DTtCTuGjDUuLjoQz027wQxI735zDwYMHcePeG4WMk6BPTk3KYlKSIxJynsV9WeSM/rHyRlNXfF9mxUUlkci+LSPEzikYe7tYDNovP1g22U8acyEE/GzVX065Me3ZKq7BlZyHhbhJFVNl8etwtvVwGk3bRPduUmVVDvCVL38Lk1ysmgCcqNujAF7dVDbRyKqqFzMCSsYv5tHXvm9gBAoGKVYtWmCLRYncjZI/ugEwPws88fh+RAFjLBsJD+esnBupY0KES9zX0St2zXKFfoqozcgl3KSRhHzbth0waYhjh09hbjbD7Gyxo6jU5YZAlMHJSo6cBN3PcMW1O7B9TwyPb+1pYZcFjFzj5vWJmFipfVqrHctl04U5V+it08mS2B07dsrmLUePHsX1118vlteZGcbOg0RbSZJUfHjNINCK5Nk/A1kL7ldgai7XlusCN4tdqZlFLknC+bqEEzVLTimlcHlalsovIvSckhef9lEz6sq3GSv9jE5HGGt+9CjjNpq30e/dmwan5/C9j8cfewqnTxXrNoNgVWFNnUw9KwKKwIVFQMn4hcVfW1cEFiJAsiXUUIKl9emSJZ4Gc82muKK8cHQWeTeUcBkh3SAo6RxCqC1U5NxTHGG0uhcW6oKYL6RMtj37Gp7xq2kZr6EaT+DAk0fwoQ9+DLV4ooiJTjJZbBFekHG2kXPxZtTDL733Z3D9LZehk09LmrVxW5cSMnKhg2MVcPZ2OwIkryTa83Nz4oZCQssoK9dccw127tyJxgT1sa4fdG1ZyAOtHDeixSAtg0AJ9/JcoVTLqe7OpRrDl32yX9JD0kr3JReVkeZEloyhADYouGy7w1oscVfWw167sVqY00exP12yggut+0rZ+/LfJRTY1Fle7iOf93Dk6TnkPSDtFBtUFZBs6s6p8orARYSAkvGLaLC1q5sDASEhhfXTmnLtQkVLE3NU6zaW8P13PYaoN4nQxH1yKTyLjLD8ucDd7nMkRyZJFJx1d6xutFDTTz7Hjm019Nop0k4IdCfxjS8/DN9ESHod+AwyzkWannUtESM3N+ZsxJjcGeOtP/oqvObNV+LM/AuY3DYpbhphGIg/uotOwbP15ba+3RLojt4mvicfu+GP3bCFVvQgCGVzoFMvn8J1118PRn6Jokg+nU4Hstu8kPMBQe9TyHHEuD/VGgAxOnEZ5BRXDrsCR0vwF5QaSRihtiVCLqEzSy8FyjzOjd1IbZHt8lxDFNnvoksccxayvYTle0yVZZP642kDFRbx9qlPuTfLitl0BcI8xGXVK/DwVx5GJaCbinvaOOF0E8tN1y1VWBG46BBQMn7RDbl2eDMhIF693MHQ7ZLoAZ1uRxYzPvfUYZjeIMKIW5S34fpXIo9CNB0p53kBe7MUzydZM4ns7hj6HtJOjhOHZ/DoA88iaYeoxdsQyO6cduHqwP/EYGZ6GghzfP/bXodWcgq7LplCp9cS0m4XgNKvlgtdHVErU02H3iDNurK4eyAKQ7SaLRx6/nncfNPNcp+mGS6/7HKJee4k9M9Cmgf1LWN1zLWU3q8wfNHHTORYssUSy9csy3GlS2dhz+UyfRSHEks1+m0ybc0OGZbFWh1Nd4S7AEdmedRMhKyZihtFsE/LeDPHwf0HwX2Oeh3GWScjL/d/TUdro0CheigCmxoBJeObevhU+a2PAH9UuXti2N/2Z2pyB069NI+Dzx0SFwlac8uf8s/wRsBnAX1y5LxQzhLyAWFwC/BIgunmHXAzlzzD9EvzOLD/OD74559GYEK05jpi/fPZe1q4CyLWqNutzclHfvN//g1cd8NVaHWnZRFsKrt3Ap4XiL84I5tY/+nCh3rB5IC8rtQDz6Baq2L37t2C/cmTJ3DNtdeC4Rjnm/NAexTxUt2+FXwVRLyP0YB89yUSx4KUj7a68L5os9yXVdReKG/tUpaznJd9yR0CHMXR537l2KxdX9ZcsmeQpj0cOHAAL51sotKYsCFA5bswisiaa6MNKAKKwFkioGT8LIHTaorA+iBAKxd3NSQh54+rj2YzwzNPH4LnhQi5eHMBDRnRjKxkQx9lBT3ZuIgWbB5ilc5SxIwegwrSVoTmaR+P3vci6lEDlbhaTEUsMyVCDI3I6CZ0G5mcrOM1r7sRYZwiMz0bjrBPVNyrfDbkCPIiQFGwcBsjcZ7brRa40JTtnDh5AjfuvQE7d+2UhadWlqWJ0tQiItc/2dHTMt7y7mVYFUJRdFe6PJy7oe7YkyEdi4R+D4cyN5Tq502Z3GRiCX/26SNIzjD4UlTE43edd+fz1qQKUgQUgfOMgJLx8wyoilMEzisC4qMQDcg47/MA+/c9h8CviGu4vJHm723xIYEd+jCrbBg9rwouL6ykmiVOTpei6oAq2JLOMs6QhOxHmAMVEyKWf3U8/+TL+Mrn7oXpAu2ZnnU3KdgXSTw3Q8nzXOIwM9LbT7zje3Dr666DAXf2DIo1rnyXwF1+qIStzL/8DGFXxAl38cIZUlJqFH7hbIeE/NjxY7jqqivRSyij+CdW6KKTbnDktng1MJTmyg2fHTYyfoMhtjVLpHm41irv3HiU5LnnhYA4HVYptV/cjirlFG8vVtDvfmW5GEjoP+R9GTavr29/NIclbOU7hvsMgxgP3vuEvENDxsk7XbH4rOpP/FYee+3b1kFAv6lbZyy1J1sSAbcii19VSzyiEHjx5DTyzCs2+RhEXXGEckNB4ZRypK9QzlGsggsPqdy3jMNDgAhBHsLPPfh5AD+tYt/Dz+Hjf/sl1MJY0vqyCilZznCHhCwTPvLL7/0F3Lj3WvSSrpRwhN9upDTU9LI3ri2eefSSnuzOefKFk4grltA71xvScjduRXHH/Qfnfsb4iz4RL3B07Y4vvfrUof6wjdJxXtoqjX8xKKUWVnpZ1nL0eiDD6StzWHczyN6SV5wMZqnBiaOn5XG2Llt03Sp8x+WLsCW7rp1SBLYMAkrGt8xQake2JgKjjMLDyy8bHD1yEkHhojJqyd3sOJCIDzYvCoAsAq19Xp7LJzARpqo7ceTZl3D0uRnxlx/ts5AxeoN7uUQ42bEbuOTS3YjjUNxgWJ6xyQvqPFp9Vfd5liHNMkxPT/c3K1qVgC1f2JHn899R9+1wZ7Yw+D7Izbi53vlX5AJKzLIcgR/h2JEX8fKL7pHWn/YLOCTatCKwagT0G7tqyLSCIrCeCFhTJa2jvgGC3MMz+55Gr52gVqnJhjMDy6sjPaPn9dR3fFtOI5fbJ08jlljmOyLOa7Fg9y17OTxk4At4kxg8u/8IPvfpr9lw43lsRUvMcUuxZRMgL0dmUiFk7/7lH8b1e6+E8bsw3LET3NV0JPCEU3Cx85CVt0De9zA7OyNb3HOzIrvgc0SA9NP12qFRPo+UX8Gtq7100QJgPkDFMVzPQ86NpEqfoS5yo6CxjipDpQoGONoCf174cS3yfP6PUteGhA96PJS85W7arQ6CIEaa5HjqySOCNtcl87vjNnzacp3WDikCWwwBJeNbbEC1O1sLAQ/0SSalyRHTd9oLcOi7B1D3Isycnu5HECkTHhtdeBBlWGhTQTr7vHYdYSpTMKFlBY9z7hejqtCy6Q7ZMdJPAI8fhjHMkGdNZL0uKv4UHr73AD5527dlkhIGIfzA+Wtby3fuZ6whLrRBFfj597wDb3rLXnTzaaQmQZrnoCWeH5KXvvuKU0DoZClaDf3xS/TSOqAbVGpVVKqVYl9LpwN3kXSCyqy/LKFfwBUc8u+XktzQiR/ft/HPS9FzqJnJIdZ+7jy54CN9Yn4Ok2ewK0ztANjQjh4yz0Pq+/LJfN77ksZ0Tn+Gn6eyvsVADtme6RrhFh0zJCcXHjtCbrso4y4uSza8pIuEM0BlOL0PTP9iUNI+9/0MueDzY338iwXAw9lb6854qFZrMqMMoxD33X8PuE7C8/ns5TJB3Fod1t4oAlsTASXjW3NctVdbBAGSUWNShAHEZzqby3Ds4DH4JkDg+bJI0dLDkQ73+YqsghzJXMdb8rUyeS2aLlO6Iql/suEG7W3O/pNM0/db3EpIKrlKMgeyAF5axYtH53HiMDf/CdDi7qRCDkmIeRXAkFxSXARcdX0IxPMIqj10szZ6aTJEJftKrOLCdrHYvp31BHtLyK2Nvj8YK/YTX7T5Ep6uqUXLMqPw0/eND/vxEPANS/GmxRFhR7jd7GGw2NJN82wKfzD4hkY+Bc2WtH664fQAlsaTyueDyYWDRs4lTAhYmddLH4t8mc3wevRw+aPp9l7EuSbGF9kyqb4fwhgPeWZw7OgxtJpZf1LJ748eioAisPERUDK+8cdINbyIEaCVL8u4CJGLtDzMzrTx/PPH4CFCyMWLNJtvwYP9dlbqvtWall8X8rCI8uGZAA98+zF87tNfFta4rbGjb8uFiWAMI86EYGSWlAwyBn7519+Jm17zSlTqAWoTtXHG1S2DqNj0c7o3Rfj/2XvzoDuu607s19vbvg0AiY0bSIIguO8USVGWSFqybMuSbdmWZjwaj2MnzsTOVCappFJJ1fyXVJLKUlPOTGpie+zxMjPyIi+x5EWSJY3HsmQtlChuAAHuIDZi/Za39Jr6nXtPd7/3vW8BCIDfch+q0d13Offc322gf/f0ueeGWYgwCxDmHrh5aVgUCHIezLdHwXRD1oW023RGtOEh5TRf5FCWkefT1x8ZfCQIMIDv9eF7A/mqI7xYx8yiO45iXwzwddmsz4g3fH7kA0vtK8vFyF7rdczusQGK3EOe+jjyxknMnevJNf9v4HoG93MIOATWPgIb802+9nF3GjoEVo2AvFBpGC4iLMzF6C3QVcNHs9kSGdZYump5V7JgSbis5bPumlLmiSm50ooEQxmykO9lXGwYMSLpAd/62+fwF5/+miz2ZMQV/vEkPjv9oYHM5xEj9WNEU8D3ff9DuPXOG5HkPfmcL77jI57PlUbVlRC/IQuvalqVWfnKSKH9mL9lx6+eWb9euRFTgh2jcVRiT4dlhA3z9SCHZ782qCW7MlFLJdm1VMsaQWYgmVY/mEcZtrHybL7s1KyzpvpqtR9Tzo5AKcdgWC+oMOm5nrcxrxlVibHFIxRZgO58Kv8/+B7DeBL7zYPExhxf16vNgIAj45thlF0f1zUCfhCA7r50ITh65DRCryMbeySDVOJp0yFC/Z55Xms/JeBKmyydEo7APENn+V+RPUrXBEPKWaQ8VAhribuEj4nmDLJuiEPPHUd8FoiCloQ7DOlbrV469KENM+Rhgn7awwOP3QK/PUDYTlH4dIWxCzmtx8SyGFrXD6P7siWlb+IKwh1CZZdQ7a9BQQn5clIUr6XOy9WlrVomI14DqRehs2UrijBAEXrGBC4mb2sOp0l8zFEskeZFHrwI8KICfgT4TR9BFGKQpAiiNjw0kWU+CpJCUnd+7bAHx1yGfqzyIz0tnwebPnSveNbWzdbd88fK3ziJnKwK4S74DaQJZA28cvgImhPcPIu+48TM/RwCDoG1joAj42t9hJx+mx6B1kRTFmVlCXDo4GsIfS7YogsGQJ/QRX6hQ+9fpbFrA0ZRzapk1Bzn8V51QLUn/5LDkmbhY+xS4SEKIhRphOeffgP/7y//EbI5rvf0NcQ4Cr9AFqQS5pChDqN2iMwr8I//ySew+4YtQGCiqoi4FWFSjVYsKAW0J3rWWiJlNFEzq6lHjWGWmSZYi50QVKnjr7iIz28Bc+k5dHEeZwcnkERzSKJZJI1z5RE3zoNHmRadRxKdRxxpGebV8hvn0Q/OoOefRtd/Gws4ibmMx2nEfh9zyTyKBh1WrC+9xymjTqougIiPfDUZ20vr/rIob0l8F5XcAAl20WzewJuvHQdiIE1rXyQ2QA9dFxwCGxkBLnV3P4eAQ2ANI9BfGCAqmuBmP8ePnkYUdOBlAbIstfTGmonXcB/eiWpKwilDSDhZHX/W6k03nshvYjCf4emvv4KDz57ELXdsh99KEDY8xAxj6DPkCLmtj0GcoDMVAVPA93/4Mfzesa+gd874qNf5W2X51gardjWlKmPzFp2MO4dR19SSpZ1CTpdg1HUlrDvIxTjDsM3cT9D1C9xw9zQ+8Qs/gKlwC4q4K9Fp0iCWkIae10TBCCgGUmuz1h4Ss6oPVT8KG+GFMeHp7hLAQwvI24iCaXzus1/CW0dOoWj58vXGzy/W7jMGI+JTqsfJnO6kKl0o/2IRPi+jY0Q3KE5kN447OXvKLy+MxR/hhWdfQj74oEQR4qLnMLxY7Eso3YVDwCFwmRFwZPwyA+zEOwTeKQK0jKMPpPPA4YOvw8+3mmgiFEymIcSkZCfvtLl3qb5loCRJ0i3jL6J2c7paSOxkJVjUkl8GxH8nQxBGmIgmEBcBPvdHX8Ev3vgJdBp0VGFc8pRBlyWaCH02uLgv7SUIvRCPPHErvv4fXsTB7x0V5sYFoRI3RFxKKn9bs6Mmm6ReNaxL4lxzQ2G21DfmfONbbRXmSdihsRjXWGWJeymyTBm+qLU+nDHuTuKsx7jj3r24e/8dSBeAdtMU5ASFuBoffVvZ4l8XNapP/V5cJLxUXCJQNMzXiAL4sy8miIs+GmEHRXxBGpuBrSswdG1lWSUM0danZKjgsjfiwsHhyWVEly27ljM52TBPqTx08owfefU4soGJKunRxcj9HAIOgTWPgJsyr/khcgpudgSSfmrcqek3njTgk0kUCXyf1kkbNUIYuXkhG4JXv17rCBrSqgTWY3SOwkTpYAAU/sreaFHDd+3iS8Ygj5EXsSzcfOu1M/j0b30OXtsDkgCtLEAzYzQQEmYgCOjHzM2AYjDm4c/8/I/izntvhOenaDVb8HIu/uR24ko7jRJGB5Jocm0l00Y/DRFI+ULmxVJZkUTjmGHkhIGPRx55Dx577FGkeQI/8NCZbMuZCnL9av2Q9moYrMZzw2jFEIQ+gqSBIPPhBUDYkc1MQfdir+HBjzzILkp8E/BgaPBljwJ5YI4sLJBHObIwRt6IgcZAotWwnSSeQ1Bk8LJxZFdHU7XUs+LNey1jMNMS5lzPG5c/XHrcncyn6s2NK7QO0jiZSgIgZegbL5bINUiamD0NBF612+z+ura8AAAgAElEQVQ66IpT0SGwqRFwZHxTD7/r/HpAQHakTIETx2hUDcUqTovvsFV1lKDoPXt4cYTlimFjSS+5kbF0GpWF2BbWrlwj4aqX9Iq+BrLBSSbxyJmXpyF688CLX3sLRd+Dn5mwfkHuC8mv3C4K2Z9m6w3ADTfvQLPjo58s2HjmBjdDorVF4/agRFzOdWyVvOuZ/ZGDXy/seHjA2XNn0Y/7eP7F5/HAgw/CC3z0+j2EjRDNdlPuh8moHb8VySMJ2cjByQcjy5AUc+OkMAZCuu2kNnY7w/QkADdWWuLgbqXVwQWvqdTPPXv2MxR+Bt5LLHha25EhJCsv3ZZt/0uSXWFqrgxSBrF63mi9cff18qu7zimGVmWJNrK6OmuxlCze9gpZD0Hs+WwjC3HuFBcy6262Kz44a7FrTieHwKZCwJHxTTXcrrPrEQFGRMhT4LVXj5jP6iQS8uMFQyaQ8ehRZtbKMK1+2Ky1frIEXDxDRnQt+a7wDDXrGrLc7fXx/HMH8eW/+lsUnLPkEfy8IRFWdMMaJf3ifpIDH/rhB3HDLTuRBz3k/gCFlxgLuEQBqRYhDuNorORUjV8o9Of7ZgdI89WC1nHrc20XMZJw50WGMArw+puv4YEH70e310WcxugP+shyEmVtc7VTKTHJj4yzCV0oEzdumoQUvp/B80nASZx1Z9NYrKq0rF74QbkcKB0DLiSkGubefCUgMu/k+avXHbmWgWTa6n8cl41iGZenruw+L8zXn5PHTyIMR1yQVg+RK+kQcAhcYQQcGb/CgLvmHAIXigB9erl3B1+w5DRCcMoX8FLS+JrWg2VYYcVKSwl7V9JVW3Ou96XeFU1n2DzTR26GFARNPPP0Qfzav/qMuKIgD2XXUl98uU054iMxPhierwF84lMfw4237jKEPEjgBTTxcj9JImf/lCRZ3VSMdgqQkDy90bOMWWEXQtJIbszFC90FKfHiwRfx8HseQqfTEfeUWmtlRzn5GGpJJyraxgpn6ala56WsYjAkdQUpI9mEXn58jahvi0nxvFAmkHT3EcV1mGwNd7p0CJSTPSuyyHOcP3sOCIGAjNz9HAIOgTWPgCPja36InIKbHYE0zRBFwMsvvwKfjr1CKOnTbKyPaoU0Tr/KevS8TtEriR71175U59IbWzgliaBvomqgQJwkSBOGPJzB6RMDvPkyLcBAlgbwm1y9qF8RDNHud1MELeCafRGuvnYCvfws4mIBCLlhkG9KSzznQr5MjCKqVvGpqcmhtZ1SjrHQPVrKfTmoB8v7gY+JyUlkOcc2xKuvvYprr90NyqC/OP3aeZjQlRVhVlK+mEorW68wkueh8NFot5HnPvr9GL1eIhO7LOPOrpzkLX3keYD6AXGRopuUOXxEshOs7zXAIww4CTLzB25KRZeqmeltdvxGUbuQ+3qfeO1+SyFAdLgo9emnn0bCoDmygdZSpV26Q8AhsFYQcGR8rYyE08MhMBYBD2EQYH6Ob9lCwsQtT0eUuKiw0XtNX9tnpZ9yHrqpTMLGBaL625hgC0x0JhD6TaSDEMffmsMf/+HnkfVtABoxSqtftSebojRaJOmGM/7Mf/Yx3LBvFzpbW0i5yLP0RB+Dl/jKmNGQnULHFBmXJCMirhJilxcXla1btuCNN97A9u3bMTU1Bbq6qD8z3ZSUfI+TV6VZbISxm2t+UenPJQj9FiY6W9Bpzcg1N0aqDoYjXHwEXgs8fJgjzxvQo+B11kCRRyhybsfOw2CcMMZ1XCAMmjh96sw7JOP6/Oq56q27qiGg/0YANMIIp94+hajFCSgHxTyjtdLu0iHgEFhjCDgyvsYGxKnjEBhFoN8fYGICeOPNN9FqtUazN+y9cghalmVdImmddY0uLeOl1dw4nUj4wyxHkfvw8gYW5lI8/a0X8Qe/9zX0+wV6cwtlNJQMJNsZeklXyPhCMo8EKX76P/kErrv5GqR+joWE/uPKZywhrBJK7NU6XnMdL/NGL+rWShLtRtTA+fPnZWzn5uawY8cOqdLv9zE5OTFa/YLuaa3mpkjpAIh7JGdc4MpoJ7VjACRjjlRINWT3V4kgydAdQwc/MhAcmsN5NlbxMACazTbifowobFyQvq7whSNQTlMsIff9AOfPzYp7Vp4bl6gLl+pqOAQcAlcSAedQdiXRdm05BC4CAb5c58/r5/9cfMaFIV6QweuCCl+Elu+gChm2RE2xRtQRVQ3ZqP6WloSp1wuSpefy5SBJuVAxRBS2hBTOJTmOvXUGc2cTbN3J3UsHyJEgCH1kORByC/dBD0GDns8FrrvpanTTWcReH17UALeUr8Ic1vtpdGKKWMbFBaXkpMtuKsPyeW0VId1VgjBAv9/D2/EA1113HehTfuzocemLtkq+xXr8w8gZtJ5TzKhlXicHTA8CD1/96rP49jefQzLIkSbcLKqaYNCtwbgC1VvRa2B6erq6kZLGou/5tOXYaCzIEdBtJW+iE26Dl0YI/JDIyXRp2OF9SNwKN5ZhrlDKZRMB8zzSZ5zPK//PCKY5Rg5D93w4BNY6Ao6Mr/URcvptegTCMMRsf1C+bPWlK8Cs6j1bJ61rEU5r7hZSS/1sJJFywaExTfNWdnq03FFonlzzLxPZhB7eXLRGgyCJKK3LJOcvPnsYv/Gr8/jv/9knxXe8CGNDfrtdhCGDbjNee4Y8T5AFBf7L//Zn8Sv/92fx/Ldfg1+0ENANo7Ch+0pyY8mPXdTZmeyUVneJhmL1N2Q5F4cXBr4hURZCXeTwPYa8KBD5lJ9JrHFaM8/PnUez2cT2ndtx6uQZtFstLMz3EQShaYM9ruYCMqiUq6ScZ97TUk+r9ty5OXzt899BEHfAOO4y+WG8dfG0J2HzbUQYjQtee7Dyt2oPjY0MU6aYSRBvZcIi8dn5WgkRepH1DZLcssaFX9R0ufDKG76GcWKy/z1wPHOg1+0hoauQTIbM5GnDA+E66BBYxwg4Mr6OB8+pvjkQIKFaWOgiz7mLpCU9G67rlnAZnijkWnxShOQN223ZdUPEK6srya8EU+GCNVk06ZswkJ4nO20OugkOHziCL/7FC/jwj92BROK0e+Jf3h+kloiSo+bwwgxBE3jfU+/B4QNvoH+mi0beEEu6aXHx5EYjpBg3FTM5EIWEkI8rXwhxXpzDAC4ekjQR63er2ca2bVfhzOlz6HSm0O120WyGyJEKMSc5D0Igp28IUZP2zCK++iNCohymLYTpJHwxjHObek5dSMT5PcCQ8dHIHAJmzdVhcX69leqaCOScHMgfO15Vtru6RAjIRyWCLQ+/jBY/nciz313oobO9bf4tXaL2nBiHgEPg8iDA/4ndzyHgEFjDCPgBxKc4S1NkXJG3CX6WzkpPxcIrkxDDOYTA8r6Gg16Tk/C6fgTwEXD3zczD1//jN3H2ZIYo7CDpJegudG3ECVOD7UaNCJPTwJ337MCtt9+AoBEjTueRZTGCIBDrvIlcQwVYo/qtzmdctTVW8qp2dcU+p2mKwWCAbdu2gq5KdGFh+EPjmkIyTxcVng0JX5KIV1ytauCKXFVWdLHiX5E2N18j8uTafzCcdNHtKM8KnD8/KwuBNx8irscOgfWHgCPj62/MnMabDQEfQhorikkA6nRzpev1Cxg5RmWN5pUxnVd01vZthIQLQrL7pIfICxAUPlpBC+fensev/ct/D3S5Q2GERthCQN9n4dQmBGGOHIMEaE8C/8U/+RHcfucNaLXZgE6E+N8mXUJIhrlATv2/zTb2ivYwTddUcyZhMr7aw+n1OxLyJElw4uRJ3Hzzzdh21VVCzumrTes5fF9cbTgBMC4pBhXJs4IqnOwzYvtpshfl1puXa2twXZS+moRK+mpKuzKXCoE8y8FDJpqXSqiT4xBwCFxWBBwZv6zwOuEOgXeOQG8+BSOqBIFZFFcS8dJp2Pp28L6eJoT9nbd/pSWQL6olVYk4LX7GJ9kScqXoNRJe17O0kOeFkPGGF8FPA8RzBd44dAZf/+s3Ec+SX3Nxpq0pG9Twv0QKJSUHWh3g1tuuRdRM0e5ESJJYrI7CwWVHzZyBxKuDQ2D11zPJsRBoutD4xg3FpNGne2S3zhHTOvPpO37qzGns2LkD01tm0B8MwNjzsmnQSHn2pE7yxTfd+s+rFV2fH5kQSN+N0lIvN+4+gp/iUgd23LU+d/WzTppk3EovinG1XdolQsBOt2R9wWRnAmdOn5H1ApdIvBPjEHAIXEYEHBm/jOA60Q6Bd46AIWz0GRcbsWzisX5tjsr9hKtZcJbifEznURJrQWAUUS01mm7rFR6462bkhfDzAH7eRFTM4Ktf+g6SHjfXMXsAkU+LtVsnMLSC+5nsp/QjP/0e3HPfrZibPysb9CipZdQKtYxr6yUf1QQ5q448669+rWljzsKTC7Q7bRw6fBi7du/C9PSU7Da6detW5BJzcKSeMmmZZWg7StW0bHXPqCyjvuB6v6onTUTZUDLGTG+eVcGyakdbdudLiYA+W1YmXZZyLtqlZbxnE1c1ipdSKSfLIeAQuEAEHBm/QMBccYfAlUaAfsqMQ80oG0Nxg0uyRUtu7TC2WUtlr7S2i9sTglrTpqQPashfXMWkCI+rbzuvNc1ZFgcKBrZ4DQKlgAYWWtV9IeU+N6kZNHHk1dP4lf/n3yHlHEeimtDVg/8dWhpKy7gfowhSIAY+9uM/iHvvuwtnzp6uUUyGmVwcx1l33KQ8WrbNT3XnnV7r2RZZ4pSmCfI8xY4d23HixHHs3XszJjodDOI+4ji2teg7nskxLL8Sytbo2lKOh1WN98N1VC89VzLGXWmp+lkljivv0i4HAkSfP0++3KRpgdnZOQTuDW9xcSeHwNpGwP1TXdvj47RzCAgCCwt9ZJn6JivBY1adAi11/e6BaIiecTsREqhuHFbzSjP2SQ+mmmtDMWyoQxtC0PiVaF8rCcNXJr8knpJpXF3ifoLzZxbQDrfixe8dgZ/7snlNnjLMiLaYo/Bj5H4PhZ9g+00N7L5+BkGUmj05Sfz1j+fbKCYkQqp7XRvV1chePGZap97/qj43euLizTimq5KPQ4dewu5rduOqbdsQRSaKymKZVZslBjbcodjBa+PA6cfi+lX7lZVc9a/yNGV5CVV5d3U5ENBRMLI5voyfPz/Xl39Fpc/X5WjayXQIOAQuCQIutOElgdEJcQhcLgTM4sLz5/jJ2ZeNVDySR9JVj3GqyaP4+q3/hl/O9Zx345raqH5C2iznFJIoqo6ayLUAtVWqaPrEHJEnF/yL99YkXu+c7CNkcClq1umCIQ39FA0/xIHvHRFf7z03X4doqoDXICdP4QUMHWgs47R7e1NtYAH4yU89jqPHTuLF754C0iamJ7dg9vxZiXTiwUev3zc7XDLUIEdLopwYDUXr+pcMJcD07rATj0p90y+9T1ITxcW4xACdiTbOnTuDma1tdCY6FlxB1qKjNQ3wlNZuT0hMcVrrTdRpg6tla+X4mJr19o3ceoqOphkRMx6sx/Es62tmOYKa586XAwFCL+sq+DQFPtrtSeRZYAfH2dwuB+ZOpkPgUiLg/pVeSjSdLIfApUZAQpWR6ZCU0+1h9J+sEtE6GatfU6EaM7rU+q1GnuXaQr5rFlnRUghcyeLGS6u54DCeOPujLipyL2kjVa3IOhKmvRx+UMD3ffTmM7z4zGv47X/9RwjyEA1u/iMRUrirpN3plDSVO/UEObAd+MGPPo69+3fDjzKcPXcOjDTJ0ILcaEh3thRiNKLOsDV/VKsV+i+yKh+cMAzEQn761NuYmpo0ueKiwinAqGxDvcuJj5Bx+0TIWCwur9MffW4WaccqdgJhpjsyo1At5Sy7DYn/uLl1f18mBGqDI5eF2aE1pWV8Xn3GL1PbTqxDwCFwyRAYfbNfMsFOkEPAIXApEeCrVt+8eq4RqRphHW61VqYkasMlLvfdqAbshpBD27Bwu2WUsNRbKbgsXpQdLm1/Vqyv7ZWkvQD9uhnSsLsQY/ZMijdfnQdSH51WR/zAWTTImvCyDrKUlnIAA2Dv7TvQ2RIjbHfhB7lEucnyHI1GQ/y3ZYd4pao6Typxrwg151TVvGrFHpg1AXU5vJb+2Lr18a9fSzkT+lB2GfU9g72dFBnYKaN2jNZfZmyYpWOpvdCzVisnYXYcNN2dLw0C8m9BngUjjxF0sjzD7Ox5LhFwP4eAQ2AdIOD+qa6DQXIqOgTUSmkIeY04CYkah4+S91HiPq7sOkhTgliSRsN468RvFBW9r/fO2IlNig/uzhnh6Otn8Pv/9nMoYiBZyO1CzwJ+Fkn0lTTzkfke0ryHYAr4+V/8OPbs24YsiDGzdUY24eEXiyThrpjGXYAM1bif1Fs31yRK/HFxp9mopz5W5cyh7vdRI8uQzYAo46qrr8bc3Cw3XCx33lzcGiNrSGuSxYlDycbLyZ3aue10T4Gz4NqTFW2ipgynVU9n2ZLZicjWcacrhQCfJBPtpzChL69Uw64dh4BD4B0h4Mj4O4LPVXYIXGkElAbxrNdqnlTTY53cXWn9FrdX14bXVFu4tS0qaYurlSlSv1ZH78sCioTyWHtPi6xY4WsFpS3KstbroAiRdD0ceeUMfve3voTIi+AlntmxM/XQnesZGfyfsuGh8PtobgUeffIuzMenMNc/JxvwZGmGbq8v1m6JolIjunTl0IPCZMd6L5DIJrRiCpkmR7ZHpZ2OZ60D7BvrZBnm5+YQhisv+2F7vufLQRO/XutZsVjqLDrX+qCuKdXTV008REYtVCLDJg71p4bLcK+Wu1tKM8WH+e6nxnG6YPEfWZFl8kw5ZBwCDoG1j4Aj42t/jJyGDoFhl4Q6CRds6mREiYuCNnqv6e/0rJOBipItKbFWdJSEK4Go1zXWYpNShQasldAm9WyzytsaHGVarbogUpJ7H0XqA0kDZ44N8NbhPhrNjsQkb040xZ3FkyguGXKvQMbY40EXDz52Ox5+/B54jUyiq2Rk1JZoCjWVmYBtlJyRebKQ1AMJuGz64/lCxGuqXdSl8N1lapLkc4JA8i3XomeNyNZ1XUKOTibYSz3KohbkGuxlllxIvn0ObdnhAsvd2Xqq89jzcvU3Vx7RovuV+XfDcJdmKrW5UHC9dQisPwQcGV9/Y+Y0dghcYQSUEGmzSsfo/6CLBjXv0py5G2R9W/dLI3WMlAKIghDd2T6++41D+P3f+Qtk54GgaCJbSDCzbUJCHBY+QxrS39qTqCuNq0L8p7/0U7jtnr0ouEGQ/REpM1cyYRSrey1hziRLYycaw8Uu2d2Vbu+SKe4EXTgCMsO1s80Lr+1qOAQcAu8CAo6MvwuguyYdAqtGwCMpNaWNe4IsJTSMT1+6kj1KmEdbWCl/tLzeWwuq+nwI06SplRFH7LHIUq91q/No60JSy+xhc2ndMs6FlvVf/W5UZr2cXpvy42qZ2hIusMjQiproNGbw0nNv4i//9Bvw/ABeESDp92XCUSC3riYB0ixH2o8xsQW4fu/VSKMu0mCA3MvAUOUimdFvRn5VL03bakkfKXZZbvULhCKhGqw0dMYl5RKoRBPtSib8S9DMphVRPly0hhd2Z9YycdPC4jruEFgvCKzscLheeuL0dAhsUAS4i16epbL1epanCOhvTHJYMBo2o4/zpzRrMQiLwyEuLrM4ReVVYetMGd7zJW8tb/K+L6ndIjEmul1FCkRqrbppRb6ll3WFjNvmJeoIe1eJKHtaS5I1iSqgLGsLGD5vBWohe5Y47ciMC0fCiU8Lh58/ifnjQDjlobWthUFGQs4f/b2552YTnu8zYjk+8bPvw+HXXserr7yOhUEgoQ79iLyTziomDowSXqpDbxY92E9xGwm5lHSJH+dCLMSfJbO8p2Tjb17YKILjJYj/ukc/cUZC98zZTqx4ok5Mr9ceJeB1nCstbZxyg4oIWsrbpSpZ1V7+qq6NdHykeD2/fj1SbNPcKgYcKQ8Fd+pFhi1btm0aBFxHHQLrHYHF5pv13iOnv0NgAyIgm7soqxs6mxfw5e8y2+Fh3VIYe5v35AEl+12shdIEKVbL1vQqSeWTZFrZtEWTSdtNjZaSwZqjPy0rNLO06i9ulfXK5ZUk0HmIF773Cn7z1/8UrYaHtF+IhZxWcjPt4X+Z3DiHizlzcF+Vn/zUR3H7/fswtbVjQskJLIvbMj2sU9PFZUb78U7v6y3Ur1XuuDSTx5z6oTXq56Vr10td3LW2vVTtlfKXqrfR06t/DRMTbdmJ0/y73ej9dv1zCKxvBBwZX9/j57TfBAhwa+stM1skcga3Q78yP32pGwpZEnG1iitRK82hWv7SaCeLHEdcVC6N5HFSiCnJnbH20wD99LefwRe/8B2EAQl6BK/gUcPey1FwQuIBN+yZRhjlOHT4RTByoNBEsYyb63EtXsk0Wv+5qI+Yut/GRyAIA/iBh5mZGf2YsvE77XroEFjnCNTeLuu8J059h8AGRoCWcd/4VIz0ktSPP7UUjjvbIhd8InmjlZqH2ZXSkHL1I7fW4pKQL9OA5fTk8nWNx9Xg4k39ycJDvbksZ+2LalUgTXNkqYfvfOsFzJ5Vjs5y/O+Sh+0McfEKhA3gn/7Xn8TNe6/HINbFnFUfjNo6LryrX1+WTi0SSncVui/IwthFuUsnjPZiad0NJsbuL98Nyi8OBq+l27iwHIudDkH5NF2YlI1VWp9d7ZX5otSZaMvkUFPd2SHgEFi7CDgyvnbHxmnmECgRCAMfvV5XdtYrE8sLJXfjziw0+rIuK469GAwGkk7DdJolSLOBLNb0uaGNROjjfxsBQNeNgstOtN0x4oyxeahEWdrmjalVJqnmWqd+Lgtd4IVMCFQvYZt1kk1+7SEK2njpwJv45//nr6O3YHrYaABRqBqRiPNIkBWp8PQPPPkYCi9Fxk8Z9OvOTWg5Q+At6RddbS+E3Ku8C+zEaHFOiMYd4idufMZlkkMXIHVaF/0W0+1FoktaXTr0iJvOaDkh4vUY43bSoj1U9ap6FocqYcyV4qZlR+9ZRVsYU33TJFUY5Pw8gwKddttE09w0GLiOOgTWLwKOjK/fsXOabwoEDFmilYufno3nhhKo6gX8zqBQomOkTE1NyaLBQayRRFIEoSf+0HmemU/fQiTrftSXSpd31pMLq639trpbF5ypqWmkMVCkTYTeJJ575hX0ufePB/T71p9dwhmmSLM+cgwwiGM88tiDCEIgy2JrPa9OwktVOQ6fDqGmveNzvS+1a9sWF3CSpNW/OlxQk2YWtnwV+9XDoillq2vttJ6XF+VyV4uAjnVVPs1SecAmpybBCfRleNiqxtyVQ8AhcEkQcNFULgmMTohD4PIhQEPX9MwkgiBAQBJcekJopJOVCA7zl/pVdMlYGAucOXMWrXYDjUaIokgRRg30+10JmdaI2tYSaa3JNHcO+ZGPtEVDJptmZDtbk2dJ07ylVNNytfMyRS8wS/ttF1RyYx/RqkC/P0Cz2UGSJXj2uwcQtBLce//NIMfudHzEcSJfChhfPGz48oUgjTMkWYpWpykRUjhpkV5qM8tqZ1ns2DKC1Nic1SYyIg13ZaSbSv33ziXXpa1wLWNt+imQ6AOwQjWD4YimFFAmDd2sKG3jF+DurKmEQ922bQvCACA1dz+HgENgbSPgyPjaHh+n3aZHwLCOTqdjQtwJ8R3H8Ep2csGIiYev7DKZIPcT3PXITXjyyffj/odngAkAswAi4PCLMb7ylb/Gt7/5DPy8CT9vwStCY20tCTktyJV+qlXdRYFpelTKVnVG07jRjsphnpbUNN7rdVV35IoFtOJIFm+lvmfCBbIgF2uyS0HRwgFGV/m1z+Bnfv4nEDRyhE0fBSdFXibRx7nIM0eKiclJxHFsSa9OUqrG2LweVWrZ+nBSeUfNVlC+LDt8YbprZjxcbJoFfWReF57XkAlELmsQ6F+cw2xbr/XrePN6pH0OJn8ESICTvxTFsjRT5bDPbIFQXICYJoZ2WVBqZZW1VQeVqfd6tulaTW71Rsts5nOBNIsRFCmmptuQKKhmkDYzKK7vDoE1j4Aj42t+iJyCmx0BfmpuNKIy3rRuikPXX3IRbkhTZ5p1MmywW5qssH4QhMiCFHPJLO68fw/+q//xo8YdxnpkYIsRv/fRBvY+8kE0/80AX//ydzE4k2K6uR3GncWSJOpTi9oh+qkBvyRnRp4QdKlGwljXUe+ZZoihZjOlJr58NIQX1kWUOTVkKhVFE4mnbYmiFueun5SfZwUC+Gj7U2iHW9E74+GNw0dxxwPXII4BL2paPUyscEYriRPjy0LiK/G9x7B/aW5otLTlIeU0cRVnQ7ZrvZQ6gpz4xXsykVqI59DYlmDh3HFE/gS8vIGiCM3kwIvheZlMoljPZ+Rxv9ohlHgMayfSBUOBXAfHji997lmeybmXY5AuoNmYQBGz3Qght2uXaDNml1IqwfIia6THImckbVSb8TUXVdoECTLgmJxso4t5zGxpAw0A8fAXkU0AhOuiQ2DdIeDI+LobMqfwZkOABszJyY5wDt1KxmBA+qI0Sc+j6GiZcVRHy3o4P3cO+x/ei4//9A8ijRg5ZYAg6xgPFEuqUipSePiJf/hDmJudw9NffANxMrBxwVWWWSxY3ZkrIVVWBSVYVdqobrzXND1XcsTwToLIrOU8PEaVGL0vLbYGO/O3ac+QZo/LVNE9H+PVg2/hc3/0BezZ84/QmvJBLxQPDdBVhSEDfQk5aXpGIiuKiUB7vWyPTL1R9cbfGy0X5xm9h9MJTo647+HR99+Fu+//35HFHjrNQNaeci1nkZknyK75k34J+a41UwtuMyze3ukEg7f1a+mVB8Rxgf/1f/7nOPFGH+3mtOxqOqQt1dQ5xWgLAl9NmdH8zX4vINt/LYIhE3LkeYpmKwSSzH7Z2OxAuf47BNY2Ao6Mr+3xcdo5BGTjjulpE9rQ9wKkScIYGZbwqTuEEhaylzrVYbowmhqS9XzI1tkzM9PYs+da7LmxI0erFiAAACAASURBVLv3mcJaV8Masi0fUeTj4x//URz42q+ikYbo9dWJvdbE6CWJQk1FEmm91VZGq+g980vjq1Ya7oIWveCzumAU4jNuLbpWijRB0p+k8PMIh597C1/47N/gxz75PumL50XcuxNFwP5XXyeMzIqZ0gpc/1VfLrjjpy1XglMvOXqtnR9NH743ehsrqR9kCMMCWZqj7ZN501WENn/6kZsnQ1wZWIljQoLOnV1r+vC6atkWtE2qhbvUwE6OlJTz7OcegiiEHwbo9XuQgDSVwLLq+AsWXKYw1RH9pNdScpnS45tY56mm59qJQiIu8YtEu9NBf9CH35BVnFrAnR0CDoE1iIAj42twUJxKDoE6AiRHnQkfXqAblxvSWJLs+tu4RqIqGXV6Ui9sSkgoQz/Bex9/GAs9oN1QRsWlXyTguhiRdXNE7QZ2Xd/GHXfsx3e/dghBwG/hi+VW7Q9fldrUCfrY+lZmjbirVVwkWjVVupTWtLIRzV3mrMzR9kJ7YpI9FFmOpJuh2doihPzk413suK6DjNyWvuWyAVCdsFZtlbKYVNOJrjzlNvfMqOlQ1a7PQoZSl7+RdviMFEjzDI0mw2LOo9FooNHqIB1Q8cBEOMwL5F4PBWJ6ypsojNZFha42/HFz9Up19qgaENaRemUB43qi/Q6yJnrnOIfzsNBdwES0RaK6MBakz2eV7ipaePlejc1ls1K9JqN2ObbORk20wy7PFV3Xmi0f3TRB05HxjTrkrl8bCAHzv+0G6pDrikNgoyHASBhBG9h36z70+n0xaXpeAHMwmsc76zFDoWXZADt2+diylbKss7iXShxtyJnWcZLzFGk8QB4D19+wG41GAHplMHSeHitpQ94p3LPUm/RpzFGyi5pES7ZFhk3WmsJpmaZlKLVsoyZjiUuRQ0uufHfQ/viYbE4hKloo+hFePXAcv/fb/5+JaJMQDuv3rKRwCdlMVj3pk62xvokZfxegZilnGEOxdYvHd8ENfmTRawB6vidxgWZrCvCbGMQJMs9D5hfIqEaYAyGt+yFyP0Ae+Mh9H5nvIfUKJDxk1E1UDvMESLfZdcmzMMi95Nt0LdvucNJSyGSAC1z1Z7YGMnlmcqILaLXE6s71ryxSw47/6mpvhFKcHJnnSHtz3XXXyZePVqulSe7sEHAIrGEEHBlfw4PjVHMIkKbRnYDhDLds2SLOtSRuFXlTinexWBVoNRnGMMDkFvr3Uo5KtwSclnEu8AMX+WXw/QJ+CGy7egZJHq/OJ1VEUtfR/3KGSYTpxeI+aYqWHr1nvXqeyNFuGKGr/ltli0xabosAXhGJq4qftfC9b72MP//Db0I+CGRc7WkOJZSjDdUnDiJTFonmQlDpsrI6NVmqVtJeilV6tEG5N70o4CPnwTjjPPwCuZ8h97hRUSKbFBlRHBfW4ZkTPHOYqDI2TfIs8dN8iTzDNFuHMmRxptap1KalXoizfBXglwFzVCM3tiOrTqyhs+o6G6FgNeG0Y54XuPbaa2X3zcolaiP01PXBIbBxEXBuKht3bF3PNggC4rObeNixayfgHzAkTogZX77v7EcJURQgLlLMnwHCLQN4+r+CuKfUIzGYlz0Xh9G3+Mz50/DpAExCugwTMlpawiYFreV9lapLq3X59etVyriYYkKiLRlnfZJJEvNWeBVee+ltnHszx/ROH1wit9KPJfRQAk4/dVLW1f/q7XCSwNpL03Ftj58HxCfeM4v5SP/V3UfGxpqWZR0CvwyM+I0M+4xTW/MclFdilTWjzE6K44oQcrNJKcvVNTehNPk8XCoargjWJgCatMLZt644KxRb89n1p4DDsX//fpkj+rqYeM33wCnoENjcCFzYu2BzY+V67xB4lxAoxMq19apJwKPpuoqQYCnQCnopeaqX1jSG8cuQJzleevEVhGhK+DlaOnPG3bYLGxlPnIsYGV886QfoLuR44cBBBNwYqEY0R68rxdheRR55Jx4S3FHecnmtW9LWurpW0JikqoklryrJY4swe+S3uB3SHZJxH0US4sCzr+Hf/eYf0/ND8JKFjELcPfjF8GHqsZ+BdE20sQRZfHykMSlliK6QY2NhHlFLAz3aZIYIpNWesq2vtj2LdVoIsVBjyTcWa6ObLrw09ei/bY/ch58HCOxhrn0EuR7M02tPrmWBJhdp5ozLrmeYe867ZIw5w2PYSPZe+2b6XI1O6bhSe6JGERi9Z23z5YY5Eq6SbkbUIwPCjP2y42H7xmdZHlrun+Wnq/uyM9rsGrqvnlV+BeH3qxy7rt+NrGCITeLjfg4Bh8BaR0BtYGtdT6efQ2CTIkAiniAImti7bzdanRzJPKN7kATzNUyyRbZjX8k8D71/9VWtZ8Jo6gmg4iNtCOU3/uYA7r7/ZlmU2Jxpo5/TNaVA058CYqDXy9GISG6AP/3sV3HwpdfQxLS4Hgy3udRQmbl/kXtoehG8BGgHDKLuI6upV9CZmdSdW8uLDsO+37WiUm5pvmFKmsggxGhEL4uTnNS4b8uQM8qlRBYxdkfGD+cngTRN0QgbeO5bR/CF3z2AJ37sNvk4EAb04+eCzsrqW0jswEziludpiDwBut0FLPTmkOapLH4tMlrITcPURa9VW2Pc5EJaU4Z/0/WE7URBCwWds02WVCmH36aRlDHfPC+sWxU22Bkiz3rM4VRvCFPPQ5pmaLfNJjLskvxsoaqsddmRhZnEiooGKAbAYIF299A8K9JKzQ4k/VKt7blUkb77tbIjVnbpjR+bTZryEIw21I9TmSRQx3AAoOkj5ZoG60pD/dnk/DyQhj34yTT8+gNou6cn/htYqz+FiZMqzuFyD0iDDNt2b0Vr0keSc90H8dOSa7UnTi+HwOZGwJHxzT3+rvdrHgEufIvkfXr19gBnZ09iMtgp9GD1r9d6SV5XhJ000/dDeFkDL3z3Vfzqv/gcfvG/+wh6s0DWiNCIIrNyj8S54SPtAc88fQYvHziBLAkRI0eIUETWW1FYTYwRsjffuHkIKfCQJx4wB2BLiKI3sv4s80GOzu3nJ8Jt8PLgIqiE7acqMk45m8esZekWo6VIWfM3o5LkaYE8beDwC0fx1A/fhmajLaRYwo2TN2u77IhGlmP1HLh66y5kSYapqUn05hMh39p+Wa+mGy/r6X4QIBkM0PTZZgBGLGxY3yKRUw2vSNHNoVSl+ply67KlLZ2I2ILkchKQg8PYt3MC6dNITbHomz4KYLa/XgsIvRaa0QAZ/cQ5eSh/4vxjdbAo1MQKEaZcLVHLk1GTe9YTj3Qp12y0kMc+QCKeN+WDzFA4xRyIB8Akv2oU3I2UMR6HBJfaVfE4q6S1dmUmQ8SAhJwLbgeYuboJNIH+XBfNFrfRXaJ/a60zTh+HwCZFwJHxTTrwrtvrBwF+2ichilpAu9NAMTCuB/b1e9EdMa9nbmBDeU30F3r47jcP4P/4n7r45D/6Mey4tikkrHsGiMhtusCXvvg8jh45hddeOoag6CBPPRTcIlRe9oZM1V/7xmrPeBsMYUc3DR9JkiNPI/z73/kSpmbaGCSBUHp2hHW5+yUJL0Munjs9K64xwmKlpyxRb+Giu7+6inQnMd0qzfPNRkPC9NG3+vCLr+Ff/C9/hvZkA9yFc2JywljGyUaFJeVodRpiDT93dhYL8z3ZLOjYGyewbctOCe9X9cbYYM24jlPPKEJ9uGsqcXr10Fv4zG8syEJMtqeUVCFiDfNlYJw8kzaE6AgRZ4mpqSlcfdXVeOZ7z8iY1COiqATtQ5Hrwkyz1oA7bmZJJBOGtBcjDJoSKtG0WTVmKPnSOi7OsYMip8g8E7b/YdDA+bMp/q//4U+Q5l14USCLVxnOkTOjwIsQhA30un20ku0o8vX9GuRTYxx8uDaAz1uAyWnjvcNJhkVqMYQuxSHgEFgzCHj9ft/9W10zw+EUcQgMI8DPz+kgQac5ge5p4Jf/t9/AGwcX4GcTwreE7Bqn3KpizZJoEpUq8c5SL+FBnizEFNMtrblRhtTvoZedRxYMcNe9+9FsNbDz6uvw5mtHEXgNPP/sAaCIkAxydFpTSOIUYcCNZCjZUAJpk/+rCBnNUPj0c/fg5S0UuS87dgYhd66kabyA73XADXTKXw40m00szM+Lj3EjYhxz/W/K6j/UD61ZL8PoHsYkzV0yZctJLTbmrDX1rIjpuV5lenoa586eRRiFSNJE4jp3JjpIk1juSyurx81zcmR5IpMphqikVTvwA+OeUnhYWOihERoyqW5H/A4w1C4nY9pfAINBX3Zk7fW6YOi6jDoY86hZqFlXVgzVJGvjf4LmSKYZy+HyUaMB9vvw4cMy6agmRCKhLJwLGTfhCk2ih0E/RhQ20WlPII5T0C1Hngfbron4USlhFh2qSDXzG0TU+G5yDWJaUvw06KpBV6IsQafdxPnZcwj4uYKWb/rQixtRYJ+rptwbrxo+wBb1ShV57tYynaVufF6IhLioRAuY2B3jl3/9nyFvdNHs+EhlXmT7VoLlLhwCDoG1hIAj42tpNJwuDoERBEjGI8bQS8zazd//7f+AL332BQTZJDxwJ85xkUmGCdKwSJsnhJ05ZC/GrZRWNYa8y/0EORe2STQVcmpj0ZbN4YtACDW//ZNUZmlm1iAKgSElUCbDMwkOZdK/gX7JkRBksfRLHi3m9Jcmaa78gutk0EgTpj/cjUUTDmZr2+zjhZHxem1taCn6Qv3YB5Jr3binXla1UDkl1Gq3Fgsucz1keV6SW0O56Vs9LK26M1eyWU7ZV8V5uAd1HdTJRvUZPVseL8nSwhi4mUnS3Gy28Pbbb2Nubh4zM1swGJiJljxH9Fsms5VYnJRkibRaZ2VBKVONzqqj6ZUhy8wdjeYicqzSdTIuExQKUaUtJnSRN88TnwGrjm1THnZTQFJIzunGwx/xpzCjj0kzz5Rqqmlr51yScVls7SGNzuPDn3wAn/qFH0bi9+A3PNu/4V6tnR44TRwCDgEisL6/z7kxdAhseATMDoW0boUBsOemPSi8A0JhpetebiJllDgYQlHeLnmhLIYuMEo2Cok8AUZNIem2dQ3p4WvfLAQTtw0SLxJJlhHLrVzUiIx5+cvSREYgEVlM08WBvKZFuGaRNCKkpGonN2VKdXc5rozGq5NMYirEs9ZjrVnKqVi4zTJ0T10y2MeQhN7m1sllKUPkawk9G/5p7mxJ3qhlVxXRsyWfervsuWpiUTGOe78/wK5d1yBJjqC70DPrDcRf3S4SFDOzXtd7oYJ18shxt2nlxIrl+ZyNEuKaKvXHRavb7Ko1JjCTBwm5vua4mJF5qgNLmImilGOePNy19tbDpeBo+lt4KW697Qb4DFUk+Ayjsh6643R0CGxGBPR/qc3Yd9dnh8CaR0Dfp/z0jsDHnptvEFLMaBq+R9piNlKhBf2CfjVSYpwYjCzKEG7Obd5FoCFHhiTZF/4QYRENbcm6DrR0kgiZKCAmx5AgdamwbEE+r5e6q4gx1lnNso2ZKmPKlbIu04VCXfV8cUOiK6OvlKTQEHHiWI8PrjJU5mJJmsKSBgHBj9b5EhCOkfkxTa+1Zs4dOfVm5EwRyokli8O1AqZhu4WJLdOYnZ0VJ4mcPteW8FI3iVdOYXZy4JUh9ogHf2yAGqlW2i+TW3bL3C7+W6uV9U2CIpwTd3FNSkWvopiAhDOUjlmXHetfbtri5MEKZUIpf3HTay+Fyho86abCr1m33nYjYzqCIYoy+Rqxrjq09iB2GjkErgACjoxfAZBdEw6Bi0aAn5/VjYRCAuNKQr+VQC3afAtboja+naXojb7ILWkUkk2rpAl1Z2TVZIsYW6dsSF/0S7VRhc0z5Ezr8zxcZ0gSicXiIkNESWrzL61Y6nT5L9ikNDuufau79s7EetbYiSO6aR9X7INKM/XrpFv1UBEVSbdlNWOkad5q3XoW04Zbq+cCb58+he07d8ALfHQXBoj7VQWOmZka1IEZAYTSTUFbcbnWhtseLWnIvz4CNldOfKYtKQcddXRiRMLKAqZs1VcDkpUw1P/hnGF91sYdJxi5TM4ED0bwsdGLdIJSTdfWhsZOC4eAQ2AYAUfGh/Fwdw6BNYeA+CcHdIsAdu4Osf+OPXjp2SNChqoA3UojRtXXdD1rvqEYSmOYKiRFyJQJkWZoFctpWVPX+PTq611f9yw10oaE+CMRqrsdaD2eTbpaZrUVlSL3NQuw3NtMnpTPCfkUvbVvV/A8pl3qZfim6V8hXxmsRZYZ2sFSTVtuBGfNllwFR8pY87WODLmtjJ+poXhqfZ2z8V6aVlm2HtMlSfWqpauM8iw+2AFOnTqNHTt24tjR40jjHpIklqgrg17fjGopkLpSsB784mKuzZPAfFrumWoVGJ1NLIGL6MSyYo3X54o0lGkkpDwok0Sciy4EJXDtg7Hem3ttlvKsBuVZnmmGYywBWIMXNOwTQd/Dzl3XYqLTNguzJb44+05XHPdzCDgE1jIC8s94LSvodHMIbHYE8oLbsFjLng9cc/1VyL2+jZxhiM3yGCnFWK6UltEzX++GrPBMixsP86uztar8YummPheZGuot1KYkOlqTYuVQyla7p0wtV5evmuh5bKF6hctwTb1Ut/p12RRhskSUPR8+LIEuSehYCUZU2Uneaou2lZHbsu1aNrElIech13Z5o+Jel2pGTHVbfGb7nGy02x0cPvQydu/ejSgKEEVczJqi0WC0GBJiOlJx0yizcZQhxKo9aTcpM18/hohrjuqvWOl9/VxHSq5JyIcwIjeli5Q9xEJeWcbp0jV8mNaFzpfrH0yLFcUfRaau0bt7zdCV7GqGFPtv3wcG5+HXNMFwhefj3dXcte4QcAgoAo6MKxLu7BBYkwiY2MGMdGIO4Nbbb4YX5hKvOdNQEBesu76lhTFaMkOLYkXAKFI4jhblvebX0uz38RU0ULbEc2UFrYsZJ0Dyx1ifRTdbWSWPq3+50up616/HtSeYKcyKn2JbO4+ruxbTGGecUXR27tqJEydO4J577xE1GRd+odtFntctsRwdnYyRENufgMLXD9HTs8lj1lK/ZbIskub5MvWXL11vwyMJL5+z0SeK9/WjXvPdvSZW/C/ACzyk6OORxx+A37BTH+n+aF/eXX1d6w4Bh8B4BBwZH4+LS3UIrBEE+Kal76sexjKOIJawetz4Re1648/sxrgX8rh6Y7ps+QxLqxQ9jym9QtJwzdVSpeU4xbDEevPMqR/1vEtzTb1W24ehFrWSJeaap/I0W9Ov2NmS0boeo9fUpd1uo9vrot/vS4z5gwcO4qEHH0QUhXIY1OV7ilVdx4G36jtvJS/JvOt1DCLydz25DowpUktZlFDLG75cTUmW0WO49rt/J19ffBLwHvbfsU0UkrmO+Mq/+/o5DRwCDoGVEXBkfGWMXAmHwLuMABkIrYok5MA1N/jYe8u1QmzSjN+j1bKodKF+VtWVxeiZ6byu/eQNzroX91O3h9HzqDSGBbyQY7T+6u/rfV19rctX0o6LENBhJq6olyNHYmyP1epzoeVH5UrbtXZV3tCZHshZhigymzTRRYIbAr3y6ivYt+9WIeqMvR42Qvlyw+83Ogrl06adLRXQEibBuIYMp8mDr7jZeovElPIu5qIurX5dkXBN1fPFtHLp63gSXpIhGrfvnEKzVWuBAzf6b7yW7S4dAg6BtYOAI+NrZyycJg6BZRDgi5XExrgAXEu/8SKzRHyZaqXtVl/M9fNy9TZI3mqZE2G5BD82J00ugtnmlISyLGlatVZpublEulyC7qxKBBcYc8fUl146iJtuuglT09NDk63SpDw8/zCyBazFzVToKBhVipS2+C5RfbHAVaWMtDGmzqVtb0wDF5hkYODGPjn2336jrFs1zkDWR15nUhco1xV3CDgEriwCjoxfWbxdaw6Bi0NAeAIZWyYu2rfedhPyPJXtvC39uzi5rpZZzEc/9iWswquFiPUZaUYpnZ5lwMpJ0WqlrZ9y9CFP0wzbt2/H0aNHceONeyQGeaPRELeV9dOT9agpiTiPAo8+/hB8xkeTB9l+SXOW8fU4qE7nTYiAI+ObcNBdl9cZAtZ9hNER+KLNEWP3dduRegmKwCzsXLpHallcqoTm121+SiNpyjTXZsllvcxS8i5Xui76VN3MF/ghjYZujIlaemctssaKOKLfGEu1aUFLKz7qga5RUfTelDP722hZSuB/rXpYHKWtkfbl1s4CVkucpJ9GSx2fYWcKHS1bZtH0YDh98fRhOH9YtvV8sPAQjU67jR59yBnW0PPw2muv46GHHhZreRwnwxVs9zVCD1Fka/qTa4VRE+Vci+ZTU68sWv+yMFRPb4zCXKg56roxrIGWH38u2xuf/S6l8v+EDPtvvwW5hHCsiHgd23dJOdesQ8AhsAoEXJzxVYDkijgE3j0ESJV8CIlgRBUSNr/Ath0z2HvXHhw5NIusm8LH0v+U6cM7/jdKLer31Wtc+EtNAAlYvWT9ulasulyhQJltL0bvSQapDfWotKrEa5qZrNh0EWIk8W+VKXJ0MV5JxFWWacf451MaCaCRbgibIeJJHKPdaSEIfWRpitnz5zA9PY1mq4V+P5YdUhlb3GhbJ9qqRdVepdlonpax86Hq1so1CdIfi4tyfRpG6z8TF76eYq5Zt46H1l9ccjjFIFKlMXpKo2F8yDlI9Cc/cuQtXHPtdSiKI5idnUOn08H8/ALCkLt11rtgNFDky4GqxMtCZa0iXRvpX3lbXtQqy2WVoVd6pjKKQTUWoz0cvq/qjrbzbtwX8hzuuGYntm4PEIO7jppnTvpFZdeWwu8GSK5Nh8CaR8BZxtf8EDkFNz0CShoLuzmKDwQNYM8t1yL1GW+cfuT61h13XglBvrZHj6rO0jlVmStxNaqH3o9tm5lERf2UbeHFvGQYL3NH0u1Dt5EvS3BzmQBotBvoJwPMLcyiH3fR6jRkDNI8NuEnORaq3NCGN1apIYXHpQ0VWPFGJWiTrKDXmrecEC2j59WW1TaGnj0rhD7khw8dxrXXXodt27ah213AxERHJi/KDg2u/LtarFrJrPqg+pTjMPK0a/7Fnc0Ea7FsTV98NppdXGuXvhaXyCa47Y5b5EOM+eJAhM1A2OG49M06iQ4Bh8AlRcCR8UsKpxPmELhcCChNYfQEH41WgHvvvwMFBjbSyuVqd+PK1Y2MNIZ7Thcgxm1GgByMBhIi9wJJK/wcuZdhkHbRjedRBBnClg+vUcBrAHHeR3cwjwwJCj9F4fEwmzUJQdKJwSZgR0mSgos6r776aolDvnPnTlnbQFeWicmJjftAvQs947ObFgt49PEHZMPRMArsDFQfNDPZeRdUc006BBwCF4DA0t+2L0CIK+oQcAhcTgT4QuXLlXNn4yNOy/jNt2xDgR7gNaXxLM8R+G5+bUbCWqflZjEh0RTZMZyoFiYEn2zdzh0NxaJOGSngD4RcE3svKhjbD7fcfhu2bJ3GmdOnkCYxjh09itlzs+i0J+GBLhshPNkBkm4ZLaDg1uwcRc+4eY/s9Gh0tiZf5VFl4iovtFOrLL6oGLu7UturaKPVakoccrqrcIv2t46+hdtuvw0njp/AmdNnEPgGi+H2lxPMvJUUG5a2Ee8UAaJB1zPimHs5sqKL2+6cEe8qP+Lep4qllLRQaO2NiIzrk0Ng/SPgyPj6H0PXg42OADf8ER9kEm1uR54jzwbIiwBPPPUIvv2Fl5HO5yhyBj68EEI++oIevV/vwCopqfWDJJvJ0lVDun2vQJFnSIsMQRhgEA9kQeLEVAcPPHQHvHAWd91zC+65717MbJW93k19yuDB4YmBZAB0FwY4cfwUnvnOc3L+9jdeRDO8Bl7ekagtpUasN0LI6RCx6Cd6yl+LsuoJIs4mrFy6XtNcl/XHqDBaeiX5aZYijMJyZUEYRTh2/DhoIU/SFHPn6UM+gYWFeQQBX0G1iZNtv2qjuhrV49LfX8m2Lkz7umZcA8C9vhhBpd1pYN+te9G4CihSglfA8wJ4dtdTLu0Uk/mFNedKOwQcAlcYAUfGrzDgrjmHwIUhoOxIzyTjBfIihR9muP2Om/DF3/s7dLyrEYSh5GV5IRZyXWZZ1bywljdsactsaP3m4sPcLyQkHG2K/XQeuR/j8ScfwLXX78JTH3wYMzvtRwlueJMSe7uc02MoQ+Zl8JoFGq0QjakGtuy4FvsfvBb0IPrTP/gqPvuHTwvNVkLF8ZBr/qWDQ7DlukZMZQC01tKjoSJWLrm0DOZcaP0l2xVBNlfWO5hdO186dAi37rsVb4dv48zp00LI6UseBiTu5ieWeb0RSGo3y6v/DnMvtPfvsLlVVzf959/yVSU3UWU8z5dn98zZM/jk+5+QwaPv+PBiXRJz1uSup2u1f6sGwhV0CGxoBBwZ39DD6zq3MRAgQdNtxNWlIkcQebjtjr2Y2TKFbD5AQotkEMH3A0tuTD2NQmJe6BsDkXfaC0NRGCrSR5YnGCR9FOEAjXaOR997P378J38QW3ZGQAvIe8YHuvA9+A0fAWEVFk5SnosVnbbIRqMFtBtCwsUg2Qb27OFOqd+SyCylzuRFYp4vUy76gv3Q3+Ub33orpjVJsfyuKMpYKKrK0JlxyGkd37VzJ44fO4bdu67B2TNnzdeHiUkM+v2yvPRBv17Y1MWtl8U3xQXXNgjCBYxrCrf+yjP5dz4zPYX3P3WPeLB59I7ix7MSMLNaQR63i5hsbQpwXScdAmsEAUfG18hAODUcAisjwLes0BWxzrK8F+a4+Y49ePm5t9E/18dVk1NIBya6ijGGWUurs4xV8AqEZHw2bjt3Mg0S3HbnHjz+/vvwvqfupMkceTKAlwfw6UphPIQE/hNH5+RMksO42lHURDOKUGQBPIbVZoZ1i477fSHiJr61tT4LWbLWddFKEkrjZd1dhTkm1zLfqhfllQ6tzteqkqKhKaeFKK0sYCTXEsrWtNXFZ9uslUEJtGZXcwtJERCkiAcJA9nrLSAKf4MCBgAAIABJREFUI3EDeuutt7D/tv04efKk9SE36xxUG2mh1LGmUtnjTXpRmCej3eng1Nm3Mb2tjVvvvhGNq4lHAfqLZ1zvYP8YlOpAblLcXLcdAusAAUfG18EgORU3OwL6Qi3EX5zWXM8LhUM1OiEefPJufPvZTyP3QvQHA0ReQ9xVGNFDfpblqJRNjaZgwd02SQDpmJKhNRHh+pv34ANP3Y1HP3AnsmQBQasFP2iCYZtJXt94McaBF17CC88dxIEXDsHjgszClxjwvh8iTQbYu+86PPLovbjr7n3Ydm0ohLzFRYzCVOvkmyILm87rGv2WiC7mi4Zh58xjSEv+1AJtZDGlTmAZE70i5HayIbMIG2FDRPALC/2I6zWNbP4t6RIq015rmpzH/8WVCsMLP/mk0Z3K6JtlOaLIxsrn8tYoFBI+0ZmE7wU4ffo02u229SHXrzqmLffMVpgrFgsLPbSmmzibHsUHPvoxQo3M42685jkSP3GuM+Hzos97JcZdOQQcAmsQAUfG1+CgOJUcAhUC9hUsL1VLoGjlJBHkCQX23XUj0rCHztTVmGxPoD+XVrYx+4lbX+SV3M16ZZCQsIb0F/diXH/TTjz1Aw/i/oduEv/voBGS3SCbA7pzwF/+5d/htVeO4vWX30R/IUEzmpHoKCTkvhcyuAqKdIDDz5/Eqy/9OeB/Bvfcuw/33Xc7+r0CvsSHz61B2uOeTUJ6axTc5nGyZaztypVZtF6ONaUHJsPWM2MpYpkpF7ageDfVreGlhKqgMDZD3kxlClAhQulMA7W/Den3rE/y+KfL6M08lW0mAXTxSfIBijhDq9PC1mIrzpw5i/ZEB90FuzGQbUvmMfU+1XTYXJc6Jh64QHaiEyFr+LjjwRuR+/zIw2fHrGcwG1WxPIFTQr650HK9dQisNwQcGV9vI+b03YQIKNmpXsiGLBmWsmVriMfe+xBe+PobOH3uFDrhjJA69UzQ2psPOEsoFQCxhutatkzigbc6Od73/ffhnodvQjgFxAsJGhMtMGLk8987gS9/4Wt4+fAbyOIcWUKX8I4QcbVNp2kiWIchJ0ctZOkAYTiNZ7/9Jl4+cBLnzs6h2ZgR33LWoSrmqCzjFfE1Ob6wK1tQnQ6EMFsJMrDG8ixjSiKmg6t9lRQu9iMBtrJsPaOBJuYQ3xqJ2KNplZa0zqveIoeipDFrpZfreqhCa9Vn+2xPdKM8s/Cwfo7RR57E2LZ9B7gQsd/vY2Jy2IecbdrmtHnbfnm7sS/0A4eAwL9ydDoMHXkOt9x1IyanzVSHK4lJxqWY/Xt4nDc2TK53DoH1joBx1lvvvXD6OwQ2HQKGdZFsMVb2E0++F2nRl4ge5jO1UrwasapRQaWEGx82Q2BMPxULIpSg8Lq4+dadeO8TtyCYAHrdAfzAEPHvfuMtfOnz38CB595E91yKpEfrd4A0LpCLS77BX+KUezmSJEGW5mi3ppH0A8yezRB3m5jq7IKXmy3g7YgpvaxBr3qZLx5lGMtyNpXBQwoPbNiSaxlL42qjzuaML81IL6WFlKSMZFgIMTc04sZFevBeD5smGxtpPqVVBJpyx/9olmX/GBGFLiZml1iW5rPJ9vQsbfu2TTnniPMEx44fwy237sPWbVvR7fVKKintGdAsZiJ1ievx2m2I1HISxX+1OeYXziNHjI987EPyqAi+1io+1F/W02doKMPdOAQcAmsNAUfG19qIOH0cAssgQL9Q/njm536PPg9+jptu2Yn9t9+EsMFMQ6RKwq0v5XFnIXXLNLius5TJKYkzpLff72FyqokHHr4Dv/BLn0DRAIooR6PdFNefZ79zDF/+/N/h4LOvIx9EaAYzaPhTCP0OPHCDpcB8eSh9rxlK0oMfBBj0EwR+C9NT25EmIQZ9ts1YKySthkfKMMgliSuj4HCR4wwS7i8UNjDIUgyyBHGeIikSxEUX/WwOcdEDI2YkBdMLRM02ssJDkmVIM+72aai6yqdjTMavAV6EJPUQRm14jLYThrLYz6MfdxQgaLbRbE+jN2CUeg/z3S64yTp3EE2zGL3BgkScabUb4pZCP/scqTkY877wkWSeyPaiEEauhzzMkHox8iBFEeTwmyG6jKzSbCHOPMSZDz9sIWw0cerUKUxOTWGbEPIuAolTDjRbrRo5twDarwQloOv6GV1BefG7p6uJrheg/z1ww56dePiRmxBEjK6UyQRsVJJ52kdT3b1DwCGwFhFwbiprcVScTg6BVSBAaiL0y2OYwwb27rsBB595A00vEgulZJOZLfdjvhQx0pYrun7zLImTDnjoTLSRZgNs3zmJsAXERYowDITYpD3gC3/+Fbxy4ASKJEKnMYUkZn3iRJcO7vBjz8quiXYwatdQPPVsYFZNCDtr0PrstwLEfizW+czvIWql2Lnratx00w3YuWsbJmcaYl0+f66Lt0+cw5E338bhQ6+DQV6CiQBZ1/iaq5OCYa8kb8bFhJOETjPC7Px5tDsR4rQnRJsWVWoxdybG1i3bhDCnXh9RJ8P+u65DoxGgGbXRm8vx4vMvYZD0MNedR6fdLh8Fsbp7BdI8xUK/i85khJv3XofORAMzWyYEa+7ASRPuwYOvomjEWIgLxFkO34/AcJHUmzK5kPOqq7Zhx44dOH/+PDoTHfR7VdjDslFe6GNdwTuUvaFuxL2KzkLmuQsD4IEH70KaA0lvFlHD7MC7ofrsOuMQ2GQIODK+yQbcdXejIcCYwzGiqIGH3/MAPv8nf4siUb9dMpbNwFZWGlOlwGZJIXcwvf7Ga/DUh74PzQngTK+Lre1pDOaAT//W53DwhcPw+i00gzaymOFUaJ2lZZtuImlt8mIYITdgMT+SJfJbs1DRYM8E+lTbsZAqRg/jJpIjDfqI/Xnc8cAtsonTB568QzYhihqAx6oTQDqXIEt8NJt0lQGOH0vxF3/2Vzh1bA7HX51Fbz4rw136PiOXsCHT5rnzpzG9dQJBM8aHPvJ+7Ll5Bwqvj8KPURQN/Kt/+Qfox/OIJgvcdddefOITH8GuPYFRewAc+FaMlw4dFqv45HQbaUocjAcEN0hK/D5uvfNm3Hrbg3j/Bx7E9BTMRIFvF+ofPIx8ALx9so8v/9XX8cYrJ/HyobcQ92KkeR+t1hTm5ucxOTOF83Pnsfua3Zibn5XFnM1mEwnHwD3G5TNGa/gHP/Q4/JBfL/h8aoBxW8SdHAIOgXWHgCPj627InMKbEYG6gbuMMEEg6Peb0b8hwQ23NHDbnTfi4DMnLAuSAgKXGMA3IaER7mstxAKE+DH3ML01wpbdQJImmJmZxtwcMHsswdHXz6KIQ0w0JpENPLHQTs3Q8qiEnhZKeysXhlgrWzR2XmvFlAarv3QMmUurdOElyIIBbrj9Guy/+2Z86EOPYOs2E7O7QIKcW3gyzGDsI2iHoIdMd1CgM9nBzj0h/v7PfRjdc8Bnfucv8eL3XkF3PkOR0/WFYS+rcIYzW6ZReAPk3gCPvu9O7LzebA5T+LmU93+tj9tvuwP3P7gfTz11m6xB6PXm0Z5pA0GA3dc1EEYeFuYXEAQRCs83+vsx0qCLh77vTvyDn/txdNqQ6DFhx4NPV5KQ8duB/vw8PD/C5FUR/t7PPoETRxJ8+nf+GM9951XE3QV4WYj2xAR6gx78wMOp0yex/9Z9OHrsGE6dfBvNZmWJr9A0I2sGg+Mx+nDb/KrCur/K6PvvZ7j5lp24+na6K2VotZvIbQTTdd9B1wGHwCZGQE06mxgC13WHwNpGYBHN4O6P9BmXg7tBclFcX/we3vfE3fDDWEgcLaS0jpYkcOPxk2UHroz6Yf1uDQlOUARzeOjRfUAD8INcFmTSKvHtvz2E1186g6iYQNLnvj8Bpqen4XkDeF7PnLnws+COnCSy1mOF8uWg9TyAj5D7ccKXg3HGzThQWeoQxynCKECCc7j9gd340I8+hB/6iUcQTAwwP1gA/Bi+n6LIMnh5BL/oAHkbgddAu9WUaQGt5mkKTM4A//iffhhP/NB+BO0uohY9Qug/zqeGz4gvUUq4wBTIxBWHbjloJ/Camfil37RvN77vyfvw3u+7DcEM4E8XaM94AH12AqDVBgbxnDxnacbNZToSfv32+/bg4//gSfzD//yHgeY8YmRoT3tgCHwEHoo8RBYX4gcfRBEmZhroxTm27fLxS//NT+ED3/8Q4MUIQh+DwQBFkSEMTMjOt0+dwDXX7MSWrYwMlAlJp69/aH3Jq6kRMbWLVHWxql23yOden/1lH5Q1nKlrQ/gVpWiEyDsF3vcjD8m4BE1OuAJ43nKHe8Wv4eF1qjkESgTcv9QSCnfhEFi7CAyTj2E9A5++ADmyvI/r9lwtCzk9PwV3Pez1elJYCb0SlPVOUoYRWPrOEHKSZPtfHSOfZPO4ce8uIBkgaDfE+yQbAM89fRBh3hECrATakFpuapPAk41VuMSRlNo4gVRn46NtltmxLdumtMtrLWm+ZhR+gjvv24fH3n8/3vPefQibCbwgRbvVAjLGOW8j6UY48L238Mw3X8c3v3oIr7x0GnkSIB2Y/k5NAY02ZJHkR3/iSTz+gfuQe11jtbaQGH14Y54gbtDTmAqBBnGgD/hZ3HbHdXj0vXswMQkUPeDMW2dQJC0gnARiIGJ3uE4YgRB7WvWbEwFuueNaPPkDDwMh/dxNl7tdIIuBhfPAweeO4sSRLmbPZAibDRQJZPOfOOuLr/6nfuYpPPzonRjEs4iTLvgYN1sRgsBDu93Cyy8fxg17rsfERBtZlkq0lYWF+aUHewPmMDLOYNBH2AiAMMc1N+3CfY/diTgrMN+bR55xXJebZS+XtwEBc11yCKxTBJybyjodOKe2Q8Ag4MH3A+Spiaiw+4atuOHGnXj2O4cwMbEFcZ+RVez7Whm53tLAXkvbmIgqGTFkmN29+557sHXbNNABerPn0d46g7MngVdfeRWtfFIwYemcllWLnUq5cIysedbuGU+rdasTYpCex70Pvh+PPnE76FUS9AM0G3QOB46+3sPv/s4fII0zWfSYxCHiNMe27Vtx483X4pFH78F7v28fIuu9kRaMlOLhx3/yB/DWm2/jlRfPipuSGVvGM68mDov091J88AceRZZD/LpPHIvx5S89g/NnZ5EOBmhHk7h2+16kgxDNVgdbtrTRz+fx3sfuwY/8/UfRnZ9H4IVoBpPo94Dzb2f4zd/7czz3nRcY5gNJ2kezFWD/nXvxU3/vR3HN9R10mhOcB9F4jp/5+Y/i7NufxpFXz6DXncOgu4BWo4UonMTOnTtw8uRx7L5mF1575XV0uwuyU6choIt6skETCrRaDaRZH+3JQNYUdNq++ORPT0wjTpMq2uUGRcB1yyGwGRBwZHwzjLLr44ZFwNhozad96WQGfPDDj+Bzf/J5nJtNsXVqp5A6tZ7VSWVJxMk46xkbDi12rurgtqu2ASSycYpGs4nZ8ylefeUtNMIQWT+T5XCXFgJjn5ZFoMgwSOaw/+4b8eQH7xQDevfsAJ2JpniFfOULL+CZbxzEwedPStzyTms3ekgRhQF65zy88J2jeO47B/HcM3fh537hY/CjAs12hKSfodkJ8JGPPoVfPvC7Yr1nH4LAB9dbGg0MDvF8F43JTCZxkxMTaLcmZZOj3//9v8EX/+LvMOj7aERNhEEGpMdxMDyJ6cmrcfrs2/AaGe56YC8+/lNPIO8Vojdj7c2fLfCtrx/C1//6Wbz43VfRn8uxdXoLphrbkPS6ePHbb+LfnP0MPvmpH8Pe26dAN5s8KTB1nYe77r0Jrx9+XVxqGtGE6NXtdhE1AnFhOX/+HG686UYcO3ocC90ufPGHH51FVuN7acfu3ZeWJAOk6CJIc3z8J59AZyuQ5MCgG4tLEB2j3M8h4BBY3wi4f8Xre/yc9psYAXU1yXP6BgfGkusXEiHkfU8+iKmZFpJ0AN9jlGsuqrMHPBP5Wu9tvvFBV1/06rzRIL5xz41igZag4gAmJ0K88vIryPMcGR2x9UeLskfk3uHPznro+kIXl6zo4iMfexJeC8j7QIuh6SLgr7/4Iv7tv/4TvPS94wiSLWgW25D1QoRFhLAIEOYRoryDIJnGN//jIfzKL38WEeOM0xPJyxFNAnc/uBv79l+PvOghCD3QhYkHCSy/oAS+jzBqIE1zWfPYCDuCxV//+fP4yz/+GtreTjSLrfDiJvJBIS48ASIszPexZctW8bF/7PG7MTFFw3cPg24PXGf66sHj+Ju/+hZeefEowmwKM83/v733ALbsOM/Evu4Tbnpxck6YwQwwg5xBBGYSBAUxiJSAIimK1IpWsmqrxK21JZfXVba3aku2qly13tota3ct2S6bohhESssggiQIBpAgkQcZmMFg8syLN5/k+v4+fcObN/m9mffe9EXdOalP999fn4v39X/+/v7VokgTT2l4rQL81gCOvRHjH7/8kzymnOE1CRDBLFwdDRCGClFEhRfG60PCM+KohWarhaPHj+Hqa3aiWCyCWU+5cJFp4S9+cC5ybOf99kwmYgRq93VbMLwayNqmUUpWcjY3c1oy7ya5BhwCDoE5R8CR8TmH1FXoELiUCJAqamR5THSqGBMMfOBD90tMMNUpqAXdS1oumlxeyu7NQ1u95IX79XqKyYlJITU8NhkrTcOCVe8N522P1JjHbLO2DDffuhvXXL/CxGEPAlxn2zgC/OQHT6KghuAlJXhpAV7qw0u9/KvhZQo6VfDSAGj72PfyMTz1xBiCAj3gnglX0MCNN+0Uws9T7TZj3TV0/u2oMDIMh6w302ifBJ598kWEqoKokUGnITQXjsrXw/jYGJROMV2dwLW7t+PqazbBK8gaYmZLQrsGfPVvv4UXnn4Vtcm22Gdt17GGjjyEcRFZLcTrew/i+SeOoFll+JSSSUhlCNi0aSVKpQADAwPdBDaiOJOB8oZhGOKFF57Htu3bwDcb1WoVlUpZiLl5ti3OdoDssd3a8wtta+3rbu2aBGtpkkQoFjUefuQj5lQePiX42Rm5LXzKlvW6j0PAIbDQEXBkfKGPkLPPIXBWBEjyGABuJOfStI21myq45767ECeRqE2I8nWeFt1EQl9Jf6Qt0cmBtLMRxnErJaEcXOjKxXKQJDSGkDPD6dx8rO44a8twze7tEHGTAIinWkiawNf/7r/g4P4jqE01oelBz0i1IijEUKkPlfnQWQIPbXgqQrkQoj7Vwo++/xND6kMtqjBs4fZ37IHyG6LVzfjqNEmN1z9NkBiJ8E63GL4ydmIKb7z6OlQWyVcjgRbiTyUYH5WBAuK0hmJZY3R5Bcs2UNc6hVcqw9MlfP2rj+GlF/ZhsLIcpaAMnTEgJ4ZCCxoRdJRRNAVeliFuJfjxj56Br5l9k55dIIkTLFsxiOnpSVkg2pVA4bjRdhNSMzg4iBPHj2Pt2rUyZrVaDZVKxUx0ZMJp9fXteNttp7sLdMfayTHnvvnwTRYD/oeGBrB7zy5svGZYXhkY/s1yvc9nt47u77tbl63TbR0CDoGFiYAj4wtzXJxVDoFzRqDzJ1nWCmbQ5QAYBO64Zw/8coRUU7OacnckhUxfTkUQ86fcbvv/sJ9z04ugIAkJk/EwcJphDbHoe1vDE1GjAMrlCpT2xVtLsmMITwdZW/wCtr0kifWm2HndVQiGyCFTsH3yyONHppBGGpUiPcOUzWYYCRfl5mNFcixcM0PoeUKWm9UWXt77Kg7tnxC70gxotoBSBdh6lcmgGfgB4oRp7RMhvUmSmtAbht9ICI7CC8+9irhtOh2IdEoMRbzkKdHwfS4tStGK6rjjrlsktIbhT1x4Oj4xhX3790HpBFFSQ6JrSPxpJMEkIn8CUTCFOKgi8qbQUuNIvRqOHT8msoyUhiT39IY8bNy0FsVSEQOUdJGPxY1vDrR8KX/YaDRx9MgR7Np1jWTrZGy5IZ/5bZ33G/bYclZbn932XL8suzPsUF0iLr9JmYzR9gTT0XE8/PmPCN4IqE/Pb+/9dv9028vSQdeoQ8AhcB4IuAWc5wGWK+oQWEgIyN9j4Rr0oOWWKaDdaiIslHDNncux/cZleP6JowjUoFHMSDL4yjde4PwVt/EA8w85K+F2KX3IYHPWRzKuqVVtYo3pcSWBLYTAqpWrUCwex9RkE/A9RthDUU6FvkqL7XnCYu8Tb6eQK+phJ1h3VQVtTc9xhiAs4sT+BK++eFAIcaA9MzaimU2/NccjFR1z+ptVFpi5BRQGygGSZBJvv3UI67aNGA3xdoTyaIBisYBCkEo8OGPFtc6gtS+k1rwQ0OB/7Nre599CFpeh5blgmnrrPjfPQr0ewQuKiFQLV+1YDj0CZHWNk4eOod5sYe3GYazbcA+QMFwKIrfHtwzEV57RHEe+hdCBhhdkYJi8zIMYol8ANm/aIDOgBmcTEkvDMTMfxvKzIyFXffKTZThy5BBWr14tcePV6SqCIJB4cw4W1z70f2Y+0zOv95e+dEe5XcYBLs1yvOM4hqd9+PBQbU1h1+0rsO76IlLq4hd9pM1Exo1lZSw7Bs/sZ+eC23EIOAQWOAKOjC/wAXLmOQTOBwH+OW62mEjFR7vdxnsfuBsvP/tlBLGCjhWqkzX4hUHr+jVV86aFwk/Op7PnUlb6lRNyYYYJxsdOCuElcfQ9H1EMCQVg5seh0kpkkfUKn0sD51qGHm7joU81eWss4Sj0dtem28hiLrLUEk5iyDcHxXhLuUSv66lXQsZ5zK4x2dD4yUnm8wH8DF6gZFEkFzgCNfGu08JemibJipgoCpl4248dnQAUywNJmsiEodsrvjz1oD1qpdMjC1mwqX0fwyODGBoZwcOf+nXR87AcWNrqeZ7EA05baTPP58mSJEiFPDuivngFKSvnUMkbHPtQmooYatP7YRz5a6+9hu3bt+Pw4SPiMRcS3jGit8d546xgxuneOi/Xvp1UG/MyWZzK3y50glZaxUce+RSaXh0DpbJJNNW5wXaGW3ltcmoXZMBsOV7uGZhTS7szDgGHwGVCwIWpXCbgXbMOgXlDQCtZnEeP6PU3bse1e65GlNYhyVYCHyrPzNn5w9z5+9z7R3verLuMFbOjHo4cGhMSS/mZIPSRpSnWb1iF4ZGSSAUaTmhBmQtM6MFkPSSU3fpkTwETE+NIk8TIEOZqLrYUt71fgkf7LB+j7/zI4WMylJxcsD9RG6gMVKjb0nP36WE/dvx4ns3VPDdc2NnbZmdfwiOAhNLWaSITPt83E4gopkfXZAWlyAnLdL48zr9ZbhLt50REIKGiTHkESeYjTu3EgxdtsiY7FqYP9BzT875ixQocPXoU6zesR602jTAMJLNph5hakE7f9ct8haPX3zeObapTpH6C2G/gtntuxC137xBFHE5qGG4kGUc5kZIJWT460lc7Uj3d6js/y/Weom7XIeAQuHwIODJ++bB3LTsE5gWBUqkk5CoIfFko+P4P3otM1VGtTWBwkGkWSQAY8kAOJwHKuR08P9t3Xsy8NJWSf7BPnZT1PsZPNnK+piStuO9lWLt2Oa7etRlp1sztsv9rnAsCY+ro4J1TZIYH8UqtSg82w0gY5iEGW5O7w5FbRaJsvcSyzYCxcSb5MeoodAzT089ngJ1k5krzsePKKA9ODuiXVhJWwthxu2/aZ9nux/M98ZiLd5zTGaq3BIHIQCZRCk9phL6Cr0xYM6NcGBFECT75toCMX0ryRRJxYkg4iXmSyzsWSPAZosN2cy9v/pwaELr2FIslNJsNefNDb/iBA2/hhhtvQKEQIpaVsQZvLWw1x7N7+wLZ6xJxQ8j5/kMjVQqT9SkgTNBQk/j133wA9TzpaKvVlrj/zk/0gnpisLmgW91NDgGHwLwh4MJU5g1aV7FD4PIgYAldkmWgvN32q1di5zWb8OZLx9Go1xCAWSZJAayn1hBPIUL9PCynjZenH3PTar4ak4RT3I4B3njlCMaOAMu2kZBm8L0UIysCrFk3iNdfTGQhJeOf+SFdnhM6ZythaEwIyHpJ1k8CGzCW20N1ug5fl/OYZ7o9jS75bAbQQyq68FpjdGRUSCxDTBheXV6lMTY2hiwlcU9EIcYQWhMGknExqPKQMaV6lR5WTswU0pR0kP3mBM2iz+yeARpxQyYLzA8kRTyFtJViYqyOJx5/FZXCctGu57Nnnz+pQeoxEwFONpiEKEtSsc3gq1CbbmBqvA2NEJWBQbSaU6Zx5YHa7Kyi97HkBIM22Q8XqR46eAhr1qxFkh5Es9FEFLMM3xI04Xt5rLm9YQFsbX+Iu/lwbYJGihiJTtFUNWy9ZjX23L4CcWCikGaazcW9HKhujLyta2ZJd+wQcAgsdAQcGV/oI+TscwhcDAIqhRdo/MYnH8Rf/I9/JQQFedKQbtgEyRcXvvVwsE6b/APPb4edda4snh0ScXpblUj1eaqCvc+9iXtWb0UzHYNX8BEUh3Hzbbvx40d/CaUqojQiGW8usveCniT76RLK2hTgj2rJsEkutnHjJkn1HoRD0JQomUE+Z+JMT3WxUJBkONV6HWvWrJFYYstYqRseRREo11j0mPgpgkqop0OZQC6wTGVNK8k3ZQVJCEmgDZUz/9rxFiJM+PLxb9aYpMgQcnrKA7+Ib3/zMbSmKb9I93yKJDVSimK3PDaCgsSdM+mQ8ej3PE+ZwmB5FK1GBJ8aiFKRnRN0PcgzcbDHfMNQDIudGHKGrlCHnBMR6823ZRfmlhMg4xmnUkppsIxaehSf+8NPQVPNsNEfL78w++Cscgg4BC4GAeP+uZga3L0OAYfAgkWAy/T0ILBp6zLcc+/dJtEL9chpsWFPC9b2uTHMEEETf8zZBjUqSnj8sZ+j1WgjDD34IcloC9uvXoubbr0OJLug51gmJ4Y0SohJHj1xfvucANDzTMwN0R0fG5eFo4x9pprLytUehoaH4TMcJI7NsHB+JCoiZpgsRaYXlPrTlCikN31kdBTbd2zP5xpGM31qqolXXnkFI6MjQtipNCJfP0Bj1PKIAAAgAElEQVTg0xOvoQMf9Cgb2UITujIr3ipDksbQHtVPEoxPtIxGeppBeZ6owWzZsANeWkZBD8JLKwiyCgpq0Hz1EAryHURR2f0hhNp8qfLDb9zWqJQG4VO2UdY0EHc7drNa1jlpQlOAlStXSgz5mrVr0GbgPIVaCmZhaqfwAtkxTxUnOXw+7DPiSRImSo/edNsNuOamUVTrlOI0b0EWiOnODIeAQ2AeEHBkfB5AdVU6BC43AvaPPZld2miJyvi73ncXdl23BZmORKeYYSwkg/KZ1St+uXsxV+1bUme2ng7xyov78dabE0ijAajCEJrtFlpJGx/5jQcwMOoBfgPwYmQi89dLDPvrMoSRsd58s8CwF+Pl7BBJCY2ha9nEaDNIvcoslYwPJviMRvGBTdvWiP55s10XKUaGELGlLKbWOJl5XgfrUT7GJ8aRZG1s2bYea9YuN2qAMGFJYyeqiNoatXpL3oQwfKX7NS8JWC/TybNqycR5CtQinCeTtiSNhIynqcJ0tYEooiSkIeMkz6VigKhZFyn3Zq0JD2H+5cSH3wBeVoDOmFmUSYFK0FkROgvhqRAaAVrNSLJp1uvVPM6dvT+3T6FYRL1RlzcA9ITv3/8Wbr75ZplUxXHvIlaDt5kTcUx7v+fW1lyWkp9e53dnZC/521y+qoLf/8NPyYJYkXifOfsTI+Tu7juUTrgLu8VKe759Rtvnt++kO3AIOAQuMwKOjF/mAXDNOwTOhoCNwz3frSz2Y2KZLIVfAsqjMbbtWoZY16BCIKWHXPuyaGwpvgi3fGQmvgzhYKjK17/0c0yd8JHU6S0eEA3sgVGFT37mvdh540rUohOIszZSyVxqyKnB1ExiKMWXkiSLPrcvCxCLpUF4XgjfL8r5mGLaGWOfc6KeBfj2Nx5H0gAGSgMIS5AEQHfetwetbAIDwwG0l0IzCUxqwknEq55qZGko3yjKRMmkUFbYtG0VBtbQkd9GWAjQrgKPfvvniJtFaL+AgeHBboIY0S43cepUQ2E4CT3ep35MX82EgnzPENoMAR774c9QLnuygFL0yz3g/vtvQhjU0W5PYnRkUMJDTAbRBMhEekVi1FUWIol8ZDEzewa53zuF0tRbp3wix8FOWiwZzwlzDyFlwpve/zipYHy4hNIooDJYwVsHDmDnrl1CyFOkCMJAkl2llHNh1XbOxEWep3w1Mw3J1ygPnYrQ3J3J0GhWofwU2o+ggzpuvWMrRkcBXwNpnRM3E0LGMDJ+u+FlxgqZqzFWn0o0/OZx+3bbmRjmiM+d7a4mh4BDYK4QcGR8rpB09TgEFiACpDLtOEaz3cDAigDvfuAO7L5pKxrRJDIvgw5CIePiWLP8ZwH2Yy5NYpy0pwo4fqSJp588JuogXMRIphOUgBvuXo9737MHt9y5E5GqwQs1PEogUjJScTFdJlvZz1JE9DBrIM4iTEydRL09jUY0hQR1eEy8Q6e2IsGl19JDFhUwfhSYGm9IevjJiWncdvcu3HLHbmS6gVQ10YrrkjHVKq7I/eLsTBEWPQwuK2LVhmG8+/23I23mU6kMOHm0hbRVQsEfRqsVIYrbeTZPk3lVQud7/q9PAmwWAp4eYUPqlIT3HNh/AocP1qFUIPdpP8GeO9Zj93VbEac11Ln4MpdAlLAcpcUDz9CTOI4wPjEGzwda7SqipIqwqKC0WYhoMsRyQaIANsNznZNy683uIecS19M5Nv3gpOn1118XQj44NCREnF5zSXAlZa1TWUZlls7zx5CP2SxX5+oUWx8cGZK3MDGq2Lh1FL/zzz6EwigQ1xKUy2XjyD/vBo39joifN3DuBofAZUGg53/Ll6V916hDwCEwjwhoz0dlcBAhpe50hOIw8I5334DyKNBOWxI7LJ7BnPrMoykLompSFCp6MO567OQYfvHEU3jrRePADemV1RHSpIkb7tyG33jkA9h+7TrUomlM1KbQTiPjJafHkuE/zOzJ9ZZBiljVgbCF8ohGONDGjt2rccc9V+OGW69CquldT4XAU6/k6V89j699+dsYCEui3FKulBCMAh/7xIew45qN8IoJMj8C/0PgibALFTZS3ULi1TFWO4hN21fg9ndch+HVEt4ORcWQGPjx95/DM0++goiJRKmSojPR3w7CEKF8jVeYhFfUWE4zAeuezuOZ0xA6G8CBN8fw7FNvIvRCKJXCLxgMPv3Zh3H1tdug/ASp4nSFRNZHmnnQvocYLaigjaFlPmI1gQhjKA0l2Lp9jdE3JMkmSeand2Zoz53H08NY+FKxCPb57bffxpbNm1Gr1UCpz04Wz/Oob76LUiaylTSBoIqPffK98myRgfsFD62GwXK+bXD1OwQcApcXAe/P//zP/9XlNcG17hBwCMwXAgxLrtaa8AuUz4sxPT2JtWvW4sCBQzhxbBJaFYy6Rk6ARGqty8Rys0iSePKUC/Nl9rzUKz3QZgEk47ULxQKOHz+Gsckqdl2zFSV6I1sMyYgkSU9QKODmW27AipVrUWtWUWuNi8dbBREyryXfVDdQHFSYqh9FeVjjmus2490fvAsf++Q9uPnWbfCCAp78xfNMfC8ckySenvbBwQpGRpZhzZoBUbshqR8cCbDn2uvw9qG3MD51EqlOkHlUQYmQ6RZSr4bMr+LGW3fg7vuux93v3AE1wuSZSrJivrm3hZ/84Hkc3HcS5bCCKGoIJZZ1oJopgFp49/vvRnmYfJdhKtT89vHtr/wUXkJdcjvGZtvVMaFLnuEjDC3RsuB1957t0LoFjxOSdoDigMLua6/D/gP7cHzsGOAxW2eKTMdgOE29PY7SILB1xxrsuGYtHvnMR/DIp+/HDTddjW9/6wlkojFuYrop6Nh91owVPHNuHyX641ywKssjlcbkxCR27dopCitUmDFSgL019rbHVmYc83XCPH2IUZS10cY0dl2/Fp/6Zx+AChIon1KTSpIgaU74zjopsf2ZYfs82e2qdQg4BOYWASdtOLd4utocAgsGAVII/rEPy6H8wSepKw0VoeMIn/z0gxg/+XfY/8oYfEUixngFmm5kDvv++AtRz7slf/Pnj5zMF3g0W6xmTC0jUuiPjSJo5eOXP3lGvOFf+OMHUBgIocNQ0kO2G3VUVlRw53s24x3v24yJsQhv7X8L+/bvt7XJdufOHVi1agVWra6I+ZJZno0lwHjjACKvDsZLE2PyukCX8OyvXoHvK2xc/xCGl7GaSFzclWUJ/uBPP4l9bx7GEz97BvvfPIQwKGNiYgwrVi7D7j07cMedN2FwlDbmZjSB+jjwza8+ijdfOYiBYgU6y+BzQWlqZAu5UlfIcWfoZCAFFFHzEET60Rf+JwtTuZyUoSNsT+PV5w7gP/7vX8Eff/FjSDMS/hbUQAEja4E//pcPS4bTJ372NN54/SACnx70CBs2XIWdO7dhw8a1GBkekJBsDAPVV2OZbKQwuuF8YyGhNP2mnNcRFWKsmgorozrOocOHsG79Orx94CCq0zWUKxUh5z5jZi7Thz8rIeNpHRu2Lsc//2++gFbaRuCnEtJDTBSVfs5KxG0H8jG1h27rEHAILBoELt//iRYNRM5Qh8DiQ0B4k/yxJwmjzBsjcrkCjJwwxrJNJdxy17U4cuhxxNP0BntGZ5zkyxJyQ18XX+dPYzG7TlzIbUj6eEAvbMkv4amfPYe/rI/jtz7za1i9cRBhmXECHmKdIBj0uItVKwOs2HAVbrhra96CoCz7rDuBSdMeKGanTKUdFQaSxEVTlUUUUTTajRRZEuDFZ/bhb/6Pr+F3fu8jqKwMKAAu8evwEmzcuRJXXf9BJC1jtNUH5+JOz8vQihqiQhL4PqrjKf7Tf/gynn7yAFS7hKLHvqUIPMZ1Z1B5cph+WCwa/WftkeV/fBpoN3m/4uwiy9CYivDqCwfx93/7GD78kftkcTAiTnJaCEeL2DS4HBu2vke86JLcMzUyjcoz8fMick5d7Spw6MiR06i5WEsufsuYeEocvvnG69i67SocO3pCQpQqlTJqtTp8z3jRTUvEhR+O7Vx8rKClras/Dp1vKIJKhrvedSNGNmvELSBRModCStUjiSoy7wpsDW7rEHAILD0EHBlfemPqeuQQ6EGAGRibhlqkJaQUnQsV0ijD/e+/Ac/86kXse36yQz2Eo+aEXIhYrlvRdZzOFUnpMfES7lqqZckm1b8ZusDMj8//ah++Gv4QW3atwz3vuRkr1hbNQs00QjONgLrR8AgKQa6FbfS5KZ+XUjUl5duFEH7GdPEajWng7YM1Cg5KHDBpGDNfUlml6A+gOV3FU0+8ijT6Ot7/4L3Yes0ypEGG2GuiHbdRyAZBsk0uzaiLQOQ1FJqNNorlEhrjwJOPv4Kf/+SXePbJlzE8sBH1yRaUagkRRkaNbU6y4lyBIwdaVDmo0JFPzs6Cv2DFcBTVktQ0AQJMn2zia196DMePTuHzv/dhaFmIGSJp1GRBprxdSAMkVH7hwkmCksXSF6WL4v2OEuA73zUhKpq65UzKlAeJnMWk87rMRaxB4GH5iuUSlrRq1WpMTIyjUa+DhJxp5js/gPOq+eyFzfNmCbkh4jxnf0UM49m8fSU+9NF7wUfMr4RoN03cPUOgpCTfqkiY0NnbcyUcAg6BxYmAixlfnOPmrHYInB0BYTYkUbHh0lkoJK1Wm5bFfEGgsW7tFjz+gyeBlPPyXPc6T09jiYSVjDt7g4ujRB/pE4wyScKjEKI61cALz7+M/fvexolj09iwdgOyOIPONAJdhI8QsqIypnyKRhp7YL5ylQTQiQ8vUTi0P8Gj33oaP/ynp/HYo09Aq6JJ/EN1ceXBk/ARrs30USyUcfTwSfzql89icrKO5ctWY3R4AEhK0KmGr4CACi70kEdU21NImz72vTKB//L1x/HVL30LY8eqSJoe4hZdqvT68x0IfdkcU24pH5jKu5H3ve8ulIYoeKKhYg+6DXzrq7+ATmekjO/wdGHuhsyT1DM8vZXC9wsolwdx+OBRPP/Ca2g3U6xbsw5BJYQqF4C2jyzSJgMmSX/CMBcfWeLj4FuT+OmP9uKbX/8pXnvpIFTbM/ZQwm/GI2Tp+czzM4r1HfbHhHMBa4hmo2nUX5TC9HQVmzdvFoWVanW6OymRZ6GvKnMgMePnaoGl2eYlFCvovzNDnMXMKSUhKolfxx/9y9/Ghh1l1Ns1RFEbip56yjdqTqK45NfPx3MW29wph4BDYEkgoJrNZvf/HkuiS64TDgGHABGQH7ZoSzMMhSeMhjM1oPniW6UevNjH1/6vp/DjR5/G5Ng0sihDKSwJOSKN40eE8/oZRX5lcW4MWTO2EyPRrTbuX3kPQAWSTIgnJQtb2LxlBdauXY6rrroKa9etE6WOTs8zH4cOjuPAW0ew94WXcODAQWRprkAiiiVapBCNvqEPLarRDNsweiMiA8hWmWWRCzZVjOtu2I01a1dj+/YdWLOmDM8jAQbefvs43nj9dbzxxj6MjU1gfGIaSpLqeDJZEC1ziQThIlVDfmknl4CKfKBiNkcSaiZ9IjnnMxDASzhZMDHbLG/9uKaPlqFyokZlj1yfXnBLkOk2gmKCVlzFDTfsAZVhdu3ciYHKIEZGRjEwAIxPpDh69AjefHMfjh89jhdfeBkq84Wc02adUknbPm1iQAdeUtlTKXrP5Vl2RRqx5zyf9+7HYJMkGVauXIHDhw+jWq1LNlOWSRKG4uRvDeQmTnB4/7n+AOSJ6pTu3iVTWsGdqjxMJqV9hY8+8j489Jlb4Q0kSCmHI6H52sSJU99dwozk19rtgttzCDgElhwCjowvuSF1HXII9CMgVMSyAuP8lgI8peMCmOXvf/mzr+CVvfvgZUWoiOSO4RSmnr77+6telEczyXgHDO7kfbZwyVsFj17VqNNX8axrEjYm4vGQxiGShPvmZmpZe1oLwSMRpifUXCHhVDkR79K7vMmcwJlwDRpi9L0ZI87QogBpmkqyHWpoM+FO5uWkkS8/JLTImMgIb+tRZj1Mr868Np1o5d4FudJqp7fGvg6VNPV1ybl5eKivbt+WcBLhBQmqtSkMVAbE61wsFMQ+jzaCiZFMX0ROkXbm9loE+Jz1WtABWnZ45fRX+8uao97x5Rn7HHfLKhQKRRw/fhzbtm3D0SPHJHaciZCosmPIfN4mB8d+uxWcwSZTeKbVclbkMBO00joqwwVs3LYa/8O/+W1kA3zJ0pS3CKacCX+S5s6ITZ9B7sAh4BBYxAj0uCMWcS+c6Q4Bh8BpERBiwD/qM/6wyx9+nSBpAx//1Hux8/otSBS1tLXEltN/LkTs/LjQae1YiBc6XTMcSkzsnCMPSxWiloc4KiCJi8iSEtK4iKRdQNxiTDRjug35Fh3rMAR1rkkISe4Y701vuHjESUTzMZA28ja53znOQeL9JOFceMh6ozhCi+5xRoFrT+KwqSOuZRHqzAV+tjMmmQ6JOD8cy/MdT9ZEo83bA8NLu+zULFL1VYhAFRG1EpQLZQmrYKJLxra3m20gMWE+JOGZZCTt9NgYNt//Chu3mGSIowhpGotnnNKW9JB7npKJTrlMZaGZn+69FoGZJfqPbf/M1uJu1g4o+EzatCLEF/7kN6HL5s2FJCRiOE8+eZDnZMbvtb8Nd+QQcAgsJQQcGV9Ko+n64hA4TwQYl6oKMdZsHsDum7YhQh0JE9+IF4+pwnNCfp71Lqbi/dSJlnfPSMr7hN5vhpgUoVAEF0amaYg0pbfaByMbmFreerJnZrQ0gRZdX3WHG1qQLNfLj6MoQhwbZRbW2Wy2UJ2uChn3/RCeZ2KIxRve4xG31ZmtrZTbi/gY0ZlTKhCEZIKnkMacIATIYoWByjBFYWTyUSqUUSqW4etQPPdxOwGzn8rqzVNqnOcTlt0CKJYKaNQbaLWa8gbj5NhJrF+/Dhs3bsR0dbrHFd6DoX0kOmb2XLOvU+SaLWgmPpaIS7ZWJn7ib8tv4sGPvAsbdhTB1b7at29DOpW7HYeAQ+AKQ8CFqVxhA+666xCwCAhNI0GIW/CyAgpeCX/9Hx7F9//xSYQYRtwEikERKuUC0IskdbbRBbCdGcbQbxLJFD92a+K7e4+7+5aQ5e7MHKPe+g3G/f5UEuzTfUjkzf3dMr31zXbfzPqEd85WMD8nPetUb8mjvSH3nueHooVtL/VuZUZhTnBR6cwJSLeoCVHpHpsQjN4+zbS3izzv6rent57T7ffWbWvojICE6PS2wLcaHqIoxsjoCCYnpjA2NoYgKIj8JZV2jBZ5zz0d7KwFMzE053mWRRvttmS7HRgtAkEDu25cj//u33zWFCobvXuWk28e0mNrdluHgEPgykDAecavjHF2vXQInIpAzi+8MIBX0Ki3Yzz40fux8/oNaGMKxcECWrHROu6/eXby0V9msR5ZpmXp0bn0w95zLmXPXMbEK5+5zIK4ajLWyGJHkTGXBZj8czLb1z4vZntOfbTwzx20p4WNIUDFUhET4xMYGKhg5cqViKIWavUaSqVZwlZ6u9OptWuovSxdUEBYKkKHCmPVw1izeRCf+69+U+5qp23ErZYh4XwD4Yh4B0234xC40hBwZPxKG3HXX4dADwKMY9WqjCwLUG2OY/lGDw994p24jqnc+Ra9YNK48xbzpp+sIf/2eI97qlwCu4y1tt9EVESoJNL9UpGEX3vOlrUMcglAcF5doAQIv/bZ6DnuCfkxbxQsVeV2YX2SJBYPeblcRqUyAN9nxtQuyZ7VWumGLcPY/f4/qbwSZwmKAwF2XbcRv/fHD2P9jhJqrSaYYbMd2UWuJsxp1jbcSYeAQ2DJI9D/f44l313XQYeAQ6CDgI35TRSSNENloIgkjrH16jXYsXs9Guk42llNilOCrstLrPezU9MS3LHE+ny3s0DRs2izw93OVK1BvBMq00tfZ9s3LZorPZHp+f2z3dF7bqa91rDueZa+qA+r7P1IE+do70U3bhvO+zxLfb4foFqtojIwgGargWqtihUrlmPFypVoR2bRbB5EIuE4/SE58iPqSrZIGIxtkxKFlFiPEekmbrh9F666ZiUmpyZQHgqgfcAP/Fxtxiy2te10t7Yut3UIOASWMgIuA+dSHl3XN4fAGRAgLxFelFFzGvB8H1EaIVEK7/rAnTg5XsUP/uGXUFQPaSkEBR+VgQqqVZOjnVrVpoZZGE5Pu2f1LvaUvRS7Z7dHUOkxJSdyPWf6d1meH1NuZv1y1RbpUOz8ltk2fYSuR+ZutrJSX799Zx4NM2JnfqnRNZZ18ai3TlFk6bElo3TK6T6cwfXf3D3M+9l7mdVI6zNPnq7+Wc7Pin9fuW7/2FqapEKKm62mHUKMT45jzZo1aLfbmJqcRBgwmynkuL9DBIcyMUZOkjKOfKtCnfdAF+CHQA1V7Ll1Bx7+7PvRiBOUBkuI0yZXvRpkqSUutffa1WvwRYDRW43bdwg4BBYsAm4B54IdGmeYQ+BSIMAFcvkLMmW0tNOYEnwFpJHCf/zfvo4XH38bQVSBH4aI4phZX0AVNiZ8MeEcJAunJwwzydGl6NXFtTGTFJ2+b6YdW/5s5S7UKtZv25hZx5mxn1n6Yo+NJb1t5rada9d73hJcrC3zc79CHCeiNU4pyS2bt2Ds5BiOHzsm50ulMuKImTHzDsuElGScvxlmMaX6UCrSiVmSou01sPHmtfhXf/E5FEsM+wIStEyYE0dV4MtJ+QIZ4/nB1dXqEHAInAmB/K/wmYq4aw4Bh8DSRYBeOaZPTzox4ZK0xRPOjd/69K9h101r4Q220IzbaJF/Uz2DGSPlPnrHl9rHkk27PVv/zrXc2epZLNdzAi7kcYbne7F04Qx2Uo2F8eLUeD98+BAq5QoGBgbl3Gy3ye+AGU3zDKUJs4v6HvzBFtZfXcaf/refw9AoUG9FqDf5VskDsgBZGshWjoXc5wR/tkbcOYeAQ2BJI+DI+JIeXtc5h8DZECCx6oab0IsdxW14PlAsAys3aLz7w7dg87UrEHltqFAjpTcwD1HpxpGfrR13/eIQsIR/5vbiar2Quw1ltIQ8d9rbw7NsFwPdrNfr4gXnbyEIQkxNT2LFihVYtWqVqKwYpzi1we0Li7xXoiPODJstqFKGwbUeHv78h7B+B9COgVLFZFJlSEuW2kWu1it+ISPh7nEIOASWCgKOjC+VkXT9cAicNwK9zIk3mxTv9AxmaCNVNbTRxO47NuPGe6+GN9SGLsfI/BgJ/xMOr4XL98hOn7cV7oazIUCyd6bv2e6fu+s57TyjNWez1NYxd1bNbU2DA4OSDMj3PMmiyt9DvV7F8hXLEVAG1NOykJPe8zazopJc8z2RyhChiWAwQ0OP44O/cR/ufP9OtKMI0E0ozdh66q7T3hwF+eHYybBcmNvOuNocAg6BRYGAI+OLYpickQ6BS4GApVEkDJTuayHTdVSTSdx8z2488LF7kRWqaMZVxEksaeBN/Lj738ilGJ2F0oZ9Si50u1D6ca52pGkspPzll17C9dddn0seGgJdLlfgaWZnpSpKisyLMdU+god+892474E7MVGfNmsrKIXZeQOVT4JFHpPrNCwZP1eLXDmHgENgqSHg/ooutRF1/XEInDMCOZ0S79wMr5xiJkiS8TbDW9FEHR/86A24/Z6rEZYgeswk4p7iojXGkFsd8nNu3BV0CCx4BDytEQY+fE9j+egyvPrKq9iz5zp53pvtlixozmIlYSdJBoQVjfveez1+67P3YmAFoAqelO2+2WCXGWcfA7oBKCq4nEGNZsEj5Ax0CDgE5gIBR8bnAkVXh0NgqSEgzjsuNFNcr4lCUSFRER757Pux64ZNKI4oJH6M1M+MBgQFJbI8i2BKz7r19uVewKWGj+vPEkWARLk7MU2SCDFJd7uFQhCiEBTx/HN7cdttd6JYLsMrhIg1EOkIadDElp2r8MU/ewRewfi7fc+H+Slw4pt/WH++5uL0Kjm2sNs6BBwCVwICTtrwShhl10eHwGkRsGSZZMHMzVWHLDDDZCav3+nZU5RvS0tI6j7+7V9+CS88fQBFDEFXFfzUA3SGTIgMF3iSpFtS0xvQcFpD3AWHwMJBgM86fxFk0lkMJTriBWTwobwAXH85ODqAva/shQ4DqKCFHbuX47//n38XugKkfKMEpvHgQk+GovDX4OWx4pyo8jdiPeJ59tLT9t7+fk5bwF1wCDgEFjkCzjO+yAfQme8QuDgETvOHXtKbh1BpCJ165NkMRgFUBK8E/NEXP4lrb92CWjKG1Itk8VpCheWMXyBNKURO8mEJyMVZ6e52CFxaBLgk0yTj0YoLm/k7MZ84jdFOWqi3p7F+2yo0MI7t16/F//S//i7CATL4BpSK5TejSeL5W+JkVian9o0R+TnfPJm3T7Zut3UIOASuTAScZ/zKHHfXa4fAaRHoEg/jHczIroWIm0yDvldA1AaiJvCX//o/4+grNSQ1egHpPTfkQ8ODEk87veVcDEoS4j4OgUWCQGbeEynJjslnl5PLAKlSaCZteEUFBG0sXzeISFXxL/7sD7BsA38mMaKkbiahacm8bVJt0SCXOnIf+fmhcJoJ8/lV4ko7BBwCCxgB5xlfwIPjTHMIXD4ErCeQW6b69qAyXwh2vVaHYkiK18bv/8mnseumLdADMWKvhURTxo3cha/effO1Mm6XrzOuZYfAhSOgNeI0RZTFSHWMVjqNLKgjC6qojCT45//isxhdDbSbNbSi6Z6YcxsCZk4Zz7gN3bpwc9ydDgGHwNJDwJHxpTemrkcOgTlAwJIGxryaBCdKaUkTXigGgGqjUEowtELjtz7/INbvHEXbn0QSNpF4kaQEN6/mnVdvDgbDVXGpEaAjnHNKao2LhrhCBC5YjoFCG/XkODbtGMF//cXfxshKH3FWR8aJKO/Kw1LkbVAnLjyv8FL3w7XnEHAILAoEHBlfFMPkjHQIXA4ESEe40CwyX9FDzu2QLJwRMq+B4miKP/jiI9h921ZEagqJssQkEYkV4xG8HCkW16YAABq7SURBVPa7Nh0CF4hAPhdtxww7SWWRplfw0YjryPwWrr1xK/7ki59HeQjQQSKLnJXyoXUhT3fPSSjDW7hIMw/Rsi+bLtAkd5tDwCGwdBFwMeNLd2xdzxwCF4RAN2YcshCNWsjCIxgDmwVGwpAkQ7WR6gw6KKHVBuJpD//uL/4Tjrw6iWjSRxgPQmWevNrPqFueExxqkptPfsKFsVhA3PayIND/HHaeU1LpNEWcAX7BhwoAFFpYv20Af/LFT6M4yNhxoNXgm6MAZo2nlS0kAWe9PO7Wn585z17yB9P50Zznva64Q8AhsBgQcJ7xxTBKzkaHwGVCwNIIQyKMXKE5R3Jg/vfRimsIwwxBKcYX/ugz2H3LdoRDCi2vgdiLzet+YeAkJvQUMhshv7b2y9Q516xDoIMAn8X8uZRnlEoqCtrz4RUC1JMGUIixZtMo/uRPPy0eca+oMTU1YdZHKI0M9mt0WPjIy7dLyzutnfuOI+LnjpUr6RBYvAg4z/jiHTtnuUPgEiCQQWlGzZJRUKaQBNx66RKk8h+T/NAB6EEnBbRqwP/zn7+NXz3xGtAIMZCVoKIECZpI0c5f2ytkTO0pWsy2vkvQHdeEQ+AUBAwRt3rgaQIEfgntBuCXy5hSDSRBEzfdug2/9/sPojjIsPCuShBlPI1yECs2E8yO3n7fhPNCnvMLueeUDroTDgGHwAJHgHpk7uMQcAg4BE6DAN17fh+lsIRDiHkuAZeRjSNFpmN4JR+f/sIHUB4Zxj/9/Y9QTAFfe2CZTJKpWELviMZpQHenLzkCfBb5XGbwAx+NRgPl0hBUMUWtdgLveeAe/M7n7oWmQJDk6ImRSVyKFtnODEknGsWcn9kB1u+e95mouGOHgEPAIOA84+5JcAg4BM6IQG8MuSnYJRWGhJNk2xhZhahNT2ERcRv4wbd+gW/89XfQnEwxUB5FMSwjiTMhLkoWh5L+dOs7oyHuokNgHhCQBcYUQWGYiQKimEpBAerNSXiVBO/66N144KP3oFBkmRh+0J9d1jz73dBwicjq2Gk85Y6IdwBxOw4Bh8AsCDgyPgso7pRDwCHQReBUMm6vMdSEZKNLxlnW88JOOAtDbZ/43it47DtP4vCBCcQNDT8rQmV8sW/ixoWuOD5uQXXbS4mAPL4plKKEoQ+Gl6gwhV9MUY9O4OHPPoR3fPBayazJ+WY7auXZOHmjeWgNGTcJsmi6PM+Xsg+uLYeAQ2DRI+DI+KIfQtcBh8D8InB6Mm5ohyHktMGQEymvUsk6qNIQXhzgtb2T+NLf/AP2vXwUWTNE2a8gbUcIAkbKGTLf71Gc3z652h0CFDmRtQ5Ki2pKUCyilTaBYgvbd2/A+x68C7tvXoXEj5DptqyJ6GiIC3y5ZGEHytlnlN3fR6eg23EIOAQcAn0IGDmEvlPuwCHgEHAInCMCZDSS6p7EnMG0+SJPSXySSSIUrwys3jaE3/nDT+C6W7ci86qo1scktMXTfu5dP8f2XDGHwBwiwImj7wVot9uYqp7AVOMwtu5aiUd+9yFsunYlmkxl35fMZ8YiZtHbd77wORwSV5VD4IpEwHnGr8hhd512CJw7Aqf3jLMOxs/GuYYbw1M8kYQTJ7ky6cOnm1WEfhEVPYB4Evjy//ld/OAffoFVg1swOVaHFyoJD7AWdWSZ8xPOY26Rcdu5RoDhUirRGBgp4vj0Ptz+rj34zB/+GqaSaYRDGn6ooRMFnXLlJr/2BVAK6FwZSCags3vFaa/zjM/1qLn6HAJLDwFHxpfemLoeOQTmFIFzIuNk3ynJuG+CVYSbpEh1hCxIoCn+FnvwohCtceCnjz6Lb/zto4jqJlaXXnVxsot/XedJC82LO9L9PAJmTvvlKrsyEOguEE6RZQmU7iXOKcKCQiudwoMffyce+NjtaHkR0rANXVKo1euoBIPQaZCnuXdk/Mp4alwvHQKXFgFHxi8t3q41h8CiQ+BsZNyEqRgJRBNTS8LCOHAm+KEec/4an3rMqUYhCNCYTPDaS/vwg3/6OZ75xQF4aRmBp+FlGmk7A1IPSjyRqhMG4zzki+7RuewGGyLOZDyc0EXIECFNI2itkSQJvFKC7Teuxoc++i7sumUj2rUMGRNV6RRZnsZeq1yKU0KvFBSPJTwlkue7P4781C47z/ipmLgzDgGHQD8Cjoz34+GOHAIOgRkInJ2McyUcvY2Mp+WH5Jtk3JBwJSSm+7qe9bF0mqRIWgH+6t9+Fb/86V7oxEPRK0NFPlQaCBk3yVSMbKIj4zm8bnPuCMhDQzJNDXwuxIwQpQ0MDJcxVRvH3e+8Cb/2yH1YuXEISZQI0Y5ikmz7yYX07SGDsISc80Ri9AyljV5ve6ew7NjfQf9Zd+QQcAg4BLoIODLexcLtOQQcArMgcGYyzhtsIK0lJIaEWxIyk4zzDk9raO1Ba4W0Afz9l3+I1/Yewr5XjiKp+xIWIPG8JD85C3dkfJbBcafOiABfyni5/GaiM8RehLZXw47rNuLO+2/A/R/YjYmJGgaHioiTBFnKjLP2OWbVM8k4esi4mXSeLYbK/g7OaKi76BBwCFzRCDgyfkUPv+u8Q+DsCJydjM9ehyUhJOPiCc8yaMlaCKRZhiSOkaYZBgYraE8Dh/ZN4v/7m2/g9b2H4CUFWTSnMoar8MtFnrO34846BE6HgMoy+FkiMpuxFyPyW9iyZx0e+d2PY+22EppRG4OlEFGbmvfmw+fWPruzk/HzexC7ddkW3NYh4BBwCPQj4Mh4Px7uyCHgEJiBwIWScVbDgBQmS+mlLyTi9sM9hqt4ykOgA7SqwDf/7nt4/Hu/xOTxCOVgFB4ChF4B2jMLOpvNpr3dbR0CfQhICJQyyahIgjWT+KQR4DeBUhPvevBuPPTwO9H2gdijFn6KoMf5zfuTpEc/XB7cnmM+0/mEsq/hMxw4Mn4GcNwlh4BDQBBwZNw9CA4Bh8AZEThf8tFb2ZnIuFVJkS0JepLBRwjV9nH0QA1f/9J38dJzb6Fd08hiD2EQolAoYCYZ7yX6vW27/SsLATvF4/Ngn9kUbZQGUmzesQqf+PSHUV7mobwskHCVhLL4uf6PDYUiYqeSZ0fGr6wnyfXWIXDpEXBk/NJj7lp0CCwqBCyxuRCjT0/GjcoKFStM+Am1nDVU4iNrKfiZRmM6wS9+/AKe/+VRvLL3AFqtFirliiRosQTcCrXY49lttFctXZu9lDu7OBCwY26t5fMzc2TjKMLQ0BBWrB/Abe/ajvvev1ueM38YiJtMRhVL6Aongkpx4bFQeKnSkXGLrNs6BBwClwoBR8YvFdKuHYfAIkXgYsi4kJyUVMkSYnoerTqKJeTmumZseOohbsTwlY/CgA9EwPg+4K//6jt4/rkX4HshspR1UZfcLO7U3PbUb2DutteFfSZl615xe4sHAUPGu2NJ6Ux+U5EbTBEnETxf4c677sSHPnoHlm8FmmmM8pCPVj2D5/FeE0duYsI9UvLOM+rI+OJ5FpylDoGlgoAj40tlJF0/HAKLDgGSIhIpkmrSdW4ZO2Cotea51JdrWQN4/dUavv+9x/Gznz4FlZGUe/BViIBlJJLAEnC6SvP9jhu1S94WHUxXmMGdIcv7bYfSwlAMQ0xMjGNkZBgx48E1iXiCiepJDIyWsHPPVXj3B+7HtdeNUq7eJM7UiTxHpg4+WPSJ2609a9Yk2HbsVuV64/bYbR0CDgGHwFwj4Mj4XCPq6nMIOATOEQFLkA1xln/zU5ZWi7c88WFpUtIEvv7VJ7DvjcP48Y9/gZXDa+C1QqjEapzbO23dJPl23147R/NcscuCQJeMc6JGE4Q2iy2cpjUadXiej3KphFZcR4QaMj/Cnpuuwebt6/DAr9+FZpohrCj4Id/EJLCE2j4BfCLkqcjrN610nxTbcV6299pzbusQcAg4BOYaAUfG5xpRV59DwCFwwQhYbmRIE+kSveV0b/JrUgBpDxg/BnzlK9/CE489g7A5CtUuIM0zfho3uQmFMfWYcBbWZb4XbJ678ZIhYOky1xTkXmzz7gSFQglxnKHeaCIopYi8E7jr/hvxsU8+hJH1AB+DFhNKZS3JlOl7fkcb3DwPhoh3ybjplG2xt4vmielfwNl73e07BBwCDoG5QMCR8blA0dXhEHAIzBkChjD1UqOcREsIi48wVGg1gCQGThyM8P/++2/gwKvHkKYJOqqJ4lKVwJc87CWXWFRa1DIYB2+J2ZwZ7iq6KASEHHdqsCEk1MUkGTdb0mh6xdtRC57v4Za79uBDn7gHK9YHkgA2qABpDNSb08iyWMr4ugAzjetULl7xXjJu27ZbW9KRcYuE2zoEHALziYAj4/OJrqvbIeAQOG8EDCEyZMzcbCkSqRFjyjUy2XrwEyBIgQN7G/jHb34Hzzy1F+2WRrk4gmY9lRj0UrGIJE7km6YpNLN/5lrRjpCf9/DMyw12hLmlfCVjwodHRxAnsSSIShEhLADNaBpp1sDuPTvwkY9/GBuuGkQ2CCRclEnSnsXQXJyZJkjTGJ72ocAvA526o812pM0eJRZrQ28HHRnvRcPtOwQcAvOFgCPj84Wsq9ch4BA4bwT6CZKlR9zm+0zoIrVyq+AnHgqJj7QBxG3g4IFJfO+7P8XTv3pJvOelYBD1qSZ8FSAIfGjxjKeSaMga16Vo9ozbngsCdnQuFD97v23LLtSs1xvi0S6Vy2hFDWQqQqpa8MMEN996LT74ofux+dphpE1AjwKMGmcCH50xwU93a7TD+QaE6wnsqoOutbY92jHTFmuTI+MWCbd1CDgE5hMBR8bnE11Xt0PAIXDOCAgh6vNUGuJk/u0u4qOD0xwxUVAKP9IIGYoQairWIaoCb+2v4h+/+V3sffoNZNUCvKQAz/M6ZDxJ++OAuxTtnM29ogvOJK/ni5+9327NmBpI6RmPkwT1Rh1hCYjVGPbceBU+/smHsGFLBQiYtpX8OkZLt9EsAkzg43FNQcItoBIRWTFrDjgB6xjYaTEfPzOpm3nWDi5vcws4LRpu6xBwCMwXAo6Mzxeyrl6HgEPgvBAQQpSTJkOODBWylZhz/NfGEzNYJUOQafjwAeWbohpoTQFhALz1WgNf+7+/gzdfPohmo404ShEERUiAcUer3AYwdFu1bdor3WPuzZRONPf1l1naR/koSCc7PFeOzo6F0kpCT4ijLc209PySRVMjnB5xz9e47c49eOChd2DdxjJUCCRJhjhpIlMxigNFJF6Kmk6QKgXRmycZT5Ws4TVymSTt9Ir3WtwdG9O+ec6sLf39oZX9E7fu3W7PIeAQcAjMDQKOjM8Njq4Wh4BDYA4RsMRIquzxlvc3YVK1eCTVTCyUJ/+RjIp2nzzKB07sS/HYD3+Gvc+9jv37jiONqE0eItQhknaMLInh+wqVchnNZtNEF3PBqNnLm80nB1R26ZzP3bAdWtlvIY9OTSJzapnFdqZDbQkJD4TB5qonIvpuRlCWyQqO7CEHI4PSGp4XoNVO0Gy3MTw8iChtIUYdmW5h/aZluOHmXbjl9uuxZv0QQs6dOBRcLpAyhjyVBZ2yrFMBqacheaByEIWUc1jkuPsk2T1z3pjdxZ1n7ZXePWt3t6Tbcwg4BBwCc42AI+NzjairzyHgEJhTBIREdXlSf91ZHg3cIV8dXphTK4U01rKQTwfA9Ang+Wfexk8f/yWef+olrvxDKShDpbnaik08JM7QmY1aj3gvSeeE4Mye06VIxjkIltzKvoiD56FEXaFwGSsTu23uSJGKBCW93spj+EiKersKHWTYc8PVuOf+W7Hnxo0olAGvwCgkk02TWuFpxgWaGSSha49XHZoZNDkXs+PA7KxsL+3Q6+4zxEmbmJU/KCbhlLGO4zqTiPOMrVcuu38cAg4Bh8CcI+DI+JxD6ip0CDgELgcCQp17SLl4YYVceULG4SugBUQtINDA8aNN/PDRn+CNVw9i/+tHMHGyhWXDaxC38kygDDzOE6Wb/hhPvJyzhE4ukPwp0bKejXjPdu5y4DNXbXa4tkgO2lpzIi7010xWDFocEENmTVBRijhtotGewPDyEJuuWoNtOzfhlttvxOZtI2hFkEQ9StZc8r4Ymhk26Q3PdStNvaoTBy5vQmSkLGlm8BKgOuTc2GgstGNoOLmIX+YB5aLQ48i4HVC3dQg4BC4hAo6MX0KwXVMOAYfA/CNgSblI3aX0plL1TkFrH572oLVCY7qJUqmIqJmhVQP2vXEEj33/5/jpj55CORyByvL4c5LsnrCUznK/nIwbMmfCViifR8I4059uSeT89/zStEAyLv3sdNQQYwMJT5IM5/HgnNCotsR4S/IeFSPOarj73ltw37tvxcZtq+CVABWADm5xSyuuw00zJEkk2TPFw607jeXTo+6xJePWgy2kXy5bck5caF0+aD0wsZhVXekj47boKfX03Ox2HQIOAYfAHCHgyPgcAemqcQg4BBYaAr1hJSYEgRYqIcy5f5Ve0dSENZBk8vuTx57Fk088h+eefR3FYBhxy0eaaPF812t1DJQqiKNEiD2VP2rVGsqlssglNmp1lEqlPkK+5Mi4UtJX7XkoFkuYnq5B+8xyqUQXXPsetKcQxRGa0RSK5RhhOcY1e7ZIGMr1t1wtQJOcp1x86cUSYpL1yFbaYJFM1gIYbfju0yUUunvYkS3s8cCfQqLPTsbzgKc8xKVbfTf8pXvO7TkEHAIOgblEwJHxuUTT1eUQcAgsIASsH3tmjHfuvc692FpCW3jOJAlSaQCuCJyeAF7a+xaefOJ5TE028NyzL4jHvBgOiJae1gFCv4CknSDwSNgTRO0IAYlpDwpLiYwzbpsfJk2iskk7jpB5Cl7gQftUSYngBRmSrA3PB266dTduu/NabLlqFUY3hMja7dxTzuhxTxZeZp5NeW9R65Jt67W2V4xzu3vdwGwnWnNAxuVZsFOB3J8+I9ylZ2jdrkPAIeAQmBMEHBmfExhdJQ4Bh8BCQUDoorC37oJCG9EsNCvTXKZp4rzFU56TL4ayZEoSzrRqEQqjAdAwvZoeS3Hi+BQef+xJHDowjn1vHMbJE1UsG1yBIPaRRal4hhkGk/XEN/PupUTG2R/xgMcJPE/DLwWYiCZRj6YxsqyMzVvXYPXaIdx7/63YvGW1xH97A5BYfaG2RYWo3jSecS6N5MsLqqT0sG16omUalQ+kmk3VRtRy7BPnyLhFwm0dAg6BxYmAI+OLc9yc1Q4Bh8BpEDAcjv+SguexJ514YTI/6ynvEnIpluuOJ3GMYiFEmkao1Wsid6h1KFEM9UmTTGZiDHjpxQN4+flXcfLQCRw7eEzCNQYHh9FqRh0tPhJJxRCXLts8jdXnfrrDW8/9lv6SAhBZNU93pyn9hcyRhJJ0NMDpeU5RLocYGz8hkoTbr7kKg2uGsf2aLdi+YyMGh4HKINBoNlEaCNBq1qShjP0nFgwIz+O/JYaczfTGg8vqUOqN8y0FDc3ZukyfWJhG81xuvphpETEdy997mJgj0438X/NM9J3KJ2XmnKlbTOgUykA73cch4BBwCMwnAo6Mzye6rm6HgEPgMiFgiNepHJhEzpK3UwldlzR3iRtDMvgfyWRKQpkZGUTpWAYEHnDkcB2vv7Yfhw+NYf++w3jpxTfEkz5cWoZCXEZBUSwbaEdtCWfhPvW27Udrs/gzjiJUyhWkaYI4ppoLc9aYcmlqFEXIDemdnu0jCytZt1LwPa6IBHgfP8xAKp8sM3VqhSiJJM47E8lBU057GmEQgsl52mkbLa+N6eY4li8fxI6dm7Bm3Qi2XbUeO3dtQXmwBC/oyXApCjRctMk3BWYilEfn50RaeLSxI/+3j+pKt/Kx6yllemsmTz2nL2C3r7WOTRdQkbvFIeAQcAjMGQKOjM8ZlK4ih4BDYGEhYInX7MT1XG0lGZ/1Q1Iuutdsh6EvAVg0iQzJP34MePuNozjw0iHsf+0tvPnmPlSnp1HOyXYSJ0hiUtUCAr+A0Geed6BRq4kHmWTakm4SaZJyWkLPfS62fYpZLM8ytCvJSbjcx0WXaTeUhg7qKInRSppIdQRqsHtceKk1Go0GBgYq2LJlK7bu2IJVW1Zh3ZbVWLHS6HlXBgDlJVCaaicx6PVmU6xf52o11jBDq2nRaTC0BWfZyujJbWYcuxOlWQq7Uw4Bh4BDYBEj4Mj4Ih48Z7pDwCEw/whYgtvfkiGXDLsgAbUf4cl0DKs8C3sKJE2gWADSBJiazDB28iSOHT2KfW++iaOHJ9GYDHHwrZOoTU9joFxGFqdCbLPEeMbZBuPQ08QksfE9XxZQzoyeoMOfi0gt6VbWE557ykm22ZcojtFo1FEZHMTazStQXqGwct0Itm7dgtWrV2N4ZBhDQwq8vUFN9iLJNwk+ECcJSmUPSRKjHdVFfpD99/xA1GWIQ2+M/MWQcYup2zoEHAIOgaWOgCPjS32EXf8cAg6Bi0LAeqf7KzHeXomB5nLDNBMpvzSNweyShUIAep/bzZYhsVEC6pCHYQGa5DrNI5tjH3EDKPpAqwGMnzQJH2vVOqanplCtVjE5OYlarYqpySnUarVumAsNMk5jcTzbXYa5lCtlDA0Po1KpIAxDlMtlIdmVygCKRYXR5QBKQBYDUcBEpJkQdS+PnIkixm1n8D0tMoV+aHqfRJF4z80i1USIN/dpQBcLE+4i5olc4fl7xfuxdkcOAYeAQ2BpI+DI+NIeX9c7h4BD4CIROD0ZtzIgDFcxiw6BBPDo0SZRNZ5to19NAm7Kk7QaKk++6wFxINrWlrLKlol17Incfku2eXNn/zR9s3X0Xp5RnVyimkmiU2T85oU74SAi6UdvPPthyLmJVzdqNLZu47mfxWCZK3QzZdrybusQcAg4BBwC/Qjkaeb6T7ojh4BDwCHgEDg3BHrDMngHCash0jPpr6y8NOHTLCOFY8Cj+kqXYFs1EEuO5SKvWxKeb2den9nazDAWc71bCY9ZR0fVRE6onvBuWiIlOuekzSxXYMlnC0xX32HyFxAbbvvntg4Bh4BD4EpFwJHxK3XkXb8dAg6Bi0Qg19frY8VUW+HXN95yacHQYInmECU/q6JibszpboeOWym9vmpnsdTUeuoFe1+vZ90Sb2HNsiA1p/w2iQ/ZdN4dsn5Tt02a1PtnguU6LZzauDvjEHAIOAQcAueNwP8Pfvm/AqD2WqYAAAAASUVORK5CYII=;" vertex="1" parent="1">
                    <mxGeometry x="171.5" y="50" width="437" height="164" as="geometry"/>
                </mxCell>
            </root>
        </mxGraphModel>
    </diagram>
</mxfile>